<svg version="1" xmlns="http://www.w3.org/2000/svg" width="1333.333" height="1333.333" viewBox="0 0 1000.000000 1000.000000"><path d="M404 239.2c-1.9 1.1-4.2 3-5.2 4.2-1 1.1-2.1 2.5-2.6 3.1-.4.5-.9 1.4-1 2-.5 2.3-2.5 8.1-3.2 9-.4.5-1.3 2.8-2 5s-1.6 4.2-2.1 4.5c-.4.3-1 1.7-1.3 3-.3 1.4-1.9 6.2-3.5 10.7-1.6 4.6-2.7 8.3-2.4 8.3.3 0-.2.9-1.2 2s-1.5 2-1.2 2c.3 0-.6 3.3-2 7.2-1.4 4-2.6 7.7-2.7 8.3-.1.5-.7 1.9-1.3 3-.6 1.1-1.1 2.3-1.2 2.7-.1.5-.1.9-.2 1 0 .2-.2 1-.4 1.8s-2.6 8-5.4 15.9c-2.8 7.9-4.8 14.7-4.6 15.2.3.4.2.9-.3 1.1-.6.2-5.7 13.6-6.6 17.3-.5 2.1-2.9 9-3.5 10-.6 1.1-1.1 2.9-1.5 5.7-.1.9-.8 2.3-1.5 3.2-.8.9-1.1 1.6-.7 1.6.3 0-.6 3-2 6.7-1.4 3.8-2.7 7.5-2.9 8.3-.2.8-2.9 8.7-6 17.5s-6.8 19.1-8.2 23c-1.3 3.8-2.7 8.1-2.9 9.5-.3 1.3-1 2.8-1.6 3.1-.6.4-.7 1.2-.4 1.8.4.6.3 1.1-.2 1.1s-.9.6-.9 1.3c0 .7-1.1 4.4-2.6 8.2-1.4 3.9-2.9 8.3-3.3 10-.4 1.6-1.2 3.6-1.7 4.4-.6.7-1.2 1.9-1.4 2.7-.5 2.4-1 3.8-2.1 6.7-.7 1.6-1.2 3.3-1.2 3.8s-.4.9-.8.9c-.5 0-.9.6-1 1.2-.1 2-.8 4-2.2 7.3-.7 1.6-1.4 3.6-1.6 4.3-.6 3.2-5.8 14.2-6.6 14.2-.5 0-.7.4-.4.9.5.8-6.1 16.8-7.4 18.1-.3.3-.6 1.1-.8 1.9-.7 3.1-16.8 34.6-18.9 36.8-.6.7-1.5 2.2-1.8 3.3-.3 1.1-1.1 2-1.6 2s-.9.5-.9 1.1c0 1.7-7.1 9.9-8.5 9.9-1.2 0-2.3-2.8-3.1-8-.4-2.7-.9-5.7-1.9-13.5-.9-6.2-.9-48.2 0-62.5.3-5.8.8-14.1 1.1-18.5.2-4.4.6-10.8.7-14.3.1-3.4.4-6.2.7-6.2.3 0 .6-2.8.7-6.3.1-3.4.4-8 .8-10.2.3-2.2.7-7.2.9-11 .2-3.9.5-7 .6-7 .1 0 .4-2 .6-4.5.4-5.9 1.2-14.2 2.1-21 .4-3 .7-7 .7-8.8 0-1.7.3-3.2.6-3.2s.6-2.4.6-5.3c.1-4.9 1-14.3 2-21.2.5-3.5 1.2-11.8 1.8-23.2.2-4.5.7-8.7 1-9.2.4-.5.2-1.2-.3-1.6-.6-.3-.7-1.6-.3-2.8 1.5-4.3-.3-39.4-2.3-43.9-.4-.9-.4-2.2 0-2.8.3-.5.1-1-.6-1s-1-.3-.7-.6c.8-.7-3.5-9.9-5.7-12.4-3.8-4.2-10.5-5.4-19-3.6-1.1.3-2.2.5-2.5.5-1.6.3-6.3 5.6-11 12.6-3 4.4-5.7 8.2-6 8.5-1.3 1.2-7 13-6.3 13 .4 0 0 .5-1 1.1-.9.6-1.5 1.4-1.2 2 .4.5.1.9-.6.9s-1 .3-.7.6c.4.3-.6 3.3-2.1 6.7-3.9 8.7-4.4 10.1-4.3 10.9.1.5-.2.8-.8.8-.6 0-.9.3-.8.7.2 1.3-1.4 6.3-2.1 6.3-.4 0-.7.8-.8 1.7-.1 1-.7 3.1-1.3 4.8-.6 1.6-1.1 3.1-1.1 3.3.1.1-.6 1.6-1.4 3.2-.8 1.6-1.5 3.2-1.5 3.5.1 2.8-.2 3.4-1.4 2.9-.8-.3-1.2-1.6-.9-3.2.6-5 .6-17.7-.1-22.5-1.3-9.3-6.1-13.2-16.3-13.2-3.5-.1-6.3.3-6.3.7 0 .4-.7.8-1.5.8-2.5 0-5.5 4.1-10.6 14.6-2.7 5.5-4.9 10.3-4.9 10.7 0 .3-1.4 3.6-3.1 7.4-1.7 3.7-3.9 8.7-5 11-1 2.4-3.1 7.3-4.6 11-1.4 3.8-2.9 7.2-3.3 7.8-.9 1.2-2.4 6.7-2.2 7.7.1.5-.2.8-.8.8-.5 0-1 .6-1 1.4 0 .8-.5 2.7-1.2 4.3-.6 1.5-1.1 3.1-1 3.5.1.5-.3.8-.9.8-.5 0-.8.3-.5.8.2.4-.4 2.5-1.4 4.7-1 2.2-1.6 4.3-1.4 4.7.3.5 0 .8-.6.8s-.9.4-.5.9c.3.5.1 1.2-.4 1.5-.8.5-2.2 6-2 8 0 .5-.3 1.2-.8 1.5-1 .7-3.4 6.8-3.8 9.8-.2 1.2-.7 2.8-1.1 3.5-.5.7-.9 1.6-1 2-.1.5-.3 1-.4 1.3-.1.3-.3.8-.4 1.2-.1.5-2.1 6.6-4.3 13.8-4.7 14.8-5.3 16.7-5.3 17.8 0 .4-.7 2.4-1.5 4.4-.8 2-1.3 3.8-1 4.1.3.3.1 1-.4 1.6-.6.7-1.2 2.3-1.5 3.6-.2 1.4-.7 3.2-1 4-.3.8-.8 2.6-1 4-.3 1.4-1 4.3-1.7 6.5-.6 2.2-1.1 4.8-1.2 5.7-.1 1-.4 1.8-.8 1.8-.3 0-.5 1-.5 2.2.1 1.3-.1 2.7-.5 3.3-.4.5-1 2.7-1.3 4.9-.4 2.1-.9 4.2-1.2 4.7-.3.5-.6 2.6-.8 4.7-.1 2.1-.5 4.3-.8 4.8-1.2 2.1-3.6 18.3-4.2 28.3-.5 8.7 3.1 13.9 10.3 14.8 2.7.4 4.1.2 4.1-.6 0-.6.3-1 .8-1 3.8.6 6.7-4.4 7.6-13.1.5-4.1.9-6.3 3.6-18.5 1.1-5 2.3-10.1 2.6-11.5.4-2.1 2.3-9.2 2.9-11 .1-.3.5-2.4 1-4.8.4-2.3 1.1-4.2 1.4-4.2.4 0 .7-.8.8-1.8.1-1 1.4-6 2.8-11.1 1.5-5.1 2.8-9.8 3-10.5.1-.6.5-1.8.8-2.6.3-.8 1.5-4.9 2.7-9 1.1-4.1 2.5-8.4 3-9.5.7-1.6 8-23.5 8.5-25.5.2-.6 1.2-3.3 3-8 1.9-4.9 2.9-8.4 2.7-9.3-.1-.4.2-.7.6-.7.5 0 1.4-1.8 2.1-3.9.6-2.2 1.9-5.6 2.8-7.8.9-2.1 1.7-4 1.8-4.3.1-.3.5-1.4.9-2.5.5-1.1 1-2.6 1.2-3.3.2-.6.8-1.2 1.3-1.2 1.1 0 .7 5-.9 12.4-.5 2.2-.7 4.3-.4 4.7.2.4-.2 1-.8 1.2-1 .4-1 .6 0 .6.9.1 1 .6.3 1.8-.5 1-1.2 4.7-1.7 8.3-.8 6.6-1 7.6-1.4 8.5-.1.3-.3 1.3-.4 2.2-.3 2.4-1.6 11.1-2.3 14.8-.3 1.6-.5 3.8-.5 4.7 0 1-.2 1.8-.6 1.8-.4 0-.8 1.7-.8 3.8-.1 2-.7 6.4-1.4 9.7-.6 3.3-1.3 7.6-1.5 9.5-.2 1.9-.4 3.5-.5 3.5-.1 0-.4 1.6-.5 3.5-.5 4.6-2.2 15.5-2.5 15.5-.1 0-.3 1.8-.5 4s-.6 5.6-1 7.5c-.3 1.9-.8 5.7-1.1 8.5-.3 2.7-.7 6.1-1 7.5-.3 1.4-.7 4.5-.9 7-.2 2.5-.6 6.5-.9 9-1.2 11.6-2 22.8-1.8 25.8 0 2.3-.3 3-1.1 2.5-.9-.5-.9-.3 0 .9.7.8 1 1.7.7 2-.5.5-.9 9.4-1.7 32.5-.1 2.9.2 5.3.7 5.3.4 0 .3.6-.3 1.3-.6.8-.8 1.7-.4 2.1.4.3.7 3.5.8 6.9 0 3.4.3 6.6.6 7.2.3.5.7 3.2.8 6 .1 2.8 1.2 7 2.5 9.5 2 4.1 2.6 4.5 6.2 4.7 7.6.5 10.8-5.2 16-28.2 1.3-6.1 2.7-11.9 2.9-13 .3-1.1.7-3.7 1-5.9.3-2.1.7-4.1 1-4.5.5-.9 1.5-6.3 2-10.6.2-1.7.7-4.4 1-6 .4-1.7.8-3.7 1-4.5.2-.8.4-1.5.5-1.5.1 0 .3-2.1.5-4.7s.8-5.5 1.3-6.5.8-2.6.7-3.6c-.2-.9.2-1.7.8-1.7.8 0 .8-.3-.1-1.2-.7-.7-.8-1.7-.2-2.8.5-.9 1.1-3 1.4-4.6.2-1.6.5-2.9.6-2.9.2 0 .7-2.5 2.6-14 .9-5.6 1.1-6.4 1.3-6.8.2-.1.4-1.3.6-2.7.6-3.3 1-5.1 1.8-7.5.3-1.1.8-3.6 1.1-5.5.3-1.9.8-4.6 1.1-6 .2-1.4.9-4.8 1.5-7.5.5-2.8 1.2-6.4 1.5-8 .4-1.7.8-3.9 1-5 1.2-6.2 1.7-8.5 3-13.8.8-3.2 1.4-6.1 1.3-6.5-.1-.4.1-1.4.5-2.2.3-.8 1.1-3.8 1.7-6.5 1.2-5.9 1.6-7.5 3-13.6.6-2.6 1.2-5.3 1.3-6 .2-.8.6-2 1-2.7.5-.6.6-1.2.3-1.2s.1-1.7.8-3.8c.7-2 1.1-4.3.9-5-.3-.6-.1-1.2.4-1.2s1-1 1.1-2.3c.2-2.9.8-5.8 1.6-8 1.6-4.4 2-6.1 3-11.2.1-.6.5-1.6.9-2.3.5-.6.6-1.2.3-1.2s.2-1.6 1-3.5 1.2-3.5.9-3.5c-.3 0 .1-1.2.9-2.8.8-1.5 1.6-4.1 1.9-5.8.3-1.7 1-4.1 1.6-5.2.6-1.2 1-2.5.9-2.9-.1-.4.3-1.8 1-2.9.6-1.2.8-2.4.5-2.8-.3-.3-.2-.6.3-.6s1-1 1.1-2.3c0-1.2.7-3.6 1.4-5.2.6-1.7 1.3-3.7 1.5-4.5.2-.8.9-3 1.8-5 1.7-4 2.6-6.8 2.5-7.6 0-.3.7-1.6 1.5-3 .9-1.3 1.4-2.4 1.1-2.4-.3 0 0-1 .7-2.3.7-1.2 1.3-2.4 1.4-2.7.2-.9 1.3-3.5 7-16.8 2.2-5.1 3.8-5 4.2.4.8 10.7.1 85.4-.8 85.4-.3 0-.6 3.9-.7 8.8-.1 4.8-.5 12.7-.8 17.7-.3 4.9-.7 11.5-.8 14.5-.1 3-.6 5.8-1.2 6.2-.6.5-.5.8.3.8s1 .5.6 1.2-.9 5.1-1 9.8c-.3 16.7-1.7 32.5-2.8 33.9-.8 1.1-.8 1.3.1.8.8-.5 1 .7.6 4.5-.3 2.9-.6 9.7-.7 15 0 6-.4 9.8-1.1 9.8-.6 0-.7.3 0 .8.6.4 1.1 8.2 1.2 19.2.1 17.2.7 25.8 1.9 32 .3 1.4.7 3.7.9 5.2.4 2.8 2.3 10.1 3.3 12.8.3.8.6 1.7.6 2 1 3.7 8.5 12 11.1 12 .8 0 1.5.4 1.5.9 0 .8 7 .7 11-.1 7.6-1.6 21.4-18 33.1-39.3 3.4-6.3 15.3-30.1 18.5-37 1-2.2 2.1-4.2 2.5-4.5.4-.3 1-1.8 1.3-3.4.3-1.6 1-3.2 1.6-3.6.7-.4 1.1-.9.9-1.1-.1-.2.8-2.7 2.1-5.4 1.3-2.8 2.4-5.2 2.5-5.5.4-1.2 2.5-5.9 4.8-11 5.8-12.6 7.6-17 6.9-17-.4 0 0-.5.8-1s1.5-1.3 1.6-1.7c.5-3.8 1.8-7.3 2.7-7.3.6 0 .8-.3.4-.6-.3-.3.5-2.6 1.9-5.1 1.3-2.5 2.1-4.9 1.8-5.4-.3-.5-.1-.9.3-.9.5 0 1.7-2.4 2.8-5.3 1-2.8 2.2-5.8 2.8-6.5.5-.6.6-1.2.2-1.2-.4 0-.1-1 .7-2.3.8-1.2 2.2-4.5 3.2-7.2 1-2.8 2.5-6.6 3.4-8.5.9-1.9 1.7-3.8 1.8-4.3.1-.4.3-.9.4-1.2.1-.3.3-.8.5-1.3.2-1 1.4-3.8 3.6-9 1-2.3 1.6-4.2 1.3-4.2-.3 0 .2-1.2 1-2.8 1.4-2.5 5.1-12 5.1-13.2 0-.3.3-1 .6-1.5.5-.8 3-7.6 3.4-9.5.1-.3.7-1.8 1.3-3.3.7-1.6 1.2-3.3 1.2-3.8s.6-.9 1.3-.9c1.1 0 1.2 1 .7 4.2-.3 2.4-.5 5.5-.5 7 .1 1.6-.2 2.8-.8 2.8-.5 0-.5.6.2 1.3.6.8.8 1.7.4 2.1-.4.3-.8 2.1-.9 3.9-.1 1.7-.5 8.1-.9 14.2-1.4 22.1-1.6 26.5-1.8 53-.2 14.8 0 28.2.4 29.7.5 1.9.4 2.8-.4 2.8s-.8.3-.2.8c.6.4 1 2 1.1 3.7.2 5.8 1.6 22 1.9 22.6.3.4 1.1 5.4 1.9 12.4.2 1.1.6 3.1 1 4.5.3 1.4.8 3.6 1 5 .3 1.4.5 2.5.6 2.5.1 0 .3.8.5 1.9.2 1 .9 4.1 1.6 7 .7 2.8 1.2 5.4 1.1 5.8-.1.5.3.8.8.8.6 0 1 .9 1 2 0 1 .9 4.2 2 7 1.1 2.7 1.6 5 1.2 5-.4 0-.2.4.4.8.6.4 2.5 3.6 4.3 7.2 5.3 10.7 7 13.5 10.6 17.6 1.1 1.2 2.7 3.1 3.6 4.1 2.8 3.3 9.8 9.3 10.7 9.3.5 0 1.5.7 2.2 1.5.7.8 1.6 1.2 2.1.9.5-.3.9-.2.9.3 0 .8 5.2 2.9 10 4 5.1 1.1 18.3 1 22.4-.2 9.7-2.9 20.6-10.3 20.6-13.9 0-.7 1.1-2.5 2.5-4s2.5-3.1 2.5-3.7c0-.5.4-.9.8-.9.8 0 3.2-4.3 3.2-5.7 0-.3-.6 0-1.4.6-.8.6-1.8 1.1-2.2 1-.5-.2-2 .2-3.4.8-4.8 2.1-6.5 2.5-11 2.7-2.5.1-5 .5-5.7.9-3.9 2.4-21.7 2.8-26.8.5-4.7-2.2-9.5-5.2-9.5-6.1 0-.4-1.3-2-2.8-3.5-3.6-3.5-8.5-10.2-7.5-10.2.4 0 .3-.4-.2-.8-2.8-1.9-13.1-29.2-12.1-31.8.3-.8.2-1.4-.2-1.4-.5 0-1.4-2.8-2.1-6.3-1.7-8.7-1.8-9.5-2.6-16.2-.4-3.3-.9-7.1-1.1-8.5-1.3-8.1-1.7-20.5-1.7-44 0-21.8.7-49.5 1.3-49.5.2 0 .6-4.3 1.4-14 1.3-16.9 3.2-33.4 4.6-39.7.4-2 .6-4.8.5-6.2-.2-1.4 0-2.6.5-2.6.4 0 .7-1.2.8-2.8 0-1.5.1-2.9.2-3.2.3-.9.8-3.5 1.5-8 .3-2.5.8-5.9 1.1-7.5.3-1.7.7-4.1.9-5.5.2-1.4.9-4.8 1.5-7.5 1-4.5 1.3-6.3 2.4-13 .2-1.1.6-3.1 1-4.5.6-2.7 1.5-7 2.1-11 .4-2.3 1.2-5.7 2.9-13 1-3.9 1.9-9.3 2-11.3 0-.9.3-1.7.6-1.7.4 0 .7-.6.7-1.3 0-.6.4-3 .8-5.2s.8-5.1 1-6.5c.2-1.4.4-2.5.5-2.5.2 0 1-3.7 1.1-5.5.2-2.5-1-7.3-2.1-8.4-.5-.5-1-1.6-1-2.4 0-1.5-5.3-6.3-8.4-7.5-4.3-1.7-9.1-1.5-12.6.5z"/><path d="M571 355.9c-.8.5-1.7.8-2 .6-.3-.2-3.1 2-6.2 4.8-4 3.8-6.6 7.3-9.2 12.9-2 4.3-3.6 8-3.6 8.3 0 .3-.7 1.9-1.6 3.6-.8 1.7-1.7 3.8-1.9 4.7-.2 1-1.4 4.9-2.8 8.9s-2.2 7.4-1.9 7.7c.3.4.1.6-.4.6s-1.1.8-1.2 1.7c-.2 2.2-1 5.8-1.2 5.8-.1 0-.3.7-.6 1.5-2.8 10.8-4.6 17.9-4.9 19.5-.8 4.3-1.6 7.8-3.6 16.2-1.1 4.7-2.1 9.4-2.2 10.5-.1 1-.4 1.8-.7 1.8-.3 0-.5 1-.6 2.2-.2 3.7-3.1 19.8-4.2 22.8-.3.8-.6 3-.8 4.9-.2 1.9-.6 4.1-1 5-.3.9-.7 3.2-.9 5.1-.2 1.9-.5 4.4-.8 5.5-.2 1.1-.8 4-1.2 6.5-.4 2.5-.9 5.4-1.2 6.5-.3 1.1-.6 3.1-.8 4.5-.2 1.4-.4 2.5-.5 2.5-.1 0-.4 1.1-.6 2.5-.8 5.5-1.3 8.7-1.9 12-.4 1.9-.9 4.5-1.1 5.7-.6 3.2-1.4 7.5-1.9 9.3-.2.8-.4 1.9-.4 2.3-.3 2.5-11-7.3-11.1-10.1 0-.6-.4-1.2-.8-1.2-1.1 0-9.2-17.6-9.7-21-.1-.8-1-4.2-1.9-7.5-.9-3.3-1.9-7.1-2.2-8.5-.2-1.4-.7-3.1-1-3.9-.2-.8-.7-3-1-5-.3-2-.7-4.6-1-5.9-.2-1.2-.6-3.2-.8-4.5-.8-3.8-2.8-18-3.1-21.7-.2-1.9-.4-3.5-.5-3.5-.2 0-.5-2.4-1.5-14-.3-4.4-1.3-9.4-2.2-11.3-1.7-3.5-5.1-6.5-6.5-5.6-.4.3-.8.1-.8-.5 0-.5-1-.8-2.3-.7-4.1.5-8 3-10 6.6-1.7 3-1.8 4.6-1.2 13 .8 10.5 1.2 15.5 1.5 15.5.1 0 .3 1.8.5 4s.6 5.6.9 7.5c.3 1.9.8 5.6 1.1 8.2.4 2.6 1 6 1.4 7.5.4 1.6.7 3.7.7 4.8-.1 1.1.2 2.2.5 2.5.4.3.9 2.6 1.2 5.3.3 2.6.9 5.2 1.2 5.8.4.5.8 2 .9 3.2.3 2.5 4.1 15.6 5.9 20.2.7 1.6 1.2 3.2 1.3 3.5 0 .3 1.1 2.7 2.4 5.5 1.3 2.7 2.3 5.3 2.2 5.7-.1.5.2.8.8.8.5 0 1 .7 1 1.5s.3 1.5.8 1.5c.4 0 1.3 1.2 1.9 2.7 2.2 4.9 10.1 13.5 16.3 17.9 2.5 1.8 4.7 3.2 5 3.3.3.1 1.5.4 2.7.7 1.7.5 2.1 1.2 1.8 3.7-.5 4-1.5 8.9-2 9.7-.6 1-1.8 7.3-1.7 9.2 0 1-.2 1.8-.6 1.8-.4 0-.8.8-.9 1.7-.1 2.2-1.2 7.1-2 9.8-.8 2.5-1.1 3.3-1.7 6.5-.3 1.4-1.2 4.7-2 7.4s-1.3 5.3-1 5.8c.3.4.1.8-.4.8-.8 0-1.6 2.5-2.6 8-.1.3-.5 1.1-.9 1.7-.5.7-.5 1.7-.2 2.3.3.5.1 1-.5 1s-.9.4-.6.8c.2.4.1 1.4-.4 2.1-.6 1.1-1.4.8-3.4-1.3-1.5-1.4-3.1-2.6-3.5-2.6-.4 0-1.6-.9-2.6-2s-2.4-2-3.1-2c-.7 0-1.4-.5-1.6-1.1-.2-.5-1-1.1-1.8-1.2-.8-.2-2.1-.6-2.7-1-.7-.5-1.3-.6-1.3-.2 0 .3-1.5-.1-3.2-.8-3.7-1.5-4.8-1.5-6.5-.4-.7.5-1.3.4-1.3-.2 0-.6-1.2-.6-3.2-.1-1.8.5-4.6 1.2-6.3 1.5-8 1.6-12.1 3.4-14.8 6.4-1.4 1.6-3.1 3.3-3.9 3.8-1.6 1-8.3 13.7-9.3 17.8-.5 1.6-1 3.7-1.2 4.5-1.3 5-1.7 10-1.7 22 0 14.2.4 17.4 3 28 .3 1.4.8 4 1.1 5.8.3 1.8.9 3.5 1.4 3.8.5.3.9 1.4.9 2.5 0 1 .5 1.9 1.1 1.9.5 0 .8.4.4.9-1.5 2.5 10.6 18.1 14.1 18.1.8 0 1.4.4 1.4 1 0 .5.7 1 1.5 1s1.5.5 1.5 1.1c0 .8.4.8 1.3.1.8-.7 1.8-.7 2.7-.2.9.5 1.9.5 2.6-.1.8-.6 1.4-.6 1.8 0 1 1.6 10.2-3.7 14.8-8.5 6.9-7.3 7.7-8.2 7.2-8.7-.2-.2.2-1 1.1-1.7.8-.7 1.5-1.8 1.5-2.5 0-.8.3-1.5.8-1.7 1-.4 6.2-10.3 6.2-11.9 0-.7.6-2 1.4-2.8.8-.9 1.6-2.3 1.8-3.1.6-2.7 3.5-7.5 4.5-7.5.6 0 3.2 2.9 5.9 6.5s5.7 7.3 6.8 8.3c1 .9 1.6 1.7 1.3 1.7-.6 0 11.8 12.5 15.1 15.2 5.5 4.4 13.2 9 17.7 10.4 2.7.9 5.6 2.1 6.3 2.7.6.5 1.2.5 1.2 0 0-.4 2.2-.8 5-.7 6.4.1 21-4.6 21-6.8 0-.4.6-.8 1.3-.8 2.1 0 12.1-8.7 27.6-24 11.3-11.1 18.5-17.5 22-19.4.9-.5 1.8-1.2 2.1-1.6.7-.8 7.8-4.1 9.9-4.5.9-.2 1.6-.4 1.6-.5 0-1.7 35.8-3.3 42.1-2 1.7.4 3.9.3 4.8-.2.9-.5 1.6-.5 1.6-.1 0 2.2 68.8 2.1 70.2-.1.5-.8.8-.7.8.2 0 .7.4 1.1.8.8.4-.2 4.6-.7 9.2-1.1 4.7-.3 9.6-.8 11-1 3.1-.5 15.3-1.7 19.7-1.9 1.8 0 3.3-.3 3.3-.6s1.7-.6 3.8-.7c3.7-.2 8.3-.7 15.7-1.8 2.2-.4 5.6-.8 7.6-.9 2-.2 4-.5 4.5-.8.5-.3 1.9-.4 3.2-.3 1.2.1 2.2-.1 2.2-.5s1.8-.6 4-.5c2.2.1 4-.1 4-.5 0-.3 1.9-.7 4.2-.9 2.3-.1 4.5-.5 4.8-.9.3-.4 1.9-.7 3.5-.6 1.7 0 3.6-.5 4.4-1 .8-.6 1.5-.9 1.5-.8.1.2 2.1.1 4.6-.3 2.5-.3 5.2-.7 6-.8.8-.2 2-.5 2.5-.8.6-.3 2-.4 3.3-.3 1.2 0 2.2-.3 2.2-.9 0-.6.3-.8.6-.4.3.3 2.5 0 4.9-.8 2.4-.7 4.6-1.1 4.9-.8.2.3 1.1.1 1.8-.3.7-.5 1.8-.9 2.3-1 3-.6 6.4-1.4 9.3-2.3 1.8-.5 3.5-1 3.7-1 .3-.1.6-.1.8-.2.1-.1 1.3-.2 2.7-.4 11-1.2 17-2.1 22.5-3.1 1.7-.3 7.1-2.5 12-4.9 5-2.3 12.3-5.2 16.3-6.5 4-1.2 7-2.5 6.7-2.9-.6-.5-2.3-.7-13.5-1.4-2.5-.1-5.1-.6-5.7-1-.7-.5-1.3-.6-1.3-.3s-2-.1-4.4-.8c-7-2.1-32.1-.8-33.8 1.8-.5.8-.8.8-.8 0 0-.6-1-1-2.2-.8-1.3.1-2.3.3-2.3.4 0 .1-1 .3-2.2.4-1.3.2-2.3-.1-2.3-.6s-.5-.6-1.1-.2c-.6.3-5.9.8-11.7.9-5.9.2-13.2.6-16.2.9-3 .4-8 .9-11 1.2-3 .3-6.8.8-8.5 1-1.6.2-5.2.6-8 .9-2.7.2-6.6.6-8.5.9-1.9.3-6 .8-9 1.2-7 .8-8.8 1.1-10 1.9-.6.3-1 .1-1-.5s-.5-.8-1.2-.3c-.7.4-2.2.8-3.3.9-2 .1-10.7 1.2-15.5 1.9-3.2.5-13.7 1.6-17.5 2-1.6.1-6.6.6-11 1s-9.8.9-12 .9c-2.2.1-4.5.4-5 .7-1.4.7-54.8.3-67-.6-18.4-1.2-34.7-.8-46.5 1-1.9.3-4.4.7-5.5.9-3.1.5-11.8 3.6-13.2 4.8-.7.6-1.3.7-1.3.3 0-.5-.9 0-2 1s-2 1.4-2 .9c0-.5-.4-.5-.8.1-.4.5-3.4 2.8-6.7 5-7.6 5.1-10.8 7.9-28 25-15.8 15.7-17.5 17.2-22.6 19.9-4 2.1-10.6 1.6-11.6-1-.3-.7-.9-1.4-1.5-1.4-.9 0-5.3-4.4-8.8-8.7-.8-1-3.2-3.9-5.2-6.5-2.1-2.5-3.8-4.9-3.8-5.3 0-.3-.6-1.3-1.2-2-2.7-3-3.8-4.4-3.8-5 0-.3-.5-1.1-1-1.8-.6-.7-3.3-4.4-6-8.2-2.7-3.9-5.4-7.5-6-8.2-.5-.7-1-1.6-1-2.2 0-.5-.6-1.2-1.2-1.4-.9-.4-.9-.8-.3-1.4.6-.4 1.1-1.7 1.3-2.8.1-1.1.4-2.5.6-3 .6-2.1 3-10.1 3.2-11 .2-.6 1-3.5 1.9-6.5.9-3 1.8-6.2 2-7 .2-.8.4-1.5.5-1.5.2 0 .4-1 1.3-5 .3-1.1 1.5-5.8 2.7-10.5 1.2-4.7 2.4-9.2 2.5-10 .2-.8.4-1.5.5-1.5.1 0 .3-.8.5-1.9.2-1 .9-4 1.5-6.6.6-2.6 1.3-5.6 1.5-6.6.2-1.1.4-2 .5-2.2.2-.1.3-1 .4-2 .1-.9.5-2.6.9-3.7.3-1.1.9-3.5 1.2-5.3.3-1.9.7-3.9.8-4.5.1-.7 2.5-2.7 5.2-4.6 2.8-1.9 5.5-4 6.1-4.5.6-.6 2.4-2.3 4-3.7 1.6-1.5 3.8-3.9 4.9-5.3 1.1-1.5 2.7-3.4 3.6-4.4 5.3-5.8 21.4-35.6 23.4-43.7.2-.6.9-2.4 1.6-4 1.4-3.4 1.3-3 2.3-7.3.4-1.7 1.2-3.2 1.7-3.2.6 0 .8-.4.5-.8-.3-.5.2-3.1 1-5.8.9-2.7 1.8-6 2-7.4.3-1.4.7-3.3 1-4.2.5-1.6.6-2.4 2.4-10.8.5-2.5 1.1-5.5 1.4-6.6.2-1.2.7-3.8 1-5.9.4-2 .9-4.1 1.2-4.6.3-.5-.1-.9-.8-.9-1 0-1-.2 0-.9.8-.4 1.3-1.1 1.2-1.5-.2-.5 1.3-10.9 2.6-17.6.2-.8.6-3.8.9-6.5.4-2.8.9-6.4 1.2-8 .9-5.1 1.1-35.7.3-38.6-.5-1.6-1-4.5-1.1-6.6-.1-2.1-.5-4.3-.8-4.8-.3-.6-.7-1.9-.8-3-.2-1.1-.8-2.2-1.3-2.3-.6-.2-1-.8-1-1.4 0-1.7-4.8-7.6-7.3-8.9-2.9-1.6-8.9-2.2-10.7-1zm-3.5 69.3c-.3 3.5-1 8.5-1.5 11.3-.5 2.7-1.2 7-1.5 9.5-.3 2.5-1.2 8.3-2 13-.8 4.7-1.7 10.3-2.1 12.5-.3 2.2-1 6-1.6 8.5-.5 2.5-1.1 5.2-1.3 6-3.6 17.1-16.1 48.9-19.2 49-1.6 0-1.3-1.4 4.4-25 2.4-10.2 4.6-19.2 4.8-20 .2-.8 1.5-5.8 2.9-11.1s2.8-11.1 3.1-12.9c.3-1.8.8-3.6 1-4 .2-.3.6-1.7.9-3.1.4-2 5.4-20.4 8.7-31.9.6-1.9 1.3-4.5 1.6-5.8.3-1.2 1-2.2 1.5-2.2.6 0 .7 2.5.3 6.2zM458.3 677.7c2.2 1.5 6.4 5.6 9.3 9 4.5 5.3 5.2 6.7 4.5 8.6-7.2 18.3-21.1 43.7-24 43.7-2.9 0-6.9-20.2-6.5-32.8.3-9.7 2.3-22.2 3.6-22.2.5 0 .7-.4.4-.8-.9-1.5 3.2-7 5.6-7.5 1.3-.2 2.5-.5 2.7-.6.3 0 2.3 1.1 4.4 2.6z"/></svg>