<?xml version="1.0" encoding="UTF-8" ?>
<!DOCTYPE svg PUBLIC "-//W3C//DTD SVG 1.1//EN" "http://www.w3.org/Graphics/SVG/1.1/DTD/svg11.dtd">
<svg width="931pt" height="931pt" viewBox="0 0 931 931" version="1.1" xmlns="http://www.w3.org/2000/svg">
<g id="#ffffffff">
<path fill="#ffffff" opacity="1.00" d=" M 10.15 153.07 C 62.45 153.15 114.76 152.87 167.06 153.23 C 168.57 154.14 170.33 154.01 172.01 154.02 C 176.37 153.97 180.72 154.13 185.08 154.26 C 188.24 155.58 191.78 154.96 195.12 155.30 C 197.28 156.20 199.75 155.82 201.85 156.94 C 204.50 157.13 207.33 156.64 209.78 157.92 C 211.56 158.03 213.35 158.14 215.13 158.28 C 216.79 159.00 218.59 159.15 220.36 159.40 C 222.11 159.91 223.91 160.21 225.63 160.82 C 227.36 161.06 229.16 161.08 230.75 161.91 C 231.93 162.04 233.11 162.17 234.30 162.29 C 235.70 162.85 237.13 163.32 238.53 163.87 C 239.44 164.02 240.36 164.17 241.27 164.33 C 242.60 164.82 244.00 165.11 245.38 165.41 C 246.45 165.78 247.52 166.10 248.62 166.38 C 249.62 166.88 250.62 167.40 251.61 167.94 C 252.45 168.02 253.30 168.10 254.16 168.19 C 255.22 168.66 256.31 169.07 257.42 169.43 C 258.46 169.79 259.52 170.10 260.59 170.37 C 261.58 170.87 262.56 171.38 263.53 171.92 C 263.95 172.00 264.80 172.16 265.22 172.24 C 266.32 172.69 267.44 173.08 268.58 173.41 C 269.92 174.07 271.27 174.74 272.61 175.43 C 273.55 175.77 274.51 176.07 275.48 176.35 C 275.99 176.59 277.00 177.08 277.51 177.32 C 278.85 178.02 280.19 178.71 281.55 179.40 C 282.83 179.89 284.15 180.31 285.46 180.76 C 286.79 181.59 288.04 182.52 289.40 183.31 C 292.50 184.80 295.53 186.44 298.67 187.88 C 303.21 191.59 308.65 194.00 313.17 197.76 C 314.42 198.88 315.95 199.57 317.41 200.37 C 318.90 202.68 321.85 203.44 323.45 205.66 C 331.69 211.60 338.43 219.24 345.66 226.33 C 346.72 227.36 347.71 228.49 348.35 229.85 C 355.65 237.61 361.40 246.66 367.18 255.58 C 368.04 257.32 369.18 258.90 370.21 260.55 C 370.69 261.58 371.18 262.61 371.67 263.64 C 372.50 265.01 373.46 266.30 374.34 267.65 C 374.60 268.57 374.86 269.51 375.10 270.46 C 376.39 271.99 377.31 273.77 378.21 275.55 C 379.02 278.30 380.28 280.87 381.57 283.42 C 381.91 284.61 382.35 285.76 382.86 286.89 C 382.90 287.33 382.99 288.19 383.04 288.63 C 383.42 289.00 384.17 289.76 384.55 290.14 C 384.83 291.30 385.16 292.45 385.55 293.59 C 385.91 294.67 386.32 295.73 386.78 296.78 C 386.85 297.20 387.00 298.06 387.08 298.48 C 387.59 299.44 388.09 300.41 388.59 301.39 C 388.87 302.47 389.20 303.54 389.58 304.61 C 389.88 305.99 390.16 307.38 390.68 308.71 C 390.80 309.16 391.04 310.06 391.16 310.50 C 391.67 311.83 392.09 313.20 392.60 314.54 C 392.87 315.96 393.14 317.38 393.68 318.74 C 393.83 319.63 393.97 320.53 394.12 321.44 C 394.66 322.80 395.11 324.21 395.63 325.59 C 395.82 327.34 395.98 329.12 396.67 330.77 C 396.81 331.94 396.96 333.12 397.12 334.30 C 397.87 335.90 397.93 337.67 398.17 339.40 C 398.75 341.17 399.07 343.01 399.67 344.78 C 399.86 347.15 399.67 349.66 400.73 351.88 C 400.85 353.98 400.96 356.09 401.07 358.20 C 402.53 361.29 401.79 364.82 402.03 368.12 C 403.47 370.50 402.51 373.45 403.72 375.91 C 403.81 381.28 403.96 386.65 404.07 392.01 C 404.24 392.49 404.59 393.45 404.76 393.93 C 404.90 406.31 404.90 418.69 404.75 431.07 C 403.19 436.52 404.23 442.44 403.73 448.08 C 402.33 450.84 403.65 454.16 402.04 456.86 C 402.00 459.60 401.97 462.34 401.78 465.07 C 400.53 467.56 401.02 470.43 400.73 473.11 C 399.67 475.33 399.87 477.83 399.67 480.22 C 399.08 481.99 398.76 483.83 398.17 485.61 C 397.94 487.32 397.89 489.11 397.13 490.71 C 396.97 491.88 396.83 493.06 396.68 494.25 C 395.96 495.87 395.86 497.66 395.64 499.41 C 395.12 500.81 394.66 502.24 394.10 503.64 C 393.96 504.82 393.83 506.02 393.70 507.22 C 392.87 509.59 392.37 512.06 391.59 514.45 C 391.22 515.43 390.89 516.42 390.60 517.43 C 390.22 518.43 389.87 519.43 389.53 520.45 C 389.10 521.80 388.84 523.21 388.61 524.63 C 388.10 525.58 387.58 526.53 387.07 527.49 C 386.99 527.93 386.82 528.82 386.73 529.26 C 386.29 530.30 385.89 531.36 385.54 532.43 C 385.18 533.46 384.86 534.51 384.58 535.57 C 383.46 537.85 382.20 540.10 381.58 542.59 C 380.92 543.90 380.27 545.22 379.60 546.54 C 379.07 547.86 378.67 549.24 378.24 550.61 C 377.36 553.09 375.32 553.37 372.96 552.85 C 371.33 551.86 369.41 551.84 367.59 551.65 C 366.11 551.10 364.60 550.67 363.17 550.03 C 355.39 549.85 347.61 549.77 339.84 550.05 C 338.10 550.80 336.22 551.05 334.42 551.56 C 333.05 551.83 331.69 552.12 330.37 552.55 C 328.99 552.86 327.60 553.15 326.29 553.67 C 325.83 553.78 324.93 554.00 324.48 554.10 C 323.53 554.59 322.59 555.07 321.64 555.55 C 315.75 557.34 310.56 560.81 305.45 564.15 C 301.79 565.69 299.68 569.29 296.38 571.34 C 293.56 573.20 291.97 576.25 289.68 578.63 C 286.21 582.11 284.16 586.67 281.10 590.48 C 280.33 592.19 279.71 593.96 279.13 595.76 C 278.47 596.71 277.75 597.61 277.04 598.53 C 276.97 598.95 276.84 599.79 276.78 600.20 C 276.32 601.26 275.91 602.33 275.55 603.43 C 275.20 604.43 274.88 605.45 274.58 606.48 C 274.10 607.85 273.68 609.24 273.14 610.61 C 272.92 612.36 272.90 614.19 272.06 615.81 C 271.90 617.91 271.80 620.03 271.71 622.15 C 270.61 624.28 271.09 626.72 270.98 629.02 C 271.13 631.63 270.52 634.42 271.71 636.88 C 271.79 639.31 271.89 641.74 272.06 644.18 C 272.91 645.76 272.93 647.57 273.16 649.31 C 273.73 650.58 274.00 651.95 274.29 653.31 C 273.60 653.63 272.22 654.27 271.53 654.59 C 270.46 654.89 269.40 655.23 268.36 655.63 C 267.42 655.93 266.49 656.25 265.57 656.62 C 264.23 657.27 262.90 657.93 261.58 658.60 C 260.50 658.89 259.44 659.21 258.40 659.59 C 257.39 659.89 256.38 660.24 255.39 660.62 C 254.40 660.90 253.42 661.23 252.44 661.58 C 251.43 661.88 250.42 662.22 249.43 662.60 C 248.42 662.89 247.41 663.22 246.42 663.59 C 245.42 663.89 244.43 664.22 243.45 664.58 C 242.06 664.86 240.66 665.15 239.33 665.63 C 238.42 665.81 237.51 665.99 236.60 666.19 C 235.27 666.71 233.85 666.93 232.46 667.21 C 231.11 667.70 229.73 668.12 228.38 668.63 C 226.61 668.80 224.81 668.94 223.17 669.69 C 221.70 669.82 220.23 669.94 218.77 670.08 C 216.90 671.10 214.74 670.92 212.70 671.12 C 210.91 671.79 209.01 672.08 207.20 672.69 C 204.49 672.92 201.64 672.58 199.10 673.74 C 195.77 674.12 192.22 673.37 189.08 674.76 C 183.76 675.53 178.12 674.04 173.03 675.79 C 118.74 676.26 64.45 675.89 10.16 675.98 C 10.12 501.68 10.14 327.38 10.15 153.07 M 104.00 229.77 C 104.00 353.18 104.00 476.59 104.00 600.00 C 120.34 600.01 136.67 599.97 153.01 600.02 C 154.67 600.00 156.42 600.16 157.89 599.19 C 160.56 598.96 163.39 599.43 165.90 598.28 C 169.23 598.08 172.73 598.59 175.88 597.28 C 177.98 597.14 180.08 597.04 182.18 596.93 C 183.78 596.06 185.62 596.05 187.38 595.83 C 189.07 595.24 190.85 594.93 192.58 594.44 C 194.00 594.13 195.43 593.83 196.80 593.30 C 197.95 593.15 199.11 593.01 200.27 592.89 C 201.63 592.05 203.22 592.02 204.74 591.87 C 205.10 591.50 205.80 590.76 206.15 590.40 C 207.64 590.17 209.13 589.92 210.56 589.47 C 211.69 589.06 212.81 588.62 213.91 588.14 C 214.35 588.09 215.25 588.01 215.70 587.97 C 216.06 587.59 216.77 586.85 217.13 586.48 C 219.12 586.10 220.94 585.19 222.70 584.23 C 223.21 584.17 224.23 584.04 224.74 583.98 C 225.09 583.60 225.79 582.84 226.15 582.47 C 228.95 582.05 231.21 580.29 233.54 578.82 C 236.48 577.66 238.92 575.71 241.43 573.87 C 247.54 570.81 252.27 565.72 257.65 561.63 C 258.59 559.95 259.96 558.56 261.65 557.65 C 262.57 555.96 263.94 554.57 265.64 553.65 C 268.79 548.97 273.39 545.27 275.59 539.98 C 275.84 540.00 276.35 540.03 276.61 540.04 C 277.91 536.99 279.83 534.28 281.78 531.61 C 283.44 528.27 285.14 524.94 286.82 521.60 C 288.29 518.67 289.84 515.77 290.81 512.63 C 291.81 510.66 292.81 508.67 293.49 506.56 C 293.83 505.43 294.15 504.29 294.43 503.15 C 294.81 502.78 295.58 502.02 295.96 501.65 C 296.02 500.74 296.10 499.85 296.18 498.96 C 296.85 497.58 297.09 496.07 297.41 494.60 C 297.77 493.59 298.11 492.57 298.42 491.55 C 298.89 490.21 299.30 488.86 299.79 487.54 C 300.05 486.10 300.30 484.65 300.88 483.31 C 301.02 482.13 301.16 480.96 301.31 479.80 C 302.09 478.17 302.18 476.36 302.35 474.60 C 302.87 473.16 303.35 471.71 303.93 470.30 C 304.09 467.92 303.83 465.41 304.92 463.21 C 305.04 461.42 305.15 459.64 305.27 457.87 C 306.59 454.72 306.03 451.21 306.29 447.89 C 307.18 445.99 307.03 443.86 307.22 441.83 C 308.58 439.42 307.81 436.57 308.01 433.95 C 308.24 419.63 308.26 405.31 308.01 390.99 C 307.82 388.36 308.57 385.52 307.21 383.10 C 306.98 380.77 307.31 378.31 306.29 376.12 C 306.06 373.12 306.49 369.96 305.28 367.13 C 305.04 364.77 305.34 362.28 304.24 360.09 C 304.09 358.30 304.02 356.50 303.93 354.72 C 303.34 353.30 302.87 351.84 302.36 350.40 C 302.17 348.64 302.07 346.83 301.30 345.20 C 301.15 344.03 301.02 342.87 300.88 341.72 C 300.20 340.36 300.05 338.86 299.83 337.39 C 299.34 336.46 298.86 335.53 298.39 334.60 C 298.15 333.12 297.91 331.62 297.31 330.23 C 297.14 329.36 296.99 328.48 296.84 327.62 C 296.40 326.56 296.04 325.47 295.76 324.37 C 295.29 323.42 294.82 322.48 294.35 321.53 C 294.07 320.54 293.77 319.57 293.44 318.60 C 292.76 317.28 292.09 315.95 291.45 314.62 C 291.05 313.15 290.46 311.75 289.85 310.37 C 288.62 308.12 287.52 305.81 286.38 303.52 C 285.42 301.40 284.13 299.47 282.88 297.53 C 279.57 290.37 274.22 284.45 269.65 278.15 C 263.93 272.28 258.44 266.09 251.86 261.17 C 247.36 257.49 242.44 254.35 237.56 251.21 C 234.25 249.54 230.95 247.86 227.64 246.21 C 225.89 245.36 224.16 244.49 222.44 243.61 C 221.50 243.24 220.56 242.90 219.61 242.58 C 218.55 242.21 217.48 241.88 216.39 241.60 C 215.43 241.11 214.48 240.61 213.53 240.10 C 213.07 240.00 212.16 239.78 211.71 239.67 C 210.38 239.15 208.99 238.86 207.60 238.57 C 206.54 238.20 205.47 237.88 204.39 237.59 C 203.38 237.10 202.39 236.60 201.40 236.07 C 200.23 235.97 199.06 235.88 197.89 235.77 C 196.28 234.96 194.48 234.87 192.74 234.62 C 191.11 233.98 189.37 233.80 187.66 233.60 C 185.85 233.06 183.97 232.79 182.22 232.08 C 180.11 231.98 178.00 231.89 175.90 231.75 C 172.76 230.38 169.22 231.04 165.89 230.74 C 165.42 230.58 164.47 230.25 163.99 230.08 C 144.00 229.45 124.00 229.92 104.00 229.77 Z" />
<path fill="#ffffff" opacity="1.00" d=" M 732.94 244.31 C 740.98 244.07 749.02 244.06 757.06 244.31 C 761.24 245.68 765.78 244.76 770.12 245.33 C 772.70 246.32 775.52 246.13 778.24 246.41 C 780.33 247.03 782.55 247.16 784.65 247.85 C 786.65 248.09 788.74 248.09 790.66 248.88 C 791.87 249.05 793.09 249.21 794.33 249.37 C 799.55 251.28 805.12 251.99 810.48 253.46 C 812.39 254.41 814.42 255.09 816.44 255.80 C 818.50 256.17 820.49 256.83 822.50 257.45 C 825.06 258.76 827.80 259.67 830.57 260.47 C 833.08 261.77 835.66 262.96 838.37 263.82 C 841.73 265.44 844.98 267.36 848.54 268.54 C 853.74 271.96 859.82 273.94 864.64 278.00 C 865.07 278.07 865.94 278.22 866.37 278.29 C 872.66 282.79 879.10 287.00 885.40 291.48 C 887.74 294.23 891.36 295.53 893.65 298.38 C 898.46 302.17 902.90 306.37 907.05 310.88 C 906.03 313.43 903.88 315.21 902.29 317.37 C 894.98 326.38 887.73 335.43 880.40 344.43 C 876.80 348.80 873.35 353.32 869.64 357.63 C 865.63 362.04 862.50 367.21 858.07 371.24 C 854.94 367.83 851.17 365.15 847.46 362.43 C 842.63 358.75 837.82 355.00 832.50 352.04 C 828.90 349.60 825.07 347.54 821.48 345.10 C 820.34 344.78 819.23 344.44 818.13 344.09 C 817.31 343.44 816.50 342.79 815.71 342.14 C 814.69 341.86 813.68 341.56 812.68 341.25 C 809.13 339.23 805.38 337.54 801.42 336.52 C 799.79 335.72 798.15 334.97 796.55 334.16 C 794.19 333.75 791.92 332.97 789.58 332.52 C 788.57 332.15 787.56 331.82 786.55 331.52 C 785.15 331.06 783.74 330.64 782.39 330.11 C 781.18 329.95 779.97 329.81 778.78 329.65 C 776.85 328.88 774.77 328.81 772.74 328.56 C 770.49 327.82 768.10 327.78 765.77 327.57 C 762.91 326.63 759.86 326.96 756.92 326.68 C 753.10 325.30 748.92 326.29 744.96 326.00 C 741.35 326.25 737.55 325.34 734.11 326.68 C 731.49 326.91 728.81 326.74 726.28 327.53 C 724.27 327.75 722.26 327.94 720.33 328.51 C 718.66 328.76 716.99 329.01 715.38 329.49 C 711.98 330.22 708.70 331.38 705.43 332.54 C 703.70 333.07 702.01 333.71 700.28 334.18 C 698.92 334.93 697.59 335.72 696.37 336.67 C 695.92 336.75 695.02 336.91 694.57 336.99 C 692.62 338.51 690.53 339.83 688.42 341.11 C 683.72 343.62 680.44 348.02 676.65 351.66 C 673.67 355.57 670.54 359.60 669.15 364.40 C 668.49 365.74 667.84 367.09 667.16 368.42 C 666.68 371.08 665.86 373.67 665.52 376.36 C 664.35 383.02 664.17 390.12 665.60 396.75 C 665.74 397.96 665.89 399.18 666.06 400.41 C 667.15 403.92 669.11 407.08 670.17 410.61 C 673.25 415.17 676.30 419.87 680.37 423.61 C 686.59 429.65 693.75 434.92 701.49 438.90 C 703.72 440.32 705.93 441.86 708.54 442.55 C 710.62 444.20 713.13 445.15 715.67 445.87 C 716.59 446.49 717.47 447.15 718.37 447.83 C 720.47 448.42 722.52 449.18 724.61 449.84 C 725.55 450.46 726.47 451.12 727.39 451.81 C 730.24 452.58 732.96 453.79 735.83 454.53 C 736.16 454.85 736.81 455.48 737.13 455.79 C 738.97 456.25 740.74 456.92 742.57 457.46 C 745.81 459.18 749.21 460.62 752.80 461.50 C 753.11 461.82 753.75 462.44 754.07 462.75 C 756.68 463.35 759.01 464.73 761.58 465.49 C 764.86 467.14 768.23 468.64 771.82 469.52 C 772.15 469.84 772.80 470.47 773.13 470.79 C 775.24 471.34 777.29 472.09 779.36 472.82 C 785.35 475.72 791.42 478.60 797.81 480.51 C 798.14 480.82 798.80 481.45 799.13 481.76 C 800.62 482.13 802.08 482.66 803.50 483.30 C 805.86 484.25 808.24 485.17 810.51 486.36 C 812.57 487.19 814.67 487.94 816.83 488.53 C 817.16 488.84 817.83 489.46 818.17 489.76 C 820.77 490.33 823.06 491.78 825.62 492.52 C 828.31 493.76 830.97 495.08 833.49 496.66 C 836.26 497.76 839.10 498.89 841.45 500.80 C 843.19 501.29 844.82 502.08 846.47 502.84 C 848.14 503.95 849.78 505.11 851.62 505.96 C 858.49 510.87 866.04 514.87 872.26 520.68 C 879.09 525.06 884.43 531.25 890.08 536.98 C 892.02 540.12 895.10 542.35 897.09 545.46 C 899.62 549.49 902.25 553.49 905.08 557.35 C 908.49 563.92 911.55 570.65 914.51 577.44 C 914.80 578.49 915.14 579.54 915.53 580.57 C 916.02 582.93 916.84 585.22 917.18 587.62 C 917.64 588.54 918.11 589.47 918.59 590.40 C 918.75 592.22 918.89 594.08 919.64 595.79 C 919.80 597.30 919.95 598.81 920.14 600.34 C 920.91 602.41 920.94 604.65 921.59 606.77 C 921.87 609.48 921.68 612.30 922.66 614.90 C 922.91 624.97 922.97 635.04 922.66 645.10 C 921.66 647.70 921.81 650.53 921.61 653.27 C 921.05 655.05 920.76 656.91 920.12 658.68 C 919.94 660.18 919.80 661.68 919.64 663.20 C 919.12 664.57 918.81 666.01 918.52 667.45 C 917.36 670.72 916.67 674.14 915.57 677.43 C 915.17 678.45 914.82 679.48 914.52 680.53 C 913.13 683.37 912.21 686.40 911.17 689.39 C 906.93 697.83 902.74 706.39 896.96 713.91 C 896.47 714.72 896.01 715.56 895.57 716.41 C 894.28 717.05 893.71 718.34 893.09 719.55 C 890.99 722.90 887.58 725.18 885.47 728.53 C 881.28 733.32 876.61 737.67 871.67 741.66 C 869.35 744.46 865.74 745.77 863.42 748.52 C 859.10 751.40 854.86 754.39 850.45 757.11 C 848.72 758.00 847.12 759.09 845.48 760.12 C 840.11 762.81 834.75 765.52 829.37 768.16 C 826.65 769.04 824.07 770.23 821.55 771.55 C 819.54 772.12 817.57 772.82 815.52 773.19 C 813.57 774.18 811.49 774.84 809.45 775.57 C 806.14 776.62 802.73 777.33 799.46 778.51 C 798.04 778.79 796.63 779.10 795.28 779.59 C 794.05 779.76 792.84 779.93 791.64 780.13 C 790.02 780.81 788.25 780.92 786.54 781.18 C 784.82 781.72 783.04 782.06 781.32 782.58 C 779.23 782.76 777.10 782.84 775.15 783.64 C 772.68 783.81 770.22 783.93 767.77 784.09 C 764.41 785.62 760.56 784.29 757.17 785.62 C 751.50 786.32 745.61 785.26 740.10 786.67 C 736.70 786.72 733.30 786.72 729.91 786.66 C 724.71 785.26 719.16 786.35 713.83 785.61 C 710.11 784.25 705.95 785.63 702.27 784.10 C 700.13 783.93 697.99 783.80 695.86 783.65 C 693.58 782.75 691.11 782.79 688.72 782.60 C 686.98 782.05 685.20 781.70 683.47 781.18 C 681.74 780.92 679.98 780.81 678.36 780.14 C 677.14 779.94 675.93 779.76 674.73 779.60 C 673.02 778.92 671.20 778.73 669.40 778.58 C 668.45 778.11 667.52 777.64 666.60 777.18 C 665.19 776.94 663.77 776.71 662.44 776.20 C 661.50 775.98 660.57 775.77 659.65 775.57 C 658.23 775.07 656.78 774.78 655.33 774.53 C 654.41 774.07 653.50 773.61 652.60 773.16 C 650.52 772.84 648.53 772.17 646.53 771.56 C 643.00 769.83 639.21 768.74 635.50 767.52 C 633.22 765.71 630.29 765.23 627.66 764.20 C 624.68 762.66 621.70 761.10 618.49 760.13 C 616.03 758.41 613.41 756.91 610.49 756.13 C 605.74 752.79 600.13 750.89 595.60 747.19 C 594.19 746.49 592.80 745.78 591.40 745.11 C 584.35 740.24 577.21 735.51 570.32 730.42 C 567.25 727.54 563.69 725.27 560.79 722.22 C 555.98 719.05 552.66 714.14 547.82 711.02 C 546.85 710.35 547.20 708.92 546.80 707.96 C 552.87 701.92 558.12 695.15 563.59 688.58 C 567.45 684.41 570.86 679.86 574.59 675.59 C 578.23 671.86 581.28 667.65 584.74 663.77 C 587.03 660.43 590.40 657.90 592.59 654.42 C 595.57 651.36 597.83 647.68 600.97 644.76 C 614.65 658.50 630.87 669.38 647.43 679.33 C 653.83 682.34 659.93 686.08 666.60 688.50 C 670.33 690.84 674.91 691.32 678.51 693.83 C 681.95 694.30 685.06 695.98 688.50 696.48 C 691.58 698.11 695.06 698.59 698.40 699.46 C 700.03 700.01 701.75 700.21 703.47 700.43 C 704.87 700.91 706.29 701.35 707.69 701.92 C 710.05 702.09 712.53 701.93 714.76 702.92 C 717.22 703.10 719.68 703.21 722.15 703.36 C 726.96 704.66 732.09 704.09 737.05 704.30 C 742.63 704.07 748.41 704.71 753.85 703.35 C 756.31 703.20 758.77 703.09 761.23 702.92 C 763.17 702.03 765.32 702.08 767.41 701.90 C 768.76 701.37 770.14 700.94 771.52 700.47 C 772.90 700.23 774.27 699.94 775.61 699.50 C 778.01 698.95 780.36 698.15 782.82 697.83 C 783.16 697.50 783.82 696.85 784.16 696.52 C 787.48 695.59 790.99 694.68 793.63 692.32 C 794.08 692.24 794.98 692.09 795.44 692.01 C 797.37 690.49 799.45 689.17 801.56 687.90 C 805.32 686.09 807.91 682.68 810.90 679.89 C 817.38 673.83 822.17 665.97 824.44 657.38 C 824.90 656.40 825.38 655.43 825.89 654.48 C 826.04 652.68 826.04 650.81 826.94 649.18 C 827.34 641.73 827.34 634.26 826.94 626.81 C 826.07 625.16 826.04 623.28 825.88 621.49 C 825.37 620.52 824.88 619.56 824.42 618.59 C 823.94 616.81 823.30 615.09 822.83 613.32 C 821.92 611.64 820.85 610.08 819.92 608.43 C 815.56 601.19 809.56 594.84 802.54 590.14 C 799.00 587.58 795.56 584.83 791.52 583.09 C 786.02 579.71 780.24 576.57 774.15 574.44 C 773.83 574.13 773.20 573.51 772.88 573.20 C 771.83 572.91 770.80 572.60 769.79 572.26 C 768.31 571.48 766.77 570.80 765.15 570.43 C 764.82 570.13 764.18 569.51 763.85 569.20 C 761.75 568.64 759.71 567.91 757.67 567.19 C 753.78 564.96 749.49 563.63 745.49 561.66 C 742.40 560.54 739.43 559.15 736.52 557.66 C 731.33 555.76 726.46 553.05 721.16 551.44 C 720.84 551.14 720.18 550.54 719.86 550.24 C 717.25 549.62 714.94 548.21 712.38 547.47 C 709.51 545.98 706.51 544.79 703.50 543.62 C 701.19 542.41 698.88 541.13 696.35 540.46 C 693.30 539.09 690.42 537.25 687.15 536.45 C 686.80 536.14 686.12 535.52 685.78 535.21 C 683.69 534.64 681.65 533.91 679.63 533.17 C 676.92 531.84 674.30 530.29 671.38 529.50 C 668.06 527.94 664.85 526.07 661.29 525.10 C 660.36 524.46 659.45 523.78 658.58 523.11 C 657.59 522.84 656.61 522.56 655.65 522.27 C 651.11 519.27 646.27 516.72 641.51 514.10 C 626.71 504.84 613.20 493.56 601.56 480.55 C 595.70 473.27 590.28 465.62 585.54 457.55 C 584.91 455.38 583.90 453.35 582.54 451.56 C 580.91 447.14 578.95 442.86 577.36 438.43 C 576.76 436.43 576.08 434.44 575.82 432.37 C 575.31 431.41 574.82 430.45 574.33 429.50 C 574.20 428.24 574.05 426.98 573.90 425.74 C 573.13 424.11 573.05 422.30 572.82 420.56 C 572.24 418.81 571.92 417.00 571.38 415.25 C 571.15 412.52 571.33 409.69 570.33 407.09 C 569.90 397.03 569.87 386.94 570.34 376.88 C 571.36 374.27 571.20 371.41 571.36 368.66 C 571.89 367.24 572.34 365.80 572.90 364.40 C 573.03 362.87 573.16 361.35 573.34 359.84 C 573.91 358.40 574.19 356.89 574.44 355.38 C 574.89 354.46 575.35 353.54 575.82 352.63 C 576.68 348.74 577.49 344.55 579.97 341.33 C 580.01 340.96 580.10 340.22 580.14 339.85 C 584.01 329.65 589.83 320.35 595.92 311.39 C 600.14 305.51 605.51 300.62 609.89 294.87 C 613.31 292.27 616.42 289.32 619.49 286.32 C 626.04 281.35 632.50 276.22 639.50 271.88 C 646.41 267.95 653.47 264.29 660.63 260.81 C 662.69 260.08 664.75 259.31 666.88 258.78 C 667.21 258.45 667.88 257.80 668.22 257.48 C 670.69 256.79 673.16 256.10 675.63 255.41 C 677.30 254.89 678.91 254.20 680.50 253.46 C 681.91 253.16 683.34 252.86 684.71 252.36 C 685.62 252.17 686.53 251.99 687.46 251.81 C 690.17 250.96 692.99 250.47 695.64 249.41 C 697.38 249.18 699.15 249.00 700.81 248.35 C 702.31 248.17 703.82 248.02 705.34 247.87 C 707.41 247.14 709.63 247.03 711.74 246.43 C 714.13 246.18 716.60 246.23 718.88 245.35 C 723.54 244.78 728.43 245.70 732.94 244.31 Z" />
<path fill="#ffffff" opacity="1.00" d=" M 433.24 249.08 C 463.81 249.08 494.39 249.02 524.96 249.11 C 525.06 358.39 524.97 467.67 525.00 576.95 C 524.95 593.67 525.19 610.40 524.64 627.11 C 523.63 629.59 524.33 632.42 523.07 634.83 C 523.00 637.25 522.91 639.67 522.71 642.10 C 521.71 644.32 521.86 646.80 521.62 649.19 C 520.94 650.86 520.75 652.66 520.56 654.45 C 520.09 655.80 519.67 657.18 519.16 658.53 C 518.89 661.21 518.11 663.79 517.55 666.43 C 515.97 670.70 514.86 675.13 513.54 679.49 C 511.09 685.47 508.54 691.42 506.17 697.42 C 505.06 699.88 503.20 701.96 502.45 704.57 C 501.11 706.40 500.13 708.44 499.12 710.46 C 498.06 712.14 496.92 713.79 496.06 715.59 C 494.75 717.59 493.05 719.34 492.06 721.55 C 479.86 738.49 464.35 753.17 446.52 764.10 C 444.05 765.23 441.71 766.60 439.48 768.15 C 437.03 768.92 434.61 769.88 432.56 771.46 C 430.12 772.18 427.87 773.39 425.60 774.51 C 421.86 775.70 418.08 776.81 414.53 778.51 C 413.13 778.77 411.74 779.06 410.40 779.52 C 407.80 780.13 405.25 780.97 402.58 781.18 C 401.21 781.69 399.82 782.11 398.45 782.58 C 396.66 782.79 394.86 782.98 393.18 783.64 C 391.35 783.79 389.54 783.94 387.72 784.10 C 384.69 785.45 381.24 784.43 378.18 785.61 C 373.18 786.35 367.95 785.27 363.09 786.67 C 355.36 786.73 347.63 786.80 339.90 786.66 C 336.99 785.59 333.82 786.00 330.80 785.60 C 328.37 784.74 325.70 785.12 323.32 784.13 C 321.81 783.94 320.30 783.79 318.79 783.63 C 317.08 782.91 315.22 782.75 313.40 782.59 C 312.45 782.12 311.52 781.65 310.58 781.18 C 309.16 780.94 307.72 780.77 306.39 780.17 C 305.47 779.98 304.56 779.80 303.65 779.64 C 300.63 778.49 297.56 777.51 294.49 776.54 C 292.84 775.73 291.16 774.97 289.39 774.49 C 287.11 773.40 284.88 772.19 282.46 771.46 C 278.71 768.94 274.49 767.22 270.50 765.12 C 261.20 759.02 251.67 753.06 243.73 745.19 C 236.84 740.43 232.24 733.32 226.49 727.39 C 222.52 721.82 218.53 716.26 214.83 710.50 C 214.08 708.84 213.29 707.20 212.80 705.46 C 211.39 703.67 210.35 701.64 209.53 699.54 C 208.12 695.51 205.82 691.68 205.84 687.29 C 207.99 687.14 210.15 687.03 212.31 686.94 C 213.72 686.35 215.18 685.90 216.61 685.39 C 218.70 685.27 220.85 685.23 222.81 684.36 C 224.29 684.20 225.78 684.05 227.27 683.90 C 228.90 683.07 230.75 683.05 232.53 682.89 C 233.48 682.38 234.44 681.88 235.40 681.41 C 237.17 681.26 238.96 681.10 240.64 680.45 C 243.97 679.59 247.44 679.10 250.52 677.48 C 258.88 675.66 267.00 672.67 274.63 668.83 C 276.50 668.17 278.36 667.47 280.22 666.77 C 281.31 669.15 282.73 671.36 284.09 673.60 C 289.76 682.72 297.81 690.18 306.54 696.34 C 308.29 697.89 310.43 698.86 312.52 699.86 C 313.50 700.46 314.45 701.11 315.39 701.80 C 317.86 702.49 320.11 703.78 322.56 704.54 C 325.39 705.88 328.38 706.91 331.48 707.43 C 332.88 707.91 334.29 708.35 335.67 708.92 C 338.08 709.08 340.61 708.90 342.86 709.96 C 348.61 710.08 354.37 710.04 360.13 709.97 C 362.34 708.74 364.91 709.08 367.33 708.96 C 368.32 708.42 369.33 707.91 370.34 707.43 C 374.54 706.77 378.58 705.27 382.44 703.53 C 385.04 702.87 387.27 701.36 389.50 699.94 C 394.78 697.32 399.77 694.03 404.00 689.92 C 406.54 688.15 408.86 686.03 410.58 683.44 C 413.62 680.04 416.66 676.56 418.92 672.57 C 422.43 666.92 425.55 660.94 427.47 654.55 C 428.51 651.86 428.99 649.01 429.91 646.29 C 430.08 644.46 430.22 642.63 430.38 640.81 C 431.62 636.97 431.13 632.85 431.36 628.89 C 431.94 627.23 432.11 625.47 432.36 623.75 C 433.06 622.26 433.01 620.61 433.02 619.03 C 433.52 569.70 433.11 520.36 433.25 471.03 C 433.24 397.05 433.26 323.06 433.24 249.08 Z" />
<path fill="#ffffff" opacity="1.00" d=" M 346.89 565.00 C 349.63 564.99 352.38 564.99 355.13 565.01 C 358.20 567.40 362.52 564.69 365.69 566.84 C 367.68 566.80 369.47 567.56 371.12 568.62 C 373.06 568.92 375.00 569.32 376.72 570.33 C 378.87 570.89 380.71 572.07 382.54 573.30 C 385.00 574.37 387.42 575.58 389.25 577.61 C 392.33 579.05 394.26 582.04 396.75 584.25 C 398.95 586.75 402.00 588.66 403.38 591.79 C 403.69 592.15 404.32 592.87 404.63 593.23 C 405.58 594.99 406.77 596.60 407.76 598.35 C 407.99 598.86 408.45 599.89 408.68 600.40 C 408.94 600.90 409.46 601.90 409.71 602.40 C 410.24 603.51 410.82 604.61 411.38 605.73 C 411.86 607.04 412.26 608.38 412.85 609.67 C 412.93 610.08 413.09 610.90 413.18 611.31 C 414.08 613.08 413.91 615.19 414.96 616.91 C 414.98 618.32 414.99 619.73 415.01 621.15 C 415.25 621.63 415.72 622.58 415.95 623.06 C 416.05 627.70 416.05 632.35 415.95 636.99 C 415.72 637.45 415.27 638.37 415.04 638.83 C 414.88 640.80 415.45 643.02 414.11 644.72 C 414.05 645.11 413.91 645.89 413.85 646.29 C 413.04 647.91 412.91 649.74 412.39 651.46 C 411.56 654.35 409.93 656.90 408.75 659.65 C 408.04 661.01 407.20 662.30 406.20 663.48 C 405.99 663.99 405.56 665.01 405.34 665.52 C 404.58 666.93 403.40 668.04 402.39 669.27 C 401.31 671.73 399.03 673.32 397.25 675.26 C 395.00 677.31 393.15 679.92 390.40 681.37 C 389.42 682.06 388.44 682.75 387.41 683.36 C 386.22 684.30 384.90 685.05 383.55 685.73 C 382.08 686.48 380.80 687.55 379.39 688.39 C 378.19 688.80 376.96 689.14 375.77 689.62 C 374.39 690.28 372.99 690.93 371.51 691.35 C 370.50 691.61 369.51 691.95 368.54 692.36 C 366.21 693.66 363.23 692.16 361.13 694.00 C 354.40 693.95 347.67 694.09 340.95 693.95 C 340.52 693.73 339.65 693.30 339.22 693.08 C 337.54 692.99 335.77 693.18 334.31 692.19 C 332.49 692.12 330.81 691.54 329.26 690.64 C 327.65 690.04 326.04 689.49 324.47 688.81 C 322.86 687.90 321.20 687.10 319.57 686.25 C 319.05 686.02 318.00 685.56 317.48 685.33 C 316.06 684.58 314.95 683.39 313.73 682.39 C 312.17 681.72 310.97 680.50 309.75 679.38 C 306.45 677.51 303.69 674.56 301.63 671.40 C 300.77 670.36 300.12 669.20 299.53 668.00 C 299.23 668.00 298.62 668.01 298.32 668.01 C 298.09 667.40 297.62 666.19 297.38 665.58 C 296.52 664.18 295.52 662.88 294.70 661.47 C 294.23 660.50 293.76 659.54 293.29 658.59 C 291.50 655.33 289.98 651.98 289.24 648.33 C 289.01 647.04 288.83 645.74 288.39 644.51 C 288.01 643.33 287.56 642.19 287.02 641.08 C 287.05 633.71 286.86 626.33 287.10 618.97 C 287.30 618.54 287.72 617.69 287.92 617.26 C 287.97 616.88 288.05 616.13 288.09 615.76 C 289.45 613.91 288.66 611.48 289.65 609.49 C 289.95 608.58 290.25 607.67 290.57 606.78 C 291.15 605.56 291.80 604.37 292.47 603.21 C 292.89 601.97 293.19 600.71 293.60 599.49 C 294.29 598.47 295.03 597.48 295.80 596.53 C 296.02 596.02 296.45 594.99 296.67 594.47 C 297.41 593.05 298.61 591.95 299.61 590.73 C 300.82 588.07 303.32 586.36 305.25 584.25 C 307.31 582.32 309.04 579.94 311.60 578.63 C 312.58 577.86 313.63 577.19 314.73 576.62 C 316.12 575.28 317.59 574.03 319.38 573.26 C 320.77 572.63 322.14 571.94 323.48 571.20 C 324.79 570.60 326.12 570.05 327.52 569.68 C 328.73 569.20 329.98 568.86 331.20 568.41 C 332.99 567.16 335.07 566.79 337.22 566.92 C 340.05 564.70 344.10 567.35 346.89 565.00 Z" />
</g>
</svg>
