<?xml version="1.0" encoding="UTF-8" ?>
<!DOCTYPE svg PUBLIC "-//W3C//DTD SVG 1.1//EN" "http://www.w3.org/Graphics/SVG/1.1/DTD/svg11.dtd">
<svg width="193pt" height="84pt" viewBox="0 0 193 84" version="1.1" xmlns="http://www.w3.org/2000/svg">
<g id="#ffffffff">
<path fill="#ffffff" opacity="1.00" d=" M 9.28 5.33 C 11.97 3.73 14.50 1.77 17.56 0.91 C 17.75 7.41 17.66 13.91 17.62 20.42 C 19.48 20.62 22.21 19.67 22.64 22.25 C 18.58 22.34 14.50 22.55 10.45 22.19 L 9.85 20.58 C 11.56 20.49 13.27 20.43 14.98 20.39 C 14.87 15.13 15.02 9.87 14.87 4.61 C 12.86 5.60 10.96 6.81 9.06 7.99 C 9.12 7.32 9.23 6.00 9.28 5.33 Z" />
<path fill="#ffffff" opacity="1.00" d=" M 29.52 1.60 C 32.47 0.85 36.32 0.95 38.10 3.87 C 40.30 8.38 40.21 13.88 38.45 18.54 C 36.78 22.53 31.15 23.98 27.83 21.16 C 25.06 19.02 24.76 15.23 24.64 12.00 C 24.61 8.10 25.45 3.25 29.52 1.60 M 29.60 3.58 C 26.53 6.91 27.62 11.86 27.67 15.98 C 28.01 19.57 31.60 21.73 34.96 20.36 C 37.39 15.73 37.07 10.26 36.14 5.28 C 34.85 2.91 31.89 2.51 29.60 3.58 Z" />
<path fill="#ffffff" opacity="1.00" d=" M 48.42 1.46 C 51.01 1.03 54.00 1.04 56.01 2.99 C 58.76 7.21 58.33 12.75 57.32 17.46 C 56.23 22.68 48.94 24.28 45.42 20.53 C 42.88 17.30 42.92 12.84 43.28 8.94 C 43.52 5.83 45.13 2.28 48.42 1.46 M 47.61 3.43 C 45.62 7.72 45.07 12.58 46.47 17.13 C 46.46 20.85 52.49 22.25 53.98 18.91 C 56.04 15.98 55.25 12.29 55.35 8.95 C 55.43 6.89 54.19 5.15 53.43 3.33 C 51.49 3.09 49.54 3.14 47.61 3.43 Z" />
<path fill="#ffffff" opacity="1.00" d=" M 66.32 1.84 C 71.32 1.52 76.75 0.50 81.49 2.57 C 87.87 6.63 87.16 17.89 80.48 21.37 C 75.95 22.96 71.05 22.33 66.36 22.15 C 67.52 21.39 68.74 20.71 69.98 20.07 C 69.92 14.54 69.96 9.01 69.94 3.48 C 68.73 2.95 67.52 2.40 66.32 1.84 M 72.56 3.21 C 72.57 8.99 72.62 14.78 72.54 20.57 C 75.90 20.56 80.37 20.94 82.08 17.28 C 83.18 13.84 83.02 10.08 82.29 6.58 C 80.47 2.80 76.12 3.13 72.56 3.21 Z" />
<path fill="#ffffff" opacity="1.00" d=" M 94.64 1.55 C 95.56 1.49 96.47 1.43 97.39 1.36 C 99.27 7.09 101.30 12.78 103.28 18.48 C 103.71 20.43 105.85 21.01 107.21 22.16 C 103.92 22.43 100.60 22.47 97.31 22.14 C 98.48 21.45 99.66 20.80 100.87 20.18 C 100.69 19.23 100.33 17.32 100.15 16.37 C 97.31 16.32 94.46 16.31 91.61 16.30 C 91.18 17.52 90.76 18.75 90.35 19.98 C 91.49 20.69 92.62 21.41 93.72 22.18 C 90.67 22.44 87.59 22.41 84.54 22.19 C 85.95 21.05 88.13 20.51 88.55 18.51 C 90.64 12.88 92.64 7.21 94.64 1.55 M 92.20 14.54 C 94.51 14.59 96.82 14.59 99.13 14.56 C 98.17 11.22 97.04 7.93 95.81 4.68 C 94.39 7.88 93.31 11.22 92.20 14.54 Z" />
<path fill="#ffffff" opacity="1.00" d=" M 106.05 1.62 C 108.79 1.50 111.53 1.42 114.27 1.52 C 113.43 2.31 112.57 3.08 111.72 3.86 C 112.96 6.73 114.27 9.57 115.71 12.35 C 117.50 9.65 118.90 6.72 120.28 3.81 C 119.36 3.11 118.43 2.42 117.52 1.70 C 120.17 1.48 122.82 1.43 125.48 1.49 C 121.47 4.50 119.99 9.48 117.55 13.65 C 116.32 15.54 116.85 17.88 116.67 20.01 C 118.05 20.66 119.42 21.33 120.73 22.12 C 117.65 22.46 114.55 22.41 111.47 22.23 C 112.41 21.44 113.37 20.66 114.33 19.89 C 115.28 14.15 111.62 9.51 109.25 4.64 C 108.56 3.30 107.15 2.58 106.05 1.62 Z" />
<path fill="#ffffff" opacity="1.00" d=" M 129.25 2.40 C 132.38 0.30 136.37 1.55 139.79 2.07 C 139.74 3.92 139.69 5.78 139.52 7.63 C 138.28 6.36 137.35 4.83 136.11 3.55 C 134.35 3.47 132.58 3.56 130.82 3.59 C 130.15 4.93 129.00 6.28 129.72 7.86 C 132.14 10.34 135.88 10.49 138.62 12.44 C 141.67 14.91 140.45 20.47 136.79 21.69 C 133.60 23.37 129.99 22.30 126.75 21.39 C 126.77 19.91 126.78 18.44 126.76 16.96 C 127.14 16.76 127.92 16.35 128.30 16.15 C 128.72 17.37 129.14 18.58 129.56 19.80 C 132.89 20.95 137.90 20.36 137.97 15.93 C 135.52 13.33 131.84 12.89 128.92 11.07 C 126.04 9.10 126.27 4.15 129.25 2.40 Z" />
<path fill="#ffffff" opacity="1.00" d=" M 156.42 1.53 C 159.92 0.76 164.21 1.34 166.42 4.45 C 169.40 9.14 169.16 16.09 165.10 20.09 C 161.20 23.95 153.51 23.34 151.04 18.17 C 148.38 12.48 149.73 3.66 156.42 1.53 M 157.28 3.22 C 154.30 3.31 153.37 6.65 152.72 9.00 C 152.30 12.96 152.41 17.75 155.95 20.33 C 158.52 20.98 161.99 21.17 163.63 18.65 C 166.22 15.74 165.48 11.62 165.34 8.05 C 164.71 4.26 160.90 2.11 157.28 3.22 Z" />
<path fill="#ffffff" opacity="1.00" d=" M 170.33 1.77 C 175.35 1.18 180.42 1.50 185.46 1.40 C 185.38 3.09 185.31 4.78 185.20 6.47 C 184.24 5.45 183.35 4.37 182.53 3.23 C 180.42 3.27 178.32 3.28 176.22 3.29 C 176.19 5.72 176.19 8.16 176.18 10.59 C 178.44 11.16 182.74 9.16 183.14 12.45 C 180.82 12.55 178.50 12.55 176.18 12.54 C 176.20 14.99 176.20 17.44 176.13 19.89 C 177.33 20.63 178.52 21.36 179.68 22.16 C 176.63 22.45 173.55 22.41 170.49 22.22 C 171.51 21.37 172.56 20.55 173.59 19.72 C 173.46 14.34 173.49 8.96 173.56 3.59 C 172.47 3.00 171.38 2.41 170.33 1.77 Z" />
<path fill="#ffffff" opacity="1.00" d=" M 18.49 30.53 C 23.16 27.87 29.21 26.86 34.28 28.92 C 37.94 30.34 40.24 35.38 37.73 38.75 C 36.05 42.16 31.55 40.67 28.91 39.35 C 29.44 37.31 30.65 35.57 31.69 33.77 C 28.38 31.61 24.18 32.16 21.30 34.79 C 20.83 40.26 26.63 42.77 30.02 45.97 C 33.90 49.89 39.53 53.08 40.41 59.00 C 41.12 62.66 39.96 66.66 37.23 69.24 C 31.41 75.25 22.30 76.48 14.35 75.52 C 9.44 74.41 4.26 71.86 2.22 66.96 C -0.57 61.59 3.11 54.36 8.91 53.01 C 11.90 51.74 15.83 52.56 17.17 55.76 C 13.73 57.37 9.43 58.28 7.67 62.07 C 7.75 66.61 12.27 69.96 16.47 70.61 C 21.14 71.43 26.96 71.25 30.00 67.04 C 33.04 63.38 30.62 58.26 27.79 55.22 C 23.74 51.31 18.73 48.27 15.63 43.45 C 13.11 39.21 14.03 33.10 18.49 30.53 Z" />
<path fill="#ffffff" opacity="1.00" d=" M 147.34 28.21 C 150.58 27.85 153.85 28.99 155.56 31.92 C 151.54 40.71 148.45 50.27 148.71 60.04 C 148.74 63.50 151.20 67.43 155.01 67.42 C 159.18 68.04 161.47 63.44 162.17 60.01 C 164.45 49.31 163.80 36.91 171.43 28.20 C 174.32 27.86 177.01 29.03 178.65 31.46 C 178.70 34.57 176.94 37.36 176.13 40.31 C 172.78 48.78 173.49 58.35 169.52 66.61 C 167.87 70.35 163.96 72.56 160.01 72.95 C 154.56 74.07 148.11 73.11 144.38 68.62 C 139.80 63.60 140.13 56.34 140.42 50.01 C 141.39 42.45 142.58 34.44 147.34 28.21 Z" />
<path fill="#ffffff" opacity="1.00" d=" M 109.32 31.37 C 112.13 27.53 117.95 29.21 120.77 32.26 C 120.76 32.81 120.76 33.92 120.75 34.47 C 115.08 38.01 112.94 44.81 111.00 50.84 C 114.25 50.83 117.49 50.41 120.56 49.34 C 120.33 48.09 120.09 46.84 119.86 45.59 C 121.01 45.23 122.16 44.86 123.31 44.48 C 124.87 39.39 126.62 34.12 130.44 30.24 C 133.44 30.01 136.82 30.76 138.44 33.55 C 139.73 37.31 137.18 40.89 135.46 44.05 C 137.00 44.46 138.42 45.18 139.78 46.01 C 139.08 47.25 138.77 48.87 137.48 49.68 C 135.81 51.04 133.52 50.32 131.57 50.38 C 130.01 55.86 127.64 61.43 128.55 67.24 C 129.48 67.31 131.35 67.44 132.28 67.50 C 134.55 65.56 136.63 63.41 138.51 61.09 C 138.90 61.49 139.69 62.29 140.09 62.69 C 138.43 67.82 133.57 71.12 128.55 72.42 C 125.92 73.12 122.99 71.80 121.62 69.49 C 119.54 64.62 121.88 59.33 122.06 54.28 C 118.63 55.20 115.12 55.71 111.57 55.66 C 114.30 58.83 117.01 62.57 116.74 66.99 C 116.54 74.08 112.00 81.53 104.85 83.40 C 102.35 84.03 98.67 83.51 98.22 80.44 C 96.54 76.36 98.08 72.04 98.45 67.88 C 94.98 69.93 91.44 73.34 87.08 72.43 C 82.81 70.96 83.83 65.37 83.62 61.77 C 82.20 61.49 80.78 61.17 79.36 60.87 C 77.12 66.99 71.89 72.49 64.99 72.59 C 62.43 72.93 60.60 70.88 58.82 69.41 C 54.80 71.90 49.28 74.18 44.97 71.03 C 42.18 67.69 42.63 62.97 42.95 58.92 C 43.56 54.30 44.28 48.78 48.80 46.28 C 50.80 46.92 52.80 47.65 54.53 48.88 C 52.38 54.89 48.57 61.47 51.74 67.86 C 53.73 67.65 55.65 67.12 57.48 66.33 C 57.32 62.22 57.65 57.97 59.29 54.16 C 60.34 51.64 63.10 49.85 65.87 50.53 C 68.18 51.40 67.79 54.07 67.73 56.04 C 67.61 59.16 65.89 61.88 65.22 64.86 C 65.02 68.25 69.50 68.31 71.41 66.58 C 73.99 64.66 75.64 61.60 75.93 58.41 C 74.75 57.11 73.38 55.96 72.45 54.45 C 71.96 52.88 72.48 51.25 72.67 49.68 C 75.18 48.86 78.54 48.38 80.45 50.64 C 81.12 52.80 80.59 55.14 80.53 57.37 C 81.73 57.78 82.93 58.17 84.14 58.54 C 84.93 55.00 85.61 50.99 88.43 48.43 C 90.17 46.77 92.71 47.62 94.70 48.23 C 95.45 54.75 90.55 60.33 91.27 66.89 C 94.76 67.23 96.76 64.08 98.92 61.91 C 100.29 60.55 100.32 58.54 100.67 56.77 C 98.98 56.10 97.31 55.40 95.69 54.58 C 97.24 52.78 99.48 52.02 101.69 51.39 C 103.44 44.50 104.73 37.04 109.32 31.37 M 108.95 58.53 C 107.23 65.50 103.81 72.41 104.62 79.73 C 109.36 78.72 111.54 73.71 112.65 69.49 C 113.81 65.48 112.53 60.88 108.95 58.53 Z" />
<path fill="#ffffff" opacity="1.00" d=" M 183.44 30.46 C 185.97 25.80 194.80 30.02 191.97 34.80 C 187.00 46.80 185.27 59.78 184.47 72.63 C 182.30 72.74 179.46 73.01 178.65 70.41 C 177.57 66.04 177.94 61.44 178.06 56.97 C 178.73 48.02 179.31 38.59 183.44 30.46 Z" />
<path fill="#ffffff" opacity="1.00" d=" M 92.47 33.37 C 95.03 32.56 97.60 33.67 99.91 34.71 C 99.79 38.21 97.21 40.86 95.57 43.77 C 93.88 43.15 91.53 43.17 90.76 41.23 C 89.53 38.69 90.40 35.23 92.47 33.37 Z" />
</g>
</svg>
