<?xml version="1.0" encoding="UTF-8"?>
<!DOCTYPE svg  PUBLIC '-//W3C//DTD SVG 1.1//EN'  'http://www.w3.org/Graphics/SVG/1.1/DTD/svg11.dtd'>
<svg width="193pt" height="84pt" version="1.1" viewBox="0 0 193 84" xmlns="http://www.w3.org/2000/svg">
<g fill="#fff">
<path d="m9.28 5.33c2.69-1.6 5.22-3.56 8.28-4.42 0.19 6.5 0.1 13 0.06 19.51 1.86 0.2 4.59-0.75 5.02 1.83-4.06 0.09-8.14 0.3-12.19-0.06l-0.6-1.61c1.71-0.09 3.42-0.15 5.13-0.19-0.11-5.26 0.04-10.52-0.11-15.78-2.01 0.99-3.91 2.2-5.81 3.38 0.06-0.67 0.17-1.99 0.22-2.66z"/>
<path d="m29.52 1.6c2.95-0.75 6.8-0.65 8.58 2.27 2.2 4.51 2.11 10.01 0.35 14.67-1.67 3.99-7.3 5.44-10.62 2.62-2.77-2.14-3.07-5.93-3.19-9.16-0.03-3.9 0.81-8.75 4.88-10.4m0.08 1.98c-3.07 3.33-1.98 8.28-1.93 12.4 0.34 3.59 3.93 5.75 7.29 4.38 2.43-4.63 2.11-10.1 1.18-15.08-1.29-2.37-4.25-2.77-6.54-1.7z"/>
<path d="m48.42 1.46c2.59-0.43 5.58-0.42 7.59 1.53 2.75 4.22 2.32 9.76 1.31 14.47-1.09 5.22-8.38 6.82-11.9 3.07-2.54-3.23-2.5-7.69-2.14-11.59 0.24-3.11 1.85-6.66 5.14-7.48m-0.81 1.97c-1.99 4.29-2.54 9.15-1.14 13.7-0.01 3.72 6.02 5.12 7.51 1.78 2.06-2.93 1.27-6.62 1.37-9.96 0.08-2.06-1.16-3.8-1.92-5.62-1.94-0.24-3.89-0.19-5.82 0.1z"/>
<path d="m66.32 1.84c5-0.32 10.43-1.34 15.17 0.73 6.38 4.06 5.67 15.32-1.01 18.8-4.53 1.59-9.43 0.96-14.12 0.78 1.16-0.76 2.38-1.44 3.62-2.08-0.06-5.53-0.02-11.06-0.04-16.59-1.21-0.53-2.42-1.08-3.62-1.64m6.24 1.37c0.01 5.78 0.06 11.57-0.02 17.36 3.36-0.01 7.83 0.37 9.54-3.29 1.1-3.44 0.94-7.2 0.21-10.7-1.82-3.78-6.17-3.45-9.73-3.37z"/>
<path d="m94.64 1.55c0.92-0.06 1.83-0.12 2.75-0.19 1.88 5.73 3.91 11.42 5.89 17.12 0.43 1.95 2.57 2.53 3.93 3.68-3.29 0.27-6.61 0.31-9.9-0.02 1.17-0.69 2.35-1.34 3.56-1.96-0.18-0.95-0.54-2.86-0.72-3.81-2.84-0.05-5.69-0.06-8.54-0.07-0.43 1.22-0.85 2.45-1.26 3.68 1.14 0.71 2.27 1.43 3.37 2.2-3.05 0.26-6.13 0.23-9.18 0.01 1.41-1.14 3.59-1.68 4.01-3.68 2.09-5.63 4.09-11.3 6.09-16.96m-2.44 12.99c2.31 0.05 4.62 0.05 6.93 0.02-0.96-3.34-2.09-6.63-3.32-9.88-1.42 3.2-2.5 6.54-3.61 9.86z"/>
<path d="m106.05 1.62c2.74-0.12 5.48-0.2 8.22-0.1-0.84 0.79-1.7 1.56-2.55 2.34 1.24 2.87 2.55 5.71 3.99 8.49 1.79-2.7 3.19-5.63 4.57-8.54-0.92-0.7-1.85-1.39-2.76-2.11 2.65-0.22 5.3-0.27 7.96-0.21-4.01 3.01-5.49 7.99-7.93 12.16-1.23 1.89-0.7 4.23-0.88 6.36 1.38 0.65 2.75 1.32 4.06 2.11-3.08 0.34-6.18 0.29-9.26 0.11 0.94-0.79 1.9-1.57 2.86-2.34 0.95-5.74-2.71-10.38-5.08-15.25-0.69-1.34-2.1-2.06-3.2-3.02z"/>
<path d="m129.25 2.4c3.13-2.1 7.12-0.85 10.54-0.33-0.05 1.85-0.1 3.71-0.27 5.56-1.24-1.27-2.17-2.8-3.41-4.08-1.76-0.08-3.53 0.01-5.29 0.04-0.67 1.34-1.82 2.69-1.1 4.27 2.42 2.48 6.16 2.63 8.9 4.58 3.05 2.47 1.83 8.03-1.83 9.25-3.19 1.68-6.8 0.61-10.04-0.3 0.02-1.48 0.03-2.95 0.01-4.43 0.38-0.2 1.16-0.61 1.54-0.81 0.42 1.22 0.84 2.43 1.26 3.65 3.33 1.15 8.34 0.56 8.41-3.87-2.45-2.6-6.13-3.04-9.05-4.86-2.88-1.97-2.65-6.92 0.33-8.67z"/>
<path d="m156.42 1.53c3.5-0.77 7.79-0.19 10 2.92 2.98 4.69 2.74 11.64-1.32 15.64-3.9 3.86-11.59 3.25-14.06-1.92-2.66-5.69-1.31-14.51 5.38-16.64m0.86 1.69c-2.98 0.09-3.91 3.43-4.56 5.78-0.42 3.96-0.31 8.75 3.23 11.33 2.57 0.65 6.04 0.84 7.68-1.68 2.59-2.91 1.85-7.03 1.71-10.6-0.63-3.79-4.44-5.94-8.06-4.83z"/>
<path d="m170.33 1.77c5.02-0.59 10.09-0.27 15.13-0.37-0.08 1.69-0.15 3.38-0.26 5.07-0.96-1.02-1.85-2.1-2.67-3.24-2.11 0.04-4.21 0.05-6.31 0.06-0.03 2.43-0.03 4.87-0.04 7.3 2.26 0.57 6.56-1.43 6.96 1.86-2.32 0.1-4.64 0.1-6.96 0.09 0.02 2.45 0.02 4.9-0.05 7.35 1.2 0.74 2.39 1.47 3.55 2.27-3.05 0.29-6.13 0.25-9.19 0.06 1.02-0.85 2.07-1.67 3.1-2.5-0.13-5.38-0.1-10.76-0.03-16.13-1.09-0.59-2.18-1.18-3.23-1.82z"/>
<path d="m18.49 30.53c4.67-2.66 10.72-3.67 15.79-1.61 3.66 1.42 5.96 6.46 3.45 9.83-1.68 3.41-6.18 1.92-8.82 0.6 0.53-2.04 1.74-3.78 2.78-5.58-3.31-2.16-7.51-1.61-10.39 1.02-0.47 5.47 5.33 7.98 8.72 11.18 3.88 3.92 9.51 7.11 10.39 13.03 0.71 3.66-0.45 7.66-3.18 10.24-5.82 6.01-14.93 7.24-22.88 6.28-4.91-1.11-10.09-3.66-12.13-8.56-2.79-5.37 0.89-12.6 6.69-13.95 2.99-1.27 6.92-0.45 8.26 2.75-3.44 1.61-7.74 2.52-9.5 6.31 0.08 4.54 4.6 7.89 8.8 8.54 4.67 0.82 10.49 0.64 13.53-3.57 3.04-3.66 0.62-8.78-2.21-11.82-4.05-3.91-9.06-6.95-12.16-11.77-2.52-4.24-1.6-10.35 2.86-12.92z"/>
<path d="m147.34 28.21c3.24-0.36 6.51 0.78 8.22 3.71-4.02 8.79-7.11 18.35-6.85 28.12 0.03 3.46 2.49 7.39 6.3 7.38 4.17 0.62 6.46-3.98 7.16-7.41 2.28-10.7 1.63-23.1 9.26-31.81 2.89-0.34 5.58 0.83 7.22 3.26 0.05 3.11-1.71 5.9-2.52 8.85-3.35 8.47-2.64 18.04-6.61 26.3-1.65 3.74-5.56 5.95-9.51 6.34-5.45 1.12-11.9 0.16-15.63-4.33-4.58-5.02-4.25-12.28-3.96-18.61 0.97-7.56 2.16-15.57 6.92-21.8z"/>
<path d="m109.32 31.37c2.81-3.84 8.63-2.16 11.45 0.89-0.01 0.55-0.01 1.66-0.02 2.21-5.67 3.54-7.81 10.34-9.75 16.37 3.25-0.01 6.49-0.43 9.56-1.5-0.23-1.25-0.47-2.5-0.7-3.75 1.15-0.36 2.3-0.73 3.45-1.11 1.56-5.09 3.31-10.36 7.13-14.24 3-0.23 6.38 0.52 8 3.31 1.29 3.76-1.26 7.34-2.98 10.5 1.54 0.41 2.96 1.13 4.32 1.96-0.7 1.24-1.01 2.86-2.3 3.67-1.67 1.36-3.96 0.64-5.91 0.7-1.56 5.48-3.93 11.05-3.02 16.86 0.93 0.07 2.8 0.2 3.73 0.26 2.27-1.94 4.35-4.09 6.23-6.41 0.39 0.4 1.18 1.2 1.58 1.6-1.66 5.13-6.52 8.43-11.54 9.73-2.63 0.7-5.56-0.62-6.93-2.93-2.08-4.87 0.26-10.16 0.44-15.21-3.43 0.92-6.94 1.43-10.49 1.38 2.73 3.17 5.44 6.91 5.17 11.33-0.2 7.09-4.74 14.54-11.89 16.41-2.5 0.63-6.18 0.11-6.63-2.96-1.68-4.08-0.14-8.4 0.23-12.56-3.47 2.05-7.01 5.46-11.37 4.55-4.27-1.47-3.25-7.06-3.46-10.66-1.42-0.28-2.84-0.6-4.26-0.9-2.24 6.12-7.47 11.62-14.37 11.72-2.56 0.34-4.39-1.71-6.17-3.18-4.02 2.49-9.54 4.77-13.85 1.62-2.79-3.34-2.34-8.06-2.02-12.11 0.61-4.62 1.33-10.14 5.85-12.64 2 0.64 4 1.37 5.73 2.6-2.15 6.01-5.96 12.59-2.79 18.98 1.99-0.21 3.91-0.74 5.74-1.53-0.16-4.11 0.17-8.36 1.81-12.17 1.05-2.52 3.81-4.31 6.58-3.63 2.31 0.87 1.92 3.54 1.86 5.51-0.12 3.12-1.84 5.84-2.51 8.82-0.2 3.39 4.28 3.45 6.19 1.72 2.58-1.92 4.23-4.98 4.52-8.17-1.18-1.3-2.55-2.45-3.48-3.96-0.49-1.57 0.03-3.2 0.22-4.77 2.51-0.82 5.87-1.3 7.78 0.96 0.67 2.16 0.14 4.5 0.08 6.73 1.2 0.41 2.4 0.8 3.61 1.17 0.79-3.54 1.47-7.55 4.29-10.11 1.74-1.66 4.28-0.81 6.27-0.2 0.75 6.52-4.15 12.1-3.43 18.66 3.49 0.34 5.49-2.81 7.65-4.98 1.37-1.36 1.4-3.37 1.75-5.14-1.69-0.67-3.36-1.37-4.98-2.19 1.55-1.8 3.79-2.56 6-3.19 1.75-6.89 3.04-14.35 7.63-20.02m-0.37 27.16c-1.72 6.97-5.14 13.88-4.33 21.2 4.74-1.01 6.92-6.02 8.03-10.24 1.16-4.01-0.12-8.61-3.7-10.96z"/>
<path d="m183.44 30.46c2.53-4.66 11.36-0.44 8.53 4.34-4.97 12-6.7 24.98-7.5 37.83-2.17 0.11-5.01 0.38-5.82-2.22-1.08-4.37-0.71-8.97-0.59-13.44 0.67-8.95 1.25-18.38 5.38-26.51z"/>
<path d="m92.47 33.37c2.56-0.81 5.13 0.3 7.44 1.34-0.12 3.5-2.7 6.15-4.34 9.06-1.69-0.62-4.04-0.6-4.81-2.54-1.23-2.54-0.36-6 1.71-7.86z"/>
</g>
</svg>
