<?xml version="1.0" encoding="UTF-8" ?>
<!DOCTYPE svg PUBLIC "-//W3C//DTD SVG 1.1//EN" "http://www.w3.org/Graphics/SVG/1.1/DTD/svg11.dtd">
<svg width="250pt" height="250pt" viewBox="0 0 250 250" version="1.1" xmlns="http://www.w3.org/2000/svg">
<g id="#221f1fff">
<path fill="#221f1f" opacity="1.00" d=" M 216.54 14.87 C 217.62 16.71 217.19 18.90 217.12 20.91 C 216.46 29.61 214.55 38.32 210.82 46.24 C 210.57 46.35 210.07 46.59 209.82 46.70 C 208.63 51.62 205.67 55.80 202.74 59.83 C 194.30 71.23 182.33 79.66 169.45 85.37 C 151.90 93.20 133.40 98.56 115.01 103.96 C 111.43 104.98 109.40 108.44 106.32 110.32 C 96.55 116.88 84.53 118.69 73.02 119.37 C 81.05 108.30 93.57 101.78 106.03 96.94 C 121.39 91.05 137.30 86.78 153.00 81.95 C 173.26 75.40 191.38 62.24 203.23 44.48 C 209.01 35.30 214.08 25.50 216.54 14.87 M 86.31 114.60 C 94.59 111.97 104.74 109.68 108.81 101.04 C 100.41 103.57 91.40 106.99 86.31 114.60 Z" />
<path fill="#221f1f" opacity="1.00" d=" M 94.91 43.08 C 119.87 27.39 151.85 23.70 179.77 33.09 L 180.28 32.00 C 180.22 32.75 180.10 34.26 180.05 35.01 C 179.13 36.00 178.12 36.90 177.13 37.82 C 155.41 30.61 131.08 31.95 110.13 41.08 C 82.73 52.74 61.45 77.86 54.77 106.92 C 54.47 110.12 50.82 110.55 48.48 111.73 C 48.80 109.85 49.17 107.98 49.68 106.15 C 49.69 106.10 49.71 106.01 49.72 105.97 C 49.90 105.30 50.27 103.96 50.45 103.29 C 50.46 103.24 50.49 103.13 50.50 103.07 C 56.67 78.31 73.19 56.40 94.91 43.08 Z" />
<path fill="#221f1f" opacity="1.00" d=" M 213.67 52.22 C 215.75 54.00 217.88 55.74 219.62 57.86 L 219.74 58.01 L 219.88 58.14 C 223.93 61.99 227.47 66.36 230.64 70.95 C 230.67 70.99 230.72 71.07 230.75 71.11 C 231.18 71.80 232.05 73.17 232.48 73.86 L 232.59 74.03 L 232.71 74.18 C 251.98 102.72 254.25 141.48 239.36 172.42 C 228.24 196.06 207.60 215.05 183.02 223.94 C 173.42 227.66 163.18 229.10 153.06 230.58 C 144.57 231.49 136.22 229.48 127.89 228.15 C 94.54 221.70 65.17 197.05 53.72 165.01 L 53.66 164.83 L 53.59 164.66 C 52.18 161.69 51.27 158.53 50.44 155.37 C 52.32 155.75 54.33 155.87 56.02 156.85 C 57.64 160.12 58.47 163.71 59.98 167.03 C 66.79 182.65 77.77 196.45 91.58 206.44 C 107.75 218.43 127.86 225.02 148.00 224.85 C 169.56 225.01 191.08 217.46 207.84 203.90 C 225.09 190.27 237.27 170.45 241.80 148.95 C 245.96 128.91 243.76 107.49 235.02 88.93 C 229.61 77.14 221.68 66.58 212.08 57.87 C 209.73 56.23 212.75 53.87 213.67 52.22 Z" />
<path fill="#221f1f" opacity="1.00" d=" M 174.17 89.20 C 179.81 85.85 185.52 82.56 190.67 78.44 C 187.92 87.12 185.63 95.99 184.53 105.04 C 183.98 110.72 183.52 117.05 186.97 121.98 C 192.13 130.79 200.31 137.16 208.82 142.50 C 191.38 138.14 172.82 138.92 155.54 143.69 C 137.17 149.02 120.34 159.36 107.29 173.35 C 104.79 175.84 102.75 178.78 100.01 181.03 C 105.40 169.52 114.35 160.01 124.35 152.33 C 130.76 147.38 138.05 143.57 143.84 137.83 C 157.72 124.32 166.32 106.61 174.17 89.20 Z" />
<path fill="#221f1f" opacity="1.00" d=" M 47.51 117.83 C 52.35 115.33 57.35 113.18 62.30 110.90 C 62.38 114.11 62.69 117.33 62.45 120.53 C 51.66 125.93 39.44 131.16 33.67 142.57 C 42.69 141.17 52.24 141.59 60.66 145.39 C 71.70 150.09 79.84 160.06 84.13 171.07 C 81.94 168.53 80.03 165.75 77.62 163.40 C 69.93 156.04 59.77 151.43 49.22 150.17 C 44.18 149.99 39.13 149.75 34.11 150.38 C 23.16 151.78 12.23 153.37 1.29 154.84 C 4.38 150.49 8.34 146.86 12.10 143.10 C 22.72 133.19 34.56 124.46 47.51 117.83 Z" />
</g>
<g id="#0e71baff">
<path fill="#0e71ba" opacity="1.00" d=" M 194.32 25.50 C 195.34 23.99 196.10 22.17 197.84 21.32 C 197.18 26.96 197.28 32.88 195.20 38.23 L 194.84 38.81 C 194.66 39.35 194.31 40.42 194.13 40.96 C 189.17 54.98 177.87 66.00 164.97 72.97 C 149.42 81.75 131.65 84.94 114.97 90.82 C 100.99 95.73 86.18 100.83 75.76 111.86 C 71.09 116.60 68.66 122.85 66.46 128.99 C 65.53 114.42 69.67 99.26 78.69 87.68 C 84.78 80.03 93.20 74.35 102.51 71.36 C 122.61 64.82 143.51 60.58 162.86 51.85 C 171.61 47.88 179.99 42.73 186.58 35.67 C 189.35 32.43 192.13 29.17 194.32 25.50 Z" />
<path fill="#0e71ba" opacity="1.00" d=" M 145.17 159.79 C 147.70 159.78 150.23 159.79 152.76 159.84 C 154.96 171.84 156.65 183.95 158.81 195.96 C 160.28 196.96 161.59 198.20 161.29 200.16 C 157.02 200.55 152.73 200.44 148.45 200.40 C 147.88 198.28 149.11 196.75 150.98 195.98 C 150.66 193.91 150.35 191.83 150.04 189.76 C 147.96 189.74 145.88 189.74 143.81 189.74 C 143.37 191.86 143.01 193.99 142.66 196.13 C 144.76 196.61 145.75 198.16 145.38 200.31 C 142.51 200.44 139.64 200.47 136.78 200.53 C 136.58 199.45 136.39 198.36 136.22 197.28 C 137.16 196.90 138.10 196.53 139.05 196.16 C 140.77 183.99 143.00 171.89 145.17 159.79 M 144.26 186.19 C 146.04 186.16 147.81 186.13 149.59 186.10 C 148.63 180.40 148.26 174.61 147.17 168.93 C 145.81 174.60 145.22 180.44 144.26 186.19 Z" />
<path fill="#0e71ba" opacity="1.00" d=" M 158.68 159.84 C 162.88 159.71 167.08 159.75 171.29 159.87 C 171.32 161.66 170.38 163.11 169.27 164.41 C 170.36 167.86 171.46 171.30 172.60 174.73 C 174.08 171.23 175.14 167.58 176.48 164.02 C 174.01 163.76 173.29 162.10 173.68 159.86 C 176.55 159.72 179.43 159.72 182.30 159.89 C 182.56 162.81 179.84 164.39 179.15 166.98 C 177.84 171.35 175.79 175.48 174.79 179.93 C 174.26 185.36 174.82 190.83 174.45 196.27 C 175.13 196.48 176.50 196.90 177.18 197.11 C 177.07 197.85 176.85 199.35 176.74 200.09 C 172.87 200.72 168.89 200.43 164.99 200.34 C 164.66 199.75 164.00 198.56 163.67 197.97 C 164.70 197.32 165.73 196.69 166.77 196.06 C 166.37 190.37 167.14 184.63 166.34 178.98 C 164.77 173.86 162.88 168.83 161.06 163.79 C 160.47 163.63 159.28 163.30 158.68 163.14 C 158.68 162.04 158.68 160.93 158.68 159.84 Z" />
<path fill="#0e71ba" opacity="1.00" d=" M 185.92 159.80 C 189.71 159.73 193.50 159.81 197.29 159.68 C 198.63 161.75 197.01 163.37 195.64 164.86 C 195.76 173.57 195.71 182.28 195.71 190.98 C 195.57 193.65 195.72 196.71 193.84 198.84 C 191.29 201.29 187.41 201.01 184.18 200.53 C 182.24 200.27 180.64 198.77 180.25 196.86 C 179.37 193.06 179.81 189.11 179.81 185.25 C 181.63 185.23 183.45 185.22 185.27 185.24 C 185.44 188.45 185.29 191.67 185.37 194.89 C 185.02 196.51 186.50 197.05 187.83 196.93 C 187.97 186.02 187.75 175.10 187.94 164.19 C 187.44 163.89 186.42 163.28 185.91 162.97 C 185.91 162.18 185.92 160.59 185.92 159.80 Z" />
</g>
<g id="#ffffffff">
<path fill="#ffffff" opacity="1.00" d=" M 110.13 41.08 C 131.08 31.95 155.41 30.61 177.13 37.82 C 178.12 36.90 179.13 36.00 180.05 35.01 C 180.40 34.66 181.12 33.96 181.47 33.60 C 183.16 34.33 184.87 35.02 186.58 35.67 C 179.99 42.73 171.61 47.88 162.86 51.85 C 143.51 60.58 122.61 64.82 102.51 71.36 C 93.20 74.35 84.78 80.03 78.69 87.68 C 69.67 99.26 65.53 114.42 66.46 128.99 C 68.66 122.85 71.09 116.60 75.76 111.86 C 86.18 100.83 100.99 95.73 114.97 90.82 C 131.65 84.94 149.42 81.75 164.97 72.97 C 177.87 66.00 189.17 54.98 194.13 40.96 C 194.57 40.72 195.46 40.22 195.90 39.98 C 198.40 41.37 200.71 43.10 203.23 44.48 C 191.38 62.24 173.26 75.40 153.00 81.95 C 137.30 86.78 121.39 91.05 106.03 96.94 C 93.57 101.78 81.05 108.30 73.02 119.37 C 84.53 118.69 96.55 116.88 106.32 110.32 C 109.40 108.44 111.43 104.98 115.01 103.96 C 133.40 98.56 151.90 93.20 169.45 85.37 C 182.33 79.66 194.30 71.23 202.74 59.83 C 205.67 55.80 208.63 51.62 209.82 46.70 C 210.07 46.59 210.57 46.35 210.82 46.24 C 210.51 47.26 210.08 48.24 209.63 49.20 C 211.01 50.16 212.35 51.19 213.67 52.22 C 212.75 53.87 209.73 56.23 212.08 57.87 C 221.68 66.58 229.61 77.14 235.02 88.93 C 243.76 107.49 245.96 128.91 241.80 148.95 C 237.27 170.45 225.09 190.27 207.84 203.90 C 191.08 217.46 169.56 225.01 148.00 224.85 C 127.86 225.02 107.75 218.43 91.58 206.44 C 77.77 196.45 66.79 182.65 59.98 167.03 C 58.47 163.71 57.64 160.12 56.02 156.85 C 54.33 155.87 52.32 155.75 50.44 155.37 C 50.03 153.63 49.63 151.90 49.22 150.17 C 59.77 151.43 69.93 156.04 77.62 163.40 C 80.03 165.75 81.94 168.53 84.13 171.07 C 79.84 160.06 71.70 150.09 60.66 145.39 C 52.24 141.59 42.69 141.17 33.67 142.57 C 39.44 131.16 51.66 125.93 62.45 120.53 C 62.69 117.33 62.38 114.11 62.30 110.90 C 57.35 113.18 52.35 115.33 47.51 117.83 C 47.92 115.81 48.21 113.77 48.48 111.73 C 50.82 110.55 54.47 110.12 54.77 106.92 C 61.45 77.86 82.73 52.74 110.13 41.08 M 174.17 89.20 C 166.32 106.61 157.72 124.32 143.84 137.83 C 138.05 143.57 130.76 147.38 124.35 152.33 C 114.35 160.01 105.40 169.52 100.01 181.03 C 102.75 178.78 104.79 175.84 107.29 173.35 C 120.34 159.36 137.17 149.02 155.54 143.69 C 172.82 138.92 191.38 138.14 208.82 142.50 C 200.31 137.16 192.13 130.79 186.97 121.98 C 183.52 117.05 183.98 110.72 184.53 105.04 C 185.63 95.99 187.92 87.12 190.67 78.44 C 185.52 82.56 179.81 85.85 174.17 89.20 M 145.17 159.79 C 143.00 171.89 140.77 183.99 139.05 196.16 C 138.10 196.53 137.16 196.90 136.22 197.28 C 136.39 198.36 136.58 199.45 136.78 200.53 C 139.64 200.47 142.51 200.44 145.38 200.31 C 145.75 198.16 144.76 196.61 142.66 196.13 C 143.01 193.99 143.37 191.86 143.81 189.74 C 145.88 189.74 147.96 189.74 150.04 189.76 C 150.35 191.83 150.66 193.91 150.98 195.98 C 149.11 196.75 147.88 198.28 148.45 200.40 C 152.73 200.44 157.02 200.55 161.29 200.16 C 161.59 198.20 160.28 196.96 158.81 195.96 C 156.65 183.95 154.96 171.84 152.76 159.84 C 150.23 159.79 147.70 159.78 145.17 159.79 M 158.68 159.84 C 158.68 160.93 158.68 162.04 158.68 163.14 C 159.28 163.30 160.47 163.63 161.06 163.79 C 162.88 168.83 164.77 173.86 166.34 178.98 C 167.14 184.63 166.37 190.37 166.77 196.06 C 165.73 196.69 164.70 197.32 163.67 197.97 C 164.00 198.56 164.66 199.75 164.99 200.34 C 168.89 200.43 172.87 200.72 176.74 200.09 C 176.85 199.35 177.07 197.85 177.18 197.11 C 176.50 196.90 175.13 196.48 174.45 196.27 C 174.82 190.83 174.26 185.36 174.79 179.93 C 175.79 175.48 177.84 171.35 179.15 166.98 C 179.84 164.39 182.56 162.81 182.30 159.89 C 179.43 159.72 176.55 159.72 173.68 159.86 C 173.29 162.10 174.01 163.76 176.48 164.02 C 175.14 167.58 174.08 171.23 172.60 174.73 C 171.46 171.30 170.36 167.86 169.27 164.41 C 170.38 163.11 171.32 161.66 171.29 159.87 C 167.08 159.75 162.88 159.71 158.68 159.84 M 185.92 159.80 C 185.92 160.59 185.91 162.18 185.91 162.97 C 186.42 163.28 187.44 163.89 187.94 164.19 C 187.75 175.10 187.97 186.02 187.83 196.93 C 186.50 197.05 185.02 196.51 185.37 194.89 C 185.29 191.67 185.44 188.45 185.27 185.24 C 183.45 185.22 181.63 185.23 179.81 185.25 C 179.81 189.11 179.37 193.06 180.25 196.86 C 180.64 198.77 182.24 200.27 184.18 200.53 C 187.41 201.01 191.29 201.29 193.84 198.84 C 195.72 196.71 195.57 193.65 195.71 190.98 C 195.71 182.28 195.76 173.57 195.64 164.86 C 197.01 163.37 198.63 161.75 197.29 159.68 C 193.50 159.81 189.71 159.73 185.92 159.80 Z" />
<path fill="#ffffff" opacity="1.00" d=" M 219.62 57.86 C 219.68 57.93 219.81 58.07 219.88 58.14 L 219.74 58.01 L 219.62 57.86 Z" />
<path fill="#ffffff" opacity="1.00" d=" M 230.64 70.95 C 230.67 70.99 230.72 71.07 230.75 71.11 C 230.72 71.07 230.67 70.99 230.64 70.95 Z" />
<path fill="#ffffff" opacity="1.00" d=" M 232.48 73.86 C 232.54 73.94 232.65 74.10 232.71 74.18 L 232.59 74.03 L 232.48 73.86 Z" />
<path fill="#ffffff" opacity="1.00" d=" M 50.45 103.29 C 50.46 103.24 50.49 103.13 50.50 103.07 C 50.49 103.13 50.46 103.24 50.45 103.29 Z" />
<path fill="#ffffff" opacity="1.00" d=" M 86.31 114.60 C 91.40 106.99 100.41 103.57 108.81 101.04 C 104.74 109.68 94.59 111.97 86.31 114.60 Z" />
<path fill="#ffffff" opacity="1.00" d=" M 49.68 106.15 C 49.69 106.10 49.71 106.01 49.72 105.97 C 49.71 106.01 49.69 106.10 49.68 106.15 Z" />
<path fill="#ffffff" opacity="1.00" d=" M 53.59 164.66 L 53.66 164.83 L 53.72 165.01 C 53.69 164.92 53.62 164.75 53.59 164.66 Z" />
<path fill="#ffffff" opacity="1.00" d=" M 144.26 186.19 C 145.22 180.44 145.81 174.60 147.17 168.93 C 148.26 174.61 148.63 180.40 149.59 186.10 C 147.81 186.13 146.04 186.16 144.26 186.19 Z" />
</g>
</svg>
