<?xml version="1.0" encoding="UTF-8"?>
<!DOCTYPE svg  PUBLIC '-//W3C//DTD SVG 1.1//EN'  'http://www.w3.org/Graphics/SVG/1.1/DTD/svg11.dtd'>
<svg width="250pt" height="250pt" version="1.1" viewBox="0 0 250 250" xmlns="http://www.w3.org/2000/svg">
<g fill="#221f1f">
<path d="m216.54 14.87c1.08 1.84 0.65 4.03 0.58 6.04-0.66 8.7-2.57 17.41-6.3 25.33-0.25 0.11-0.75 0.35-1 0.46-1.19 4.92-4.15 9.1-7.08 13.13-8.44 11.4-20.41 19.83-33.29 25.54-17.55 7.83-36.05 13.19-54.44 18.59-3.58 1.02-5.61 4.48-8.69 6.36-9.77 6.56-21.79 8.37-33.3 9.05 8.03-11.07 20.55-17.59 33.01-22.43 15.36-5.89 31.27-10.16 46.97-14.99 20.26-6.55 38.38-19.71 50.23-37.47 5.78-9.18 10.85-18.98 13.31-29.61m-130.23 99.73c8.28-2.63 18.43-4.92 22.5-13.56-8.4 2.53-17.41 5.95-22.5 13.56z"/>
<path d="m94.91 43.08c24.96-15.69 56.94-19.38 84.86-9.99l0.51-1.09c-0.06 0.75-0.18 2.26-0.23 3.01-0.92 0.99-1.93 1.89-2.92 2.81-21.72-7.21-46.05-5.87-67 3.26-27.4 11.66-48.68 36.78-55.36 65.84-0.3 3.2-3.95 3.63-6.29 4.81 0.32-1.88 0.69-3.75 1.2-5.58 0.01-0.05 0.03-0.14 0.04-0.18 0.18-0.67 0.55-2.01 0.73-2.68 0.01-0.05 0.04-0.16 0.05-0.22 6.17-24.76 22.69-46.67 44.41-59.99z"/>
<path d="m213.67 52.22c2.08 1.78 4.21 3.52 5.95 5.64l0.12 0.15 0.14 0.13c4.05 3.85 7.59 8.22 10.76 12.81 0.03 0.04 0.08 0.12 0.11 0.16 0.43 0.69 1.3 2.06 1.73 2.75l0.11 0.17 0.12 0.15c19.27 28.54 21.54 67.3 6.65 98.24-11.12 23.64-31.76 42.63-56.34 51.52-9.6 3.72-19.84 5.16-29.96 6.64-8.49 0.91-16.84-1.1-25.17-2.43-33.35-6.45-62.72-31.1-74.17-63.14l-0.06-0.18-0.07-0.17c-1.41-2.97-2.32-6.13-3.15-9.29 1.88 0.38 3.89 0.5 5.58 1.48 1.62 3.27 2.45 6.86 3.96 10.18 6.81 15.62 17.79 29.42 31.6 39.41 16.17 11.99 36.28 18.58 56.42 18.41 21.56 0.16 43.08-7.39 59.84-20.95 17.25-13.63 29.43-33.45 33.96-54.95 4.16-20.04 1.96-41.46-6.78-60.02-5.41-11.79-13.34-22.35-22.94-31.06-2.35-1.64 0.67-4 1.59-5.65z"/>
<path d="m174.17 89.2c5.64-3.35 11.35-6.64 16.5-10.76-2.75 8.68-5.04 17.55-6.14 26.6-0.55 5.68-1.01 12.01 2.44 16.94 5.16 8.81 13.34 15.18 21.85 20.52-17.44-4.36-36-3.58-53.28 1.19-18.37 5.33-35.2 15.67-48.25 29.66-2.5 2.49-4.54 5.43-7.28 7.68 5.39-11.51 14.34-21.02 24.34-28.7 6.41-4.95 13.7-8.76 19.49-14.5 13.88-13.51 22.48-31.22 30.33-48.63z"/>
<path d="m47.51 117.83c4.84-2.5 9.84-4.65 14.79-6.93 0.08 3.21 0.39 6.43 0.15 9.63-10.79 5.4-23.01 10.63-28.78 22.04 9.02-1.4 18.57-0.98 26.99 2.82 11.04 4.7 19.18 14.67 23.47 25.68-2.19-2.54-4.1-5.32-6.51-7.67-7.69-7.36-17.85-11.97-28.4-13.23-5.04-0.18-10.09-0.42-15.11 0.21-10.95 1.4-21.88 2.99-32.82 4.46 3.09-4.35 7.05-7.98 10.81-11.74 10.62-9.91 22.46-18.64 35.41-25.27z"/>
</g>
<g fill="#0e71ba">
<path d="m194.32 25.5c1.02-1.51 1.78-3.33 3.52-4.18-0.66 5.64-0.56 11.56-2.64 16.91l-0.36 0.58c-0.18 0.54-0.53 1.61-0.71 2.15-4.96 14.02-16.26 25.04-29.16 32.01-15.55 8.78-33.32 11.97-50 17.85-13.98 4.91-28.79 10.01-39.21 21.04-4.67 4.74-7.1 10.99-9.3 17.13-0.93-14.57 3.21-29.73 12.23-41.31 6.09-7.65 14.51-13.33 23.82-16.32 20.1-6.54 41-10.78 60.35-19.51 8.75-3.97 17.13-9.12 23.72-16.18 2.77-3.24 5.55-6.5 7.74-10.17z"/>
<path d="m145.17 159.79c2.53-0.01 5.06 0 7.59 0.05 2.2 12 3.89 24.11 6.05 36.12 1.47 1 2.78 2.24 2.48 4.2-4.27 0.39-8.56 0.28-12.84 0.24-0.57-2.12 0.66-3.65 2.53-4.42-0.32-2.07-0.63-4.15-0.94-6.22-2.08-0.02-4.16-0.02-6.23-0.02-0.44 2.12-0.8 4.25-1.15 6.39 2.1 0.48 3.09 2.03 2.72 4.18-2.87 0.13-5.74 0.16-8.6 0.22-0.2-1.08-0.39-2.17-0.56-3.25 0.94-0.38 1.88-0.75 2.83-1.12 1.72-12.17 3.95-24.27 6.12-36.37m-0.91 26.4c1.78-0.03 3.55-0.06 5.33-0.09-0.96-5.7-1.33-11.49-2.42-17.17-1.36 5.67-1.95 11.51-2.91 17.26z"/>
<path d="m158.68 159.84c4.2-0.13 8.4-0.09 12.61 0.03 0.03 1.79-0.91 3.24-2.02 4.54 1.09 3.45 2.19 6.89 3.33 10.32 1.48-3.5 2.54-7.15 3.88-10.71-2.47-0.26-3.19-1.92-2.8-4.16 2.87-0.14 5.75-0.14 8.62 0.03 0.26 2.92-2.46 4.5-3.15 7.09-1.31 4.37-3.36 8.5-4.36 12.95-0.53 5.43 0.03 10.9-0.34 16.34 0.68 0.21 2.05 0.63 2.73 0.84-0.11 0.74-0.33 2.24-0.44 2.98-3.87 0.63-7.85 0.34-11.75 0.25-0.33-0.59-0.99-1.78-1.32-2.37 1.03-0.65 2.06-1.28 3.1-1.91-0.4-5.69 0.37-11.43-0.43-17.08-1.57-5.12-3.46-10.15-5.28-15.19-0.59-0.16-1.78-0.49-2.38-0.65v-3.3z"/>
<path d="m185.92 159.8c3.79-0.07 7.58 0.01 11.37-0.12 1.34 2.07-0.28 3.69-1.65 5.18 0.12 8.71 0.07 17.42 0.07 26.12-0.14 2.67 0.01 5.73-1.87 7.86-2.55 2.45-6.43 2.17-9.66 1.69-1.94-0.26-3.54-1.76-3.93-3.67-0.88-3.8-0.44-7.75-0.44-11.61 1.82-0.02 3.64-0.03 5.46-0.01 0.17 3.21 0.02 6.43 0.1 9.65-0.35 1.62 1.13 2.16 2.46 2.04 0.14-10.91-0.08-21.83 0.11-32.74-0.5-0.3-1.52-0.91-2.03-1.22 0-0.79 0.01-2.38 0.01-3.17z"/>
</g>
<g fill="#fff">
<path d="m110.13 41.08c20.95-9.13 45.28-10.47 67-3.26 0.99-0.92 2-1.82 2.92-2.81 0.35-0.35 1.07-1.05 1.42-1.41 1.69 0.73 3.4 1.42 5.11 2.07-6.59 7.06-14.97 12.21-23.72 16.18-19.35 8.73-40.25 12.97-60.35 19.51-9.31 2.99-17.73 8.67-23.82 16.32-9.02 11.58-13.16 26.74-12.23 41.31 2.2-6.14 4.63-12.39 9.3-17.13 10.42-11.03 25.23-16.13 39.21-21.04 16.68-5.88 34.45-9.07 50-17.85 12.9-6.97 24.2-17.99 29.16-32.01 0.44-0.24 1.33-0.74 1.77-0.98 2.5 1.39 4.81 3.12 7.33 4.5-11.85 17.76-29.97 30.92-50.23 37.47-15.7 4.83-31.61 9.1-46.97 14.99-12.46 4.84-24.98 11.36-33.01 22.43 11.51-0.68 23.53-2.49 33.3-9.05 3.08-1.88 5.11-5.34 8.69-6.36 18.39-5.4 36.89-10.76 54.44-18.59 12.88-5.71 24.85-14.14 33.29-25.54 2.93-4.03 5.89-8.21 7.08-13.13 0.25-0.11 0.75-0.35 1-0.46-0.31 1.02-0.74 2-1.19 2.96 1.38 0.96 2.72 1.99 4.04 3.02-0.92 1.65-3.94 4.01-1.59 5.65 9.6 8.71 17.53 19.27 22.94 31.06 8.74 18.56 10.94 39.98 6.78 60.02-4.53 21.5-16.71 41.32-33.96 54.95-16.76 13.56-38.28 21.11-59.84 20.95-20.14 0.17-40.25-6.42-56.42-18.41-13.81-9.99-24.79-23.79-31.6-39.41-1.51-3.32-2.34-6.91-3.96-10.18-1.69-0.98-3.7-1.1-5.58-1.48-0.41-1.74-0.81-3.47-1.22-5.2 10.55 1.26 20.71 5.87 28.4 13.23 2.41 2.35 4.32 5.13 6.51 7.67-4.29-11.01-12.43-20.98-23.47-25.68-8.42-3.8-17.97-4.22-26.99-2.82 5.77-11.41 17.99-16.64 28.78-22.04 0.24-3.2-0.07-6.42-0.15-9.63-4.95 2.28-9.95 4.43-14.79 6.93 0.41-2.02 0.7-4.06 0.97-6.1 2.34-1.18 5.99-1.61 6.29-4.81 6.68-29.06 27.96-54.18 55.36-65.84m64.04 48.12c-7.85 17.41-16.45 35.12-30.33 48.63-5.79 5.74-13.08 9.55-19.49 14.5-10 7.68-18.95 17.19-24.34 28.7 2.74-2.25 4.78-5.19 7.28-7.68 13.05-13.99 29.88-24.33 48.25-29.66 17.28-4.77 35.84-5.55 53.28-1.19-8.51-5.34-16.69-11.71-21.85-20.52-3.45-4.93-2.99-11.26-2.44-16.94 1.1-9.05 3.39-17.92 6.14-26.6-5.15 4.12-10.86 7.41-16.5 10.76m-29 70.59c-2.17 12.1-4.4 24.2-6.12 36.37-0.95 0.37-1.89 0.74-2.83 1.12 0.17 1.08 0.36 2.17 0.56 3.25 2.86-0.06 5.73-0.09 8.6-0.22 0.37-2.15-0.62-3.7-2.72-4.18 0.35-2.14 0.71-4.27 1.15-6.39 2.07 0 4.15 0 6.23 0.02 0.31 2.07 0.62 4.15 0.94 6.22-1.87 0.77-3.1 2.3-2.53 4.42 4.28 0.04 8.57 0.15 12.84-0.24 0.3-1.96-1.01-3.2-2.48-4.2-2.16-12.01-3.85-24.12-6.05-36.12-2.53-0.05-5.06-0.06-7.59-0.05m13.51 0.05v3.3c0.6 0.16 1.79 0.49 2.38 0.65 1.82 5.04 3.71 10.07 5.28 15.19 0.8 5.65 0.03 11.39 0.43 17.08-1.04 0.63-2.07 1.26-3.1 1.91 0.33 0.59 0.99 1.78 1.32 2.37 3.9 0.09 7.88 0.38 11.75-0.25 0.11-0.74 0.33-2.24 0.44-2.98-0.68-0.21-2.05-0.63-2.73-0.84 0.37-5.44-0.19-10.91 0.34-16.34 1-4.45 3.05-8.58 4.36-12.95 0.69-2.59 3.41-4.17 3.15-7.09-2.87-0.17-5.75-0.17-8.62-0.03-0.39 2.24 0.33 3.9 2.8 4.16-1.34 3.56-2.4 7.21-3.88 10.71-1.14-3.43-2.24-6.87-3.33-10.32 1.11-1.3 2.05-2.75 2.02-4.54-4.21-0.12-8.41-0.16-12.61-0.03m27.24-0.04c0 0.79-0.01 2.38-0.01 3.17 0.51 0.31 1.53 0.92 2.03 1.22-0.19 10.91 0.03 21.83-0.11 32.74-1.33 0.12-2.81-0.42-2.46-2.04-0.08-3.22 0.07-6.44-0.1-9.65-1.82-0.02-3.64-0.01-5.46 0.01 0 3.86-0.44 7.81 0.44 11.61 0.39 1.91 1.99 3.41 3.93 3.67 3.23 0.48 7.11 0.76 9.66-1.69 1.88-2.13 1.73-5.19 1.87-7.86 0-8.7 0.05-17.41-0.07-26.12 1.37-1.49 2.99-3.11 1.65-5.18-3.79 0.13-7.58 0.05-11.37 0.12z"/>
<path d="m219.62 57.86c0.06 0.07 0.19 0.21 0.26 0.28l-0.14-0.13-0.12-0.15z"/>
<path d="m230.64 70.95c0.03 0.04 0.08 0.12 0.11 0.16-0.03-0.04-0.08-0.12-0.11-0.16z"/>
<path d="m232.48 73.86c0.06 0.08 0.17 0.24 0.23 0.32l-0.12-0.15-0.11-0.17z"/>
<path d="m50.45 103.29c0.01-0.05 0.04-0.16 0.05-0.22-0.01 0.06-0.04 0.17-0.05 0.22z"/>
<path d="m86.31 114.6c5.09-7.61 14.1-11.03 22.5-13.56-4.07 8.64-14.22 10.93-22.5 13.56z"/>
<path d="m49.68 106.15c0.01-0.05 0.03-0.14 0.04-0.18-0.01 0.04-0.03 0.13-0.04 0.18z"/>
<path d="m53.59 164.66l0.07 0.17 0.06 0.18c-0.03-0.09-0.1-0.26-0.13-0.35z"/>
<path d="m144.26 186.19c0.96-5.75 1.55-11.59 2.91-17.26 1.09 5.68 1.46 11.47 2.42 17.17-1.78 0.03-3.55 0.06-5.33 0.09z"/>
</g>
</svg>
