<?xml version="1.0" encoding="UTF-8"?>
<!DOCTYPE svg  PUBLIC '-//W3C//DTD SVG 1.1//EN'  'http://www.w3.org/Graphics/SVG/1.1/DTD/svg11.dtd'>
<svg width="852pt" height="852pt" version="1.1" viewBox="0 0 852 852" xmlns="http://www.w3.org/2000/svg">
<g>
<path d="m134.98 0h581.22l0.07 0.98c-193.38 0.03-386.78 0.04-580.16 0l-1.13-0.98z" opacity=".63"/>
<path d="m0 136.29l0.93-0.87c0.16 193.94 0.05 387.88 0.06 581.81l-0.99-0.27v-580.67z" opacity=".63"/>
</g>
<g>
<path d="m57.22 29.25c22.61-17.06 50.49-27.54 78.89-28.27 193.38 0.04 386.78 0.03 580.16 0 32.93 1.23 64.99 15.25 89.03 37.66 23.02 21.29 38.75 50.37 43.62 81.37 1.54 9.26 1.9 18.66 1.75 28.03v549.93c0.14 12.22 0.07 24.53-2.3 36.57-5.73 31.57-22.73 60.86-47.06 81.73-23.31 20.22-53.38 32.53-84.22 34.18-12.68 0.47-25.38 0.1-38.07 0.22h-522c-10.4-0.08-20.83 0.38-31.17-0.94-31.47-3.6-61.44-18.33-83.72-40.8-24.23-24.2-39.52-57.42-41.14-91.7-0.01-193.93 0.1-387.87-0.06-581.81 1.49-41.48 23.17-81.36 56.29-106.17m174.31 156.31c0.12 165.25 0.02 330.51 0.06 495.77 70.8 0.01 141.6 0 212.4 0 19.39 0.11 38.84-0.02 58.11-2.52 23.59-2.84 46.85-9.13 68.27-19.5 25.98-12.36 48.89-32.87 60.21-59.71 7.82-18.12 11.47-37.93 11.25-57.63-0.04-20.69-3.21-41.59-11.21-60.76-6.57-15.73-16.35-30.32-29.43-41.36-14.74-12.62-33.09-20.42-51.94-24.47-0.14-0.32-0.41-0.98-0.54-1.31 6.01-3.04 12.25-5.75 17.97-9.37 16.54-9.98 30.79-24.02 40.02-41.06 8.76-16.06 12.63-34.44 12.92-52.64 0.29-19.99-2.52-40.38-10.97-58.65-6.68-14.61-17.19-27.39-30.08-36.95-17.96-13.52-39.42-21.78-61.39-25.97-26.38-5.33-53.4-3.78-80.14-4.01-68.5 0.09-137.02-0.19-205.51 0.14z"/>
<path d="m318.25 256.18c40.59-0.04 81.18 0 121.77-0.02 18.34 0.09 37.21-1.06 54.85 4.98 10.97 3.69 21.63 10.04 27.95 20.01 8.26 12.95 10.1 28.78 10.1 43.82 0.04 16.26-4.35 33.24-15.6 45.42-14.25 15.43-35.6 22.73-56.28 22.69-47.6-0.06-95.21 0.14-142.8-0.1 0.02-45.6 0.01-91.2 0.01-136.8z"/>
<path d="m318.41 458.99c-0.05-1.16 0-2.31 0.14-3.45 44.82 0.1 89.64 0.01 134.45 0.04 17.9 0.02 36.25-0.83 53.51 4.78 16.74 5.06 31.98 16.28 40.08 32 8.52 16.4 9.9 35.6 7.83 53.7-1.98 16.7-9.09 33.19-21.82 44.49-15.17 14.15-36.44 19.38-56.69 19.82-52.44 0.16-104.89-0.09-157.33 0.13-0.39-50.49-0.04-101.01-0.17-151.51z"/>
</g>
</svg>
