<?xml version="1.0" encoding="UTF-8" ?>
<!DOCTYPE svg PUBLIC "-//W3C//DTD SVG 1.1//EN" "http://www.w3.org/Graphics/SVG/1.1/DTD/svg11.dtd">
<svg width="852pt" height="852pt" viewBox="0 0 852 852" version="1.1" xmlns="http://www.w3.org/2000/svg">
<g id="#000000a0">
<path fill="#000000" opacity="0.63" d=" M 134.98 0.00 L 716.20 0.00 L 716.27 0.98 C 522.89 1.01 329.49 1.02 136.11 0.98 L 134.98 0.00 Z" />
<path fill="#000000" opacity="0.63" d=" M 0.00 136.29 L 0.93 135.42 C 1.09 329.36 0.98 523.30 0.99 717.23 L 0.00 716.96 L 0.00 136.29 Z" />
</g>
<g id="#000000ff">
<path fill="#000000" opacity="1.00" d=" M 57.22 29.25 C 79.83 12.19 107.71 1.71 136.11 0.98 C 329.49 1.02 522.89 1.01 716.27 0.98 C 749.20 2.21 781.26 16.23 805.30 38.64 C 828.32 59.93 844.05 89.01 848.92 120.01 C 850.46 129.27 850.82 138.67 850.67 148.04 C 850.67 331.35 850.67 514.66 850.67 697.97 C 850.81 710.19 850.74 722.50 848.37 734.54 C 842.64 766.11 825.64 795.40 801.31 816.27 C 778.00 836.49 747.93 848.80 717.09 850.45 C 704.41 850.92 691.71 850.55 679.02 850.67 C 505.02 850.67 331.02 850.67 157.02 850.67 C 146.62 850.59 136.19 851.05 125.85 849.73 C 94.38 846.13 64.41 831.40 42.13 808.93 C 17.90 784.73 2.61 751.51 0.99 717.23 C 0.98 523.30 1.09 329.36 0.93 135.42 C 2.42 93.94 24.10 54.06 57.22 29.25 M 231.53 185.56 C 231.65 350.81 231.55 516.07 231.59 681.33 C 302.39 681.34 373.19 681.33 443.99 681.33 C 463.38 681.44 482.83 681.31 502.10 678.81 C 525.69 675.97 548.95 669.68 570.37 659.31 C 596.35 646.95 619.26 626.44 630.58 599.60 C 638.40 581.48 642.05 561.67 641.83 541.97 C 641.79 521.28 638.62 500.38 630.62 481.21 C 624.05 465.48 614.27 450.89 601.19 439.85 C 586.45 427.23 568.10 419.43 549.25 415.38 C 549.11 415.06 548.84 414.40 548.71 414.07 C 554.72 411.03 560.96 408.32 566.68 404.70 C 583.22 394.72 597.47 380.68 606.70 363.64 C 615.46 347.58 619.33 329.20 619.62 311.00 C 619.91 291.01 617.10 270.62 608.65 252.35 C 601.97 237.74 591.46 224.96 578.57 215.40 C 560.61 201.88 539.15 193.62 517.18 189.43 C 490.80 184.10 463.78 185.65 437.04 185.42 C 368.54 185.51 300.02 185.23 231.53 185.56 Z" />
<path fill="#000000" opacity="1.00" d=" M 318.25 256.18 C 358.84 256.14 399.43 256.18 440.02 256.16 C 458.36 256.25 477.23 255.10 494.87 261.14 C 505.84 264.83 516.50 271.18 522.82 281.15 C 531.08 294.10 532.92 309.93 532.92 324.97 C 532.96 341.23 528.57 358.21 517.32 370.39 C 503.07 385.82 481.72 393.12 461.04 393.08 C 413.44 393.02 365.83 393.22 318.24 392.98 C 318.26 347.38 318.25 301.78 318.25 256.18 Z" />
<path fill="#000000" opacity="1.00" d=" M 318.41 458.99 C 318.36 457.83 318.41 456.68 318.55 455.54 C 363.37 455.64 408.19 455.55 453.00 455.58 C 470.90 455.60 489.25 454.75 506.51 460.36 C 523.25 465.42 538.49 476.64 546.59 492.36 C 555.11 508.76 556.49 527.96 554.42 546.06 C 552.44 562.76 545.33 579.25 532.60 590.55 C 517.43 604.70 496.16 609.93 475.91 610.37 C 423.47 610.53 371.02 610.28 318.58 610.50 C 318.19 560.01 318.54 509.49 318.41 458.99 Z" />
</g>
</svg>
