<?xml version="1.0" encoding="UTF-8" ?>
<!DOCTYPE svg PUBLIC "-//W3C//DTD SVG 1.1//EN" "http://www.w3.org/Graphics/SVG/1.1/DTD/svg11.dtd">
<svg width="760pt" height="760pt" viewBox="0 0 760 760" version="1.1" xmlns="http://www.w3.org/2000/svg">
<g id="#ffffffff">
<path fill="#ffffff" opacity="1.00" d=" M 332.55 13.86 C 401.79 9.52 471.49 15.55 539.34 29.81 C 579.62 38.21 619.27 49.50 658.18 62.85 C 663.24 64.58 668.08 67.52 671.11 72.02 C 674.32 76.68 675.19 82.50 675.09 88.04 C 674.31 171.70 675.29 255.38 673.22 339.03 C 672.59 360.67 672.34 382.36 669.95 403.90 C 665.73 444.07 655.84 483.74 639.62 520.78 C 625.77 552.60 607.14 582.31 584.79 608.85 C 553.23 646.36 514.49 677.45 472.37 702.35 C 446.44 717.36 418.74 728.93 391.59 741.50 C 383.60 745.29 374.05 745.37 365.94 741.92 C 329.52 726.11 293.86 708.27 260.62 686.48 C 230.07 666.45 201.62 642.97 177.33 615.62 C 157.15 593.01 139.98 567.77 126.02 540.89 C 103.68 498.05 89.16 451.06 84.21 402.96 C 81.40 377.74 82.10 352.32 81.84 326.99 C 81.95 248.34 82.23 169.68 81.43 91.03 C 81.32 84.51 82.28 77.61 86.17 72.19 C 89.97 66.76 96.04 63.49 102.16 61.35 C 176.42 35.52 253.99 18.59 332.55 13.86 M 286.86 28.44 C 224.95 35.90 164.05 50.85 105.21 71.37 C 100.95 72.91 96.49 75.05 94.14 79.12 C 91.54 83.62 91.87 89.02 91.91 94.02 C 92.36 138.00 92.41 181.99 92.44 225.97 C 92.52 273.64 91.96 321.31 92.58 368.97 C 93.12 396.10 96.31 423.26 102.89 449.59 C 127.91 476.35 161.90 494.52 198.05 500.47 C 240.06 507.58 283.17 499.99 323.03 486.18 C 272.10 448.12 221.15 410.10 170.20 372.07 C 187.90 367.25 205.58 362.40 223.28 357.61 C 206.83 318.57 190.29 279.57 173.77 240.56 C 210.00 251.11 246.21 261.70 282.44 272.23 C 285.71 249.46 288.67 226.63 291.97 203.86 C 325.53 239.94 358.96 276.14 392.52 312.21 C 377.81 247.74 362.97 183.29 348.23 118.83 C 374.56 132.72 400.85 146.68 427.17 160.59 C 443.26 116.89 459.32 73.17 475.39 29.46 C 412.93 21.12 349.42 20.82 286.86 28.44 M 494.17 32.19 C 509.94 74.98 525.65 117.80 541.41 160.60 C 567.71 146.67 594.02 132.74 620.33 118.82 C 605.65 183.31 590.74 247.74 576.08 312.23 C 605.47 280.58 634.79 248.87 664.20 217.25 C 664.26 174.18 664.27 131.11 664.64 88.04 C 664.65 84.27 664.45 80.08 661.86 77.08 C 659.05 73.80 654.69 72.74 650.78 71.38 C 599.77 54.08 547.43 40.48 494.17 32.19 M 434.94 180.89 C 413.02 169.30 391.12 157.66 369.18 146.10 C 385.54 217.83 402.03 289.52 418.46 361.23 C 379.62 319.42 340.87 277.52 302.01 235.72 C 299.34 254.01 296.96 272.34 294.36 290.65 C 262.50 281.31 230.63 272.00 198.74 262.77 C 213.38 297.54 228.13 332.26 242.82 367.01 C 229.37 370.87 215.81 374.36 202.34 378.16 C 247.88 412.27 293.50 446.27 339.10 480.30 C 396.64 458.22 457.16 442.04 519.01 439.69 C 563.21 438.01 608.08 444.21 649.21 460.92 C 655.22 437.35 659.02 413.23 660.83 388.97 C 662.15 370.34 662.40 351.65 662.93 332.98 C 663.71 301.44 663.91 269.89 664.13 238.34 C 626.11 279.25 588.21 320.29 550.14 361.17 C 566.58 289.45 583.04 217.74 599.44 146.02 C 577.53 157.70 555.56 169.28 533.61 180.89 C 517.21 136.20 500.79 91.51 484.31 46.85 C 467.72 91.48 451.45 136.23 434.94 180.89 M 112.99 484.45 C 115.53 490.75 117.34 497.38 120.40 503.44 C 138.40 522.92 161.45 537.35 186.19 546.66 C 228.11 562.37 273.76 564.87 318.05 561.78 C 367.24 557.78 416.90 556.83 465.95 563.03 C 505.62 568.17 545.38 577.94 580.47 597.69 C 592.10 583.38 602.65 568.19 611.98 552.27 C 577.96 533.62 539.37 524.83 500.93 521.70 C 450.07 517.76 398.91 522.95 348.91 532.39 C 303.59 541.15 256.38 543.94 211.00 534.05 C 174.82 526.27 140.35 509.55 112.99 484.45 M 140.08 544.94 C 155.21 572.35 174.02 597.71 195.84 620.15 C 219.02 644.04 245.46 664.61 273.58 682.37 C 304.42 701.80 337.15 718.08 370.60 732.51 C 377.10 735.28 384.46 733.86 390.46 730.51 C 416.27 718.59 442.56 707.54 467.19 693.25 C 483.89 683.44 499.91 672.50 515.30 660.75 C 491.46 643.88 464.88 631.14 437.28 621.75 C 398.41 608.52 357.65 601.55 316.81 598.18 C 289.65 595.96 262.57 592.23 236.04 585.94 C 202.12 577.80 168.51 565.59 140.08 544.94 Z" />
</g>
<g id="#000000ff">
<path fill="#000000" opacity="1.00" d=" M 286.86 28.44 C 349.42 20.82 412.93 21.12 475.39 29.46 C 459.32 73.17 443.26 116.89 427.17 160.59 C 400.85 146.68 374.56 132.72 348.23 118.83 C 362.97 183.29 377.81 247.74 392.52 312.21 C 358.96 276.14 325.53 239.94 291.97 203.86 C 288.67 226.63 285.71 249.46 282.44 272.23 C 246.21 261.70 210.00 251.11 173.77 240.56 C 190.29 279.57 206.83 318.57 223.28 357.61 C 205.58 362.40 187.90 367.25 170.20 372.07 C 221.15 410.10 272.10 448.12 323.03 486.18 C 283.17 499.99 240.06 507.58 198.05 500.47 C 161.90 494.52 127.91 476.35 102.89 449.59 C 96.31 423.26 93.12 396.10 92.58 368.97 C 91.96 321.31 92.52 273.64 92.44 225.97 C 92.41 181.99 92.36 138.00 91.91 94.02 C 91.87 89.02 91.54 83.62 94.14 79.12 C 96.49 75.05 100.95 72.91 105.21 71.37 C 164.05 50.85 224.95 35.90 286.86 28.44 Z" />
<path fill="#000000" opacity="1.00" d=" M 494.17 32.19 C 547.43 40.48 599.77 54.08 650.78 71.38 C 654.69 72.74 659.05 73.80 661.86 77.08 C 664.45 80.08 664.65 84.27 664.64 88.04 C 664.27 131.11 664.26 174.18 664.20 217.25 C 634.79 248.87 605.47 280.58 576.08 312.23 C 590.74 247.74 605.65 183.31 620.33 118.82 C 594.02 132.74 567.71 146.67 541.41 160.60 C 525.65 117.80 509.94 74.98 494.17 32.19 Z" />
<path fill="#000000" opacity="1.00" d=" M 112.99 484.45 C 140.35 509.55 174.82 526.27 211.00 534.05 C 256.38 543.94 303.59 541.15 348.91 532.39 C 398.91 522.95 450.07 517.76 500.93 521.70 C 539.37 524.83 577.96 533.62 611.98 552.27 C 602.65 568.19 592.10 583.38 580.47 597.69 C 545.38 577.94 505.62 568.17 465.95 563.03 C 416.90 556.83 367.24 557.78 318.05 561.78 C 273.76 564.87 228.11 562.37 186.19 546.66 C 161.45 537.35 138.40 522.92 120.40 503.44 C 117.34 497.38 115.53 490.75 112.99 484.45 Z" />
<path fill="#000000" opacity="1.00" d=" M 140.08 544.94 C 168.51 565.59 202.12 577.80 236.04 585.94 C 262.57 592.23 289.65 595.96 316.81 598.18 C 357.65 601.55 398.41 608.52 437.28 621.75 C 464.88 631.14 491.46 643.88 515.30 660.75 C 499.91 672.50 483.89 683.44 467.19 693.25 C 442.56 707.54 416.27 718.59 390.46 730.51 C 384.46 733.86 377.10 735.28 370.60 732.51 C 337.15 718.08 304.42 701.80 273.58 682.37 C 245.46 664.61 219.02 644.04 195.84 620.15 C 174.02 597.71 155.21 572.35 140.08 544.94 Z" />
</g>
<g id="#e91c24ff">
<path fill="#e91c24" opacity="1.00" d=" M 434.94 180.89 C 451.45 136.23 467.72 91.48 484.31 46.85 C 500.79 91.51 517.21 136.20 533.61 180.89 C 555.56 169.28 577.53 157.70 599.44 146.02 C 583.04 217.74 566.58 289.45 550.14 361.17 C 588.21 320.29 626.11 279.25 664.13 238.34 C 663.91 269.89 663.71 301.44 662.93 332.98 C 662.40 351.65 662.15 370.34 660.83 388.97 C 659.02 413.23 655.22 437.35 649.21 460.92 C 608.08 444.21 563.21 438.01 519.01 439.69 C 457.16 442.04 396.64 458.22 339.10 480.30 C 293.50 446.27 247.88 412.27 202.34 378.16 C 215.81 374.36 229.37 370.87 242.82 367.01 C 228.13 332.26 213.38 297.54 198.74 262.77 C 230.63 272.00 262.50 281.31 294.36 290.65 C 296.96 272.34 299.34 254.01 302.01 235.72 C 340.87 277.52 379.62 319.42 418.46 361.23 C 402.03 289.52 385.54 217.83 369.18 146.10 C 391.12 157.66 413.02 169.30 434.94 180.89 Z" />
</g>
</svg>
