<?xml version="1.0" encoding="UTF-8"?>
<!DOCTYPE svg  PUBLIC '-//W3C//DTD SVG 1.1//EN'  'http://www.w3.org/Graphics/SVG/1.1/DTD/svg11.dtd'>
<svg width="470pt" height="470pt" version="1.1" viewBox="0 0 470 470" xmlns="http://www.w3.org/2000/svg">
<g fill="#fff">
<path d="m208.74 0h34.32c38.89 1.6 77.74 5.18 116.09 11.93 19.16 3.36 38.18 7.64 56.85 13.15 0.1 21.97-0.25 43.94 0.26 65.91-0.03 21.67 0 43.34-0.01 65.02 0.51 27.99 0.14 55.99 0.25 83.98 0.63 39.87-9.58 80.05-30.32 114.21-10.97 18.38-25.01 34.75-40.35 49.6-26.39 25.47-57.89 45.41-91.66 59.56-6.49 2.44-13.06 4.68-19.71 6.64h-0.8c-9.03-3.04-18.21-5.77-26.82-9.89-46.35-20.7-87.93-53.03-117.27-94.65-24.66-35.35-37.65-78.44-37.58-121.47 0.01-25.35 0.02-50.7 0-76.04 0.51-26.64 0.16-53.28 0.25-79.93 0.48-20.96 0.19-41.94 0.24-62.91 50.77-14.83 103.46-22.74 156.26-25.11m-44.68 9.88c-35.12 3.95-70.03 10.27-104.05 19.91-0.59 19.39 0.09 38.81-0.5 58.2 0.03 27.01 0 54.03 0.02 81.04-0.45 23.67-0.12 47.35-0.23 71.02-0.13 35.77 8.37 71.69 25.76 103.03 8.74-36.8 17.55-73.59 26.38-110.36 1.77-0.87 5.02-0.69 4.67-3.42-17.3-15.66-34.91-30.99-52.31-46.55 8.32-4.37 16.66-8.69 25.03-12.93-6.8-21.27-12.33-42.92-18.61-64.35 16.99 4.65 33.95 9.4 50.97 13.97 5.71-10.65 11.31-21.36 16.87-32.09 13.14 13.86 26.26 27.75 39.48 41.54-6.62-31.73-12.93-63.52-19.46-95.26 13.31 7.4 26.48 15.04 39.73 22.55 1.3 0.69 2.64 1.29 3.99 1.89 8.64-17.24 17.06-34.58 25.8-51.77-21.23-0.19-42.44 1.31-63.54 3.58m77.32-3.4c8.57 17.19 17.05 34.43 25.67 51.6 14.81-7.63 29.01-16.43 43.62-24.45-6.44 31.81-12.78 63.65-19.48 95.4 13.19-13.87 26.42-27.7 39.5-41.67 5.67 10.67 11.25 21.38 16.86 32.07 17.07-4.51 34.05-9.34 51.09-13.96-6.35 21.42-11.83 43.1-18.67 64.38 8.39 4.21 16.74 8.52 25.03 12.92-17.33 15.35-34.61 30.75-51.97 46.07 0.14 0.61 0.42 1.83 0.56 2.45 1.42 0.48 2.85 0.97 4.27 1.46 8.59 36.76 17.23 73.51 25.91 110.24 17.07-30.73 25.6-65.92 25.71-101.01-0.01-39.67 0.07-79.33-0.23-119 0.19-31.03-0.34-62.05-0.25-93.08-19.39-5.64-39.21-9.67-59.11-13-35.88-5.88-72.17-9.21-108.51-10.42m-6.92 10.34c-8.67 16.65-16.34 33.82-25.37 50.29-0.87 1.88-2.82 3.97-5.09 3.18-11.13-3.08-20.42-10.26-30.57-15.48 4.92 24.32 9.89 48.62 14.83 72.94 0.89 4.64 2.64 9.44 1.26 14.17-0.79 2.87-3.41 5.34-6.51 5.18-3.28 0.22-5.5-2.5-7.59-4.59-11.58-12.19-23.15-24.39-34.73-36.57-4.52 7.85-8.19 16.21-12.94 23.91-3.58 1.85-7.65 0.04-11.33-0.52-10.2-2.64-20.33-5.54-30.49-8.33 4.46 15.74 8.57 31.59 13.74 47.12 1.58 4.12-1.07 8.72-4.72 10.71-4.03 2.1-8.06 4.2-12.13 6.22 14.35 12.84 28.76 25.62 43.21 38.35 15.97-5.86 32.37-10.64 49.09-13.84 19.56-3.45 40.86-6.21 59.5 2.47 13.18-6.18 28.16-6.54 42.39-5.02 22.57 2.47 44.61 8.53 65.9 16.28 14.42-12.67 28.7-25.49 43.1-38.17-4-2.06-7.98-4.15-12-6.17-3.68-1.94-6.48-6.58-4.89-10.73 5.17-15.55 9.3-31.43 13.76-47.19-11.66 2.98-23.11 6.8-34.9 9.21-2.52 0.35-6.31 1.32-7.75-1.5-4.05-7.61-8.05-15.26-12.04-22.9-12.4 13.02-24.63 26.22-37.24 39.04-2.86 3.32-8.84 2.83-10.89-1.13-2.48-4.48-0.86-9.71 0.15-14.36 5.04-24.86 10.15-49.7 15.14-74.58-10.38 5.35-19.87 12.81-31.36 15.66-4.01-0.33-4.75-5.03-6.72-7.76-7.6-15.3-15.39-30.51-22.81-45.89m-48.31 199.88c-21.14 3.19-41.83 9.12-61.74 16.85-0.36 1.56-0.73 3.13-1.11 4.69-1.44 0.44-2.88 0.9-4.31 1.35-8.33 34.39-16.4 68.84-24.78 103.21 38.74-6.44 77.9-12.24 117.28-10.8-0.46 3.22 2.8 4.45 5.39 4.7 11.69 1.27 23.52 1.27 35.21-0.01 2.47-0.24 5.93-1.55 4.99-4.7 39.45-1.43 78.69 4.32 117.49 10.84-8.09-34.38-16.24-68.74-24.22-103.14-1.48-0.49-2.95-0.97-4.42-1.45-0.37-1.59-0.74-3.17-1.12-4.76-21.51-8.2-43.85-14.66-66.75-17.41-14.56-1.74-30.51-1.88-43.37 6.18-14.47-8.98-32.37-7.77-48.54-5.55m-28.04 126.13c-22.58 2.46-45.11 5.61-67.45 9.74 24.31 37.96 59.42 68.42 98.92 89.79 14.44 7.57 29.19 15.02 45.07 18.99 20.82-5.91 40.15-16.09 58.68-27.11 33.64-20.7 63.46-48.28 84.79-81.66-10.04-1.99-20.17-3.49-30.28-5.01-27.72-4.05-55.68-7.51-83.74-6.74-1.69 0.62-2.95 2-4.55 2.8-4.23 2.18-9.11 2.22-13.74 2.56-10.24 0.47-20.54 0.5-30.73-0.73-3.88-0.36-7.1-2.57-10.27-4.63-15.58-0.39-31.19 0.43-46.7 2z"/>
<path d="m182.17 220.59c11.44-1.86 23.18-2.85 34.68-0.94 5.46 0.82 10.88 2.46 15.54 5.5-0.09 30.8-0.26 61.6-0.74 92.38-6.94-3.83-14.82-5.56-22.65-6.27-11.5-0.77-23.04 0.03-34.44 1.53-23.14 2.96-45.82 8.9-67.81 16.59 7.36-31.24 14.42-62.55 21.67-93.81 17.43-6.54 35.33-12.06 53.75-14.98m-40.83 32.01c-0.44 1.62-0.86 3.24-1.28 4.87 17.69-6.22 36.04-10.69 54.73-12.4 8.44-0.77 17.13 0.2 25.02 3.39-0.01-1.5-0.02-3-0.01-4.49-10.12-4.06-21.38-3.88-32.02-2.52-15.8 2.17-31.4 5.84-46.44 11.15m-4.64 18.76c-0.26 1.53-0.51 3.07-0.75 4.61 16.25-5.63 33.24-8.57 50.17-11.25 11.18-1.66 23.02-2.02 33.65 2.39 0.01-1.5 0.02-3 0.03-4.49-8.79-3.45-18.47-3.91-27.78-3.01-18.74 2.26-37.28 6.19-55.32 11.75m-4.7 21.32c-0.35 1.58-0.69 3.17-1.02 4.77 17.97-6 36.32-11.07 55.1-13.78 11.18-1.6 23.1-2.11 33.71 2.43 0-1.53 0-3.05 0.01-4.57-8.83-3.52-18.55-3.78-27.9-3-20.42 2.48-40.38 7.78-59.9 14.15z"/>
<path d="m247.44 220.66c12.17-2.96 24.88-2.33 37.16-0.46 19.33 2.84 38.15 8.46 56.34 15.47 6.89 31.26 14.04 62.46 21.12 93.68-27.48-9.56-56.06-16.51-85.17-18.2-13.35-0.61-27.44-0.19-39.48 6.28-0.76-5.79-0.28-11.64-0.41-17.46 0.15-24.94-0.35-49.86-0.2-74.8 3.31-2 6.87-3.61 10.64-4.51m0.76 23.31c0 1.49 0 2.99-0.01 4.49 8.52-3.42 17.93-4.3 27.01-3.2 18.02 1.76 35.63 6.3 52.74 12.11-0.4-1.59-0.79-3.18-1.2-4.76-15.38-5.42-31.33-9.18-47.5-11.28-10.34-1.25-21.23-1.28-31.04 2.64m-0.01 18.64c0.01 1.5 0.02 2.99 0.04 4.5 13.79-5.68 29.07-3.4 43.28-0.79 13.73 2.21 27.38 5.1 40.55 9.63-0.22-1.53-0.44-3.04-0.66-4.56-16.42-5.11-33.29-8.77-50.32-11.14-10.92-1.66-22.45-1.66-32.89 2.36m0.03 18.96c-0.01 1.51-0.02 3.01-0.01 4.53 11.8-5 25.04-3.89 37.38-1.89 17.51 2.87 34.67 7.6 51.47 13.25-0.35-1.6-0.69-3.2-1.05-4.79-19.5-6.39-39.46-11.65-59.86-14.14-9.36-0.76-19.13-0.57-27.93 3.04z"/>
</g>
<g fill="#231f20">
<path d="m164.06 9.88c21.1-2.27 42.31-3.77 63.54-3.58-8.74 17.19-17.16 34.53-25.8 51.77-1.35-0.6-2.69-1.2-3.99-1.89-13.25-7.51-26.42-15.15-39.73-22.55 6.53 31.74 12.84 63.53 19.46 95.26-13.22-13.79-26.34-27.68-39.48-41.54-5.56 10.73-11.16 21.44-16.87 32.09-17.02-4.57-33.98-9.32-50.97-13.97 6.28 21.43 11.81 43.08 18.61 64.35-8.37 4.24-16.71 8.56-25.03 12.93 17.4 15.56 35.01 30.89 52.31 46.55 0.35 2.73-2.9 2.55-4.67 3.42-8.83 36.77-17.64 73.56-26.38 110.36-17.39-31.34-25.89-67.26-25.76-103.03 0.11-23.67-0.22-47.35 0.23-71.02-0.02-27.01 0.01-54.03-0.02-81.04 0.59-19.39-0.09-38.81 0.5-58.2 34.02-9.64 68.93-15.96 104.05-19.91z"/>
<path d="m241.38 6.48c36.34 1.21 72.63 4.54 108.51 10.42 19.9 3.33 39.72 7.36 59.11 13-0.09 31.03 0.44 62.05 0.25 93.08 0.3 39.67 0.22 79.33 0.23 119-0.11 35.09-8.64 70.28-25.71 101.01-8.68-36.73-17.32-73.48-25.91-110.24-1.42-0.49-2.85-0.98-4.27-1.46-0.14-0.62-0.42-1.84-0.56-2.45 17.36-15.32 34.64-30.72 51.97-46.07-8.29-4.4-16.64-8.71-25.03-12.92 6.84-21.28 12.32-42.96 18.67-64.38-17.04 4.62-34.02 9.45-51.09 13.96-5.61-10.69-11.19-21.4-16.86-32.07-13.08 13.97-26.31 27.8-39.5 41.67 6.7-31.75 13.04-63.59 19.48-95.4-14.61 8.02-28.81 16.82-43.62 24.45-8.62-17.17-17.1-34.41-25.67-51.6z"/>
<path d="m158.11 342.83c15.51-1.57 31.12-2.39 46.7-2 3.17 2.06 6.39 4.27 10.27 4.63 10.19 1.23 20.49 1.2 30.73 0.73 4.63-0.34 9.51-0.38 13.74-2.56 1.6-0.8 2.86-2.18 4.55-2.8 28.06-0.77 56.02 2.69 83.74 6.74 10.11 1.52 20.24 3.02 30.28 5.01-21.33 33.38-51.15 60.96-84.79 81.66-18.53 11.02-37.86 21.2-58.68 27.11-15.88-3.97-30.63-11.42-45.07-18.99-39.5-21.37-74.61-51.83-98.92-89.79 22.34-4.13 44.87-7.28 67.45-9.74z"/>
</g>
<path d="m234.46 16.82c7.42 15.38 15.21 30.59 22.81 45.89 1.97 2.73 2.71 7.43 6.72 7.76 11.49-2.85 20.98-10.31 31.36-15.66-4.99 24.88-10.1 49.72-15.14 74.58-1.01 4.65-2.63 9.88-0.15 14.36 2.05 3.96 8.03 4.45 10.89 1.13 12.61-12.82 24.84-26.02 37.24-39.04 3.99 7.64 7.99 15.29 12.04 22.9 1.44 2.82 5.23 1.85 7.75 1.5 11.79-2.41 23.24-6.23 34.9-9.21-4.46 15.76-8.59 31.64-13.76 47.19-1.59 4.15 1.21 8.79 4.89 10.73 4.02 2.02 8 4.11 12 6.17-14.4 12.68-28.68 25.5-43.1 38.17-21.29-7.75-43.33-13.81-65.9-16.28-14.23-1.52-29.21-1.16-42.39 5.02-18.64-8.68-39.94-5.92-59.5-2.47-16.72 3.2-33.12 7.98-49.09 13.84-14.45-12.73-28.86-25.51-43.21-38.35 4.07-2.02 8.1-4.12 12.13-6.22 3.65-1.99 6.3-6.59 4.72-10.71-5.17-15.53-9.28-31.38-13.74-47.12 10.16 2.79 20.29 5.69 30.49 8.33 3.68 0.56 7.75 2.37 11.33 0.52 4.75-7.7 8.42-16.06 12.94-23.91 11.58 12.18 23.15 24.38 34.73 36.57 2.09 2.09 4.31 4.81 7.59 4.59 3.1 0.16 5.72-2.31 6.51-5.18 1.38-4.73-0.37-9.53-1.26-14.17-4.94-24.32-9.91-48.62-14.83-72.94 10.15 5.22 19.44 12.4 30.57 15.48 2.27 0.79 4.22-1.3 5.09-3.18 9.03-16.47 16.7-33.64 25.37-50.29z" fill="#e13a3e"/>
<g>
<path d="m186.15 216.7c16.17-2.22 34.07-3.43 48.54 5.55 12.86-8.06 28.81-7.92 43.37-6.18 22.9 2.75 45.24 9.21 66.75 17.41 0.38 1.59 0.75 3.17 1.12 4.76 1.47 0.48 2.94 0.96 4.42 1.45 7.98 34.4 16.13 68.76 24.22 103.14-38.8-6.52-78.04-12.27-117.49-10.84 0.94 3.15-2.52 4.46-4.99 4.7-11.69 1.28-23.52 1.28-35.21 0.01-2.59-0.25-5.85-1.48-5.39-4.7-39.38-1.44-78.54 4.36-117.28 10.8 8.38-34.37 16.45-68.82 24.78-103.21 1.43-0.45 2.87-0.91 4.31-1.35 0.38-1.56 0.75-3.13 1.11-4.69 19.91-7.73 40.6-13.66 61.74-16.85m-3.98 3.89c-18.42 2.92-36.32 8.44-53.75 14.98-7.25 31.26-14.31 62.57-21.67 93.81 21.99-7.69 44.67-13.63 67.81-16.59 11.4-1.5 22.94-2.3 34.44-1.53 7.83 0.71 15.71 2.44 22.65 6.27 0.48-30.78 0.65-61.58 0.74-92.38-4.66-3.04-10.08-4.68-15.54-5.5-11.5-1.91-23.24-0.92-34.68 0.94m65.27 0.07c-3.77 0.9-7.33 2.51-10.64 4.51-0.15 24.94 0.35 49.86 0.2 74.8 0.13 5.82-0.35 11.67 0.41 17.46 12.04-6.47 26.13-6.89 39.48-6.28 29.11 1.69 57.69 8.64 85.17 18.2-7.08-31.22-14.23-62.42-21.12-93.68-18.19-7.01-37.01-12.63-56.34-15.47-12.28-1.87-24.99-2.5-37.16 0.46z"/>
<path d="m141.34 252.6c15.04-5.31 30.64-8.98 46.44-11.15 10.64-1.36 21.9-1.54 32.02 2.52-0.01 1.49 0 2.99 0.01 4.49-7.89-3.19-16.58-4.16-25.02-3.39-18.69 1.71-37.04 6.18-54.73 12.4 0.42-1.63 0.84-3.25 1.28-4.87z"/>
<path d="m248.2 243.97c9.81-3.92 20.7-3.89 31.04-2.64 16.17 2.1 32.12 5.86 47.5 11.28 0.41 1.58 0.8 3.17 1.2 4.76-17.11-5.81-34.72-10.35-52.74-12.11-9.08-1.1-18.49-0.22-27.01 3.2 0.01-1.5 0.01-3 0.01-4.49z"/>
<path d="m136.7 271.36c18.04-5.56 36.58-9.49 55.32-11.75 9.31-0.9 18.99-0.44 27.78 3.01-0.01 1.49-0.02 2.99-0.03 4.49-10.63-4.41-22.47-4.05-33.65-2.39-16.93 2.68-33.92 5.62-50.17 11.25 0.24-1.54 0.49-3.08 0.75-4.61z"/>
<path d="m248.19 262.61c10.44-4.02 21.97-4.02 32.89-2.36 17.03 2.37 33.9 6.03 50.32 11.14 0.22 1.52 0.44 3.03 0.66 4.56-13.17-4.53-26.82-7.42-40.55-9.63-14.21-2.61-29.49-4.89-43.28 0.79-0.02-1.51-0.03-3-0.04-4.5z"/>
<path d="m132 292.68c19.52-6.37 39.48-11.67 59.9-14.15 9.35-0.78 19.07-0.52 27.9 3-0.01 1.52-0.01 3.04-0.01 4.57-10.61-4.54-22.53-4.03-33.71-2.43-18.78 2.71-37.13 7.78-55.1 13.78 0.33-1.6 0.67-3.19 1.02-4.77z"/>
<path d="m248.22 281.57c8.8-3.61 18.57-3.8 27.93-3.04 20.4 2.49 40.36 7.75 59.86 14.14 0.36 1.59 0.7 3.19 1.05 4.79-16.8-5.65-33.96-10.38-51.47-13.25-12.34-2-25.58-3.11-37.38 1.89-0.01-1.52 0-3.02 0.01-4.53z"/>
</g>
</svg>
