<?xml version="1.0" encoding="UTF-8" ?>
<!DOCTYPE svg PUBLIC "-//W3C//DTD SVG 1.1//EN" "http://www.w3.org/Graphics/SVG/1.1/DTD/svg11.dtd">
<svg width="470pt" height="470pt" viewBox="0 0 470 470" version="1.1" xmlns="http://www.w3.org/2000/svg">
<g id="#ffffffff">
<path fill="#ffffff" opacity="1.00" d=" M 208.74 0.00 L 243.06 0.00 C 281.95 1.60 320.80 5.18 359.15 11.93 C 378.31 15.29 397.33 19.57 416.00 25.08 C 416.10 47.05 415.75 69.02 416.26 90.99 C 416.23 112.66 416.26 134.33 416.25 156.01 C 416.76 184.00 416.39 212.00 416.50 239.99 C 417.13 279.86 406.92 320.04 386.18 354.20 C 375.21 372.58 361.17 388.95 345.83 403.80 C 319.44 429.27 287.94 449.21 254.17 463.36 C 247.68 465.80 241.11 468.04 234.46 470.00 L 233.66 470.00 C 224.63 466.96 215.45 464.23 206.84 460.11 C 160.49 439.41 118.91 407.08 89.57 365.46 C 64.91 330.11 51.92 287.02 51.99 243.99 C 52.00 218.64 52.01 193.29 51.99 167.95 C 52.50 141.31 52.15 114.67 52.24 88.02 C 52.72 67.06 52.43 46.08 52.48 25.11 C 103.25 10.28 155.94 2.37 208.74 0.00 M 164.06 9.88 C 128.94 13.83 94.03 20.15 60.01 29.79 C 59.42 49.18 60.10 68.60 59.51 87.99 C 59.54 115.00 59.51 142.02 59.53 169.03 C 59.08 192.70 59.41 216.38 59.30 240.05 C 59.17 275.82 67.67 311.74 85.06 343.08 C 93.80 306.28 102.61 269.49 111.44 232.72 C 113.21 231.85 116.46 232.03 116.11 229.30 C 98.81 213.64 81.20 198.31 63.80 182.75 C 72.12 178.38 80.46 174.06 88.83 169.82 C 82.03 148.55 76.50 126.90 70.22 105.47 C 87.21 110.12 104.17 114.87 121.19 119.44 C 126.90 108.79 132.50 98.08 138.06 87.35 C 151.20 101.21 164.32 115.10 177.54 128.89 C 170.92 97.16 164.61 65.37 158.08 33.63 C 171.39 41.03 184.56 48.67 197.81 56.18 C 199.11 56.87 200.45 57.47 201.80 58.07 C 210.44 40.83 218.86 23.49 227.60 6.30 C 206.37 6.11 185.16 7.61 164.06 9.88 M 241.38 6.48 C 249.95 23.67 258.43 40.91 267.05 58.08 C 281.86 50.45 296.06 41.65 310.67 33.63 C 304.23 65.44 297.89 97.28 291.19 129.03 C 304.38 115.16 317.61 101.33 330.69 87.36 C 336.36 98.03 341.94 108.74 347.55 119.43 C 364.62 114.92 381.60 110.09 398.64 105.47 C 392.29 126.89 386.81 148.57 379.97 169.85 C 388.36 174.06 396.71 178.37 405.00 182.77 C 387.67 198.12 370.39 213.52 353.03 228.84 C 353.17 229.45 353.45 230.67 353.59 231.29 C 355.01 231.77 356.44 232.26 357.86 232.75 C 366.45 269.51 375.09 306.26 383.77 342.99 C 400.84 312.26 409.37 277.07 409.48 241.98 C 409.47 202.31 409.55 162.65 409.25 122.98 C 409.44 91.95 408.91 60.93 409.00 29.90 C 389.61 24.26 369.79 20.23 349.89 16.90 C 314.01 11.02 277.72 7.69 241.38 6.48 M 234.46 16.82 C 225.79 33.47 218.12 50.64 209.09 67.11 C 208.22 68.99 206.27 71.08 204.00 70.29 C 192.87 67.21 183.58 60.03 173.43 54.81 C 178.35 79.13 183.32 103.43 188.26 127.75 C 189.15 132.39 190.90 137.19 189.52 141.92 C 188.73 144.79 186.11 147.26 183.01 147.10 C 179.73 147.32 177.51 144.60 175.42 142.51 C 163.84 130.32 152.27 118.12 140.69 105.94 C 136.17 113.79 132.50 122.15 127.75 129.85 C 124.17 131.70 120.10 129.89 116.42 129.33 C 106.22 126.69 96.09 123.79 85.93 121.00 C 90.39 136.74 94.50 152.59 99.67 168.12 C 101.25 172.24 98.60 176.84 94.95 178.83 C 90.92 180.93 86.89 183.03 82.82 185.05 C 97.17 197.89 111.58 210.67 126.03 223.40 C 142.00 217.54 158.40 212.76 175.12 209.56 C 194.68 206.11 215.98 203.35 234.62 212.03 C 247.80 205.85 262.78 205.49 277.01 207.01 C 299.58 209.48 321.62 215.54 342.91 223.29 C 357.33 210.62 371.61 197.80 386.01 185.12 C 382.01 183.06 378.03 180.97 374.01 178.95 C 370.33 177.01 367.53 172.37 369.12 168.22 C 374.29 152.67 378.42 136.79 382.88 121.03 C 371.22 124.01 359.77 127.83 347.98 130.24 C 345.46 130.59 341.67 131.56 340.23 128.74 C 336.18 121.13 332.18 113.48 328.19 105.84 C 315.79 118.86 303.56 132.06 290.95 144.88 C 288.09 148.20 282.11 147.71 280.06 143.75 C 277.58 139.27 279.20 134.04 280.21 129.39 C 285.25 104.53 290.36 79.69 295.35 54.81 C 284.97 60.16 275.48 67.62 263.99 70.47 C 259.98 70.14 259.24 65.44 257.27 62.71 C 249.67 47.41 241.88 32.20 234.46 16.82 M 186.15 216.70 C 165.01 219.89 144.32 225.82 124.41 233.55 C 124.05 235.11 123.68 236.68 123.30 238.24 C 121.86 238.68 120.42 239.14 118.99 239.59 C 110.66 273.98 102.59 308.43 94.21 342.80 C 132.95 336.36 172.11 330.56 211.49 332.00 C 211.03 335.22 214.29 336.45 216.88 336.70 C 228.57 337.97 240.40 337.97 252.09 336.69 C 254.56 336.45 258.02 335.14 257.08 331.99 C 296.53 330.56 335.77 336.31 374.57 342.83 C 366.48 308.45 358.33 274.09 350.35 239.69 C 348.87 239.20 347.40 238.72 345.93 238.24 C 345.56 236.65 345.19 235.07 344.81 233.48 C 323.30 225.28 300.96 218.82 278.06 216.07 C 263.50 214.33 247.55 214.19 234.69 222.25 C 220.22 213.27 202.32 214.48 186.15 216.70 M 158.11 342.83 C 135.53 345.29 113.00 348.44 90.66 352.57 C 114.97 390.53 150.08 420.99 189.58 442.36 C 204.02 449.93 218.77 457.38 234.65 461.35 C 255.47 455.44 274.80 445.26 293.33 434.24 C 326.97 413.54 356.79 385.96 378.12 352.58 C 368.08 350.59 357.95 349.09 347.84 347.57 C 320.12 343.52 292.16 340.06 264.10 340.83 C 262.41 341.45 261.15 342.83 259.55 343.63 C 255.32 345.81 250.44 345.85 245.81 346.19 C 235.57 346.66 225.27 346.69 215.08 345.46 C 211.20 345.10 207.98 342.89 204.81 340.83 C 189.23 340.44 173.62 341.26 158.11 342.83 Z" />
<path fill="#ffffff" opacity="1.00" d=" M 182.17 220.59 C 193.61 218.73 205.35 217.74 216.85 219.65 C 222.31 220.47 227.73 222.11 232.39 225.15 C 232.30 255.95 232.13 286.75 231.65 317.53 C 224.71 313.70 216.83 311.97 209.00 311.26 C 197.50 310.49 185.96 311.29 174.56 312.79 C 151.42 315.75 128.74 321.69 106.75 329.38 C 114.11 298.14 121.17 266.83 128.42 235.57 C 145.85 229.03 163.75 223.51 182.17 220.59 M 141.34 252.60 C 140.90 254.22 140.48 255.84 140.06 257.47 C 157.75 251.25 176.10 246.78 194.79 245.07 C 203.23 244.30 211.92 245.27 219.81 248.46 C 219.80 246.96 219.79 245.46 219.80 243.97 C 209.68 239.91 198.42 240.09 187.78 241.45 C 171.98 243.62 156.38 247.29 141.34 252.60 M 136.70 271.36 C 136.44 272.89 136.19 274.43 135.95 275.97 C 152.20 270.34 169.19 267.40 186.12 264.72 C 197.30 263.06 209.14 262.70 219.77 267.11 C 219.78 265.61 219.79 264.11 219.80 262.62 C 211.01 259.17 201.33 258.71 192.02 259.61 C 173.28 261.87 154.74 265.80 136.70 271.36 M 132.00 292.68 C 131.65 294.26 131.31 295.85 130.98 297.45 C 148.95 291.45 167.30 286.38 186.08 283.67 C 197.26 282.07 209.18 281.56 219.79 286.10 C 219.79 284.57 219.79 283.05 219.80 281.53 C 210.97 278.01 201.25 277.75 191.90 278.53 C 171.48 281.01 151.52 286.31 132.00 292.68 Z" />
<path fill="#ffffff" opacity="1.00" d=" M 247.44 220.66 C 259.61 217.70 272.32 218.33 284.60 220.20 C 303.93 223.04 322.75 228.66 340.94 235.67 C 347.83 266.93 354.98 298.13 362.06 329.35 C 334.58 319.79 306.00 312.84 276.89 311.15 C 263.54 310.54 249.45 310.96 237.41 317.43 C 236.65 311.64 237.13 305.79 237.00 299.97 C 237.15 275.03 236.65 250.11 236.80 225.17 C 240.11 223.17 243.67 221.56 247.44 220.66 M 248.20 243.97 C 248.20 245.46 248.20 246.96 248.19 248.46 C 256.71 245.04 266.12 244.16 275.20 245.26 C 293.22 247.02 310.83 251.56 327.94 257.37 C 327.54 255.78 327.15 254.19 326.74 252.61 C 311.36 247.19 295.41 243.43 279.24 241.33 C 268.90 240.08 258.01 240.05 248.20 243.97 M 248.19 262.61 C 248.20 264.11 248.21 265.60 248.23 267.11 C 262.02 261.43 277.30 263.71 291.51 266.32 C 305.24 268.53 318.89 271.42 332.06 275.95 C 331.84 274.42 331.62 272.91 331.40 271.39 C 314.98 266.28 298.11 262.62 281.08 260.25 C 270.16 258.59 258.63 258.59 248.19 262.61 M 248.22 281.57 C 248.21 283.08 248.20 284.58 248.21 286.10 C 260.01 281.10 273.25 282.21 285.59 284.21 C 303.10 287.08 320.26 291.81 337.06 297.46 C 336.71 295.86 336.37 294.26 336.01 292.67 C 316.51 286.28 296.55 281.02 276.15 278.53 C 266.79 277.77 257.02 277.96 248.22 281.57 Z" />
</g>
<g id="#231f20ff">
<path fill="#231f20" opacity="1.00" d=" M 164.06 9.88 C 185.16 7.61 206.37 6.11 227.60 6.30 C 218.86 23.49 210.44 40.83 201.80 58.07 C 200.45 57.47 199.11 56.87 197.81 56.18 C 184.56 48.67 171.39 41.03 158.08 33.63 C 164.61 65.37 170.92 97.16 177.54 128.89 C 164.32 115.10 151.20 101.21 138.06 87.35 C 132.50 98.08 126.90 108.79 121.19 119.44 C 104.17 114.87 87.21 110.12 70.22 105.47 C 76.50 126.90 82.03 148.55 88.83 169.82 C 80.46 174.06 72.12 178.38 63.80 182.75 C 81.20 198.31 98.81 213.64 116.11 229.30 C 116.46 232.03 113.21 231.85 111.44 232.72 C 102.61 269.49 93.80 306.28 85.06 343.08 C 67.67 311.74 59.17 275.82 59.30 240.05 C 59.41 216.38 59.08 192.70 59.53 169.03 C 59.51 142.02 59.54 115.00 59.51 87.99 C 60.10 68.60 59.42 49.18 60.01 29.79 C 94.03 20.15 128.94 13.83 164.06 9.88 Z" />
<path fill="#231f20" opacity="1.00" d=" M 241.38 6.48 C 277.72 7.69 314.01 11.02 349.89 16.90 C 369.79 20.23 389.61 24.26 409.00 29.90 C 408.91 60.93 409.44 91.95 409.25 122.98 C 409.55 162.65 409.47 202.31 409.48 241.98 C 409.37 277.07 400.84 312.26 383.77 342.99 C 375.09 306.26 366.45 269.51 357.86 232.75 C 356.44 232.26 355.01 231.77 353.59 231.29 C 353.45 230.67 353.17 229.45 353.03 228.84 C 370.39 213.52 387.67 198.12 405.00 182.77 C 396.71 178.37 388.36 174.06 379.97 169.85 C 386.81 148.57 392.29 126.89 398.64 105.47 C 381.60 110.09 364.62 114.92 347.55 119.43 C 341.94 108.74 336.36 98.03 330.69 87.36 C 317.61 101.33 304.38 115.16 291.19 129.03 C 297.89 97.28 304.23 65.44 310.67 33.63 C 296.06 41.65 281.86 50.45 267.05 58.08 C 258.43 40.91 249.95 23.67 241.38 6.48 Z" />
<path fill="#231f20" opacity="1.00" d=" M 158.11 342.83 C 173.62 341.26 189.23 340.44 204.81 340.83 C 207.98 342.89 211.20 345.10 215.08 345.46 C 225.27 346.69 235.57 346.66 245.81 346.19 C 250.44 345.85 255.32 345.81 259.55 343.63 C 261.15 342.83 262.41 341.45 264.10 340.83 C 292.16 340.06 320.12 343.52 347.84 347.57 C 357.95 349.09 368.08 350.59 378.12 352.58 C 356.79 385.96 326.97 413.54 293.33 434.24 C 274.80 445.26 255.47 455.44 234.65 461.35 C 218.77 457.38 204.02 449.93 189.58 442.36 C 150.08 420.99 114.97 390.53 90.66 352.57 C 113.00 348.44 135.53 345.29 158.11 342.83 Z" />
</g>
<g id="#e13a3eff">
<path fill="#e13a3e" opacity="1.00" d=" M 234.46 16.82 C 241.88 32.20 249.67 47.41 257.27 62.71 C 259.24 65.44 259.98 70.14 263.99 70.47 C 275.48 67.62 284.97 60.16 295.35 54.81 C 290.36 79.69 285.25 104.53 280.21 129.39 C 279.20 134.04 277.58 139.27 280.06 143.75 C 282.11 147.71 288.09 148.20 290.95 144.88 C 303.56 132.06 315.79 118.86 328.19 105.84 C 332.18 113.48 336.18 121.13 340.23 128.74 C 341.67 131.56 345.46 130.59 347.98 130.24 C 359.77 127.83 371.22 124.01 382.88 121.03 C 378.42 136.79 374.29 152.67 369.12 168.22 C 367.53 172.37 370.33 177.01 374.01 178.95 C 378.03 180.97 382.01 183.06 386.01 185.12 C 371.61 197.80 357.33 210.62 342.91 223.29 C 321.62 215.54 299.58 209.48 277.01 207.01 C 262.78 205.49 247.80 205.85 234.62 212.03 C 215.98 203.35 194.68 206.11 175.12 209.56 C 158.40 212.76 142.00 217.54 126.03 223.40 C 111.58 210.67 97.17 197.89 82.82 185.05 C 86.89 183.03 90.92 180.93 94.95 178.83 C 98.60 176.84 101.25 172.24 99.67 168.12 C 94.50 152.59 90.39 136.74 85.93 121.00 C 96.09 123.79 106.22 126.69 116.42 129.33 C 120.10 129.89 124.17 131.70 127.75 129.85 C 132.50 122.15 136.17 113.79 140.69 105.94 C 152.27 118.12 163.84 130.32 175.42 142.51 C 177.51 144.60 179.73 147.32 183.01 147.10 C 186.11 147.26 188.73 144.79 189.52 141.92 C 190.90 137.19 189.15 132.39 188.26 127.75 C 183.32 103.43 178.35 79.13 173.43 54.81 C 183.58 60.03 192.87 67.21 204.00 70.29 C 206.27 71.08 208.22 68.99 209.09 67.11 C 218.12 50.64 225.79 33.47 234.46 16.82 Z" />
</g>
<g id="#000000ff">
<path fill="#000000" opacity="1.00" d=" M 186.15 216.70 C 202.32 214.48 220.22 213.27 234.69 222.25 C 247.55 214.19 263.50 214.33 278.06 216.07 C 300.96 218.82 323.30 225.28 344.81 233.48 C 345.19 235.07 345.56 236.65 345.93 238.24 C 347.40 238.72 348.87 239.20 350.35 239.69 C 358.33 274.09 366.48 308.45 374.57 342.83 C 335.77 336.31 296.53 330.56 257.08 331.99 C 258.02 335.14 254.56 336.45 252.09 336.69 C 240.40 337.97 228.57 337.97 216.88 336.70 C 214.29 336.45 211.03 335.22 211.49 332.00 C 172.11 330.56 132.95 336.36 94.21 342.80 C 102.59 308.43 110.66 273.98 118.99 239.59 C 120.42 239.14 121.86 238.68 123.30 238.24 C 123.68 236.68 124.05 235.11 124.41 233.55 C 144.32 225.82 165.01 219.89 186.15 216.70 M 182.17 220.59 C 163.75 223.51 145.85 229.03 128.42 235.57 C 121.17 266.83 114.11 298.14 106.75 329.38 C 128.74 321.69 151.42 315.75 174.56 312.79 C 185.96 311.29 197.50 310.49 209.00 311.26 C 216.83 311.97 224.71 313.70 231.65 317.53 C 232.13 286.75 232.30 255.95 232.39 225.15 C 227.73 222.11 222.31 220.47 216.85 219.65 C 205.35 217.74 193.61 218.73 182.17 220.59 M 247.44 220.66 C 243.67 221.56 240.11 223.17 236.80 225.17 C 236.65 250.11 237.15 275.03 237.00 299.97 C 237.13 305.79 236.65 311.64 237.41 317.43 C 249.45 310.96 263.54 310.54 276.89 311.15 C 306.00 312.84 334.58 319.79 362.06 329.35 C 354.98 298.13 347.83 266.93 340.94 235.67 C 322.75 228.66 303.93 223.04 284.60 220.20 C 272.32 218.33 259.61 217.70 247.44 220.66 Z" />
<path fill="#000000" opacity="1.00" d=" M 141.34 252.60 C 156.38 247.29 171.98 243.62 187.78 241.45 C 198.42 240.09 209.68 239.91 219.80 243.97 C 219.79 245.46 219.80 246.96 219.81 248.46 C 211.92 245.27 203.23 244.30 194.79 245.07 C 176.10 246.78 157.75 251.25 140.06 257.47 C 140.48 255.84 140.90 254.22 141.34 252.60 Z" />
<path fill="#000000" opacity="1.00" d=" M 248.20 243.97 C 258.01 240.05 268.90 240.08 279.24 241.33 C 295.41 243.43 311.36 247.19 326.74 252.61 C 327.15 254.19 327.54 255.78 327.94 257.37 C 310.83 251.56 293.22 247.02 275.20 245.26 C 266.12 244.16 256.71 245.04 248.19 248.46 C 248.20 246.96 248.20 245.46 248.20 243.97 Z" />
<path fill="#000000" opacity="1.00" d=" M 136.70 271.36 C 154.74 265.80 173.28 261.87 192.02 259.61 C 201.33 258.71 211.01 259.17 219.80 262.62 C 219.79 264.11 219.78 265.61 219.77 267.11 C 209.14 262.70 197.30 263.06 186.12 264.72 C 169.19 267.40 152.20 270.34 135.95 275.97 C 136.19 274.43 136.44 272.89 136.70 271.36 Z" />
<path fill="#000000" opacity="1.00" d=" M 248.19 262.61 C 258.63 258.59 270.16 258.59 281.08 260.25 C 298.11 262.62 314.98 266.28 331.40 271.39 C 331.62 272.91 331.84 274.42 332.06 275.95 C 318.89 271.42 305.24 268.53 291.51 266.32 C 277.30 263.71 262.02 261.43 248.23 267.11 C 248.21 265.60 248.20 264.11 248.19 262.61 Z" />
<path fill="#000000" opacity="1.00" d=" M 132.00 292.68 C 151.52 286.31 171.48 281.01 191.90 278.53 C 201.25 277.75 210.97 278.01 219.80 281.53 C 219.79 283.05 219.79 284.57 219.79 286.10 C 209.18 281.56 197.26 282.07 186.08 283.67 C 167.30 286.38 148.95 291.45 130.98 297.45 C 131.31 295.85 131.65 294.26 132.00 292.68 Z" />
<path fill="#000000" opacity="1.00" d=" M 248.22 281.57 C 257.02 277.96 266.79 277.77 276.15 278.53 C 296.55 281.02 316.51 286.28 336.01 292.67 C 336.37 294.26 336.71 295.86 337.06 297.46 C 320.26 291.81 303.10 287.08 285.59 284.21 C 273.25 282.21 260.01 281.10 248.21 286.10 C 248.20 284.58 248.21 283.08 248.22 281.57 Z" />
</g>
</svg>
