<?xml version="1.0" encoding="UTF-8"?>
<!DOCTYPE svg  PUBLIC '-//W3C//DTD SVG 1.1//EN'  'http://www.w3.org/Graphics/SVG/1.1/DTD/svg11.dtd'>
<svg width="200pt" height="200pt" version="1.1" viewBox="0 0 200 200" xmlns="http://www.w3.org/2000/svg">
<g fill="#010001">
<path d="m0 0h200v200h-200v-200m22.29 22.3c-0.02 22.47-0.04 44.94 0.01 67.41 22.47 0 44.94 0.01 67.41-0.01 0.16-10.62-0.22-21.26 0.15-31.88 3.41-0.12 6.82-0.13 10.23-0.02 0.07 2.34 0.11 4.68 0.2 7.02 2.96-2.85 5.85-5.78 8.62-8.82-2.77-3.03-5.65-5.97-8.62-8.81-0.09 2.33-0.12 4.66-0.2 6.99-3.41 0.11-6.82 0.12-10.23 0.02-0.38-10.63 0.01-21.27-0.15-31.9-22.47-0.03-44.95-0.02-67.42 0m88 0c-0.01 22.47-0.05 44.94 0.01 67.4 10.63 0.16 21.26-0.23 31.89 0.15 0.11 3.42 0.1 6.84-0.02 10.25-2.32 0.08-4.65 0.11-6.98 0.2 2.86 2.96 5.79 5.86 8.82 8.65 3.02-2.8 5.93-5.71 8.8-8.66-2.33-0.09-4.67-0.12-7-0.2-0.11-3.41-0.11-6.82 0.01-10.23 10.63-0.4 21.26 0.01 31.88-0.16 0.04-22.47 0.04-44.94 0.01-67.4-22.48-0.03-44.95-0.03-67.42 0m-87.99 88.01c-0.05 22.47-0.03 44.94-0.02 67.4 22.48-0.01 44.95 0.03 67.43-0.01 0.02-22.46 0.03-44.92-0.01-67.38-22.47-0.06-44.94-0.06-67.4-0.01m87.99-0.01c-0.18 10.63 0.23 21.26-0.16 31.88-3.41 0.11-6.82 0.11-10.22 0.01-0.08-2.34-0.11-4.68-0.2-7.01-2.96 2.85-5.86 5.78-8.63 8.82 2.78 3.04 5.67 5.97 8.64 8.82 0.08-2.34 0.11-4.68 0.18-7.02 3.41-0.11 6.82-0.11 10.23 0.01 0.4 10.63-0.03 21.26 0.16 31.89 22.47 0.01 44.94 0.03 67.41 0 0.05-22.47 0.04-44.94 0-67.4-22.47-0.02-44.94-0.04-67.41 0z"/>
<path d="m25.87 25.87c9.87-0.08 19.8-0.74 29.62 0.43-6.34 2.43-12.33 6.28-16.26 11.93-7.61 10.19-7.67 25.38 0.07 35.53 4.37 6.03 11.16 9.79 18.18 11.89-10.47 1.28-21.08 0.52-31.6 0.49-0.28-20.08-0.26-40.19-0.01-60.27z"/>
<path d="m71.58 26.22c4.81-0.77 9.7-0.62 14.54-0.34 0.29 20.08 0.23 40.17 0.02 60.25-5.86 0.26-11.78 0.52-17.6-0.47 3.64-0.97 7.12-2.42 10.58-3.89 0.04-3.43 0.06-6.87 0.07-10.31-4.66 2.78-9.48 6.12-15.16 5.96-7.38 0.28-14.63-3.71-18.41-10.04-3.78-6.22-4.07-14.31-1.16-20.93 3.44-7.35 11.26-12.86 19.55-12.36 5.65-0.1 10.56 3.04 15.19 5.9 0-3.35 0.02-6.71 0.08-10.07-2.53-1.31-5.06-2.63-7.7-3.7z"/>
<path d="m113.86 25.86c9.87-0.06 19.81-0.73 29.63 0.44-6.34 2.44-12.33 6.28-16.26 11.93-7.61 10.2-7.67 25.38 0.07 35.53 4.37 6.01 11.14 9.79 18.16 11.88-10.46 1.32-21.07 0.5-31.59 0.5-0.26-20.09-0.23-40.19-0.01-60.28z"/>
<path d="m159.59 26.21c4.81-0.75 9.69-0.61 14.53-0.33 0.28 20.07 0.23 40.15 0.02 60.23-5.87 0.29-11.78 0.55-17.6-0.45 3.64-0.97 7.12-2.42 10.58-3.89 0.04-3.44 0.06-6.87 0.06-10.31-4.65 2.79-9.47 6.13-15.15 5.96-7.64 0.31-15.11-4-18.78-10.68-3.42-6.13-3.61-13.89-0.79-20.29 3.44-7.35 11.26-12.86 19.55-12.36 5.65-0.09 10.56 3.04 15.18 5.91 0.01-3.36 0.02-6.72 0.08-10.08-2.52-1.31-5.04-2.64-7.68-3.71z"/>
<path d="m28.64 113.96c7.9-0.37 15.83-0.54 23.71 0.14-5.34 2.13-10.35 6.03-11.69 11.9-4.77-3.18-8.57-7.52-12.02-12.04z"/>
<path d="m62.6 114.12c6.92-0.69 13.9-0.57 20.83-0.13-2.65 4.11-6.25 7.46-10.24 10.24-2.01-4.67-6.04-8.04-10.59-10.11z"/>
<path d="m113.87 113.86c8.51-0.15 17.06-0.54 25.54 0.3-4.26 2.19-8.57 5.22-10.28 9.9-2.05 5.19-0.56 11.46 3.61 15.18 5.05 4.92 12.61 5.61 18.06 9.91 3.99 3.15 4.03 9.67 0.65 13.28-3.19 3.65-9.22 3.86-13.03 1.08-2.5-2.08-3.01-5.51-3.99-8.43-2.83 0.29-5.66 0.6-8.51 0.81-0.07 8.27 5.83 15.34 13.5 17.9-8.48 0.94-17.04 0.47-25.55 0.36-0.25-20.09-0.26-40.2 0-60.29z"/>
<path d="m151.6 114.22c7.47-0.93 15.02-0.52 22.53-0.35 0.24 20.08 0.26 40.17-0.01 60.25-8.5 0.17-17.04 0.57-25.51-0.29 3.4-1.41 6.76-3.15 9.34-5.83 6.68-6.65 6.76-19.13-0.69-25.24-5.45-4.85-13.53-5.25-18.75-10.33-3.67-4.48 1.49-10.64 6.56-10.29 4.18-0.66 7.08 2.75 9.52 5.57 2.34-1.51 4.69-2.99 7.05-4.46-2.79-3.56-5.96-6.95-10.04-9.03z"/>
<path d="m26 116.45c4.94 3.81 8.98 8.61 13.51 12.87 1.64 3.33 2.3 7.36 5.25 9.89 2.75 2.37 6.14 3.79 9.44 5.22-4.1 3.32-7.92 6.98-11.26 11.06-1.49 0.16-2.98 0.28-4.48 0.4-0.15 1.21-0.29 2.42-0.43 3.64-3.78 4.21-6.97 9.24-12 12.1-0.68-9.19-0.15-18.42-0.31-27.63 0.15-9.18-0.35-18.38 0.28-27.55z"/>
<path d="m73.01 129.01c4.17-4.03 7.96-8.56 12.96-11.62 0.63 8.85 0.17 17.74 0.31 26.61-0.15 9.15 0.34 18.32-0.29 27.47-4.39-3.26-7.94-7.45-11.75-11.32 0.91-4.31 0.65-8.97-1.52-12.87-1.88-3.82-5.65-6.14-9.31-8.02 2.82-3.76 6.25-6.97 9.6-10.25z"/>
<path d="m49.2 130.62c-1.4-5.04 4.2-8.95 8.75-8.72 3.81-0.37 6.24 2.98 8.44 5.51 2.11-1.06 4.24-2.09 6.41-3.02-3.33 5.21-8.63 8.68-12.22 13.68-4.05-1.88-9.51-2.9-11.38-7.45z"/>
<path d="m72.8 124.39c0.1-0.04 0.29-0.12 0.39-0.16-0.1 0.04-0.29 0.12-0.39 0.16z"/>
<path d="m46.54 155.11c3.09-2.9 6.2-5.78 9.38-8.58 3.38 2.99 6.76 6 10.39 8.69-0.38 2.81-1.13 5.77-3.32 7.73-2.87 3.09-7.75 2.93-11.39 1.49-3.63-1.57-4.14-5.97-5.06-9.33z"/>
<path d="m39.27 162.71c2.36 5.98 7.97 9.85 14.12 11.17-8.22 0.7-16.5 0.56-24.74 0.14 3.16-4.11 6.84-7.78 10.62-11.31z"/>
<path d="m73.28 163.12c3.58 3.44 7.32 6.78 10.18 10.89-8.27 0.44-16.59 0.56-24.85-0.14 6.12-1.38 11.75-5.09 14.67-10.75z"/>
</g>
<g fill="#95361b">
<path d="m22.29 22.3c22.47-0.02 44.95-0.03 67.42 0 0.16 10.63-0.23 21.27 0.15 31.9 3.41 0.1 6.82 0.09 10.23-0.02 0.08-2.33 0.11-4.66 0.2-6.99 2.97 2.84 5.85 5.78 8.62 8.81-2.77 3.04-5.66 5.97-8.62 8.82-0.09-2.34-0.13-4.68-0.2-7.02-3.41-0.11-6.82-0.1-10.23 0.02-0.37 10.62 0.01 21.26-0.15 31.88-22.47 0.02-44.94 0.01-67.41 0.01-0.05-22.47-0.03-44.94-0.01-67.41m3.58 3.57c-0.25 20.08-0.27 40.19 0.01 60.27 10.52 0.03 21.13 0.79 31.6-0.49 3.61 0.9 7.44 0.81 11.06 0.01 5.82 0.99 11.74 0.73 17.6 0.47 0.21-20.08 0.27-40.17-0.02-60.25-4.84-0.28-9.73-0.43-14.54 0.34-5.31-0.62-10.79-0.73-16.09 0.08-9.82-1.17-19.75-0.51-29.62-0.43z"/>
<path d="m110.29 22.3c22.47-0.03 44.94-0.03 67.42 0 0.03 22.46 0.03 44.93-0.01 67.4-10.62 0.17-21.25-0.24-31.88 0.16-0.12 3.41-0.12 6.82-0.01 10.23 2.33 0.08 4.67 0.11 7 0.2-2.87 2.95-5.78 5.86-8.8 8.66-3.03-2.79-5.96-5.69-8.82-8.65 2.33-0.09 4.66-0.12 6.98-0.2 0.12-3.41 0.13-6.83 0.02-10.25-10.63-0.38-21.26 0.01-31.89-0.15-0.06-22.46-0.02-44.93-0.01-67.4m3.57 3.56c-0.22 20.09-0.25 40.19 0.01 60.28 10.52 0 21.13 0.82 31.59-0.5 3.62 0.88 7.45 0.83 11.08 0.02 5.82 1 11.73 0.74 17.6 0.45 0.21-20.08 0.26-40.16-0.02-60.23-4.84-0.28-9.72-0.42-14.53 0.33-5.32-0.61-10.8-0.71-16.1 0.09-9.82-1.17-19.76-0.5-29.63-0.44z"/>
<path d="m22.3 110.31c22.46-0.05 44.93-0.05 67.4 0.01 0.04 22.46 0.03 44.92 0.01 67.38-22.48 0.04-44.95 0-67.43 0.01-0.01-22.46-0.03-44.93 0.02-67.4m6.34 3.65c3.45 4.52 7.25 8.86 12.02 12.04-0.39 1.1-0.77 2.21-1.15 3.32-4.53-4.26-8.57-9.06-13.51-12.87-0.63 9.17-0.13 18.37-0.28 27.55 0.16 9.21-0.37 18.44 0.31 27.63 5.03-2.86 8.22-7.89 12-12.1 0.33 1.09 0.75 2.15 1.24 3.18-3.78 3.53-7.46 7.2-10.62 11.31 8.24 0.42 16.52 0.56 24.74-0.14 1.7 0.46 3.51 0.45 5.22-0.01 8.26 0.7 16.58 0.58 24.85 0.14-2.86-4.11-6.6-7.45-10.18-10.89 0.42-0.96 0.74-1.95 0.96-2.97 3.81 3.87 7.36 8.06 11.75 11.32 0.63-9.15 0.14-18.32 0.29-27.47-0.14-8.87 0.32-17.76-0.31-26.61-5 3.06-8.79 7.59-12.96 11.62-3.35 3.28-6.78 6.49-9.6 10.25-0.93-0.43-1.88-0.83-2.83-1.19 3.59-5 8.89-8.47 12.22-13.68 0.1-0.04 0.29-0.12 0.39-0.16 3.99-2.78 7.59-6.13 10.24-10.24-6.93-0.44-13.91-0.56-20.83 0.13-3.37-0.55-6.87-0.56-10.25-0.02-7.88-0.68-15.81-0.51-23.71-0.14z"/>
<path d="m110.29 110.3c22.47-0.04 44.94-0.02 67.41 0 0.04 22.46 0.05 44.93 0 67.4-22.47 0.03-44.94 0.01-67.41 0-0.19-10.63 0.24-21.26-0.16-31.89-3.41-0.12-6.82-0.12-10.23-0.01-0.07 2.34-0.1 4.68-0.18 7.02-2.97-2.85-5.86-5.78-8.64-8.82 2.77-3.04 5.67-5.97 8.63-8.82 0.09 2.33 0.12 4.67 0.2 7.01 3.4 0.1 6.81 0.1 10.22-0.01 0.39-10.62-0.02-21.25 0.16-31.88m3.58 3.56c-0.26 20.09-0.25 40.2 0 60.29 8.51 0.11 17.07 0.58 25.55-0.36 3 0.66 6.18 0.69 9.19 0.04 8.47 0.86 17.01 0.46 25.51 0.29 0.27-20.08 0.25-40.17 0.01-60.25-7.51-0.17-15.06-0.58-22.53 0.35-4.02-0.65-8.18-0.71-12.19-0.06-8.48-0.84-17.03-0.45-25.54-0.3z"/>
<path d="m42.94 155.49c3.34-4.08 7.16-7.74 11.26-11.06 5.17 1.92 11.13 4.69 12.11 10.79-3.63-2.69-7.01-5.7-10.39-8.69-3.18 2.8-6.29 5.68-9.38 8.58-1.2 0.13-2.4 0.26-3.6 0.38z"/>
</g>
<g fill="#fdfdfc">
<path d="m55.49 26.3c5.3-0.81 10.78-0.7 16.09-0.08 2.64 1.07 5.17 2.39 7.7 3.7-0.06 3.36-0.08 6.72-0.08 10.07-4.63-2.86-9.54-6-15.19-5.9-8.29-0.5-16.11 5.01-19.55 12.36-2.91 6.62-2.62 14.71 1.16 20.93 3.78 6.33 11.03 10.32 18.41 10.04 5.68 0.16 10.5-3.18 15.16-5.96-0.01 3.44-0.03 6.88-0.07 10.31-3.46 1.47-6.94 2.92-10.58 3.89-3.62 0.8-7.45 0.89-11.06-0.01-7.02-2.1-13.81-5.86-18.18-11.89-7.74-10.15-7.68-25.34-0.07-35.53 3.93-5.65 9.92-9.5 16.26-11.93z"/>
<path d="m143.49 26.3c5.3-0.8 10.78-0.7 16.1-0.09 2.64 1.07 5.16 2.4 7.68 3.71-0.06 3.36-0.07 6.72-0.08 10.08-4.62-2.87-9.53-6-15.18-5.91-8.29-0.5-16.11 5.01-19.55 12.36-2.82 6.4-2.63 14.16 0.79 20.29 3.67 6.68 11.14 10.99 18.78 10.68 5.68 0.17 10.5-3.17 15.15-5.96 0 3.44-0.02 6.87-0.06 10.31-3.46 1.47-6.94 2.92-10.58 3.89-3.63 0.81-7.46 0.86-11.08-0.02-7.02-2.09-13.79-5.87-18.16-11.88-7.74-10.15-7.68-25.33-0.07-35.53 3.93-5.65 9.92-9.49 16.26-11.93z"/>
<path d="m52.35 114.1c3.38-0.54 6.88-0.53 10.25 0.02 4.55 2.07 8.58 5.44 10.59 10.11-0.1 0.04-0.29 0.12-0.39 0.16-2.17 0.93-4.3 1.96-6.41 3.02-2.2-2.53-4.63-5.88-8.44-5.51-4.55-0.23-10.15 3.68-8.75 8.72 1.87 4.55 7.33 5.57 11.38 7.45 0.95 0.36 1.9 0.76 2.83 1.19 3.66 1.88 7.43 4.2 9.31 8.02 2.17 3.9 2.43 8.56 1.52 12.87-0.22 1.02-0.54 2.01-0.96 2.97-2.92 5.66-8.55 9.37-14.67 10.75-1.71 0.46-3.52 0.47-5.22 0.01-6.15-1.32-11.76-5.19-14.12-11.17-0.49-1.03-0.91-2.09-1.24-3.18 0.14-1.22 0.28-2.43 0.43-3.64 1.5-0.12 2.99-0.24 4.48-0.4 1.2-0.12 2.4-0.25 3.6-0.38 0.92 3.36 1.43 7.76 5.06 9.33 3.64 1.44 8.52 1.6 11.39-1.49 2.19-1.96 2.94-4.92 3.32-7.73-0.98-6.1-6.94-8.87-12.11-10.79-3.3-1.43-6.69-2.85-9.44-5.22-2.95-2.53-3.61-6.56-5.25-9.89 0.38-1.11 0.76-2.22 1.15-3.32 1.34-5.87 6.35-9.77 11.69-11.9z"/>
<path d="m139.41 114.16c4.01-0.65 8.17-0.59 12.19 0.06 4.08 2.08 7.25 5.47 10.04 9.03-2.36 1.47-4.71 2.95-7.05 4.46-2.44-2.82-5.34-6.23-9.52-5.57-5.07-0.35-10.23 5.81-6.56 10.29 5.22 5.08 13.3 5.48 18.75 10.33 7.45 6.11 7.37 18.59 0.69 25.24-2.58 2.68-5.94 4.42-9.34 5.83-3.01 0.65-6.19 0.62-9.19-0.04-7.67-2.56-13.57-9.63-13.5-17.9 2.85-0.21 5.68-0.52 8.51-0.81 0.98 2.92 1.49 6.35 3.99 8.43 3.81 2.78 9.84 2.57 13.03-1.08 3.38-3.61 3.34-10.13-0.65-13.28-5.45-4.3-13.01-4.99-18.06-9.91-4.17-3.72-5.66-9.99-3.61-15.18 1.71-4.68 6.02-7.71 10.28-9.9z"/>
</g>
</svg>
