<?xml version="1.0" encoding="UTF-8" ?>
<!DOCTYPE svg PUBLIC "-//W3C//DTD SVG 1.1//EN" "http://www.w3.org/Graphics/SVG/1.1/DTD/svg11.dtd">
<svg width="1000pt" height="1000pt" viewBox="0 0 1000 1000" version="1.1" xmlns="http://www.w3.org/2000/svg">
<g id="#000000ff">
<path fill="#000000" opacity="1.00" d=" M 168.15 193.14 C 230.46 165.13 296.34 145.10 363.69 133.60 C 373.14 150.47 381.69 167.85 389.31 185.63 C 462.73 174.60 537.79 174.62 611.22 185.62 C 618.86 167.86 627.39 150.47 636.85 133.60 C 704.09 144.99 769.87 164.94 832.06 192.91 C 833.98 193.92 836.47 194.34 837.73 196.28 C 876.46 253.05 909.27 313.99 933.70 378.28 C 955.14 434.53 970.10 493.26 978.05 552.94 C 986.58 616.48 987.18 681.00 981.00 744.79 C 907.03 799.46 823.59 841.26 735.52 867.76 C 715.66 841.09 698.05 812.76 682.95 783.13 C 711.63 772.36 739.41 759.17 765.79 743.59 C 758.82 738.86 752.13 733.74 745.60 728.43 C 689.02 755.00 628.11 772.32 566.00 779.40 C 460.32 791.65 351.40 773.78 255.17 728.43 C 248.49 733.57 241.74 738.61 234.97 743.62 C 261.33 759.12 289.04 772.31 317.66 783.07 C 302.54 812.69 284.94 841.05 265.11 867.75 C 177.09 841.15 93.68 799.34 19.74 744.67 C 14.83 692.29 14.15 639.44 18.89 587.02 C 23.20 537.95 32.27 489.30 45.88 441.95 C 71.00 354.18 111.94 271.38 163.07 195.91 C 164.36 194.43 166.46 194.02 168.15 193.14 M 325.39 441.57 C 295.85 446.47 271.28 468.93 260.20 496.26 C 251.01 518.39 249.56 543.65 256.22 566.66 C 260.95 582.98 269.77 598.19 282.01 610.02 C 293.52 621.24 308.17 629.37 323.99 632.49 C 342.00 636.13 361.24 633.18 377.38 624.39 C 392.98 615.98 405.61 602.54 413.92 586.95 C 429.72 557.39 431.03 520.09 415.87 490.00 C 407.14 472.46 392.88 457.54 375.25 448.84 C 359.95 441.22 342.23 438.63 325.39 441.57 M 647.43 441.60 C 633.46 444.04 620.25 450.31 609.35 459.35 C 593.97 472.03 583.15 489.84 577.99 509.01 C 569.12 541.15 576.03 577.68 597.77 603.26 C 608.58 616.10 622.99 626.07 639.16 630.79 C 656.37 635.92 675.33 634.88 691.91 627.97 C 708.63 621.09 722.67 608.47 732.27 593.25 C 751.87 562.19 754.17 520.60 736.92 488.01 C 728.26 471.49 714.64 457.44 697.90 449.06 C 682.46 441.23 664.47 438.59 647.43 441.60 Z" />
</g>
</svg>
