<?xml version="1.0" encoding="UTF-8"?>
<!DOCTYPE svg  PUBLIC '-//W3C//DTD SVG 1.1//EN'  'http://www.w3.org/Graphics/SVG/1.1/DTD/svg11.dtd'>
<svg width="970pt" height="970pt" version="1.1" viewBox="0 0 970 970" xmlns="http://www.w3.org/2000/svg">
<g>
<path d="m10.56 159.44c53.81 0.08 107.63-0.33 161.44 0.18 8.24 1.4 16.67 0.18 24.9 1.8 6.47-0.05 12.67 2.05 19.11 2.42 28.91 4.15 57.22 12.7 83.38 25.73 3.57 2.28 7.5 3.88 11.18 5.94 9.01 5.88 18.2 11.55 26.4 18.55 28.54 22.81 49.98 53.86 63.12 87.81 10.47 26.45 16.77 54.57 19.19 82.9 2.2 8.92 0.81 18.17 2.31 27.18 0.27 9.34 0.14 18.7 0.12 28.05 0.33 8.04-1.52 15.97-1.04 24.02-1.62 11.64-2.52 23.36-4.34 34.98-3.5 17.8-7.24 35.63-13.67 52.64-2.26 7.47-5.97 14.36-8.65 21.67-0.42 1.42-1.47 2.79-3.1 2.79-6.08-0.52-11.74-3.59-17.92-3.28-8.43 0.2-17.09-0.91-25.24 1.84-28.17 5.92-52.19 27.64-61.06 54.98-5.78 16.33-5.46 34.36-0.9 50.96-13.7 5.41-27.47 10.83-41.89 14.07-8.85 2.91-18.2 3.5-27.21 5.71-5.86 0.89-11.76 1.47-17.66 1.99-5.52 1.41-11.25 0.09-16.81 1.11-4.71 0.81-9.49 0.45-14.24 0.56-52.47 0.33-104.94 0.04-157.42 0.08-0.09-181.56-0.05-363.12 0-544.68m97.82 79.94c-0.01 128.52 0 257.04 0 385.55 15.53 0.02 31.07-0.02 46.6 0.03 7.41 0.31 14.66-1.62 22.05-1.92 12.24-0.76 24.07-4.03 35.97-6.73 4.33-2.56 9.65-2.8 13.96-5.49 11.44-4.4 22-10.79 31.88-17.98 6.44-4.88 12-10.72 17.7-16.4 13.23-14.53 22.87-31.99 29.6-50.38 0.45-1.37 1.16-2.62 1.89-3.85 1.49-7.49 4.69-14.52 5.87-22.08 0.59-3.82 1.79-7.49 2.57-11.25 0.82-7.01 2.33-13.95 2.6-21.02 0.3-4.29 1.64-8.45 1.72-12.77 0.19-17.69 0.4-35.4-0.14-53.09-2.12-12.98-2.48-26.28-6-39-0.9-4.01-1.4-8.13-2.78-12.03-2.03-5.14-2.64-10.73-5.02-15.75-7.5-19.02-17.55-37.44-32.22-51.91-16.33-17.28-37.87-29.16-60.64-35.55-7.11-2.89-14.87-3.4-22.24-5.37-8.2-1.42-16.51-2.02-24.79-2.82-19.52-0.46-39.05-0.1-58.58-0.19z"/>
<path d="m757.03 255.26c12.25-1.36 24.7-1.53 36.94-0.05 11.16 0.14 22.13 2.53 33.06 4.57 7 2.14 14.39 2.92 21.16 5.79 16.2 4.7 31.57 11.9 46.37 19.94 18.31 10.6 35.85 22.98 50.44 38.42-7.24 9.75-15.22 18.94-22.74 28.47-9.44 11.46-18.5 23.25-28.35 34.36-15.84-14.16-33.97-25.86-53.51-34.24-5.99-2.14-11.72-5.02-18.02-6.23-12.04-4.15-24.83-5.17-37.4-6.59-17.79-0.83-35.89 1.3-52.66 7.5-12.12 4.76-23.2 12.6-30.67 23.39-9.1 13.4-11.25 30.67-7.74 46.3 2.85 9.69 8.41 18.5 15.85 25.33 13.06 12.35 29.64 20.04 45.96 27.03 3.71 2.33 8.14 2.98 11.98 5.07 13.76 5.49 27.33 11.46 41.04 17.08 6.48 2.29 12.43 5.86 19 7.97 11.34 5.05 22.89 9.64 34.28 14.58 6.64 3.4 13.29 6.77 19.98 10.06 12.14 7.23 23.8 15.28 34.5 24.52 6.52 6.15 12.59 12.79 18.1 19.86 3.62 6.01 8.26 11.4 11.08 17.88 3.31 7.28 7.26 14.38 8.93 22.28 3.63 11.11 5.25 22.77 6.51 34.37 0.11 11.32 0.84 22.74-0.86 33.98-3.2 23.56-11.46 46.62-25.34 66.04-12.13 17.92-28.48 32.73-46.73 44.25-33.97 21.41-74.39 30.66-114.18 31.76-8.69 1.61-17.38-0.63-26.09-0.34-14.11-1.21-28.26-2.71-42.07-6.02-6.73-0.93-13.02-3.53-19.63-4.95-30.23-8.9-58.93-22.93-84.54-41.31-11.3-7.73-21.39-17.1-31.4-26.36-0.23-0.6-0.7-1.81-0.93-2.41 7.94-7.86 14.51-16.93 21.93-25.25 11.5-13.65 23.1-27.2 34.63-40.82 11.57 11.57 24.85 21.27 38.64 30.01 13.58 8.88 28.48 15.48 43.54 21.38 7.64 2.15 15.09 5.03 22.93 6.43 9.12 2.64 18.65 3.12 28.04 4.17 9.29 0.03 18.65 0.51 27.88-0.94 8.8-0.31 17.19-3.04 25.66-5.13 9.35-3.18 18.31-7.65 26.22-13.61 6.63-6.14 13.3-12.65 16.99-21.06 2.85-6.93 5.76-14.1 5.75-21.72 0-8.74 0.83-17.84-2.5-26.15-2.94-9.81-9.26-18.34-16.76-25.19-16.25-13.87-36.3-21.96-55.77-30.17-24.54-10.9-49.37-21.15-73.78-32.35-22.32-9.01-44.35-19.56-63.16-34.81-11.34-9.21-22.11-19.38-30.41-31.47-15.02-20.18-22.97-44.98-25.25-69.85-0.38-14.31-0.93-28.92 2.83-42.87 0.46-5.41 2.82-10.33 4.12-15.53 6.48-18.38 16.19-35.87 29.75-50.01 3.71-4.97 8.64-8.73 13.11-12.95 21.55-18.69 47.82-31.66 75.49-38.3 3.6-1.04 7.22-2.04 10.93-2.62 8.92-1.37 17.78-3.69 26.87-3.49z"/>
<path d="m451.25 259.43c31.85-0.04 63.7-0.09 95.55 0 0.18 110.87 0.02 221.73 0.07 332.6-0.07 19.02 0.19 38.04-0.23 57.06-0.02 4.31-1.02 8.52-1.61 12.78-1.05 13.88-4.44 27.46-8.56 40.73-2.05 7.72-5.74 14.86-8.57 22.31-7.4 15.15-16.25 29.75-27.83 42.09-17.34 19.17-39.45 34.02-63.99 42.21-6.77 2.84-14.08 3.88-21.12 5.83-7.23 1.68-14.65 2.31-21.99 3.33-14.64 0.64-29.39 2.25-44.02 0.29-33.98-3.33-66.78-17.55-92.51-39.99-12.99-10.49-23.29-23.88-32.21-37.89-3.79-8.09-8.76-15.87-10.06-24.87 2.43-0.19 4.9-0.16 7.29-0.71 8.09-2.33 16.65-2.61 24.64-5.4 8.01-1.52 15.65-4.38 23.51-6.47 7.7-2.2 14.68-6.23 22.21-8.85 10.23 20.12 29.18 35.43 50.78 41.75 12.81 4.12 26.65 4.25 39.82 1.93 5.94-1.92 12.05-3.41 17.74-6.06 8-3.96 15.69-8.65 22.28-14.73 16.01-15.01 26.36-36.33 26.75-58.42-0.18-5.08 1.93-9.88 1.85-14.95 0.39-47 0.14-94 0.21-141v-243.57z"/>
<path d="m358.72 589.3c3.56-0.69 7.23-1.3 10.84-0.54 4.97 1.25 10.31 0.26 15.07 2.52 10.4 3.02 20.43 8.24 27.77 16.36 11.79 10.59 18.85 25.92 20.64 41.56 2.43 21.57-6.72 43.73-22.99 57.96-10.78 8.73-23.95 15.31-38.03 15.78-4.7-0.03-9.39 0.07-14.08-0.03-15.32-1.29-29.39-9.08-40.52-19.37-2.51-2.58-4.06-5.95-6.73-8.38-3.81-6.4-8.01-12.84-9.51-20.25-0.58-3.3-2.28-6.38-2.25-9.78-0.01-5.72-0.12-11.45-0.01-17.16 2.17-18.92 12.53-37.04 28.67-47.46 5.65-4.65 12.7-6.89 19.45-9.39 3.77-1.25 7.75-1.49 11.68-1.82z"/>
</g>
</svg>
