<?xml version="1.0" encoding="UTF-8" ?>
<!DOCTYPE svg PUBLIC "-//W3C//DTD SVG 1.1//EN" "http://www.w3.org/Graphics/SVG/1.1/DTD/svg11.dtd">
<svg width="970pt" height="970pt" viewBox="0 0 970 970" version="1.1" xmlns="http://www.w3.org/2000/svg">
<g id="#000000ff">
<path fill="#000000" opacity="1.00" d=" M 10.56 159.44 C 64.37 159.52 118.19 159.11 172.00 159.62 C 180.24 161.02 188.67 159.80 196.90 161.42 C 203.37 161.37 209.57 163.47 216.01 163.84 C 244.92 167.99 273.23 176.54 299.39 189.57 C 302.96 191.85 306.89 193.45 310.57 195.51 C 319.58 201.39 328.77 207.06 336.97 214.06 C 365.51 236.87 386.95 267.92 400.09 301.87 C 410.56 328.32 416.86 356.44 419.28 384.77 C 421.48 393.69 420.09 402.94 421.59 411.95 C 421.86 421.29 421.73 430.65 421.71 440.00 C 422.04 448.04 420.19 455.97 420.67 464.02 C 419.05 475.66 418.15 487.38 416.33 499.00 C 412.83 516.80 409.09 534.63 402.66 551.64 C 400.40 559.11 396.69 566.00 394.01 573.31 C 393.59 574.73 392.54 576.10 390.91 576.10 C 384.83 575.58 379.17 572.51 372.99 572.82 C 364.56 573.02 355.90 571.91 347.75 574.66 C 319.58 580.58 295.56 602.30 286.69 629.64 C 280.91 645.97 281.23 664.00 285.79 680.60 C 272.09 686.01 258.32 691.43 243.90 694.67 C 235.05 697.58 225.70 698.17 216.69 700.38 C 210.83 701.27 204.93 701.85 199.03 702.37 C 193.51 703.78 187.78 702.46 182.22 703.48 C 177.51 704.29 172.73 703.93 167.98 704.04 C 115.51 704.37 63.04 704.08 10.56 704.12 C 10.47 522.56 10.51 341.00 10.56 159.44 M 108.38 239.38 C 108.37 367.90 108.38 496.42 108.38 624.93 C 123.91 624.95 139.45 624.91 154.98 624.96 C 162.39 625.27 169.64 623.34 177.03 623.04 C 189.27 622.28 201.10 619.01 213.00 616.31 C 217.33 613.75 222.65 613.51 226.96 610.82 C 238.40 606.42 248.96 600.03 258.84 592.84 C 265.28 587.96 270.84 582.12 276.54 576.44 C 289.77 561.91 299.41 544.45 306.14 526.06 C 306.59 524.69 307.30 523.44 308.03 522.21 C 309.52 514.72 312.72 507.69 313.90 500.13 C 314.49 496.31 315.69 492.64 316.47 488.88 C 317.29 481.87 318.80 474.93 319.07 467.86 C 319.37 463.57 320.71 459.41 320.79 455.09 C 320.98 437.40 321.19 419.69 320.65 402.00 C 318.53 389.02 318.17 375.72 314.65 363.00 C 313.75 358.99 313.25 354.87 311.87 350.97 C 309.84 345.83 309.23 340.24 306.85 335.22 C 299.35 316.20 289.30 297.78 274.63 283.31 C 258.30 266.03 236.76 254.15 213.99 247.76 C 206.88 244.87 199.12 244.36 191.75 242.39 C 183.55 240.97 175.24 240.37 166.96 239.57 C 147.44 239.11 127.91 239.47 108.38 239.38 Z" />
<path fill="#000000" opacity="1.00" d=" M 757.03 255.26 C 769.28 253.90 781.73 253.73 793.97 255.21 C 805.13 255.35 816.10 257.74 827.03 259.78 C 834.03 261.92 841.42 262.70 848.19 265.57 C 864.39 270.27 879.76 277.47 894.56 285.51 C 912.87 296.11 930.41 308.49 945.00 323.93 C 937.76 333.68 929.78 342.87 922.26 352.40 C 912.82 363.86 903.76 375.65 893.91 386.76 C 878.07 372.60 859.94 360.90 840.40 352.52 C 834.41 350.38 828.68 347.50 822.38 346.29 C 810.34 342.14 797.55 341.12 784.98 339.70 C 767.19 338.87 749.09 341.00 732.32 347.20 C 720.20 351.96 709.12 359.80 701.65 370.59 C 692.55 383.99 690.40 401.26 693.91 416.89 C 696.76 426.58 702.32 435.39 709.76 442.22 C 722.82 454.57 739.40 462.26 755.72 469.25 C 759.43 471.58 763.86 472.23 767.70 474.32 C 781.46 479.81 795.03 485.78 808.74 491.40 C 815.22 493.69 821.17 497.26 827.74 499.37 C 839.08 504.42 850.63 509.01 862.02 513.95 C 868.66 517.35 875.31 520.72 882.00 524.01 C 894.14 531.24 905.80 539.29 916.50 548.53 C 923.02 554.68 929.09 561.32 934.60 568.39 C 938.22 574.40 942.86 579.79 945.68 586.27 C 948.99 593.55 952.94 600.65 954.61 608.55 C 958.24 619.66 959.86 631.32 961.12 642.92 C 961.23 654.24 961.96 665.66 960.26 676.90 C 957.06 700.46 948.80 723.52 934.92 742.94 C 922.79 760.86 906.44 775.67 888.19 787.19 C 854.22 808.60 813.80 817.85 774.01 818.95 C 765.32 820.56 756.63 818.32 747.92 818.61 C 733.81 817.40 719.66 815.90 705.85 812.59 C 699.12 811.66 692.83 809.06 686.22 807.64 C 655.99 798.74 627.29 784.71 601.68 766.33 C 590.38 758.60 580.29 749.23 570.28 739.97 C 570.05 739.37 569.58 738.16 569.35 737.56 C 577.29 729.70 583.86 720.63 591.28 712.31 C 602.78 698.66 614.38 685.11 625.91 671.49 C 637.48 683.06 650.76 692.76 664.55 701.50 C 678.13 710.38 693.03 716.98 708.09 722.88 C 715.73 725.03 723.18 727.91 731.02 729.31 C 740.14 731.95 749.67 732.43 759.06 733.48 C 768.35 733.51 777.71 733.99 786.94 732.54 C 795.74 732.23 804.13 729.50 812.60 727.41 C 821.95 724.23 830.91 719.76 838.82 713.80 C 845.45 707.66 852.12 701.15 855.81 692.74 C 858.66 685.81 861.57 678.64 861.56 671.02 C 861.56 662.28 862.39 653.18 859.06 644.87 C 856.12 635.06 849.80 626.53 842.30 619.68 C 826.05 605.81 806.00 597.72 786.53 589.51 C 761.99 578.61 737.16 568.36 712.75 557.16 C 690.43 548.15 668.40 537.60 649.59 522.35 C 638.25 513.14 627.48 502.97 619.18 490.88 C 604.16 470.70 596.21 445.90 593.93 421.03 C 593.55 406.72 593.00 392.11 596.76 378.16 C 597.22 372.75 599.58 367.83 600.88 362.63 C 607.36 344.25 617.07 326.76 630.63 312.62 C 634.34 307.65 639.27 303.89 643.74 299.67 C 665.29 280.98 691.56 268.01 719.23 261.37 C 722.83 260.33 726.45 259.33 730.16 258.75 C 739.08 257.38 747.94 255.06 757.03 255.26 Z" />
<path fill="#000000" opacity="1.00" d=" M 451.25 259.43 C 483.10 259.39 514.95 259.34 546.80 259.43 C 546.98 370.30 546.82 481.16 546.87 592.03 C 546.80 611.05 547.06 630.07 546.64 649.09 C 546.62 653.40 545.62 657.61 545.03 661.87 C 543.98 675.75 540.59 689.33 536.47 702.60 C 534.42 710.32 530.73 717.46 527.90 724.91 C 520.50 740.06 511.65 754.66 500.07 767.00 C 482.73 786.17 460.62 801.02 436.08 809.21 C 429.31 812.05 422.00 813.09 414.96 815.04 C 407.73 816.72 400.31 817.35 392.97 818.37 C 378.33 819.01 363.58 820.62 348.95 818.66 C 314.97 815.33 282.17 801.11 256.44 778.67 C 243.45 768.18 233.15 754.79 224.23 740.78 C 220.44 732.69 215.47 724.91 214.17 715.91 C 216.60 715.72 219.07 715.75 221.46 715.20 C 229.55 712.87 238.11 712.59 246.10 709.80 C 254.11 708.28 261.75 705.42 269.61 703.33 C 277.31 701.13 284.29 697.10 291.82 694.48 C 302.05 714.60 321.00 729.91 342.60 736.23 C 355.41 740.35 369.25 740.48 382.42 738.16 C 388.36 736.24 394.47 734.75 400.16 732.10 C 408.16 728.14 415.85 723.45 422.44 717.37 C 438.45 702.36 448.80 681.04 449.19 658.95 C 449.01 653.87 451.12 649.07 451.04 644.00 C 451.43 597.00 451.18 550.00 451.25 503.00 C 451.25 421.81 451.25 340.62 451.25 259.43 Z" />
<path fill="#000000" opacity="1.00" d=" M 358.72 589.30 C 362.28 588.61 365.95 588.00 369.56 588.76 C 374.53 590.01 379.87 589.02 384.63 591.28 C 395.03 594.30 405.06 599.52 412.40 607.64 C 424.19 618.23 431.25 633.56 433.04 649.20 C 435.47 670.77 426.32 692.93 410.05 707.16 C 399.27 715.89 386.10 722.47 372.02 722.94 C 367.32 722.91 362.63 723.01 357.94 722.91 C 342.62 721.62 328.55 713.83 317.42 703.54 C 314.91 700.96 313.36 697.59 310.69 695.16 C 306.88 688.76 302.68 682.32 301.18 674.91 C 300.60 671.61 298.90 668.53 298.93 665.13 C 298.92 659.41 298.81 653.68 298.92 647.97 C 301.09 629.05 311.45 610.93 327.59 600.51 C 333.24 595.86 340.29 593.62 347.04 591.12 C 350.81 589.87 354.79 589.63 358.72 589.30 Z" />
</g>
</svg>
