<?xml version="1.0" encoding="UTF-8" ?>
<!DOCTYPE svg PUBLIC "-//W3C//DTD SVG 1.1//EN" "http://www.w3.org/Graphics/SVG/1.1/DTD/svg11.dtd">
<svg width="1390pt" height="459pt" viewBox="0 0 1390 459" version="1.1" xmlns="http://www.w3.org/2000/svg">
<g id="#ffffffff">
<path fill="#ffffff" opacity="1.00" d=" M 939.86 7.89 C 958.53 6.22 977.35 6.67 996.04 7.77 C 1014.30 10.12 1032.84 12.79 1049.85 20.19 C 1061.90 25.43 1072.64 34.01 1079.85 45.03 C 1083.73 52.44 1087.38 60.35 1087.81 68.83 C 1088.63 74.39 1087.42 80.00 1086.07 85.39 C 1132.98 78.31 1179.93 71.53 1227.06 66.08 C 1250.02 62.87 1273.00 59.81 1296.02 57.08 C 1311.76 55.37 1327.40 52.49 1343.23 51.84 C 1347.24 53.53 1348.35 58.07 1349.65 61.80 C 1348.71 62.83 1347.83 63.87 1346.94 64.92 C 1345.51 65.19 1344.12 65.49 1342.74 65.81 C 1341.09 67.82 1338.61 68.66 1336.13 68.98 C 1311.08 72.29 1285.93 74.88 1261.01 79.06 C 1217.95 85.19 1175.22 93.38 1132.18 99.62 C 1112.82 102.67 1093.42 105.50 1074.06 108.58 C 1064.19 122.69 1051.10 134.16 1037.41 144.45 C 1012.70 162.64 985.23 176.67 957.22 188.99 C 917.31 206.50 875.83 220.08 834.13 232.61 C 804.81 241.45 775.02 248.62 745.16 255.39 C 736.11 270.04 726.62 284.42 716.76 298.55 C 709.55 308.91 702.23 319.30 693.29 328.27 C 688.21 333.35 682.74 338.38 675.90 340.92 C 670.42 343.84 664.15 345.56 657.92 344.71 C 654.79 344.01 652.92 341.01 652.11 338.11 C 650.29 331.20 648.13 324.04 649.56 316.84 C 652.57 298.76 662.19 282.33 674.33 268.83 L 671.12 270.12 C 671.42 269.29 672.02 267.64 672.32 266.81 L 672.05 268.20 C 673.02 267.90 674.96 267.30 675.93 267.00 C 682.00 260.77 689.11 255.44 697.16 252.06 C 708.64 247.09 720.91 244.29 732.91 240.95 C 737.59 234.54 741.22 227.31 745.36 220.51 C 759.84 195.91 772.68 170.40 784.95 144.65 C 755.34 147.16 725.68 149.18 695.98 149.77 C 680.67 149.31 665.16 150.23 650.11 146.84 C 645.55 145.67 640.44 144.69 637.12 141.07 C 634.39 138.19 635.09 133.94 633.63 130.51 C 631.96 125.30 635.29 120.31 638.60 116.57 C 642.62 110.89 648.34 106.79 654.01 102.88 C 673.27 89.59 694.78 80.06 716.26 70.99 C 754.14 55.38 792.67 41.25 831.95 29.59 C 867.22 19.39 903.18 10.80 939.86 7.89 M 957.22 25.99 C 919.76 26.20 882.84 34.19 846.86 44.12 C 807.10 55.16 768.21 69.21 730.15 85.11 C 710.75 93.37 691.18 101.64 673.51 113.27 C 667.83 116.99 661.99 120.65 657.38 125.70 C 675.36 130.94 694.32 130.20 712.81 129.48 C 740.09 128.30 767.23 124.95 794.46 123.06 C 801.08 108.38 807.20 93.48 813.92 78.85 C 816.11 74.30 818.73 69.85 822.41 66.33 C 824.80 64.37 828.15 65.03 831.01 64.63 C 833.31 66.63 835.73 69.79 834.31 72.98 C 829.77 89.38 822.88 104.99 816.60 120.77 C 828.70 118.98 840.92 118.08 853.06 116.57 C 922.88 108.47 992.55 99.01 1062.08 88.76 C 1065.42 82.41 1066.78 75.00 1066.00 67.87 C 1065.21 64.20 1063.19 60.94 1061.12 57.87 C 1054.12 48.17 1043.37 42.12 1032.55 37.60 C 1015.80 31.13 997.84 28.73 980.11 26.65 C 972.46 26.70 964.84 25.22 957.22 25.99 M 908.20 131.40 C 874.57 135.52 840.92 139.70 807.15 142.61 C 792.63 174.47 776.51 205.64 757.83 235.29 C 794.55 226.89 830.77 216.47 866.62 204.92 C 903.99 192.68 941.20 179.40 976.21 161.33 C 1001.46 148.14 1026.02 132.81 1046.18 112.48 C 1000.28 119.44 954.26 125.56 908.20 131.40 M 701.51 268.43 C 690.36 275.69 682.75 287.12 676.92 298.84 C 672.79 307.39 669.43 316.66 669.89 326.31 C 675.92 322.35 681.19 317.34 685.69 311.71 C 698.42 295.58 709.33 278.13 720.85 261.14 C 714.30 263.23 707.25 264.41 701.51 268.43 Z" />
<path fill="#ffffff" opacity="1.00" d=" M 164.55 52.26 C 178.57 46.62 193.95 44.27 208.99 46.00 C 216.22 47.22 223.42 49.41 229.57 53.50 C 240.83 61.36 248.29 73.82 251.30 87.10 C 252.63 93.83 251.83 100.89 249.10 107.17 C 246.95 110.29 244.39 113.87 240.21 113.93 C 236.33 108.45 236.94 101.39 234.33 95.40 C 230.77 86.80 225.24 78.61 217.18 73.67 C 210.66 69.76 203.21 67.74 195.77 66.49 C 188.99 65.51 182.24 67.13 175.79 69.10 C 164.90 72.34 155.40 78.80 145.99 84.97 C 111.09 109.34 82.22 141.67 59.37 177.43 C 49.64 193.05 41.69 209.82 36.09 227.36 C 32.25 239.27 30.49 252.07 32.49 264.49 C 33.85 274.11 39.65 282.82 47.44 288.48 C 57.11 295.70 68.65 299.90 80.27 302.78 C 91.30 305.73 102.63 307.39 114.00 308.24 C 122.01 308.30 130.01 309.68 138.02 308.77 C 149.36 308.92 160.66 308.03 171.97 307.20 C 175.93 306.82 179.98 307.66 183.87 306.56 C 184.77 305.85 184.89 304.54 185.40 303.56 C 192.41 285.03 200.69 266.99 207.26 248.29 C 210.58 238.17 213.89 227.79 213.88 217.03 C 214.63 209.00 207.33 202.45 199.99 200.84 C 190.88 199.43 181.80 201.94 173.00 204.06 C 156.90 208.59 141.31 214.72 125.47 220.08 C 120.39 221.85 115.02 222.45 109.68 222.83 C 109.15 219.75 108.89 216.56 107.40 213.76 C 107.69 212.52 107.98 211.29 108.27 210.07 C 108.95 209.51 109.63 208.96 110.31 208.41 C 112.27 204.26 116.72 202.43 120.70 200.76 C 128.30 197.62 135.95 194.61 143.69 191.84 C 166.21 183.72 189.93 176.06 214.18 178.51 C 222.63 179.43 229.28 185.59 233.74 192.41 C 238.86 201.43 241.89 211.86 240.66 222.29 C 238.60 243.24 230.20 262.80 222.43 282.15 C 219.06 290.28 215.73 298.43 212.45 306.60 C 216.03 306.51 219.61 306.61 223.13 307.29 C 226.72 308.10 230.14 306.27 233.61 305.58 C 235.79 296.52 237.42 287.33 239.25 278.20 C 246.83 265.62 248.96 250.80 253.06 236.92 C 266.04 204.83 280.25 173.22 291.88 140.59 C 299.72 118.92 306.71 96.96 314.40 75.24 C 316.19 71.18 316.87 66.44 320.12 63.20 C 322.12 60.43 325.94 61.15 328.90 61.21 C 330.98 62.35 332.05 64.77 332.53 66.99 C 332.95 73.90 331.15 80.66 329.70 87.34 C 316.52 133.37 299.26 178.12 280.27 222.04 C 285.30 216.46 290.93 211.49 296.64 206.64 C 301.63 202.69 307.38 198.69 314.10 199.63 C 317.84 198.65 320.53 201.85 322.46 204.55 C 328.20 214.98 327.31 227.38 326.35 238.80 C 323.83 255.59 320.46 272.29 319.70 289.28 C 323.47 287.34 327.06 285.08 330.65 282.84 C 334.94 264.67 346.14 249.11 358.38 235.40 C 364.22 229.60 369.90 223.27 377.36 219.51 C 381.21 217.43 385.72 217.73 389.95 217.75 C 395.48 219.20 398.09 224.86 399.32 229.96 C 398.07 235.36 396.73 240.78 394.54 245.90 C 390.30 256.46 389.02 267.86 387.82 279.08 C 403.18 270.07 415.23 256.60 426.52 243.07 C 426.99 236.46 427.32 229.56 430.49 223.59 C 433.16 218.49 436.66 213.58 441.44 210.26 C 444.75 207.89 448.90 208.56 452.70 208.56 L 452.38 209.89 C 452.87 209.72 453.87 209.37 454.37 209.20 L 454.14 210.72 L 455.55 210.39 C 455.49 213.25 455.23 216.06 455.14 218.92 L 456.49 211.12 C 456.40 215.64 456.50 220.18 456.43 224.71 L 455.79 224.33 C 453.67 231.10 450.05 237.32 446.09 243.17 C 445.62 259.32 455.09 273.68 455.87 289.69 C 460.64 290.25 465.42 290.96 470.24 290.91 C 470.04 288.94 469.75 286.97 470.04 285.00 C 472.70 258.13 481.78 232.42 492.07 207.63 C 484.42 209.92 476.78 212.25 469.20 214.77 C 466.12 215.88 462.82 215.92 459.61 216.18 C 459.10 213.74 458.70 211.25 457.73 208.94 C 457.94 208.38 458.34 207.26 458.55 206.69 C 459.72 205.51 460.72 204.17 461.91 203.01 C 466.44 200.62 471.61 199.73 476.06 197.15 C 483.67 194.37 491.65 192.73 499.47 190.66 C 507.94 172.21 516.86 153.98 525.53 135.63 C 533.80 118.46 541.63 101.09 549.87 83.91 C 552.85 77.96 554.77 71.19 559.72 66.48 C 561.80 64.74 564.76 64.79 567.32 64.97 C 569.72 65.65 570.39 68.39 571.63 70.25 C 568.58 88.34 561.66 105.45 554.36 122.18 C 545.14 143.28 534.87 163.89 525.15 184.76 C 535.67 182.32 546.41 181.46 557.12 180.42 C 575.42 143.98 596.82 109.18 614.43 72.38 C 615.51 69.78 617.18 67.54 618.93 65.36 C 621.66 64.10 624.70 64.07 627.63 64.39 C 630.35 66.46 632.34 70.30 630.69 73.62 C 625.92 89.02 617.85 103.10 610.69 117.47 C 599.50 138.70 587.43 159.46 576.62 180.90 C 579.06 180.66 581.49 180.02 583.96 180.32 C 585.46 180.54 587.01 182.66 586.51 184.16 C 582.62 186.81 577.85 186.64 573.38 187.22 C 563.29 207.97 553.99 229.33 549.12 251.97 C 546.99 263.51 544.00 275.13 544.84 286.96 C 545.47 289.56 545.34 293.21 548.01 294.70 C 552.63 292.35 556.37 288.67 560.00 285.05 C 567.78 276.94 574.04 267.56 580.26 258.25 C 582.57 255.19 582.72 251.25 583.86 247.72 C 586.73 237.85 591.42 228.57 596.95 219.93 C 601.10 213.51 605.13 206.96 610.30 201.30 C 613.82 198.16 618.75 198.72 623.11 198.65 C 626.72 200.81 628.34 205.04 629.14 208.96 C 627.37 214.45 623.75 219.03 620.87 223.96 C 616.70 231.68 612.38 239.32 607.82 246.82 C 602.59 254.20 602.32 263.63 600.61 272.21 C 607.15 268.08 612.55 262.50 618.11 257.19 C 628.51 246.95 638.70 236.51 648.77 225.95 C 647.90 219.05 652.77 213.67 657.35 209.28 C 660.95 206.20 665.00 203.33 669.69 202.27 C 672.32 202.19 674.97 202.13 677.59 202.37 C 681.33 205.14 683.84 210.13 682.74 214.78 C 683.62 216.91 683.87 219.35 681.86 220.94 C 667.77 235.85 656.70 253.34 648.05 271.89 C 654.93 270.53 661.99 270.65 668.85 269.24 C 668.59 269.93 668.05 271.30 667.78 271.99 L 667.72 271.07 C 664.17 273.71 660.96 276.75 657.59 279.58 C 651.91 283.25 646.23 286.90 640.67 290.74 C 639.21 292.08 638.88 294.21 638.04 295.94 C 622.78 335.47 607.99 375.22 590.85 413.99 C 585.32 425.81 580.02 438.25 570.54 447.53 C 568.09 450.09 564.56 450.85 561.51 452.41 C 556.34 455.47 549.98 456.27 544.13 455.41 C 537.28 452.75 533.99 445.35 531.88 438.81 C 528.68 426.50 525.83 413.83 526.70 401.03 C 527.87 382.11 534.04 363.45 544.80 347.80 C 563.31 320.98 589.91 300.84 618.04 284.99 C 619.94 282.87 620.46 279.78 621.81 277.28 C 618.07 280.35 614.01 283.05 609.47 284.77 C 604.44 287.49 598.75 289.08 593.01 288.53 C 588.95 288.75 585.46 286.22 583.28 283.00 C 577.72 289.92 571.85 296.74 564.64 302.01 C 560.95 304.78 556.50 306.23 552.37 308.19 C 547.66 309.81 542.33 311.10 537.44 309.60 C 531.65 306.88 529.15 300.40 528.04 294.49 C 524.55 282.49 526.73 269.92 529.03 257.93 C 532.86 235.45 541.12 214.01 550.68 193.41 C 540.34 196.37 529.76 198.28 519.30 200.74 C 518.86 200.94 517.98 201.32 517.54 201.51 C 507.79 223.90 498.86 246.84 493.93 270.83 C 492.50 278.62 491.06 286.41 489.88 294.24 C 490.98 296.52 492.64 299.50 489.38 300.78 C 488.74 302.25 488.32 303.80 487.94 305.35 C 483.57 304.87 479.04 307.36 474.95 305.05 C 466.04 306.67 456.92 306.01 447.99 304.99 C 444.65 305.60 441.88 307.67 438.72 308.76 C 432.14 311.19 425.04 311.46 418.13 311.92 C 406.57 312.10 396.16 302.17 395.05 290.80 C 389.50 293.31 383.13 294.82 377.10 293.40 C 372.61 291.88 372.15 286.64 371.25 282.72 C 363.98 291.36 354.20 298.03 343.02 300.23 C 340.20 300.28 337.33 300.22 334.71 299.08 C 327.91 302.67 320.97 306.73 313.20 307.64 C 309.12 307.85 303.92 308.57 301.38 304.53 C 299.28 300.74 298.97 296.23 297.90 292.09 C 297.84 273.86 301.74 255.94 304.33 237.97 C 305.15 232.63 305.41 227.22 305.18 221.83 C 296.06 230.17 287.85 239.46 280.20 249.15 C 267.88 265.01 258.60 282.95 250.05 301.04 C 247.63 305.81 247.15 311.53 243.70 315.75 C 242.62 317.39 240.36 316.97 238.74 317.70 C 237.61 318.65 236.42 319.51 235.19 320.32 C 233.47 318.52 231.38 316.99 230.29 314.69 C 222.28 317.84 214.55 321.89 206.05 323.61 C 201.89 335.53 197.71 347.44 194.00 359.50 C 191.15 369.81 188.50 380.17 185.70 390.49 C 185.04 394.19 183.19 397.49 181.88 400.97 C 182.10 403.32 182.41 405.67 182.76 408.01 C 182.18 408.88 181.61 409.75 181.03 410.62 C 181.21 411.49 181.58 413.23 181.77 414.09 C 179.69 415.20 177.44 415.97 175.06 415.91 C 174.82 414.95 174.58 413.99 174.34 413.04 C 173.19 412.77 172.05 412.46 170.93 412.11 C 166.93 403.81 169.44 394.50 168.68 385.71 C 167.76 374.38 170.04 363.14 171.57 351.97 C 172.57 344.39 174.12 336.90 176.34 329.59 C 156.17 332.64 135.71 332.74 115.37 333.11 C 109.93 332.48 104.45 332.49 98.97 332.39 C 84.88 331.18 70.81 328.90 57.32 324.56 C 43.41 320.67 30.08 313.42 20.77 302.18 C 13.48 293.68 9.67 282.81 7.57 271.95 C 2.21 252.19 6.63 231.36 13.80 212.67 C 22.03 190.59 34.08 170.12 48.25 151.36 C 65.82 127.51 86.26 105.81 108.81 86.63 C 125.64 72.65 144.08 60.24 164.55 52.26 M 360.84 257.93 C 367.49 251.76 374.00 245.22 378.43 237.21 C 371.54 243.16 366.10 250.55 360.84 257.93 M 429.47 264.20 C 427.69 265.97 425.91 267.73 424.11 269.48 C 425.64 270.61 426.91 272.03 428.36 273.26 C 430.15 275.82 432.12 278.26 434.26 280.55 C 432.64 275.10 430.91 269.69 429.47 264.20 M 411.58 286.12 C 413.82 292.45 421.38 294.70 427.47 295.08 C 423.37 291.06 419.57 286.32 418.86 280.43 C 416.26 281.92 411.41 282.26 411.58 286.12 M 556.94 368.96 C 550.12 384.68 546.94 402.36 549.96 419.35 C 550.89 424.94 551.66 430.82 554.91 435.64 C 557.60 432.26 559.81 428.54 561.80 424.71 C 571.07 406.90 578.15 388.08 585.64 369.48 C 593.34 350.63 600.37 331.52 607.85 312.59 C 587.38 327.63 567.14 345.06 556.94 368.96 Z" />
<path fill="#ffffff" opacity="1.00" d=" M 945.92 208.89 C 959.83 200.84 976.04 197.14 992.01 196.65 C 994.18 196.44 996.41 196.40 998.55 196.99 C 1003.91 198.47 1009.50 197.57 1014.98 197.77 C 1016.25 198.84 1016.78 200.47 1017.48 201.94 C 1015.83 202.69 1014.20 203.48 1012.50 204.09 C 1008.48 205.35 1004.15 204.18 1000.17 205.68 C 989.61 209.59 978.28 210.54 967.47 213.56 C 962.21 215.00 957.14 217.40 952.97 220.93 C 945.47 227.25 941.15 236.33 937.31 245.14 C 932.78 255.30 930.39 266.19 927.70 276.93 C 927.42 278.70 927.48 280.51 927.44 282.30 C 926.60 283.21 925.78 284.11 924.96 285.02 C 923.34 285.16 921.69 285.35 920.45 286.50 C 917.47 289.01 913.37 288.66 909.74 288.90 C 909.08 285.95 908.46 283.00 907.61 280.11 C 907.94 270.55 913.10 262.11 915.84 253.15 C 919.16 241.48 922.92 229.95 926.64 218.40 C 928.66 213.00 929.84 207.07 933.95 202.76 C 936.52 201.70 939.32 201.75 942.07 201.67 C 944.11 203.60 945.29 206.18 945.92 208.89 Z" />
<path fill="#ffffff" opacity="1.00" d=" M 1262.59 205.56 C 1265.82 203.81 1269.54 204.36 1273.08 204.26 C 1275.91 206.83 1278.81 210.84 1277.45 214.82 C 1274.55 220.21 1270.57 224.93 1266.62 229.57 C 1273.94 224.45 1282.29 220.90 1290.96 218.81 C 1293.74 218.55 1296.55 218.77 1299.36 218.73 C 1304.69 222.09 1306.97 228.90 1306.42 234.96 C 1305.38 240.91 1303.17 246.77 1303.34 252.87 C 1307.33 257.23 1313.40 258.83 1318.98 260.04 C 1330.87 262.08 1342.99 262.98 1355.04 262.24 C 1358.78 261.93 1362.42 262.83 1366.10 263.36 C 1372.64 263.52 1379.01 260.71 1385.57 261.47 C 1387.22 262.49 1387.98 264.46 1388.82 266.13 C 1384.15 269.44 1378.38 270.14 1372.86 270.83 L 1372.08 271.02 C 1367.01 271.75 1362.23 273.64 1357.54 275.58 C 1338.83 280.59 1318.64 282.47 1299.89 276.65 C 1292.99 274.29 1286.07 268.96 1285.43 261.16 C 1281.79 251.38 1287.64 241.67 1289.36 232.12 C 1282.52 234.98 1276.45 239.37 1270.35 243.52 C 1258.95 251.71 1247.69 260.11 1236.11 268.06 C 1230.80 270.66 1225.14 273.99 1218.98 272.60 C 1218.89 270.08 1218.18 267.69 1217.56 265.28 C 1218.67 261.02 1221.56 257.60 1224.17 254.18 C 1229.42 247.56 1234.87 241.12 1240.44 234.78 C 1234.12 236.86 1227.66 238.56 1221.09 239.64 C 1219.96 248.74 1214.18 256.50 1207.46 262.41 C 1199.85 269.18 1190.36 273.24 1181.08 277.15 C 1173.76 280.25 1165.82 281.70 1157.90 281.87 C 1153.94 281.84 1150.31 280.07 1146.54 279.25 C 1137.96 285.88 1129.42 292.64 1120.27 298.48 C 1118.50 305.76 1117.76 313.26 1115.71 320.49 C 1111.33 340.72 1108.64 361.30 1103.50 381.38 C 1100.02 395.01 1096.23 408.66 1090.37 421.50 C 1087.01 428.92 1081.43 435.70 1073.72 438.81 C 1066.68 442.12 1058.02 443.80 1050.82 440.05 C 1039.73 434.44 1033.23 422.96 1029.14 411.70 C 1024.50 396.73 1020.76 380.85 1023.62 365.14 C 1026.34 348.22 1037.59 334.21 1050.00 323.05 C 1057.48 316.11 1066.48 311.21 1075.29 306.20 C 1084.17 301.39 1093.74 297.88 1102.07 292.09 C 1103.01 280.23 1105.11 268.50 1106.89 256.74 C 1095.33 262.34 1082.92 267.27 1069.86 266.86 C 1065.56 266.52 1061.30 265.14 1057.88 262.47 C 1049.32 264.96 1039.64 266.93 1031.21 263.07 C 1025.84 260.40 1025.31 254.12 1024.01 248.99 C 1012.98 257.83 1000.12 263.92 987.02 268.98 C 980.87 271.28 974.47 273.02 967.90 273.44 C 963.95 274.06 959.55 273.70 956.38 271.04 C 955.92 267.98 955.19 264.98 954.37 262.00 C 955.80 251.33 963.53 243.07 970.61 235.55 C 983.19 223.50 998.07 213.70 1014.46 207.70 C 1019.43 205.98 1024.60 204.25 1029.95 204.62 C 1035.68 204.86 1042.30 204.00 1047.01 207.99 C 1049.92 210.09 1051.08 213.63 1052.21 216.87 C 1052.52 219.57 1050.18 221.68 1048.87 223.84 C 1047.76 232.26 1042.83 239.89 1043.09 248.60 C 1046.40 250.30 1049.88 251.62 1053.32 253.03 C 1051.89 244.16 1058.59 237.11 1064.10 231.12 C 1074.20 221.60 1086.05 213.34 1099.55 209.57 C 1106.46 208.23 1114.03 208.33 1120.44 211.54 C 1124.79 213.82 1127.10 218.44 1128.68 222.88 C 1131.06 222.99 1133.92 222.08 1135.76 224.12 C 1138.04 226.30 1139.93 229.62 1139.67 232.82 C 1137.01 236.68 1133.25 239.55 1129.91 242.77 C 1126.38 250.38 1125.95 258.94 1124.62 267.12 C 1123.37 274.40 1122.62 281.75 1121.32 289.02 C 1127.69 283.80 1134.17 278.72 1140.54 273.50 C 1136.85 266.21 1135.07 257.59 1137.59 249.62 C 1140.05 236.70 1147.49 224.98 1157.47 216.53 C 1162.56 212.02 1169.72 210.86 1176.24 212.13 C 1179.33 212.87 1181.57 215.61 1184.82 215.88 C 1194.95 217.20 1205.41 219.42 1213.80 225.58 C 1224.76 224.57 1236.15 222.56 1245.54 216.42 C 1251.30 212.94 1256.51 208.52 1262.59 205.56 M 1011.56 226.60 C 998.86 234.08 986.29 242.92 977.99 255.33 C 985.71 252.80 993.11 249.34 1000.09 245.18 C 1011.01 239.08 1021.03 231.31 1029.30 221.90 C 1022.97 220.08 1016.96 223.79 1011.56 226.60 M 1089.06 228.05 C 1080.87 233.92 1071.91 240.32 1068.78 250.42 C 1072.54 252.11 1076.79 253.18 1080.92 252.23 C 1090.70 250.17 1099.64 245.40 1108.13 240.28 C 1113.06 238.02 1114.56 232.43 1118.36 228.92 C 1114.21 223.75 1107.54 220.10 1100.78 221.30 C 1096.54 222.88 1092.84 225.63 1089.06 228.05 M 1150.81 256.02 C 1151.51 258.36 1152.27 260.69 1153.41 262.87 C 1161.68 255.91 1169.50 248.36 1176.26 239.90 C 1169.89 238.54 1163.59 236.72 1157.83 233.67 C 1153.78 240.46 1151.27 248.11 1150.81 256.02 M 1186.50 241.07 C 1179.58 250.94 1170.55 258.99 1161.66 267.01 C 1168.31 268.52 1174.85 265.41 1180.79 262.72 C 1190.08 258.14 1199.82 251.84 1203.23 241.49 C 1197.65 241.32 1192.07 241.31 1186.50 241.07 M 1080.14 319.15 C 1070.77 328.11 1059.70 335.53 1052.37 346.44 C 1045.86 355.50 1042.81 366.65 1042.63 377.72 C 1043.46 390.60 1045.56 403.84 1052.02 415.21 C 1055.74 421.67 1060.53 428.20 1067.86 430.73 C 1071.62 430.86 1074.62 427.61 1076.74 424.80 C 1082.94 415.36 1086.51 404.49 1089.77 393.76 C 1096.51 369.80 1102.48 345.12 1101.23 320.06 C 1101.02 314.56 1100.49 309.05 1101.23 303.56 C 1094.28 308.88 1086.63 313.24 1080.14 319.15 Z" />
<path fill="#ffffff" opacity="1.00" d=" M 670.48 268.22 C 671.44 269.06 671.23 269.82 669.86 270.50 C 668.85 269.59 669.05 268.83 670.48 268.22 Z" />
</g>
</svg>
