<?xml version="1.0" encoding="UTF-8" ?>
<!DOCTYPE svg PUBLIC "-//W3C//DTD SVG 1.1//EN" "http://www.w3.org/Graphics/SVG/1.1/DTD/svg11.dtd">
<svg width="857pt" height="857pt" viewBox="0 0 857 857" version="1.1" xmlns="http://www.w3.org/2000/svg">
<g id="#000000ff">
<path fill="#000000" opacity="1.00" d=" M 89.38 72.09 C 91.45 72.08 93.52 72.08 95.59 72.08 C 95.55 74.11 95.51 76.13 95.48 78.16 C 97.55 78.11 99.63 78.08 101.71 78.04 C 101.68 80.02 101.66 82.00 101.65 83.98 C 103.51 83.94 105.38 83.91 107.25 83.87 C 107.25 85.76 107.25 87.64 107.26 89.53 C 109.21 89.49 111.16 89.45 113.11 89.40 C 113.08 91.41 113.04 93.41 113.00 95.42 C 114.92 95.35 116.83 95.29 118.75 95.23 C 118.75 97.35 118.75 99.46 118.75 101.58 C 120.62 101.58 122.48 101.58 124.35 101.59 C 124.31 103.54 124.27 105.49 124.23 107.44 C 126.18 107.41 128.13 107.39 130.08 107.36 C 130.08 109.33 130.08 111.31 130.09 113.29 C 131.85 113.19 133.62 113.10 135.39 113.01 C 135.71 115.39 136.05 117.77 136.43 120.14 C 138.03 119.96 139.62 119.78 141.22 119.60 C 141.26 121.61 141.32 123.61 141.37 125.62 C 143.25 125.55 145.12 125.48 147.00 125.42 C 146.89 126.32 146.66 128.14 146.55 129.04 C 144.84 129.21 143.12 129.38 141.41 129.55 C 143.61 129.60 145.82 129.63 148.03 129.67 C 147.98 131.55 147.93 133.43 147.89 135.32 C 150.23 135.61 152.57 135.93 154.91 136.28 C 154.77 137.95 154.63 139.61 154.49 141.28 C 156.08 141.21 157.66 141.14 159.25 141.07 C 159.19 141.72 159.06 143.02 159.00 143.67 C 161.56 143.89 164.12 144.12 166.67 144.37 C 163.58 144.87 160.48 145.35 157.39 145.84 C 159.93 146.19 162.47 146.53 165.01 146.86 C 165.35 149.02 165.66 151.19 165.85 153.37 C 167.63 153.33 169.41 153.30 171.19 153.27 C 171.15 155.27 171.11 157.27 171.07 159.27 C 172.94 159.21 174.82 159.16 176.70 159.10 C 176.68 161.01 176.66 162.92 176.65 164.83 C 178.60 164.77 180.55 164.72 182.50 164.66 C 182.50 166.81 182.50 168.96 182.50 171.11 C 184.42 171.07 186.33 171.03 188.25 170.99 C 188.20 172.95 188.16 174.92 188.13 176.89 C 190.00 176.86 191.88 176.83 193.76 176.81 C 193.74 178.69 193.73 180.56 193.71 182.44 C 195.68 182.42 197.65 182.40 199.63 182.38 C 199.59 184.35 199.54 186.32 199.50 188.30 C 201.38 188.24 203.27 188.18 205.16 188.12 C 205.38 190.45 205.61 192.79 205.85 195.12 C 207.48 194.96 209.11 194.79 210.74 194.63 C 210.75 196.59 210.75 198.55 210.76 200.52 C 212.62 200.46 214.48 200.39 216.35 200.32 C 216.29 202.21 216.24 204.11 216.18 206.00 C 217.89 206.00 219.61 206.00 221.33 206.00 C 221.69 210.35 224.36 213.99 225.14 218.24 C 225.51 215.63 225.96 213.03 226.41 210.43 C 226.68 212.38 226.95 214.33 227.22 216.29 C 227.87 216.74 229.17 217.64 229.82 218.09 C 229.72 219.37 229.62 220.65 229.52 221.93 C 231.00 221.78 232.48 221.64 233.97 221.50 C 234.80 223.81 235.26 226.21 235.41 228.66 C 237.13 228.57 238.86 228.49 240.59 228.42 C 240.59 230.37 240.58 232.31 240.58 234.27 C 242.45 234.22 244.31 234.18 246.19 234.14 C 246.14 236.12 246.10 238.11 246.06 240.10 C 248.01 240.04 249.96 239.99 251.92 239.94 C 251.92 242.08 251.92 244.21 251.92 246.36 C 253.84 246.32 255.76 246.27 257.68 246.24 C 257.64 248.13 257.60 250.02 257.56 251.92 C 259.44 251.88 261.33 251.84 263.22 251.80 C 263.19 253.81 263.17 255.82 263.15 257.84 C 265.03 257.79 266.91 257.74 268.79 257.69 C 268.85 259.94 268.92 262.20 268.99 264.45 C 270.85 264.36 272.71 264.27 274.58 264.18 C 274.62 266.15 274.67 268.13 274.71 270.12 C 276.40 270.00 278.10 269.90 279.80 269.79 C 280.26 273.28 280.82 276.75 281.34 280.23 C 283.15 280.12 284.95 280.01 286.76 279.91 C 286.80 281.83 286.83 283.76 286.87 285.69 C 288.71 285.62 290.55 285.55 292.40 285.48 C 292.48 287.73 292.54 289.99 292.62 292.25 C 294.44 292.25 296.27 292.25 298.11 292.25 C 298.07 294.20 298.04 296.14 298.00 298.10 C 299.95 298.08 301.90 298.06 303.86 298.04 C 303.84 299.97 303.83 301.90 303.83 303.84 C 305.71 303.80 307.61 303.76 309.50 303.72 C 309.50 305.82 309.50 307.92 309.50 310.02 C 311.39 309.95 313.28 309.88 315.17 309.82 C 315.12 311.89 315.08 313.97 315.06 316.05 C 316.85 315.97 318.64 315.90 320.43 315.83 C 320.42 317.68 320.41 319.54 320.41 321.40 C 322.16 321.42 323.92 321.46 325.68 321.50 C 325.97 323.40 326.28 325.34 327.17 327.08 C 327.02 327.37 326.72 327.94 326.56 328.23 C 327.07 328.20 328.07 328.15 328.57 328.12 C 328.43 329.67 328.30 331.23 328.18 332.80 C 329.51 332.67 330.85 332.55 332.19 332.43 C 332.65 332.91 333.59 333.89 334.06 334.38 C 333.93 335.76 333.80 337.14 333.67 338.53 C 335.30 338.43 336.95 338.35 338.59 338.27 C 338.58 340.23 338.58 342.19 338.58 344.16 C 340.63 344.16 342.69 344.16 344.75 344.17 C 344.75 346.31 344.74 348.45 344.75 350.60 C 346.44 350.48 348.13 350.38 349.83 350.28 C 349.83 352.29 349.83 354.31 349.84 356.33 C 351.89 356.33 353.95 356.33 356.01 356.33 C 356.00 358.22 355.98 360.12 355.96 362.01 C 357.84 361.97 359.73 361.93 361.62 361.90 C 361.68 364.13 361.74 366.38 361.81 368.62 C 363.37 368.53 364.94 368.44 366.52 368.36 C 366.33 369.97 366.16 371.59 365.99 373.21 C 366.46 373.16 367.40 373.07 367.87 373.03 C 367.76 374.84 367.67 376.65 367.58 378.47 C 369.79 378.55 372.02 378.64 374.24 378.74 C 374.17 380.60 374.11 382.48 374.05 384.36 C 375.83 384.27 377.62 384.18 379.41 384.10 C 379.44 386.38 379.48 388.67 379.52 390.96 C 381.37 390.90 383.21 390.85 385.07 390.81 C 385.03 392.74 385.00 394.67 384.98 396.60 C 386.88 396.54 388.79 396.49 390.70 396.44 C 390.68 398.43 390.66 400.42 390.65 402.41 C 392.60 402.41 394.55 402.41 396.50 402.42 C 396.50 404.55 396.50 406.69 396.50 408.84 C 398.32 408.82 400.15 408.82 401.98 408.82 C 401.94 410.68 401.91 412.54 401.89 414.41 C 403.83 414.41 405.77 414.41 407.72 414.41 C 407.70 415.90 407.69 417.39 407.71 418.90 C 409.13 420.82 408.89 423.25 409.04 425.51 C 410.77 425.46 412.51 425.42 414.25 425.38 C 414.24 427.32 414.25 429.26 414.25 431.21 C 416.08 431.15 417.90 431.10 419.74 431.05 C 419.74 433.06 419.74 435.08 419.75 437.10 C 421.64 437.03 423.52 436.97 425.41 436.91 C 425.41 439.05 425.41 441.20 425.42 443.35 C 427.38 443.30 429.33 443.25 431.30 443.22 C 431.27 445.16 431.25 447.12 431.23 449.08 C 433.04 449.08 434.85 449.08 436.67 449.08 C 436.66 451.05 436.66 453.02 436.66 455.00 C 438.54 454.99 440.43 454.99 442.32 455.00 C 442.32 456.51 442.31 458.03 442.35 459.56 C 443.59 461.43 443.65 463.70 443.81 465.87 C 445.51 465.79 447.21 465.73 448.92 465.67 C 448.91 467.70 448.91 469.74 448.91 471.79 C 450.71 471.73 452.52 471.68 454.33 471.64 C 454.33 473.75 454.33 475.87 454.33 478.00 C 456.27 477.99 458.22 477.99 460.17 478.00 C 460.16 479.95 460.17 481.90 460.17 483.85 C 462.07 483.83 463.96 483.80 465.86 483.79 C 465.83 485.73 465.80 487.69 465.77 489.65 C 467.55 489.69 469.34 489.73 471.13 489.78 C 471.39 493.36 471.68 496.95 471.96 500.54 C 473.80 500.51 475.65 500.49 477.50 500.48 C 477.50 502.46 477.49 504.43 477.50 506.42 C 479.41 506.41 481.33 506.41 483.25 506.41 C 483.24 508.57 483.24 510.74 483.24 512.91 C 485.05 512.82 486.87 512.73 488.70 512.65 C 488.67 514.63 488.66 516.62 488.66 518.61 C 490.39 518.54 492.13 518.47 493.87 518.41 C 494.17 521.92 494.95 525.35 495.52 528.82 C 497.22 528.71 498.92 528.60 500.64 528.50 C 500.76 530.77 500.87 533.05 500.99 535.33 C 502.79 535.32 504.60 535.33 506.41 535.33 C 506.37 537.31 506.33 539.28 506.31 541.27 C 508.22 541.24 510.15 541.21 512.08 541.18 C 512.08 543.36 512.08 545.53 512.09 547.72 C 513.97 547.62 515.86 547.53 517.75 547.44 C 517.75 549.52 517.74 551.61 517.75 553.71 C 519.39 553.61 521.04 553.53 522.69 553.44 C 523.29 557.12 524.09 560.77 524.38 564.50 C 526.16 564.41 527.95 564.35 529.74 564.28 C 529.74 566.32 529.74 568.36 529.75 570.42 C 531.65 570.35 533.56 570.30 535.47 570.25 C 535.44 572.19 535.41 574.13 535.40 576.08 C 537.23 576.03 539.07 576.00 540.92 575.98 C 540.91 578.14 540.91 580.32 540.92 582.50 C 542.79 582.43 544.66 582.39 546.55 582.33 C 546.55 584.64 546.54 587.03 547.88 589.05 C 547.81 590.22 547.74 591.40 547.68 592.59 C 549.49 592.51 551.31 592.44 553.13 592.38 C 553.19 594.67 553.26 596.95 553.34 599.25 C 555.11 599.17 556.89 599.11 558.67 599.06 C 558.66 601.09 558.65 603.13 558.64 605.17 C 560.53 605.10 562.43 605.03 564.34 604.97 C 564.33 606.90 564.32 608.83 564.31 610.76 C 566.26 610.75 568.21 610.74 570.17 610.74 C 570.16 612.87 570.17 615.02 570.17 617.16 C 571.98 617.16 573.79 617.16 575.61 617.17 C 575.56 619.14 575.52 621.13 575.48 623.11 C 577.34 623.07 579.20 623.02 581.07 622.99 C 581.15 625.15 581.06 627.50 582.41 629.35 C 582.46 630.84 582.50 632.34 582.56 633.85 C 584.31 633.80 586.06 633.75 587.83 633.72 C 587.83 635.76 587.83 637.80 587.84 639.85 C 589.70 639.80 591.56 639.75 593.43 639.72 C 593.39 641.62 593.34 643.52 593.31 645.43 C 595.22 645.37 597.15 645.32 599.08 645.27 C 599.08 647.41 599.08 649.55 599.09 651.70 C 601.03 651.66 602.98 651.62 604.94 651.58 C 604.89 653.60 604.85 655.63 604.81 657.66 C 606.65 657.66 608.49 657.66 610.34 657.67 C 610.27 659.54 610.20 661.42 610.15 663.31 L 611.75 662.98 C 611.73 665.59 611.76 668.19 611.83 670.82 C 611.48 669.51 610.78 666.88 610.42 665.57 C 610.38 668.47 610.45 671.47 610.48 674.40 C 586.32 674.87 562.11 673.76 537.99 675.52 C 528.29 675.71 518.62 674.72 508.98 673.76 C 511.68 673.20 514.39 672.68 517.11 672.17 C 515.27 671.97 513.44 671.79 511.61 671.62 C 511.81 670.94 512.19 669.59 512.38 668.92 C 510.24 668.91 508.11 668.91 505.98 668.92 C 506.00 667.01 506.05 665.12 506.09 663.22 C 504.28 663.26 502.47 663.30 500.66 663.35 C 500.66 661.34 500.67 659.35 500.68 657.37 C 498.80 657.40 496.93 657.44 495.06 657.49 C 495.02 655.22 494.99 652.96 494.97 650.71 C 493.21 650.79 491.46 650.88 489.71 650.98 C 489.41 647.23 488.92 643.51 488.38 639.79 C 486.75 639.88 485.12 640.00 483.50 640.11 C 483.49 638.01 483.49 635.92 483.50 633.84 C 481.71 633.89 479.93 633.95 478.15 634.02 C 478.23 632.50 478.31 630.99 478.40 629.49 C 478.05 629.06 477.36 628.21 477.01 627.78 C 477.07 626.14 477.13 624.51 477.20 622.89 C 475.29 622.92 473.39 622.95 471.50 623.00 C 471.49 620.80 471.50 618.60 471.50 616.41 C 469.69 616.41 467.88 616.41 466.08 616.42 C 466.08 614.37 466.08 612.34 466.09 610.30 C 464.28 610.33 462.48 610.37 460.68 610.42 C 460.42 606.71 460.07 603.02 459.81 599.33 C 458.04 599.41 456.27 599.49 454.50 599.59 C 454.25 597.17 454.00 594.75 453.75 592.34 C 452.26 592.56 450.77 592.78 449.29 593.01 C 448.85 589.41 448.38 585.82 447.98 582.23 C 446.18 582.34 444.38 582.46 442.58 582.58 C 442.58 580.32 442.58 578.08 442.58 575.84 C 440.68 575.87 438.78 575.92 436.89 575.96 C 436.92 574.02 436.97 572.09 437.02 570.16 L 435.17 570.42 C 435.33 568.86 435.50 567.32 435.67 565.78 C 434.22 565.92 432.77 566.07 431.33 566.22 C 431.22 563.75 431.12 561.28 431.04 558.81 C 429.19 558.86 427.35 558.91 425.51 558.98 C 425.48 556.68 425.43 554.39 425.39 552.11 C 423.67 552.24 421.95 552.37 420.24 552.52 C 419.76 548.78 419.06 545.07 418.81 541.31 C 417.15 541.37 415.48 541.43 413.83 541.50 C 413.78 539.41 413.75 537.32 413.73 535.24 C 412.10 535.33 410.47 535.42 408.85 535.52 C 408.25 531.82 407.60 528.12 407.25 524.38 C 405.46 524.43 403.67 524.48 401.89 524.53 C 401.92 522.45 401.97 520.39 402.01 518.32 C 400.20 518.36 398.39 518.40 396.59 518.44 C 396.58 516.25 396.58 514.07 396.58 511.90 C 394.81 511.96 393.04 512.03 391.28 512.11 C 390.92 508.30 390.12 504.57 389.58 500.80 C 387.91 500.87 386.23 500.93 384.57 501.01 C 384.64 499.01 384.72 497.02 384.81 495.03 C 383.09 495.08 381.37 495.14 379.67 495.21 C 379.33 491.40 378.74 487.61 378.37 483.81 C 376.59 483.90 374.81 484.00 373.04 484.11 C 373.07 482.14 373.11 480.19 373.16 478.24 C 371.23 478.03 369.32 477.83 367.40 477.63 C 367.41 475.57 367.41 473.52 367.42 471.48 C 365.67 471.50 363.93 471.53 362.19 471.57 C 361.96 467.92 361.70 464.28 361.45 460.63 C 359.59 460.64 357.75 460.66 355.90 460.68 C 355.92 458.86 355.94 457.05 355.97 455.24 C 355.59 454.84 354.82 454.03 354.44 453.63 C 353.47 453.83 351.52 454.22 350.55 454.42 C 350.04 450.79 349.56 447.15 349.21 443.50 C 347.54 443.61 345.87 443.73 344.21 443.84 C 344.18 441.56 344.16 439.28 344.15 437.01 C 342.26 437.05 340.38 437.09 338.49 437.14 C 338.49 435.10 338.50 433.06 338.51 431.02 C 336.68 431.04 334.87 431.08 333.05 431.11 C 332.86 428.35 332.66 425.59 332.45 422.84 C 330.33 422.71 328.22 422.58 326.11 422.45 C 328.81 421.91 331.51 421.39 334.21 420.84 C 331.80 420.52 329.40 420.22 326.99 419.92 C 327.03 417.80 327.07 415.68 327.11 413.56 C 325.17 413.60 323.23 413.65 321.30 413.70 C 321.34 411.67 321.38 409.65 321.43 407.63 C 319.64 407.72 317.86 407.81 316.08 407.92 C 315.76 404.07 315.29 400.25 314.75 396.43 C 313.14 396.56 311.53 396.69 309.92 396.82 C 309.87 394.80 309.84 392.79 309.80 390.77 C 308.05 390.83 306.30 390.88 304.55 390.94 C 304.62 389.17 304.69 387.41 304.76 385.65 C 304.41 385.42 303.71 384.97 303.35 384.75 C 303.44 383.02 303.54 381.30 303.63 379.59 C 301.70 379.62 299.77 379.65 297.84 379.69 C 297.83 377.56 297.83 375.44 297.83 373.32 C 296.02 373.33 294.22 373.34 292.43 373.37 C 292.46 371.32 292.49 369.27 292.52 367.22 C 290.73 367.26 288.94 367.30 287.15 367.35 C 286.85 363.61 286.41 359.88 285.81 356.18 C 284.17 356.31 282.54 356.44 280.91 356.57 C 280.64 354.13 280.38 351.70 280.12 349.27 C 278.63 349.48 277.15 349.70 275.68 349.92 C 275.29 346.32 274.82 342.73 274.38 339.14 C 272.59 339.27 270.79 339.39 269.00 339.52 C 269.00 337.26 269.00 335.01 269.00 332.76 C 267.13 332.81 265.26 332.86 263.39 332.92 C 263.30 330.48 263.20 328.05 263.10 325.62 C 261.63 325.75 260.17 325.89 258.70 326.04 C 258.87 324.52 259.03 323.00 259.20 321.49 C 258.75 321.53 257.86 321.61 257.42 321.65 C 257.46 319.70 257.49 317.76 257.53 315.82 C 255.63 315.83 253.74 315.86 251.85 315.89 C 251.83 313.64 251.79 311.39 251.76 309.15 C 250.00 309.27 248.25 309.39 246.50 309.52 C 246.10 305.77 245.51 302.05 245.19 298.29 C 243.49 298.33 241.78 298.37 240.08 298.41 C 240.08 296.34 240.08 294.28 240.08 292.21 C 238.46 292.29 236.85 292.38 235.23 292.48 C 234.94 290.14 234.56 287.82 234.18 285.49 C 232.39 285.49 230.61 285.50 228.83 285.51 C 228.61 282.09 228.40 278.67 228.22 275.25 C 226.45 275.29 224.68 275.32 222.92 275.36 C 222.92 273.14 222.91 270.92 222.91 268.71 C 221.15 268.78 219.39 268.85 217.64 268.93 C 217.18 265.18 216.43 261.48 215.98 257.74 C 214.29 257.81 212.60 257.87 210.92 257.95 C 210.92 255.86 210.91 253.77 210.91 251.69 C 209.26 251.78 207.60 251.88 205.95 251.99 C 205.86 249.69 205.78 247.39 205.70 245.09 C 204.11 245.20 202.51 245.31 200.93 245.43 C 200.36 241.69 199.43 238.01 199.20 234.22 C 197.37 234.27 195.55 234.32 193.73 234.37 C 193.76 232.37 193.80 230.38 193.84 228.38 C 192.08 228.43 190.32 228.47 188.57 228.53 C 188.33 224.78 188.07 221.03 187.84 217.29 C 186.00 217.34 184.17 217.39 182.34 217.45 C 182.33 215.45 182.33 213.44 182.34 211.45 C 180.54 211.49 178.75 211.54 176.96 211.59 C 176.45 207.87 175.95 204.14 175.59 200.40 C 173.95 200.53 172.31 200.66 170.67 200.80 C 170.61 198.51 170.54 196.22 170.48 193.93 C 168.64 193.98 166.80 194.03 164.96 194.09 C 164.86 191.64 164.76 189.20 164.64 186.75 C 163.10 186.91 161.56 187.08 160.02 187.24 C 160.11 186.34 160.31 184.54 160.40 183.63 C 159.48 182.63 158.58 181.61 157.68 180.59 C 157.81 179.36 157.94 178.14 158.08 176.92 C 156.52 177.01 154.97 177.10 153.42 177.20 C 153.41 174.96 153.41 172.73 153.41 170.50 C 151.56 170.54 149.71 170.58 147.87 170.62 C 147.73 168.30 147.92 165.84 146.73 163.75 C 146.66 162.31 146.63 160.88 146.53 159.45 C 144.82 159.48 143.11 159.51 141.40 159.54 C 141.41 157.48 141.42 155.41 141.43 153.35 C 139.74 153.47 138.05 153.59 136.37 153.71 C 136.33 151.34 136.28 148.96 136.24 146.59 C 134.56 146.67 132.89 146.76 131.21 146.86 C 130.71 143.37 129.97 139.92 129.79 136.39 C 127.97 136.45 126.15 136.51 124.33 136.56 C 124.33 134.34 124.33 132.13 124.33 129.91 C 122.56 129.95 120.78 129.99 119.01 130.02 C 118.86 127.14 118.70 124.25 118.55 121.36 L 116.97 121.63 C 117.24 120.96 117.78 119.60 118.05 118.92 C 116.37 118.96 114.68 118.99 113.00 119.02 C 112.87 116.57 112.72 114.11 112.10 111.73 C 110.96 111.94 108.67 112.35 107.53 112.56 C 107.07 108.91 106.63 105.27 106.30 101.61 C 104.70 101.75 103.09 101.89 101.49 102.03 C 101.44 99.71 101.42 97.38 101.39 95.06 C 99.80 95.17 98.20 95.28 96.60 95.40 C 95.99 91.60 95.24 87.82 95.02 83.97 C 93.27 84.04 91.53 84.11 89.79 84.18 C 89.66 80.15 89.51 76.12 89.38 72.09 Z" />
<path fill="#000000" opacity="1.00" d=" M 546.48 101.01 C 550.72 101.13 554.96 101.39 559.20 101.69 C 559.00 103.18 558.80 104.68 558.61 106.17 C 562.49 106.73 566.36 107.36 570.27 107.82 C 570.18 109.48 570.11 111.15 570.04 112.82 C 572.05 112.83 574.07 112.83 576.09 112.84 C 576.04 114.65 576.00 116.48 575.98 118.30 C 579.75 118.52 583.54 118.76 587.32 118.97 C 587.26 120.81 587.21 122.65 587.15 124.49 C 589.30 124.50 591.45 124.50 593.61 124.51 C 593.56 126.34 593.52 128.18 593.48 130.02 C 595.19 129.92 596.90 129.82 598.63 129.72 C 598.91 130.09 599.47 130.85 599.75 131.22 C 601.40 131.15 603.08 131.08 604.75 131.02 C 604.69 132.78 604.64 134.55 604.59 136.32 C 606.55 136.33 608.53 136.33 610.50 136.34 C 610.45 138.25 610.41 140.17 610.39 142.09 C 612.39 142.08 614.41 142.08 616.44 142.07 C 616.38 143.80 616.33 145.54 616.31 147.27 C 618.43 147.45 620.57 147.54 622.70 147.62 C 622.66 149.53 622.61 151.44 622.58 153.36 C 624.50 153.31 626.44 153.26 628.38 153.22 C 628.35 155.17 628.33 157.12 628.32 159.08 C 630.23 159.02 632.15 158.97 634.08 158.92 C 634.07 160.82 634.08 162.73 634.10 164.64 C 635.95 164.55 637.80 164.47 639.66 164.38 L 639.48 165.68 C 639.91 165.71 640.76 165.78 641.19 165.81 C 640.96 167.21 640.74 168.61 640.53 170.01 C 642.57 170.40 644.61 170.80 646.66 171.21 C 646.49 172.84 646.33 174.46 646.18 176.09 C 647.51 175.95 648.85 175.81 650.19 175.68 C 650.65 176.14 651.57 177.06 652.03 177.52 C 651.91 178.91 651.81 180.30 651.71 181.70 C 653.35 181.56 654.99 181.42 656.63 181.29 C 656.93 183.61 657.23 185.93 657.52 188.25 C 659.17 188.15 660.83 188.04 662.50 187.95 C 662.50 190.00 662.49 192.05 662.50 194.11 C 664.23 194.06 665.97 194.02 667.72 193.98 C 668.10 196.21 668.48 198.44 668.87 200.67 C 670.39 200.52 671.90 200.37 673.43 200.22 C 673.28 201.83 673.13 203.45 672.99 205.06 C 673.43 205.08 674.30 205.13 674.74 205.15 C 674.63 206.99 674.55 208.83 674.47 210.68 C 676.27 210.66 678.07 210.64 679.89 210.63 C 679.92 212.85 679.97 215.07 680.03 217.30 C 681.80 217.21 683.58 217.13 685.36 217.04 C 685.65 220.96 686.17 224.86 686.80 228.74 C 688.40 228.58 690.02 228.42 691.64 228.27 C 691.94 232.67 691.35 237.57 694.57 241.10 C 695.13 238.20 695.54 235.28 695.92 232.36 C 696.63 237.16 697.18 241.97 697.73 246.79 C 699.19 246.58 700.63 246.36 702.11 246.15 C 702.62 250.11 703.20 254.06 703.63 258.02 C 704.78 257.89 707.08 257.62 708.23 257.49 C 709.13 261.76 709.10 266.15 709.32 270.50 C 710.52 270.19 711.72 269.88 712.95 269.58 C 714.12 275.27 715.12 280.99 714.97 286.83 C 716.66 286.73 718.37 286.64 720.08 286.55 C 720.18 292.39 720.86 298.20 721.54 304.00 C 722.97 303.73 724.41 303.46 725.85 303.20 C 726.10 311.33 726.89 319.43 726.97 327.57 C 728.43 327.31 729.90 327.05 731.38 326.80 C 732.00 348.17 732.46 369.56 731.67 390.94 C 727.87 390.96 724.07 391.00 720.28 391.08 C 720.30 389.12 720.32 387.17 720.36 385.22 C 718.45 385.25 716.56 385.30 714.67 385.35 C 714.66 383.07 714.66 380.79 714.67 378.52 C 712.91 378.54 711.18 378.58 709.44 378.61 C 709.22 374.89 709.00 371.17 708.80 367.45 C 707.07 367.53 705.35 367.62 703.63 367.72 C 703.32 363.90 702.81 360.10 702.18 356.32 C 700.52 356.41 698.85 356.49 697.21 356.59 C 697.12 354.13 697.02 351.66 696.94 349.21 C 695.42 349.40 693.91 349.59 692.41 349.79 C 692.08 345.98 691.64 342.19 691.16 338.40 C 689.63 338.55 688.12 338.72 686.61 338.89 C 686.10 335.03 685.37 331.20 685.06 327.32 C 683.30 327.36 681.56 327.41 679.83 327.46 C 679.82 325.34 679.83 323.23 679.84 321.12 C 678.34 321.17 676.86 321.22 675.38 321.27 C 675.49 319.87 675.61 318.48 675.74 317.09 L 674.34 317.76 C 674.26 315.19 674.18 312.63 674.13 310.06 C 672.27 310.10 670.41 310.14 668.56 310.19 C 668.51 307.88 668.49 305.58 668.47 303.27 C 666.76 303.36 665.04 303.45 663.35 303.55 C 663.01 299.73 662.59 295.91 662.12 292.10 C 660.55 292.26 659.00 292.42 657.44 292.59 C 657.19 288.73 656.73 284.88 656.33 281.03 C 654.55 281.14 652.77 281.26 651.00 281.37 C 650.99 279.03 650.99 276.68 651.00 274.34 C 649.35 274.45 647.71 274.56 646.08 274.68 C 646.29 273.16 646.51 271.64 646.74 270.13 C 646.33 270.15 645.50 270.20 645.08 270.23 C 645.04 267.93 645.00 265.63 644.98 263.33 C 643.24 263.39 641.50 263.44 639.77 263.50 C 639.71 261.05 639.65 258.60 639.61 256.15 L 638.11 256.86 C 638.26 255.23 638.42 253.60 638.58 251.98 C 636.97 252.08 635.36 252.18 633.77 252.29 C 633.72 249.93 633.68 247.58 633.65 245.22 C 631.91 245.36 630.17 245.50 628.45 245.65 C 628.10 241.79 627.63 237.95 627.17 234.11 C 625.61 234.27 624.06 234.42 622.52 234.57 C 622.47 232.48 622.41 230.38 622.38 228.28 C 620.68 228.36 618.99 228.44 617.31 228.53 C 617.27 227.04 617.23 225.56 617.18 224.09 C 616.05 221.89 616.19 219.38 616.11 217.00 C 614.52 217.06 612.95 217.14 611.38 217.21 C 611.48 216.18 611.67 214.12 611.77 213.09 C 611.43 213.23 610.75 213.50 610.42 213.63 C 610.33 211.08 610.24 208.53 610.16 205.98 C 608.41 206.01 606.67 206.06 604.94 206.10 C 604.91 203.78 604.89 201.47 604.86 199.15 C 603.09 199.20 601.32 199.26 599.56 199.32 C 599.29 195.58 598.99 191.84 598.72 188.11 C 597.01 188.20 595.31 188.30 593.61 188.40 C 593.17 184.58 592.70 180.78 592.34 176.96 C 590.70 177.06 589.06 177.16 587.44 177.27 C 587.41 174.88 587.38 172.50 587.35 170.11 C 585.83 170.26 584.32 170.41 582.81 170.57 C 582.28 166.78 581.37 163.05 581.11 159.22 C 579.37 159.29 577.63 159.35 575.90 159.42 C 575.71 155.61 575.49 151.80 575.30 147.99 C 573.57 148.03 571.85 148.07 570.13 148.11 C 570.07 145.79 570.02 143.48 569.97 141.17 C 568.22 141.26 566.49 141.36 564.76 141.47 C 564.41 137.64 563.77 133.86 563.32 130.05 C 561.71 130.17 560.11 130.28 558.52 130.39 C 558.49 128.31 558.48 126.22 558.45 124.14 C 556.84 124.22 555.21 124.30 553.61 124.38 C 553.30 120.47 552.83 116.57 552.36 112.68 C 550.83 112.84 549.30 113.01 547.78 113.18 C 547.12 109.15 546.68 105.08 546.48 101.01 Z" />
<path fill="#000000" opacity="1.00" d=" M 263.26 129.59 C 267.12 129.86 270.99 130.13 274.86 130.36 C 274.83 132.24 274.80 134.12 274.77 136.00 C 276.80 136.00 278.84 136.00 280.87 136.00 C 280.85 138.00 280.83 140.01 280.82 142.01 C 282.77 142.00 284.72 141.99 286.67 141.97 C 286.66 143.85 286.66 145.73 286.67 147.61 C 288.61 147.56 290.56 147.51 292.51 147.46 C 292.50 149.41 292.50 151.37 292.50 153.33 C 294.36 153.33 296.24 153.33 298.11 153.34 C 298.07 155.28 298.03 157.22 297.99 159.16 C 299.97 159.16 301.96 159.17 303.95 159.17 C 303.90 161.03 303.85 162.89 303.81 164.75 C 305.90 164.75 307.99 164.75 310.09 164.75 C 310.03 166.72 309.99 168.69 309.94 170.66 C 311.82 170.60 313.69 170.53 315.58 170.47 C 315.58 172.62 315.58 174.76 315.59 176.91 C 317.47 176.86 319.36 176.83 321.25 176.80 C 321.25 178.67 321.25 180.54 321.25 182.42 C 323.20 182.41 325.14 182.41 327.09 182.42 C 327.08 184.36 327.07 186.31 327.05 188.26 C 328.92 188.25 330.80 188.25 332.68 188.25 C 332.63 190.20 332.59 192.15 332.56 194.11 C 334.51 194.08 336.46 194.05 338.42 194.02 C 338.41 195.90 338.41 197.78 338.41 199.67 C 340.36 199.62 342.30 199.59 344.25 199.56 C 344.25 201.65 344.25 203.75 344.25 205.84 C 346.12 205.77 348.00 205.71 349.87 205.64 C 349.85 207.69 349.83 209.73 349.82 211.79 C 351.64 211.71 353.46 211.64 355.28 211.57 C 355.24 213.45 355.19 215.33 355.15 217.22 C 357.08 217.26 359.02 217.32 360.96 217.37 C 360.74 218.89 360.53 220.42 360.33 221.94 L 361.23 221.12 C 361.99 222.27 362.76 223.43 363.70 224.45 C 364.42 224.23 365.85 223.81 366.56 223.60 C 366.41 224.46 366.11 226.18 365.96 227.04 C 366.38 227.12 367.21 227.28 367.63 227.36 C 367.53 227.93 367.32 229.09 367.22 229.67 C 369.13 229.64 371.05 229.60 372.96 229.56 C 373.00 231.46 373.04 233.36 373.09 235.26 C 375.00 235.19 376.91 235.11 378.83 235.05 C 378.79 236.96 378.76 238.87 378.73 240.78 C 380.61 240.72 382.48 240.66 384.37 240.61 C 384.35 242.63 384.33 244.67 384.33 246.70 C 385.98 246.64 387.64 246.59 389.31 246.53 C 389.95 249.91 390.84 253.23 391.31 256.64 C 392.75 256.46 394.20 256.29 395.65 256.12 L 395.19 257.88 C 395.86 257.80 397.19 257.65 397.86 257.58 C 397.81 259.50 397.76 261.42 397.73 263.36 C 399.16 263.22 400.60 263.09 402.04 262.97 C 402.11 263.43 402.26 264.34 402.34 264.80 L 403.69 264.09 C 403.48 265.63 403.29 267.17 403.10 268.72 C 405.05 268.75 407.01 268.78 408.98 268.82 C 408.90 270.73 408.83 272.66 408.75 274.58 C 410.65 274.53 412.56 274.49 414.47 274.46 C 414.42 276.36 414.38 278.27 414.34 280.17 C 416.16 280.09 417.98 280.01 419.81 279.94 C 419.85 281.96 419.89 283.98 419.94 286.01 C 421.54 285.77 423.15 285.54 424.76 285.30 C 425.45 287.56 425.62 289.91 425.73 292.26 C 427.63 292.25 429.54 292.25 431.44 292.25 C 431.41 294.19 431.37 296.13 431.33 298.08 C 433.22 298.08 435.11 298.08 437.00 298.08 C 436.96 299.95 436.92 301.81 436.89 303.69 C 438.85 303.64 440.83 303.60 442.80 303.55 C 442.77 305.50 442.74 307.45 442.73 309.41 C 444.79 309.41 446.85 309.41 448.91 309.42 C 448.91 311.49 448.91 313.58 448.92 315.66 C 450.77 315.62 452.63 315.58 454.49 315.56 C 454.49 317.49 454.50 319.42 454.51 321.36 C 456.39 321.32 458.27 321.27 460.16 321.23 C 460.16 323.21 460.16 325.20 460.17 327.19 C 462.12 327.16 464.07 327.12 466.02 327.09 C 465.98 329.06 465.93 331.04 465.90 333.02 C 467.76 332.98 469.63 332.94 471.50 332.90 C 471.50 334.98 471.50 337.06 471.50 339.15 C 473.47 339.11 475.44 339.08 477.43 339.06 C 477.38 340.93 477.34 342.81 477.30 344.70 C 479.28 344.66 481.26 344.62 483.25 344.58 C 483.20 346.56 483.16 348.55 483.13 350.55 C 485.00 350.49 486.87 350.43 488.74 350.38 C 488.74 352.40 488.74 354.42 488.75 356.44 C 490.44 356.39 492.13 356.34 493.83 356.30 C 494.13 358.61 494.60 360.89 495.12 363.16 C 496.66 363.01 498.22 362.88 499.78 362.74 C 499.73 363.59 499.63 365.30 499.58 366.15 C 501.57 367.93 502.58 370.29 502.98 372.93 C 503.34 370.57 503.76 368.24 504.20 365.90 C 504.58 368.49 504.94 371.09 505.31 373.70 C 507.54 373.88 509.76 374.06 512.00 374.24 C 511.93 376.06 511.86 377.87 511.80 379.69 C 513.78 379.62 515.75 379.56 517.74 379.49 C 517.69 381.48 517.66 383.46 517.64 385.45 C 519.50 385.40 521.36 385.35 523.24 385.31 C 523.22 387.31 523.22 389.31 523.23 391.32 C 525.04 391.28 526.85 391.25 528.67 391.23 C 528.58 392.69 528.51 394.16 528.43 395.64 C 528.84 395.94 529.65 396.54 530.05 396.84 C 529.99 398.59 529.93 400.35 529.89 402.11 C 531.52 402.06 533.15 402.01 534.79 401.98 C 535.34 402.35 536.43 403.11 536.97 403.49 C 536.76 404.83 536.55 406.18 536.34 407.53 C 538.40 407.92 540.46 408.33 542.52 408.74 C 542.32 410.28 542.13 411.83 541.95 413.38 C 543.92 413.41 545.89 413.46 547.87 413.51 C 547.79 415.36 547.72 417.21 547.65 419.07 C 549.49 418.99 551.34 418.91 553.20 418.84 C 553.27 421.06 553.34 423.28 553.43 425.51 C 555.22 425.46 557.02 425.43 558.82 425.40 C 558.82 427.32 558.83 429.24 558.84 431.17 C 560.73 431.11 562.63 431.05 564.53 431.00 C 564.49 433.01 564.45 435.01 564.41 437.02 C 566.38 436.99 568.36 436.96 570.35 436.93 C 570.30 438.89 570.25 440.86 570.22 442.83 C 572.10 442.78 574.00 442.75 575.89 442.72 C 575.86 444.60 575.82 446.48 575.80 448.37 C 577.67 448.34 579.54 448.32 581.42 448.29 C 581.70 450.38 581.99 452.46 582.29 454.56 C 584.13 454.52 585.97 454.50 587.83 454.48 C 587.83 456.45 587.83 458.41 587.84 460.39 C 589.70 460.35 591.58 460.31 593.45 460.28 C 593.41 462.20 593.37 464.12 593.33 466.04 C 595.24 465.99 597.16 465.94 599.09 465.90 C 599.04 467.89 599.00 469.89 598.97 471.90 C 600.92 471.86 602.87 471.83 604.83 471.81 C 604.83 473.87 604.83 475.93 604.84 478.00 C 606.71 477.99 608.60 477.99 610.49 478.00 C 610.45 479.86 610.42 481.74 610.39 483.61 C 612.36 483.57 614.34 483.53 616.32 483.49 C 616.27 485.47 616.23 487.45 616.19 489.44 C 618.15 489.39 620.12 489.34 622.09 489.30 C 622.07 491.28 622.06 493.27 622.06 495.26 C 623.89 495.21 625.73 495.17 627.58 495.13 C 627.58 497.05 627.57 498.97 627.59 500.91 C 629.31 500.84 631.05 500.78 632.79 500.73 C 632.98 503.03 633.23 505.35 633.86 507.59 C 635.73 507.50 637.60 507.41 639.49 507.34 C 639.45 509.20 639.42 511.07 639.40 512.95 C 641.29 512.97 643.17 512.99 645.07 513.02 C 645.02 514.84 644.97 516.66 644.93 518.50 C 646.89 518.49 648.87 518.49 650.85 518.50 C 650.80 520.45 650.75 522.40 650.72 524.37 C 652.55 524.30 654.40 524.24 656.25 524.17 C 656.56 526.54 656.91 528.91 657.31 531.27 C 658.92 531.10 660.54 530.93 662.16 530.76 C 662.16 532.43 662.17 534.11 662.18 535.79 C 663.84 535.74 665.49 535.69 667.17 535.65 C 667.57 539.31 668.99 542.78 668.98 546.51 C 671.22 546.74 673.47 547.00 675.72 547.29 C 675.64 549.01 675.55 550.73 675.47 552.47 C 677.55 552.12 679.51 552.83 681.38 553.69 C 681.21 555.15 681.04 556.61 680.89 558.08 C 681.76 557.98 683.50 557.78 684.37 557.68 C 685.18 558.20 685.99 558.73 686.81 559.27 C 686.74 560.97 686.67 562.67 686.62 564.39 C 688.50 564.35 690.37 564.33 692.26 564.32 C 692.24 566.28 692.23 568.26 692.22 570.24 C 694.05 570.16 695.88 570.09 697.73 570.03 C 697.73 571.96 697.74 573.89 697.75 575.82 C 699.63 575.74 701.51 575.65 703.40 575.58 C 703.35 577.63 703.33 579.69 703.31 581.75 C 705.25 581.70 707.20 581.66 709.17 581.64 C 709.16 583.70 709.16 585.76 709.17 587.83 C 711.02 587.83 712.87 587.82 714.75 587.83 C 714.74 589.69 714.74 591.56 714.75 593.44 C 716.69 593.41 718.64 593.38 720.59 593.36 C 720.58 595.32 720.57 597.28 720.58 599.25 C 722.64 599.24 724.71 599.25 726.78 599.26 C 726.74 601.23 726.70 603.21 726.67 605.19 C 728.38 605.09 730.09 605.01 731.81 604.93 C 731.83 606.91 731.86 608.88 731.90 610.88 C 733.52 610.83 735.15 610.78 736.79 610.74 C 737.08 614.82 738.05 618.80 738.50 622.87 C 740.19 622.78 741.88 622.69 743.60 622.62 C 743.77 626.44 743.97 630.25 744.13 634.07 C 745.79 634.00 747.46 633.94 749.14 633.89 C 749.28 637.39 749.43 640.89 749.56 644.40 C 750.24 645.11 750.93 645.84 751.62 646.58 C 752.41 646.43 753.98 646.12 754.77 645.97 C 755.02 651.71 755.92 657.40 756.35 663.14 C 757.03 663.17 758.37 663.23 759.05 663.27 C 759.27 660.05 759.48 656.84 759.72 653.63 C 760.63 662.93 761.34 672.25 761.71 681.60 C 763.18 681.34 764.65 681.08 766.14 680.84 C 766.30 696.91 767.26 712.96 767.09 729.03 C 767.09 745.59 766.45 762.14 766.10 778.70 C 764.53 778.53 762.98 778.37 761.44 778.22 C 761.40 780.48 761.35 782.75 761.32 785.02 C 756.82 785.06 752.32 784.94 747.85 784.50 C 748.02 782.86 748.19 781.22 748.38 779.60 C 746.80 779.67 745.25 779.77 743.70 779.86 C 743.61 777.61 743.54 775.37 743.46 773.14 C 741.57 773.15 739.69 773.19 737.82 773.23 C 737.82 771.25 737.84 769.29 737.87 767.33 C 735.99 767.39 734.11 767.45 732.25 767.53 C 732.18 765.16 732.14 762.81 732.09 760.45 C 730.45 760.59 728.82 760.74 727.20 760.90 C 726.75 757.16 726.05 753.45 725.74 749.69 C 723.96 749.73 722.18 749.79 720.42 749.85 C 720.41 747.86 720.41 745.87 720.41 743.90 C 718.53 743.93 716.66 743.98 714.80 744.03 C 714.71 741.60 714.62 739.18 714.52 736.76 C 713.42 736.86 711.21 737.07 710.11 737.17 C 710.27 735.64 710.45 734.14 710.63 732.64 C 710.17 732.67 709.25 732.72 708.79 732.75 C 708.82 730.82 708.88 728.92 708.94 727.01 C 707.01 727.04 705.08 727.07 703.17 727.11 C 703.16 724.89 703.15 722.68 703.16 720.48 C 701.26 720.56 699.38 720.66 697.49 720.75 C 697.49 718.64 697.49 716.52 697.50 714.43 C 695.86 714.49 694.23 714.58 692.61 714.67 C 692.09 710.95 691.45 707.24 691.11 703.50 C 689.33 703.57 687.55 703.64 685.79 703.74 C 685.71 701.41 685.66 699.11 685.58 696.80 C 683.76 696.84 681.95 696.90 680.14 696.97 C 679.90 693.55 679.67 690.13 679.47 686.72 C 677.69 686.74 675.92 686.77 674.15 686.81 C 674.16 684.60 674.15 682.38 674.17 680.18 C 672.27 680.21 670.38 680.24 668.50 680.28 C 668.49 678.30 668.49 676.32 668.50 674.35 C 666.69 674.42 664.89 674.51 663.10 674.61 C 662.77 670.77 662.11 666.98 661.64 663.17 C 660.00 663.27 658.37 663.37 656.75 663.49 C 656.70 661.44 656.67 659.41 656.64 657.38 C 654.75 657.45 652.87 657.52 651.00 657.61 C 650.99 655.35 650.99 653.11 651.00 650.87 C 649.34 650.96 647.69 651.06 646.04 651.16 C 646.19 649.74 646.36 648.34 646.53 646.94 C 645.54 646.18 644.62 645.38 643.73 644.54 C 643.85 643.57 644.10 641.64 644.22 640.68 C 642.67 640.78 641.12 640.88 639.59 641.00 C 639.54 638.67 639.50 636.36 639.48 634.04 C 637.60 634.09 635.72 634.13 633.86 634.19 C 633.82 631.87 633.78 629.55 633.74 627.24 C 631.94 627.34 630.14 627.44 628.36 627.56 C 628.02 624.04 627.42 620.55 627.09 617.04 C 625.40 617.14 623.71 617.26 622.03 617.38 C 621.98 615.12 621.93 612.87 621.89 610.63 C 620.01 610.67 618.14 610.72 616.28 610.79 C 616.30 608.82 616.32 606.85 616.35 604.90 C 614.48 604.91 612.62 604.94 610.77 604.97 C 610.54 601.26 610.27 597.55 610.04 593.84 C 608.26 593.83 606.49 593.83 604.73 593.83 C 604.74 591.88 604.77 589.93 604.81 587.99 C 602.91 588.02 601.03 588.07 599.15 588.11 C 599.10 585.87 599.07 583.63 599.06 581.40 C 597.28 581.50 595.52 581.62 593.76 581.74 C 593.35 577.99 592.65 574.29 592.31 570.54 C 590.62 570.58 588.93 570.64 587.26 570.69 C 587.25 568.64 587.24 566.60 587.25 564.56 C 585.35 564.60 583.46 564.66 581.57 564.71 C 581.57 562.68 581.58 560.65 581.59 558.63 C 580.02 558.68 578.46 558.73 576.90 558.78 C 576.85 557.78 576.80 556.79 576.76 555.80 C 575.69 553.21 575.46 550.41 575.31 547.66 C 573.56 547.69 571.82 547.73 570.09 547.78 C 570.08 545.58 570.08 543.39 570.08 541.21 C 568.19 541.24 566.30 541.28 564.42 541.33 C 564.41 539.25 564.41 537.19 564.41 535.13 C 562.68 535.18 560.95 535.24 559.23 535.31 C 558.63 531.59 557.99 527.87 557.73 524.11 C 556.01 524.22 554.30 524.34 552.59 524.45 C 552.58 522.24 552.58 520.02 552.58 517.81 C 550.68 517.83 548.80 517.87 546.92 517.91 C 546.91 515.90 546.91 513.89 546.92 511.90 C 545.25 511.98 543.58 512.07 541.92 512.17 C 542.12 510.58 542.33 509.00 542.55 507.42 C 542.12 507.50 541.26 507.65 540.83 507.72 C 540.79 505.44 540.75 503.17 540.73 500.90 C 538.91 500.92 537.10 500.93 535.30 500.97 C 535.32 499.01 535.35 497.07 535.40 495.12 C 533.50 495.16 531.60 495.20 529.71 495.25 C 529.66 492.90 529.62 490.56 529.58 488.22 C 527.84 488.35 526.11 488.48 524.39 488.63 C 524.00 485.08 523.49 481.56 523.00 478.04 C 521.31 478.15 519.62 478.28 517.95 478.41 C 517.90 476.17 517.85 473.94 517.80 471.72 C 515.95 471.76 514.11 471.80 512.28 471.86 C 512.18 469.54 512.09 467.23 511.99 464.92 C 509.31 464.59 506.64 464.27 503.96 463.94 C 507.25 463.45 510.53 462.97 513.83 462.49 C 511.28 462.22 508.73 461.97 506.19 461.73 C 506.11 459.42 506.04 457.11 505.97 454.81 C 504.20 454.85 502.43 454.89 500.67 454.94 C 500.66 452.75 500.66 450.57 500.66 448.38 C 498.74 448.42 496.83 448.46 494.92 448.51 C 494.91 446.47 494.91 444.44 494.91 442.42 C 493.16 442.52 491.41 442.63 489.67 442.75 C 489.25 438.95 488.54 435.18 488.25 431.36 C 486.55 431.42 484.86 431.49 483.17 431.57 C 483.16 429.59 483.16 427.61 483.16 425.64 C 481.28 425.67 479.41 425.73 477.54 425.78 C 477.46 423.44 477.39 421.10 477.32 418.76 C 475.71 418.89 474.11 419.03 472.52 419.17 C 472.69 417.52 472.86 415.88 473.05 414.25 C 472.58 414.33 471.65 414.49 471.19 414.57 C 471.27 412.65 471.34 410.74 471.42 408.84 C 469.58 408.83 467.75 408.83 465.92 408.83 C 465.91 406.65 465.91 404.48 465.91 402.30 C 464.02 402.34 462.13 402.38 460.25 402.43 C 460.25 400.35 460.25 398.29 460.25 396.22 C 458.51 396.29 456.78 396.35 455.06 396.42 C 454.48 392.70 453.85 388.99 453.57 385.23 C 451.85 385.34 450.13 385.44 448.43 385.55 C 448.41 383.34 448.41 381.13 448.41 378.92 C 446.52 378.95 444.63 378.99 442.74 379.03 C 442.74 377.01 442.75 375.01 442.76 373.00 C 441.09 373.09 439.43 373.18 437.77 373.28 C 437.96 371.71 438.15 370.14 438.35 368.58 C 437.91 368.62 437.04 368.70 436.61 368.75 C 436.64 367.24 436.67 365.75 436.71 364.25 C 436.09 364.34 434.85 364.50 434.24 364.59 C 435.17 363.77 436.11 362.96 437.06 362.16 C 435.08 362.10 433.12 362.05 431.16 361.99 C 431.16 360.07 431.16 358.14 431.16 356.22 C 429.28 356.26 427.40 356.31 425.53 356.36 C 425.49 353.99 425.45 351.62 425.41 349.25 C 423.70 349.37 422.00 349.49 420.30 349.62 C 419.91 346.08 419.41 342.57 418.90 339.06 C 417.21 339.18 415.52 339.30 413.84 339.42 C 413.78 337.18 413.75 334.94 413.72 332.70 C 412.08 332.79 410.44 332.87 408.82 332.97 C 408.65 330.45 408.26 327.96 407.60 325.52 C 406.11 325.71 404.63 325.90 403.15 326.09 C 403.32 324.55 403.49 323.02 403.67 321.48 C 403.21 321.52 402.29 321.60 401.82 321.64 C 401.86 319.73 401.91 317.82 401.95 315.92 C 400.13 315.91 398.31 315.91 396.50 315.92 C 396.49 313.74 396.49 311.56 396.49 309.39 C 394.59 309.44 392.69 309.48 390.79 309.54 C 390.81 307.45 390.83 305.37 390.84 303.29 C 389.11 303.37 387.38 303.44 385.66 303.53 C 385.14 299.81 384.49 296.12 384.13 292.39 C 382.50 292.48 380.87 292.58 379.25 292.68 C 379.25 290.61 379.24 288.55 379.25 286.48 C 377.46 286.50 375.67 286.52 373.89 286.55 C 373.92 285.04 373.95 283.52 373.99 282.02 C 373.47 281.25 372.96 280.48 372.45 279.71 C 371.44 279.85 369.44 280.12 368.43 280.26 C 368.61 278.61 368.79 276.97 368.98 275.33 C 368.50 275.41 367.54 275.57 367.06 275.65 C 367.13 274.00 367.21 272.34 367.29 270.70 C 366.86 270.27 366.00 269.41 365.58 268.98 C 364.32 269.07 363.08 269.16 361.83 269.25 C 361.83 267.24 361.83 265.24 361.83 263.24 C 359.90 263.29 357.97 263.34 356.06 263.39 C 356.14 261.76 356.23 260.14 356.32 258.51 C 355.95 258.10 355.21 257.26 354.84 256.84 C 354.91 255.26 354.98 253.67 355.06 252.09 C 353.29 252.17 351.52 252.25 349.75 252.33 C 349.74 250.29 349.75 248.26 349.75 246.23 C 348.03 246.32 346.30 246.42 344.59 246.52 C 344.58 244.29 344.58 242.06 344.58 239.83 C 342.85 239.90 341.11 239.98 339.38 240.07 C 339.03 236.57 338.32 233.13 337.79 229.67 C 336.06 229.76 334.33 229.84 332.61 229.93 C 332.55 227.61 332.50 225.29 332.46 222.97 C 330.68 223.00 328.90 223.03 327.13 223.07 C 327.08 220.77 327.03 218.48 326.98 216.19 C 325.23 216.27 323.49 216.36 321.75 216.45 C 321.14 212.96 320.47 209.48 319.93 205.98 C 318.31 206.10 316.69 206.22 315.07 206.35 C 315.02 204.07 315.00 201.80 314.97 199.52 C 313.26 199.61 311.54 199.70 309.84 199.79 C 309.83 197.77 309.83 195.76 309.83 193.74 C 308.13 193.85 306.44 193.96 304.75 194.07 C 304.03 190.31 303.43 186.53 303.09 182.72 C 301.31 182.76 299.52 182.80 297.75 182.85 C 297.75 180.86 297.75 178.87 297.76 176.88 C 295.98 176.92 294.20 176.96 292.43 177.00 C 292.38 174.77 292.34 172.54 292.31 170.31 C 290.48 170.36 288.66 170.41 286.85 170.46 C 286.76 168.18 286.97 165.76 285.72 163.73 C 285.63 162.29 285.57 160.85 285.52 159.41 C 283.77 159.45 282.01 159.49 280.26 159.53 C 280.25 157.48 280.25 155.42 280.25 153.37 C 278.59 153.48 276.93 153.59 275.28 153.71 C 275.23 151.34 275.18 148.97 275.14 146.60 C 273.32 146.68 271.51 146.75 269.70 146.83 C 269.86 145.53 270.02 144.22 270.19 142.92 C 269.81 142.59 269.06 141.92 268.69 141.59 C 268.78 139.86 268.88 138.14 268.98 136.42 C 267.06 136.47 265.15 136.52 263.24 136.57 C 263.25 134.24 263.25 131.91 263.26 129.59 Z" />
<path fill="#000000" opacity="1.00" d=" M 570.08 298.02 C 573.87 298.47 577.65 299.03 581.45 299.40 C 581.33 300.87 581.22 302.35 581.12 303.82 C 583.18 303.83 585.25 303.83 587.33 303.84 C 587.33 305.89 587.33 307.94 587.33 310.00 C 589.21 309.94 591.09 309.88 592.99 309.83 C 592.92 311.80 592.87 313.77 592.82 315.75 C 594.95 315.75 597.09 315.75 599.24 315.75 C 599.20 317.55 599.16 319.35 599.14 321.16 C 601.10 321.16 603.07 321.16 605.05 321.17 C 605.01 323.11 604.99 325.05 604.98 327.00 C 606.85 327.00 608.72 327.00 610.60 327.01 C 610.58 328.96 610.55 330.91 610.54 332.87 C 612.52 332.82 614.52 332.78 616.52 332.73 C 616.47 334.58 616.42 336.44 616.39 338.30 C 618.54 338.33 620.70 338.38 622.87 338.43 C 622.80 340.30 622.73 342.16 622.66 344.04 C 624.57 343.98 626.49 343.93 628.42 343.89 C 628.33 345.69 628.26 347.49 628.19 349.29 C 631.65 349.89 635.12 350.50 638.61 350.96 C 638.52 352.69 638.43 354.42 638.36 356.16 C 640.30 356.28 642.25 356.41 644.20 356.54 C 644.06 357.88 643.93 359.23 643.80 360.57 C 644.23 360.56 645.09 360.52 645.52 360.51 C 645.44 361.15 645.28 362.43 645.19 363.07 C 647.06 362.99 648.94 362.93 650.83 362.86 C 650.83 364.77 650.83 366.68 650.86 368.60 C 652.79 368.53 654.74 368.46 656.69 368.39 C 656.60 370.21 656.52 372.03 656.45 373.86 C 658.43 373.83 660.43 373.80 662.44 373.77 C 662.38 375.65 662.33 377.54 662.29 379.43 C 664.35 379.42 666.42 379.41 668.50 379.41 C 668.49 381.36 668.50 383.32 668.50 385.28 C 670.44 385.23 672.40 385.19 674.35 385.15 C 674.32 387.12 674.30 389.09 674.27 391.07 C 676.14 391.03 678.02 391.00 679.90 390.98 C 679.86 392.81 679.83 394.65 679.81 396.50 C 681.81 396.49 683.82 396.49 685.84 396.49 C 685.83 398.40 685.82 400.32 685.84 402.25 C 687.89 402.25 689.96 402.25 692.04 402.25 C 691.99 404.22 691.95 406.19 691.91 408.17 C 693.81 408.11 695.71 408.06 697.62 408.02 C 697.55 409.91 697.50 411.81 697.45 413.71 C 699.41 413.66 701.37 413.60 703.34 413.56 C 703.36 415.64 703.39 417.73 703.42 419.82 C 705.36 419.78 707.29 419.74 709.24 419.72 C 709.19 421.67 709.16 423.62 709.14 425.58 C 711.01 425.58 712.87 425.58 714.75 425.59 C 714.74 427.44 714.75 429.30 714.75 431.16 C 716.69 431.16 718.63 431.16 720.58 431.17 C 720.58 433.13 720.58 435.09 720.58 437.06 C 722.39 437.00 724.21 436.94 726.04 436.89 C 726.44 441.11 726.85 445.33 727.11 449.56 C 728.57 449.29 730.03 449.03 731.51 448.77 C 731.99 460.20 731.19 471.63 731.45 483.07 C 729.91 482.85 728.37 482.63 726.84 482.43 C 726.52 503.92 725.78 525.41 726.20 546.91 C 720.77 547.43 715.30 547.49 709.90 546.72 C 710.15 545.20 710.42 543.68 710.70 542.17 C 710.28 542.28 709.44 542.49 709.02 542.59 C 708.97 540.14 708.93 537.70 708.89 535.26 C 707.16 535.33 705.43 535.41 703.72 535.50 C 703.33 531.64 702.65 527.83 702.29 523.98 C 700.76 524.14 699.25 524.31 697.74 524.49 C 697.26 520.63 696.80 516.77 696.48 512.91 C 694.90 513.06 693.32 513.20 691.76 513.37 C 691.74 510.99 691.74 508.62 691.74 506.26 C 690.06 506.36 688.37 506.47 686.71 506.58 C 686.09 502.80 685.58 499.01 685.25 495.20 C 683.48 495.26 681.70 495.32 679.94 495.39 C 679.89 493.02 679.84 490.65 679.79 488.29 C 678.07 488.33 676.35 488.38 674.65 488.44 C 674.48 485.01 674.28 481.59 674.12 478.17 C 672.23 477.93 670.35 477.70 668.48 477.47 C 668.52 475.43 668.55 473.39 668.60 471.36 C 666.85 471.43 665.11 471.52 663.38 471.60 C 663.02 467.77 662.53 463.95 661.99 460.15 C 660.48 460.34 658.98 460.54 657.49 460.74 C 657.12 456.84 656.50 452.96 656.18 449.05 C 654.43 449.17 652.69 449.29 650.95 449.42 C 650.92 447.15 650.91 444.89 650.90 442.63 C 649.06 442.67 647.22 442.73 645.39 442.79 C 645.24 438.95 645.04 435.11 644.86 431.28 C 643.16 431.33 641.48 431.39 639.80 431.45 C 639.61 427.68 639.41 423.93 639.25 420.17 C 637.42 420.21 635.59 420.24 633.77 420.28 C 633.73 417.92 633.68 415.57 633.65 413.22 C 631.93 413.34 630.22 413.47 628.52 413.61 C 628.19 409.74 627.72 405.88 627.24 402.03 C 625.75 402.23 624.26 402.44 622.79 402.65 C 622.34 398.80 621.86 394.96 621.49 391.10 C 619.76 391.18 618.03 391.26 616.32 391.35 C 616.26 388.93 616.20 386.52 616.15 384.11 C 614.35 384.16 612.55 384.21 610.76 384.27 C 610.57 380.60 610.35 376.94 610.16 373.28 C 608.46 373.32 606.78 373.37 605.10 373.42 C 604.90 369.63 604.69 365.85 604.51 362.06 C 602.67 362.08 600.83 362.09 599.00 362.12 C 598.99 360.08 598.99 358.04 599.00 356.01 C 597.25 356.09 595.51 356.17 593.77 356.26 C 593.42 352.34 592.96 348.43 592.52 344.52 C 591.01 344.72 589.51 344.92 588.02 345.12 C 587.49 341.09 586.99 337.07 586.65 333.02 C 584.96 333.08 583.28 333.14 581.61 333.21 C 581.55 331.08 581.51 328.96 581.47 326.84 C 579.92 326.92 578.38 327.00 576.85 327.09 C 576.82 326.02 576.80 324.96 576.78 323.90 C 575.75 321.31 575.49 318.54 575.31 315.79 C 573.65 315.84 572.00 315.89 570.35 315.94 C 570.21 309.97 570.05 303.99 570.08 298.02 Z" />
<path fill="#000000" opacity="1.00" d=" M 95.33 477.49 C 99.43 477.49 103.52 477.57 107.62 477.64 C 107.51 479.39 107.40 481.14 107.30 482.90 C 109.32 482.86 111.34 482.83 113.37 482.81 C 113.32 484.60 113.27 486.38 113.22 488.19 C 115.45 488.31 117.90 488.05 119.80 489.52 C 120.95 489.49 122.10 489.47 123.26 489.45 C 123.20 491.32 123.13 493.20 123.07 495.08 C 125.39 495.19 127.71 495.30 130.03 495.41 C 129.99 497.20 129.95 498.98 129.91 500.78 C 131.91 500.75 133.92 500.72 135.92 500.69 C 135.92 502.65 135.92 504.62 135.92 506.59 C 137.79 506.58 139.66 506.57 141.54 506.55 C 141.48 508.45 141.43 510.34 141.38 512.24 C 143.54 512.24 145.70 512.25 147.87 512.26 C 147.80 514.12 147.74 515.99 147.68 517.86 C 149.68 517.82 151.69 517.78 153.69 517.75 C 153.66 519.48 153.62 521.23 153.58 522.97 C 155.87 523.27 158.16 523.70 160.39 524.35 C 160.33 526.10 160.27 527.85 160.22 529.61 C 162.12 529.65 164.02 529.70 165.92 529.75 C 165.84 531.32 165.75 532.88 165.67 534.47 C 167.30 534.29 168.92 534.11 170.55 533.95 C 170.50 534.42 170.38 535.36 170.33 535.82 C 172.15 535.72 173.96 535.63 175.79 535.55 C 175.86 537.76 175.94 539.97 176.03 542.19 C 177.91 542.13 179.79 542.07 181.67 542.02 C 181.58 543.86 181.50 545.71 181.41 547.56 C 183.67 547.63 185.92 547.70 188.18 547.78 C 188.10 549.59 188.03 551.42 187.96 553.25 C 189.90 553.24 191.83 553.25 193.77 553.25 C 193.75 555.12 193.73 556.98 193.71 558.86 C 195.67 558.83 197.64 558.81 199.61 558.79 C 199.57 560.75 199.53 562.71 199.49 564.69 C 201.46 564.65 203.43 564.60 205.41 564.57 C 205.37 566.47 205.33 568.39 205.31 570.30 C 207.35 570.33 209.39 570.37 211.44 570.42 C 211.41 572.26 211.39 574.11 211.36 575.97 C 213.33 575.91 215.30 575.85 217.28 575.80 C 217.23 577.78 217.19 579.76 217.15 581.75 C 219.14 581.70 221.14 581.67 223.14 581.64 C 223.10 583.38 223.06 585.12 223.02 586.87 C 225.34 587.14 227.64 587.59 229.88 588.25 C 229.76 589.76 229.64 591.28 229.51 592.80 C 230.85 592.64 232.18 592.48 233.52 592.34 C 234.14 593.11 234.77 593.88 235.40 594.66 C 235.33 596.14 235.26 597.62 235.21 599.10 C 237.13 599.08 239.05 599.06 240.97 599.05 C 240.93 600.86 240.89 602.68 240.85 604.51 C 244.32 604.99 247.73 605.82 251.22 606.25 C 251.11 607.04 250.91 608.62 250.81 609.41 C 251.33 610.17 251.86 610.94 252.39 611.72 C 254.10 611.65 255.81 611.58 257.53 611.53 C 257.48 613.37 257.44 615.22 257.40 617.07 C 259.33 617.07 261.26 617.07 263.19 617.09 C 263.14 618.98 263.09 620.88 263.04 622.78 C 265.04 622.73 267.04 622.69 269.04 622.65 C 269.02 624.54 269.00 626.43 268.99 628.34 C 270.95 628.28 272.91 628.24 274.88 628.20 C 274.84 630.13 274.80 632.06 274.76 634.00 C 276.81 633.99 278.87 633.99 280.93 634.00 C 280.88 635.94 280.84 637.88 280.81 639.84 C 282.76 639.79 284.72 639.75 286.67 639.71 C 286.67 641.52 286.66 643.33 286.66 645.15 C 289.07 645.29 291.49 645.46 293.88 645.86 C 293.70 647.44 293.50 649.02 293.31 650.61 C 295.34 650.99 297.37 651.38 299.40 651.78 C 299.25 653.37 299.10 654.97 298.95 656.58 C 300.19 656.54 301.43 656.51 302.68 656.50 C 304.67 657.82 307.07 657.60 309.34 657.68 C 309.33 659.54 309.33 661.40 309.33 663.27 C 311.20 663.20 313.07 663.14 314.94 663.09 C 314.88 665.00 314.83 666.90 314.78 668.83 C 316.93 668.82 319.09 668.83 321.25 668.83 C 321.25 670.77 321.25 672.72 321.25 674.67 C 323.23 674.66 325.21 674.66 327.20 674.67 C 327.15 676.48 327.11 678.30 327.07 680.12 C 328.90 680.08 330.73 680.06 332.56 680.03 C 332.67 684.16 332.82 688.28 332.95 692.41 C 330.88 692.41 328.80 692.41 326.73 692.42 C 326.94 693.83 327.15 695.25 327.37 696.68 C 315.65 696.56 303.92 696.57 292.20 696.67 C 292.38 695.25 292.58 693.83 292.77 692.42 C 282.83 692.72 272.95 691.29 263.02 691.11 C 263.22 689.60 263.43 688.10 263.64 686.61 C 259.23 686.37 254.82 686.08 250.41 685.77 C 250.64 684.32 250.87 682.88 251.10 681.45 C 247.13 681.05 243.18 680.48 239.24 679.89 C 239.46 678.56 239.68 677.24 239.91 675.93 C 235.96 675.59 232.06 674.85 228.12 674.46 C 228.18 672.70 228.23 670.95 228.29 669.21 C 224.57 668.97 220.85 668.75 217.14 668.57 C 217.17 666.72 217.21 664.88 217.26 663.06 C 215.03 663.02 212.80 662.99 210.57 662.98 C 210.64 661.19 210.70 659.39 210.77 657.61 C 208.80 657.63 206.84 657.66 204.88 657.68 C 204.94 655.87 205.02 654.07 205.09 652.27 C 201.57 651.87 198.09 651.18 194.57 650.78 C 194.80 649.38 195.04 648.00 195.28 646.62 C 193.47 645.38 191.28 645.13 189.14 645.05 C 189.29 643.92 189.43 642.79 189.57 641.67 C 188.81 640.96 188.06 640.24 187.32 639.53 C 185.74 639.60 184.16 639.68 182.58 639.77 C 182.58 637.78 182.58 635.79 182.58 633.81 C 180.70 633.85 178.82 633.89 176.94 633.94 C 176.85 631.67 176.76 629.42 176.67 627.16 C 174.98 627.26 173.28 627.37 171.59 627.49 C 171.07 624.01 170.52 620.53 170.07 617.05 C 168.31 617.15 166.54 617.26 164.78 617.38 C 164.74 615.19 164.70 613.00 164.65 610.82 C 162.76 610.82 160.88 610.84 159.00 610.87 C 159.00 608.91 159.00 606.95 159.00 605.01 C 157.20 605.04 155.41 605.07 153.62 605.11 C 153.58 602.84 153.53 600.59 153.51 598.33 C 153.12 598.32 152.32 598.30 151.93 598.29 C 152.06 596.75 152.20 595.21 152.33 593.69 C 150.84 593.84 149.36 594.00 147.87 594.17 C 147.09 590.21 146.32 586.24 145.62 582.27 C 145.57 584.18 145.53 586.10 145.48 588.03 C 144.67 588.05 143.04 588.09 142.23 588.11 C 141.72 584.26 141.20 580.41 140.80 576.55 C 139.39 576.87 137.98 577.21 136.58 577.55 C 136.29 575.01 136.02 572.48 135.75 569.95 C 134.27 570.13 132.79 570.32 131.31 570.52 C 130.74 566.59 130.08 562.67 129.85 558.71 C 128.08 558.75 126.30 558.81 124.53 558.87 C 124.36 555.06 124.18 551.26 124.03 547.47 C 122.80 547.59 121.57 547.72 120.35 547.86 C 119.99 547.47 119.26 546.70 118.90 546.31 C 118.77 542.64 118.61 538.98 118.47 535.32 C 116.73 535.42 115.00 535.51 113.27 535.63 C 113.10 531.33 112.72 527.05 112.10 522.80 C 110.60 523.01 109.10 523.23 107.60 523.45 C 107.28 517.67 106.57 511.92 106.29 506.15 C 104.83 506.37 103.37 506.59 101.91 506.83 C 101.63 500.93 100.96 495.07 100.73 489.18 C 99.30 489.45 97.87 489.73 96.44 490.02 C 96.16 485.83 95.65 481.67 95.33 477.49 Z" />
<path fill="#000000" opacity="1.00" d=" M 274.15 494.82 C 278.00 495.01 281.85 495.24 285.71 495.42 C 285.68 497.16 285.65 498.90 285.63 500.65 C 287.88 500.69 290.13 500.74 292.39 500.78 C 292.35 502.68 292.32 504.59 292.29 506.51 C 294.23 506.50 296.17 506.51 298.11 506.53 C 298.06 508.43 298.02 510.34 297.98 512.25 C 299.96 512.25 301.95 512.25 303.93 512.26 C 303.89 514.07 303.84 515.90 303.81 517.73 C 305.99 517.76 308.18 517.81 310.38 517.86 C 310.29 519.64 310.21 521.44 310.13 523.24 C 311.98 523.16 313.83 523.09 315.68 523.03 C 315.76 525.26 315.83 527.48 315.91 529.72 C 317.80 529.63 319.69 529.55 321.58 529.47 C 321.56 529.97 321.50 530.95 321.48 531.44 C 322.99 531.27 324.51 531.10 326.04 530.93 C 325.90 532.40 325.76 533.87 325.63 535.35 C 327.63 535.46 329.63 535.58 331.63 535.70 C 331.52 537.24 331.43 538.79 331.34 540.35 C 332.11 540.96 332.87 541.58 333.64 542.22 C 335.21 542.15 336.79 542.10 338.36 542.05 C 338.29 543.91 338.22 545.77 338.15 547.64 C 340.18 547.59 342.21 547.56 344.25 547.53 C 344.17 549.44 344.09 551.36 344.02 553.29 C 345.96 553.26 347.92 553.23 349.87 553.21 C 349.84 555.08 349.82 556.95 349.80 558.83 C 351.87 558.82 353.95 558.83 356.02 558.83 C 355.99 560.77 355.96 562.72 355.93 564.67 C 357.93 564.66 359.93 564.66 361.94 564.67 C 361.89 566.55 361.84 568.44 361.80 570.33 C 363.70 570.33 365.60 570.32 367.50 570.34 C 367.49 572.19 367.49 574.05 367.49 575.92 C 369.45 575.87 371.41 575.83 373.37 575.80 C 373.34 577.71 373.33 579.63 373.31 581.56 C 375.49 581.58 377.68 581.61 379.87 581.67 C 379.75 583.35 379.63 585.05 379.52 586.75 C 382.23 586.87 385.19 586.98 386.64 589.73 C 387.70 589.52 388.76 589.33 389.83 589.15 C 389.76 590.63 389.70 592.12 389.64 593.62 C 391.60 593.66 393.56 593.71 395.53 593.77 C 395.45 595.57 395.37 597.38 395.29 599.20 C 397.55 599.32 399.81 599.44 402.08 599.56 C 402.04 601.45 402.00 603.34 401.97 605.24 C 403.96 605.20 405.95 605.17 407.94 605.15 C 407.89 606.96 407.85 608.79 407.81 610.62 C 409.81 610.67 411.82 610.74 413.83 610.82 C 414.04 612.74 414.22 614.67 414.40 616.62 C 416.17 616.49 417.96 616.39 419.74 616.29 C 419.74 618.38 419.74 620.48 419.75 622.59 C 421.80 622.58 423.85 622.57 425.90 622.58 C 425.79 624.16 425.68 625.75 425.59 627.35 C 427.55 627.29 429.52 627.25 431.50 627.21 C 431.43 627.86 431.30 629.16 431.23 629.81 C 433.59 630.02 435.96 630.25 438.33 630.48 C 435.44 630.99 432.56 631.48 429.69 632.00 C 432.08 632.36 434.48 632.71 436.89 633.07 C 436.90 633.65 436.93 634.82 436.95 635.40 C 438.77 635.32 440.58 635.24 442.41 635.18 C 442.41 637.04 442.43 638.92 442.45 640.79 C 444.42 640.75 446.39 640.70 448.38 640.66 C 448.27 642.27 448.18 643.89 448.09 645.51 C 450.05 645.49 452.02 645.49 454.00 645.49 C 453.99 647.54 454.00 649.60 454.00 651.67 C 456.09 651.66 458.18 651.66 460.28 651.67 C 460.23 653.55 460.19 655.44 460.15 657.33 C 462.16 657.33 464.17 657.33 466.19 657.34 C 466.16 659.16 466.13 661.00 466.10 662.85 C 467.92 662.83 469.73 662.82 471.56 662.83 C 471.66 667.12 471.75 671.42 471.77 675.72 C 469.28 675.95 466.80 676.19 464.32 676.43 C 467.42 676.79 470.53 677.16 473.63 677.57 C 472.53 677.88 471.43 678.20 470.33 678.53 L 470.84 679.85 C 464.97 680.00 459.12 680.49 453.29 681.19 C 453.54 682.66 453.80 684.13 454.06 685.62 C 446.30 685.74 438.56 686.46 430.81 686.64 C 431.03 688.09 431.26 689.56 431.49 691.03 C 426.31 690.91 421.18 691.54 416.03 691.97 C 401.71 692.37 387.35 693.01 373.04 692.00 C 373.08 690.12 373.13 688.25 373.18 686.39 C 371.23 686.41 369.30 686.45 367.36 686.50 C 367.32 684.27 367.28 682.05 367.24 679.84 C 365.78 679.93 364.33 680.03 362.88 680.14 C 362.87 678.99 362.85 677.85 362.83 676.72 C 361.69 674.14 361.65 671.30 361.52 668.55 C 359.82 668.62 358.14 668.71 356.45 668.81 C 356.24 664.59 355.80 660.39 355.13 656.23 C 353.61 656.44 352.10 656.67 350.59 656.90 C 350.36 652.90 349.98 648.92 349.59 644.94 C 348.09 645.14 346.59 645.35 345.10 645.57 C 344.80 641.61 344.43 637.66 344.05 633.71 C 342.51 633.85 340.97 634.01 339.43 634.17 C 339.35 632.55 339.28 630.94 339.17 629.33 C 338.34 626.87 338.31 624.26 338.17 621.71 C 336.41 621.75 334.65 621.81 332.90 621.87 C 332.76 618.04 332.58 614.21 332.42 610.38 C 330.94 610.48 329.47 610.60 328.00 610.72 C 328.13 609.60 328.41 607.36 328.55 606.24 C 328.16 606.30 327.39 606.42 327.00 606.47 C 327.00 604.02 327.00 601.57 326.99 599.13 C 325.20 599.19 323.42 599.26 321.64 599.33 C 321.45 595.54 321.21 591.75 320.98 587.97 C 319.25 588.02 317.53 588.09 315.81 588.17 C 315.45 583.99 315.04 579.82 314.67 575.66 C 313.19 575.86 311.71 576.08 310.23 576.30 C 309.87 572.32 309.47 568.34 309.14 564.36 C 307.64 564.56 306.15 564.77 304.66 564.98 C 304.02 561.13 303.50 557.28 303.19 553.40 C 301.48 553.48 299.77 553.57 298.07 553.66 C 297.92 549.83 297.74 545.99 297.62 542.16 C 295.93 542.22 294.23 542.28 292.54 542.36 C 292.44 539.57 292.34 536.78 292.23 534.00 C 290.47 534.08 288.71 534.16 286.96 534.26 C 286.73 530.45 286.50 526.65 286.29 522.86 C 284.64 522.98 282.99 523.11 281.35 523.25 C 281.04 519.42 280.60 515.60 280.11 511.78 C 278.60 511.99 277.10 512.20 275.60 512.42 C 275.29 506.54 274.50 500.70 274.15 494.82 Z" />
</g>
</svg>
