<?xml version="1.0" encoding="UTF-8" ?>
<!DOCTYPE svg PUBLIC "-//W3C//DTD SVG 1.1//EN" "http://www.w3.org/Graphics/SVG/1.1/DTD/svg11.dtd">
<svg width="348pt" height="246pt" viewBox="0 0 348 246" version="1.1" xmlns="http://www.w3.org/2000/svg">
<g id="#dc1d2fff">
<path fill="#dc1d2f" opacity="1.00" d=" M 326.53 5.15 C 332.56 4.14 338.69 4.28 344.75 3.53 C 337.51 33.22 329.60 62.75 322.21 92.41 C 313.16 126.80 304.56 161.30 295.64 195.73 C 293.98 202.51 292.28 209.30 290.00 215.90 C 283.74 231.42 267.79 242.56 250.94 242.41 C 181.62 242.43 112.31 242.41 42.99 242.40 C 36.74 242.31 30.30 242.90 24.26 240.91 C 12.54 236.66 4.50 223.57 6.70 211.18 C 17.80 157.55 28.64 103.86 39.54 50.19 C 41.36 40.89 47.99 32.63 56.68 28.88 C 64.82 25.24 73.92 26.49 82.52 25.13 C 90.46 23.85 98.55 24.18 106.51 23.13 C 114.54 22.05 122.67 22.28 130.70 21.25 C 139.70 20.04 148.82 20.19 157.81 18.95 C 166.24 17.71 174.79 17.86 183.24 16.77 C 210.18 14.94 237.04 12.28 263.96 10.20 C 284.81 8.42 305.70 7.13 326.53 5.15 M 101.15 80.68 C 91.82 111.92 83.04 143.33 74.00 174.65 C 85.41 174.61 96.82 174.65 108.24 174.63 C 112.84 159.17 116.70 143.49 121.76 128.18 C 143.72 142.21 165.31 156.81 187.18 170.99 C 189.35 172.25 191.28 174.40 193.94 174.46 C 209.52 174.86 225.11 174.57 240.69 174.58 C 213.79 157.88 186.92 141.11 160.05 124.35 C 194.05 109.80 228.08 95.32 262.08 80.78 C 247.38 80.76 232.67 80.77 217.96 80.72 C 215.17 80.65 212.74 82.19 210.25 83.24 C 184.79 94.44 159.31 105.61 133.85 116.82 C 130.48 118.40 127.01 119.77 123.47 120.93 C 127.38 107.56 131.32 94.19 134.95 80.73 C 123.69 80.72 112.42 80.70 101.15 80.68 Z" />
</g>
<g id="#fffffeff">
<path fill="#fffffe" opacity="1.00" d=" M 101.15 80.68 C 112.42 80.70 123.69 80.72 134.95 80.73 C 131.32 94.19 127.38 107.56 123.47 120.93 C 127.01 119.77 130.48 118.40 133.85 116.82 C 159.31 105.61 184.79 94.44 210.25 83.24 C 212.74 82.19 215.17 80.65 217.96 80.72 C 232.67 80.77 247.38 80.76 262.08 80.78 C 228.08 95.32 194.05 109.80 160.05 124.35 C 186.92 141.11 213.79 157.88 240.69 174.58 C 225.11 174.57 209.52 174.86 193.94 174.46 C 191.28 174.40 189.35 172.25 187.18 170.99 C 165.31 156.81 143.72 142.21 121.76 128.18 C 116.70 143.49 112.84 159.17 108.24 174.63 C 96.82 174.65 85.41 174.61 74.00 174.65 C 83.04 143.33 91.82 111.92 101.15 80.68 Z" />
</g>
</svg>
