<?xml version="1.0" encoding="UTF-8"?>
<!DOCTYPE svg  PUBLIC '-//W3C//DTD SVG 1.1//EN'  'http://www.w3.org/Graphics/SVG/1.1/DTD/svg11.dtd'>
<svg width="560pt" height="360pt" version="1.1" viewBox="0 0 560 360" xmlns="http://www.w3.org/2000/svg">
<g fill="#fff">
<path d="m84.46 2.25c1.29 0.67 2.55 1.41 3.47 2.57-0.02 1.39 0.24 2.73 0.76 4.01-0.86 6.59-1.73 13.22-3.47 19.64-2.89 13.86-5.85 27.82-10.81 41.12-2.35 5.41-5.18 10.6-7.68 15.94-0.49 0.94-0.98 1.88-1.47 2.82-2.95 5.69-5.56 11.59-9.02 17-1.23 2.41-2.41 4.85-4 7.05-1.22 2.39-2.4 4.82-3.99 7-1.22 2.39-2.4 4.82-4 6.98-0.72 1.4-1.45 2.8-2.16 4.2 12.08-3.32 24.81-1.21 36.8 1.52 5.86 1.52 11.82 2.7 17.55 4.66 6.06 1.42 12.04 3.16 17.98 4.99 10.69 2.65 21.32 5.48 32.04 8.02 1.36 0.25 2.73 0.48 4.03 1 1.67 0.24 3.35 0.46 4.96 1 8.67 1.67 17.35 3.39 26.01 5.06 2.03 0.16 4.11 0.24 6.04 1.01 3.6 0.01 7 1.36 10.61 1.34 3.38 1.26 7.13 0.27 10.44 1.72 2.41 0.14 4.88-0.07 7.26 0.48 4.13 1.24 8.6 0.01 12.7 1.52 7.87-0.07 15.67 1.11 23.52 1.22 13.63 0.41 27.23 1.35 40.88 0.76 8.06-0.95 16.25-0.18 24.31-1.31 4.08-0.35 8.17-0.58 12.27-0.67 2.56-0.96 5.32-0.89 8.01-1.02 2.24-0.89 4.66-0.88 7.02-1.02 3.93-1.04 8.02-1.22 12.01-2.07 1.62-0.53 3.32-0.78 5.02-1.02 1.61-0.54 3.29-0.76 4.97-0.99 3.3-1.06 6.75-1.5 10.11-2.32 7.67-1.76 15.12-4.47 22.92-5.66 4.29-1.47 8.6-2.95 13.01-4.05 1.61-0.81 3.29-1.49 5.02-2.03 5.7-2.26 11.27-4.8 17.01-6.98 0.49-0.26 1.49-0.78 1.99-1.04 1.72-0.92 3.49-1.74 5.41-2.19-1.1 2.8-4.24 3.39-6.59 4.76-0.94 0.48-1.88 0.96-2.82 1.43-5.53 3.31-11.39 6.01-17.09 9.01-4.73 2.13-9.18 4.9-14.1 6.56-9.95 4.6-20.45 7.98-30.98 10.97-1 0.36-2 0.69-3 1.01-1.63 0.43-3.28 0.71-4.93 0.98-1.31 0.49-2.68 0.74-4.03 1.02-3.62 0.8-7.25 1.67-10.96 1.93-1.9 0.83-3.99 0.83-6.01 0.98-2.24 0.86-4.65 0.84-7 0.98-23.58 3.73-47.61 3.94-71.46 3.36-6.34-0.92-12.78-0.44-19.11-1.37-9.39-0.3-18.66-1.78-28.01-2.35-0.61-0.17-1.82-0.51-2.43-0.67-2.29-0.15-4.64 0.07-6.88-0.58-2.96-0.94-6.2-0.13-9.09-1.39-2.03-0.19-4.2 0.04-6.03-1.01-2.35-0.13-4.75-0.05-6.96-0.97-2.02-0.14-4.08-0.22-5.99-0.97-1.71-0.21-3.48-0.2-5.05-1.01-5.37-0.51-10.62-1.89-15.9-2.97-4.33-1.01-8.74-1.73-13.02-2.97-1.35-0.27-2.71-0.54-4.01-0.98-6.68-1.56-13.34-3.26-19.96-5.03-2.38-0.52-4.73-1.17-7.01-1.99-4.71-1.17-9.39-2.48-13.99-3.99-10.69-2.6-21.18-6.13-32.06-7.84-7.62-1.43-15.5-2.3-23.09-0.24-3.2 1.4-6.59 2.58-9.17 5.03-3.5 2.89-4.41 8.36-9.24 9.63-0.65-0.35-1.93-1.07-2.58-1.42 0.95 5.82 0.12 11.75 1.05 17.57 0.34 12.38 0.71 24.77 0.47 37.16-0.25 2.36-1.71 4.31-3.47 5.8-5.62-3.3-4.17-10.39-5.09-15.82-0.2-12.74-0.47-25.48-0.44-38.22-1.33-6.73-0.83-13.59-1.05-20.4-1.67-5.5-0.54-11.33-1-16.97-1.87-5.51-0.27-11.45-1.15-17.09-1.4-5.21-0.44-10.64-0.85-15.94-1.83-5.51-0.3-11.4-1.15-17.03-1.46-5.03-0.36-10.32-0.88-15.46-1.53-5.38-0.58-11.01-0.97-16.51-1.75-5.14-0.49-10.69-1-16-1.24-4.47-1.72-9.7 0.85-13.8 0.71-1.33 1.53-2.99 3.32-2.85 1.05 2.31 2.14 4.63 2.84 7.07 0.28 2.86-0.21 5.76 0.32 8.6 1.56 5.21 0.19 10.72 1 16.01 1.77 5.77-0.22 11.94 1.41 17.72 1.04 5.24-0.48 10.7 0.97 15.88 1.09 5.28-0.44 10.78 0.98 16.01 0.86 4.74 0.13 9.58 0.49 14.35 2.07 6.03-0.13 12.57 1.52 18.66 1.08 5.26-0.4 10.74 0.96 15.97 0.49 2.27 0.41 4.6 0.54 6.92 2.2-2.95 3.5-6.43 5.65-9.41 1.23-2.39 2.45-4.79 3.98-7 0.91-1.73 1.85-3.45 3.01-5.03 1.23-2.39 2.42-4.82 4.01-7 1.6-3.02 3.04-6.14 5-8.95 1.24-2.4 2.41-4.84 3.99-7.04 2.34-4.33 4.32-8.86 6.99-13 0.66-1.32 1.32-2.64 2.01-3.95 0.5-1.06 1.03-2.11 1.53-3.16 0.25-0.5 0.77-1.48 1.02-1.97 1.58-4.08 3.61-7.96 5.49-11.9 1.3-4.03 2.83-7.99 3.78-12.13 3.68-14.88 7.74-29.72 9.85-44.92 0.58-2.83 2.24-5.32 5.04-6.33z"/>
<path d="m205.44 9.22c0.65-1.15 1.38-2.24 2.2-3.27 0.92 0.01 2.76 0.03 3.68 0.04 1.76 1.47 3.47 3.14 4.11 5.42 5.33 15.09 7.36 31.05 10.08 46.75 0.57 2.33-0.11 5.09 1.57 7.02 11.42-6.19 24.38-9.45 37.38-9.13-0.51 1.4-1.72 1.95-3.08 2.2-0.99 0.7-1.98 1.39-3.03 2.02-3 1.98-5.97 4.01-8.95 6.02-6.86 4.23-14.35 7.37-21.54 10.99 0.69 3.83 1.2 7.7 1.26 11.6 0.91 2.79 0.94 5.71 0.98 8.62 1.18 2.83 0.84 5.94 0.99 8.92 1.33 2.52 0.65 5.44 1.13 8.13 0.59 3.32 0.99 6.7 0.75 10.07-1.55 2.37-4.6 1.21-5.54-1-1.22-3.62-2.3-7.31-2.62-11.13-0.78-1.91-0.78-3.99-0.98-6.01-0.92-2.22-0.82-4.64-0.96-6.99-0.99-2.21-0.86-4.65-0.99-7.01-0.9-2.23-0.9-4.64-1-7-0.45-1.33-0.86-2.67-1.22-4.03-3.73 1.99-7.51 3.87-11.27 5.8-3.36 2.31-7.14 3.92-10.9 5.45-2.25 1.12-4.57 2.13-7.07 2.56-0.9 0.26-1.81 0.51-2.72 0.74-1.77-0.81-2.91-2.26-3.69-4 2.44-3.95 6.74-6.01 10.61-8.26 2.6-1.76 5.37-3.24 7.97-5 1.59-1.12 3.3-2.09 5.02-3.01 1.59-1.13 3.29-2.08 5.02-2.99 1.72-1.2 3.57-2.18 5.46-3.08-2.28-13.53-4.47-27.1-7.19-40.56-1.24-6.79-3.87-13.19-5.46-19.88z"/>
<path d="m157.12 14c-0.99-2.98 2.2-5.47 4.97-5.21 1.66 1.4 3.15 3.04 3.65 5.22 4.81 15.46 7.28 31.53 9.43 47.53 1.02 4.29 0.95 8.76 2.08 13.05 1.12-0.63 2.24-1.26 3.36-1.88 1.52-1.03 3.24-1.71 4.91-2.45 5.15-2.44 10.78-4.49 16.56-4.25 2.72-0.02 5.1 1.59 7.02 3.37-1.72 1.85-3.47 3.73-5.69 4.97-2.7 1.97-5.87 3.1-8.94 4.34-4.43 2.08-8.78 4.31-13.14 6.52-0.81 0.6-1.62 1.19-2.42 1.78-0.32 5.24 1.51 10.25 1.2 15.5 1.32 3.67 0.63 7.63 1.02 11.43 1.17 5.31 0.87 10.81 0.8 16.22 0.22 2-1.1 3.48-2.33 4.86-1.35 0.01-2.69 0.03-4.03 0.07-3.07-2.85-2.37-7.27-3.21-10.98-0.83-3.91 0.48-8.13-1.11-11.84 0.23-6.73-1.51-13.24-1.35-19.96-1.55 0.53-3.05 1.2-4.52 1.91-2.75 2.09-5.97 3.42-8.99 5.05-2.16 1.66-4.75 2.52-7.18 3.66-1.56 0.06-3.13 0.18-4.68 0.01-0.99-0.87-1.87-1.85-2.77-2.8 0.34-3.43 3.05-5.82 5.88-7.42 2.61-1.73 5.21-3.5 7.98-4.96 4.02-2.88 8.42-5.16 12.54-7.89-0.27-3.48-1.41-6.82-1.3-10.34-0.88-2.24-0.83-4.67-1.01-7.03-0.8-2.24-0.82-4.64-1.01-6.99-2.06-13.89-4.55-27.78-7.72-41.49z"/>
<path d="m372.66 52.38c7-0.9 14.27 2.61 17.17 9.18 1.7 4.5 0.51 9.14-0.01 13.71-1.99 2.58-0.11 5.7 0.81 8.28 1.03 2.71 3 4.85 4.66 7.16 2.31 1.76 4.64 3.49 7.08 5.08 3.68 1.44 7.39 2.8 11.14 4.06 5.77-0.61 10.94 4.69 16.59 2.51-0.06 0.69-0.1 1.39-0.14 2.09-6.38 4.69-14.86 4.09-22.19 2.5-3.57-0.6-6.93-2.03-10.14-3.65-6.46-2.89-11.37-8.1-15.21-13.91-0.39 1.76-0.94 3.47-1.68 5.1-1.02 2.37-1.91 4.83-3.46 6.92-3.46 7.57-12.02 15.24-20.8 11.43-2.76-1.34-4.96-3.53-6.31-6.28-0.75-1.8-1.23-3.68-1.33-5.63-0.24-0.19-0.73-0.56-0.98-0.75-5.36 7.16-12.25 12.94-19.5 18.11-1.96 1.37-3.95 2.7-5.97 3.98-2.83 1.98-5.96 3.45-9.03 5.01-9.05 4.67-19.57 8.61-29.8 5.99-7.2-1.36-13.68-6.24-16.86-12.86-2.85-4.73-3.9-10.43-3.8-15.91-1.04-2.58-1.02-5.4-0.01-7.98 0.1-2.67 0.05-5.38 0.87-7.95 0.76-3.38 1.42-6.84 2.95-9.98 3-7.96 8.67-16.19 17.36-18.4 3.16-0.5 6.49-0.37 9.44 0.99 5.19 2.49 8.87 8.06 8.53 13.88 0.16 3.63-1.27 7.06-2.74 10.3-0.91 1.72-1.86 3.42-2.98 5.01-6.05 7.7-13.42 15.39-23.35 17.65 1.17 2.83 1.71 5.92 3.26 8.6 1.42 1.97 3.24 3.61 5.05 5.22 1.43 0.65 2.84 1.32 4.22 2.09 5.06 0.37 10.2 0.42 15.09-1.14 5.15-2.05 10.19-4.34 15.04-7.03 5.21-3.04 10.02-6.66 15.02-10.01 1.79-1.62 3.82-2.94 5.99-4 4.12-2.58 8.07-5.42 11.32-9.06 0.32-4.07 0.89-8.14 1.77-12.12 1.06-4.99 3.1-9.78 5.98-13.99 2.58-4.21 5.72-8.19 9.9-10.91 2.11-1.57 4.58-2.46 7.05-3.29m-0.35 11.73c-3.5 2.96-6.61 6.36-9.1 10.22-2.44 4.1-3.96 8.59-5.11 13.19-0.2 4.68-0.36 9.36-0.06 14.04 0.3 0.59 0.9 1.77 1.2 2.35 1.38 0.45 2.85 1.8 4.24 0.56 7.32-4.07 10.21-12.63 13.32-19.9 0.52-3.4 2.23-6.69 1.94-10.17 0.13-0.98 0.26-1.96 0.38-2.95 0.6-0.52 1.79-1.55 2.39-2.07-0.33-2.11-0.08-4.88-2.61-5.66-2.04-1.6-4.47-0.14-6.59 0.39m-86.47 6.65c-6.03 2.55-7.91 9.3-10.65 14.63-0.27 1.35-0.57 2.7-0.96 4.03-0.97 3.33-1.46 6.74-1.37 10.22 8.25-4.42 14.96-11.74 19.08-20.11 0.15-2.37 0.38-4.77 0.01-7.14-1.47-1.68-4.01-3.32-6.11-1.63z"/>
<path d="m125.2 76.5c-0.47-3.31 0.78-6.64 3.55-8.58 2.98-0.12 6.13-0.14 8.12 2.47 0.09 1.66 0.1 3.36-0.42 4.97-1.52 3.02-4.37 5.28-7.93 4.49-1.12-1.1-2.23-2.22-3.32-3.35z"/>
<path d="m132.09 93.52c1.04-1.38 2.49-2.93 4.41-2.52 3.65 2.62 3.58 7.45 3.6 11.48 1.17 3.91 1.29 8.06 2.07 12.08 0.74 3.31 1.61 6.6 2.06 9.97 0.81 5.01 3.85 11.47-0.68 15.56-1.83-0.22-4.11 0.45-5.32-1.37-2.07-2.92-2.19-6.76-2.37-10.22-0.91-2.23-0.86-4.66-0.99-7.01-1.26-3.1-0.46-6.54-1.55-9.68-0.42-6.11-2-12.1-1.23-18.29z"/>
<path d="m464.39 175.16c4.21-2.33 9.49-0.7 12.59 2.69 1.72 2.07 3.1 4.4 4.32 6.79 2.86 4.4 0.9 9.73 2.28 14.5 0.85 5.9 0.31 11.9 0.24 17.84 5.37-8.2 11.52-15.84 17.55-23.56 1.4-1.9 3.32-3.29 5.39-4.39 2.23-0.21 3.96 0.98 5.32 2.63-0.07 1.56-0.1 3.13-0.16 4.7-1.2 2.02-2.27 4.12-3.64 6.04-0.65 1-1.32 1.99-2.02 2.96-1.56 2.39-3.19 4.75-4.98 6.97-5.06 7.41-11.06 14.37-18.87 18.96-2.31 1.51-4.74 2.89-7.39 3.7 1.02-3.5 3.97-6.34 5.05-9.96-0.93-0.58-1.88-1.12-2.84-1.61-0.12-0.49-0.35-1.48-0.47-1.98-1.53-7.83-0.32-15.99-0.85-23.94-0.77-2.28-0.87-4.7-1-7.08-1.59-2.98-3.04-6.57-6.48-7.8-1.29 1.8-2.32 3.76-3.28 5.74-3.28 11.79-2.4 24.06-2.07 36.13 1.04 2.54 0.91 5.32 1.03 8.01 0.99 2.22 0.89 4.68 1.01 7.06 4.67-0.9 9.05-2.99 13.8-3.5 2.71-0.15 5.43-0.04 8.15-0.07-3.07 4.89-7.25 9.14-12.71 11.29-2.15 1.07-4.33 2.09-6.53 3.05 1.05 4.11 2.42 8.13 3.42 12.25 0.37 0.99 0.72 1.99 1.03 3.01 0.35 0.99 0.67 1.98 0.97 3 1.21 2.68 2.33 5.44 2.9 8.34 0.88 0.59 1.77 1.14 2.7 1.66 0.49 1.32 1.02 2.64 1.42 4.01 0.86 1.96 2.26 4.03 1.52 6.27-0.39 1.9-2.78 2.48-4.37 1.76-1.99-1.3-3.51-3.2-4.71-5.22-1.66-2.5-3-5.2-3.97-8.03-0.78-1.61-1.48-3.27-2.02-4.97-2.46-6.14-4.86-12.43-6-18.97-6.42 0.66-14.12 6.7-19.72 0.96-0.01-0.93-0.02-2.79-0.03-3.72 1.72-2 4.04-3.37 6.62-3.96 1.62-0.76 3.29-1.43 5-1.98 1.8-0.85 3.66-1.53 5.58-2.06-0.87-2.31-1.29-4.74-1.32-7.2-0.43-1.29-0.79-2.59-1.09-3.9-2.1 2.76-4.93 4.9-8.36 5.7-1.62 0.77-3.28 1.46-5 1.98-1.48 0.69-2.97 1.36-4.47 2.01 0.05 0.56 0.15 1.69 0.2 2.25 0.98 3.6 1.67 7.29 2.07 11 3.05 12.21 5.18 24.66 7.31 37.06 0.66 2.85 0.47 5.8 0.47 8.71-1.49 2.09-4.61 3.69-6.73 1.48-2.97-3.43-2.82-8.37-3.81-12.56-0.85-4.91-2.12-9.75-2.64-14.71-0.72-1.57-0.79-3.31-1.01-4.98-0.51-1.32-0.76-2.72-1.02-4.09-1.3-6.84-3.15-13.62-3.83-20.55-1.79 0.93-3.65 1.74-5.57 2.36-4.66 2.17-9.41 4.22-14.33 5.69-2.53 0.79-4.54-0.67-6.15-2.43-0.98-5.01 4.12-7.05 7.76-8.75 5.22-2.63 10.5-5.14 15.76-7.71-0.32-3.55-1.36-6.99-1.61-10.54-1-3.61-1.57-7.33-1.99-11.04-1.23-6.06-1.82-12.25-2.71-18.38 0.31-4.39-1.89-9.18 0.7-13.2 1.22-1.91 3.87-2.46 5.83-1.38 2.37 1.93 2.44 5.21 2.52 8.03 1.33 4.02 0.35 8.37 1.6 12.42 0.06 3.92 1.13 7.69 1.43 11.58 1.34 6.18 2.14 12.49 3.55 18.65 4.55-1.98 9.37-3.28 14.3-3.88 2.17 0.08 4.19 1.11 6.15 2-0.47-1.35-1.11-2.68-1.14-4.13-0.22-7.06 0.36-14.15-0.58-21.16 0.83-7.9 0.54-16.58 5.2-23.43 1.12-1.91 2.84-3.3 4.73-4.42z"/>
<path d="m266.52 199.73c7.3-1.48 15.45-3.29 22.44 0.4 6.83 4.19 13.09 9.62 17.22 16.57 0.96 1.77 2.17 3.78 1.38 5.87-0.9 1.05-2.18 1.67-3.24 2.53-1.27-0.77-2.86-1.19-3.71-2.48-4.45-6.13-10.5-10.88-17.05-14.6-7.22-0.56-14.41 0.63-21.17 3.2-1.62 0.77-3.27 1.45-4.97 2.02-13.13 6.92-24.24 17.03-34.2 27.91-3.41 3.38-5.97 7.47-8.97 11.19-0.63 1.03-1.3 2.03-1.98 3.02-0.65 1.03-1.32 2.03-2.03 3.02-1.72 3.31-3.37 6.66-5.02 10-1.99 4.88-2.81 10.09-4.13 15.15-0.12 2.31-0.12 4.64 0 6.96 1 2.98 0.91 6.19 2.12 9.12 0.8 1.6 1.49 3.27 2.02 4.99 4.43 7.44 10.57 14.11 18.44 17.93 6.14 3.51 12.99 5.46 19.78 7.27 4.62 1.22 9.44 0.95 14.05 2.1 13.84 0.75 27.61-1.06 41.1-4.09 2.68-0.64 5.4-1.11 8.02-2 3.36-0.9 6.67-1.97 9.97-3.06 1.62-0.79 3.3-1.46 5.03-2 2.56-1.29 5.21-2.4 7.88-3.44 1.05-0.53 2.09-1.07 3.16-1.58 0.48-0.25 1.44-0.74 1.92-0.99 3.22-2.21 6.86-3.73 10.05-5.99 2.56-1.84 5.23-3.54 8.06-4.93 3.86-3.26 7.41-6.98 9.86-11.42 1.28-2.28 1.54-5.07 3.43-7.01 0.38 4.9-1.61 9.62-3.72 13.94-3.91 9.43-12.39 15.81-20.85 20.94-2.47 1.77-5.25 3.03-7.93 4.44-3.34 1.57-6.58 3.39-10.08 4.56-1.62 0.78-3.28 1.46-4.99 1.99-15.32 5.72-31.6 9.42-47.96 9.96-3.36 0.67-6.84 0.72-10.24 0.31-4.16-1.03-8.55 0.01-12.65-1.35-3.99-0.27-7.86-1.31-11.66-2.47-6.32-1.8-12.76-3.77-18.27-7.44-10.15-5.73-19-14.73-22.93-25.86-2.74-5.41-2.72-11.54-3.55-17.4 0.66-7.68 1.93-15.4 5.12-22.51 1.57-3.74 3.13-7.53 5.46-10.89 9.99-16.76 23.98-30.94 39.76-42.33 3.43-2.65 7.29-4.64 11.15-6.55 4.38-2.27 9.06-3.99 13.88-5z"/>
<path d="m126.87 231.62c0.74-2.91 1.84-6.65 5.56-6.48 1.67 1.51 3.43 3.13 3.85 5.47 4.29 9.86 8.29 19.88 11.97 29.99 2.62 5.2 4 11.05 2.53 16.8-4.06-1.53-6.94-4.89-8.52-8.84-3.26-6.87-5.97-14-8.51-21.16-1.23-2.57-2.14-5.28-3.02-7.99-0.28-0.76-0.85-2.28-1.14-3.04l-0.82 0.62c-0.08-1.25-0.03-2.51-0.32-3.73-0.15 1.54-0.15 3.09-0.13 4.63-0.97 5.66-4.18 10.63-7.05 15.49-3.54 5.93-7.74 11.58-12.67 16.43-1.65 1.9-4.34 1.06-5.83-0.57 0.16-1.79 0.78-3.48 1.79-4.96 4.32-6.4 8.34-12.99 12.17-19.68 2.69-4.8 5.41-9.9 10.14-12.98z"/>
<path d="m498.66 233.61c2.52-4.5 6.79-9.14 12.41-8.65 4.47-0.36 7.88 3.81 9.45 7.55 1.46 8.11 0.43 16.77-3.77 23.98-2.98 5.62-7.51 12.18-14.49 12.51 1.16 3.23 4.32 4.6 7.18 5.97 3.45 0.15 6.96 0.24 10.19-1.17 1.33-0.69 2.68-1.36 4.04-2.01 11.82-7.67 18.78-20.23 27.17-31.14 0.77-2.04 0.81-4.55 2.56-6.08 3.82 9 0.42 19.12-5.12 26.58-5.48 7.41-11.63 14.71-19.87 19.15-1.25 0.83-2.6 1.49-4 2.02-6.83 3.24-15.02 3.8-21.93 0.47-3.82-1.7-7.16-4.47-8.79-8.41-1.78-2.93-1.62-6.38-2.27-9.63-0.38-2.08-0.17-4.24 0.46-6.25 0.04-7.2 1.92-14.33 4.83-20.89 0.52-1.39 1.16-2.74 1.95-4m8.53 5.71c-1.04 2.33-1.9 4.74-2.95 7.07-0.3 1.04-0.64 2.06-1.02 3.08-0.24 1.71-0.46 3.45-1.15 5.06-0.06 1.67-0.07 3.34-0.02 5.02 0.53-0.29 1.6-0.88 2.13-1.17 5.17-6.47 8.44-14.92 6.62-23.27-1.55 1.09-2.47 2.75-3.61 4.21z"/>
<path d="m15.25 255.67c0.79-2.04 3.33-3.37 5.32-2.14 8.11 5.06 16.44 9.86 24 15.75 2.12 1.68 3.34 4.16 5.19 6.09 0.28 0.41 0.83 1.24 1.11 1.66-4.71 0.4-9.5-0.87-13.26-3.75-5.04-2.91-9.84-6.23-14.62-9.54 0.16 9.78-0.24 19.54-0.31 29.31-0.09 2.5-0.51 5.19-2.31 7.08-1.94-0.34-4.53 0.43-5.87-1.44-0.93-2.67-0.5-5.61 0.41-8.21 0.45-10.15-0.67-20.41 1.1-30.47-0.07-1.48-0.76-2.86-0.76-4.34z"/>
<path d="m388.47 256.17c5.65-2.85 13.94-1.75 16.82 4.47 1.61 0.87 2.72 2.3 3.56 3.9 0.12 2.41 0.88 4.7 1.37 7.04 2.59 6.36 5.13 13.14 10.45 17.77 1.87 1.88 4.63 2.27 6.82 3.68 3.58 0.66 6.12-2.2 9.07-3.65-0.39 2.32-2.08 4.02-4.16 4.96-1.31 0.88-2.67 1.69-4.03 2.5-5.18 0.67-10.66-0.25-14.82-3.56-3.53-2.16-5.65-5.8-8.16-8.95-0.93 4.61-2.99 8.87-5.12 13.03-2.56 5.33-5.7 10.8-10.86 13.98-2.94 2.48-6.98 1.58-10.49 1.59-4.45-0.82-7.48-4.95-8.64-9.1-2.52-9.47 0.08-19.44 3.3-28.42 3.3-7.42 7.37-15.36 14.89-19.24m4.9 9.82c-5.06 3.87-7.55 9.78-10.18 15.37-2.13 6.27-3.21 12.97-2.45 19.58 0.15 1.4 1.44 2.57 2.87 2.03 3.11-2.08 5.11-5.29 7.16-8.33 0.98-2.01 1.99-4.01 2.99-6.01 0.55-1.73 1.23-3.4 2.02-5.03 1.29-3.8 2.13-7.73 3.13-11.62-0.34-2.12-1.47-4.04-2.19-6.05-1.12 0.01-2.24 0.03-3.35 0.06z"/>
<path d="m151.54 283.84c4.23-1.58 9.22-0.89 12.46 2.39 0 1.31 0.02 2.62 0.04 3.94-2.79-2.97-6.97-0.63-10.48-1.05-1.26 0.7-2.7 0.86-4.09 1.12-1.01 0.37-2.04 0.71-3.08 1.01-1.63 0.77-3.3 1.44-5.03 1.97-3.77 1.64-7.21 3.94-11.05 5.41 4.68-0.38 8.99-2.93 13.78-2.7 5.64-1.19 11.73-1.55 17.37-0.23 3.27 0.3 5.51 3.39 5.84 6.5-0.57-0.02-1.72-0.07-2.29-0.09 0-0.54-0.01-1.61-0.02-2.15-1.5 0.03-3 0.06-4.49 0.14-4.2 1.33-8.65 0.73-12.97 0.98-2.61 1.34-5.6 0.73-8.39 1.04 4.81 2.33 10.58 1.66 15.24 4.56 3.68 1.69 6.82 4.47 8.94 7.92 1.63 2.54 3.19 5.19 4.11 8.09-2.43-0.71-3.93-2.81-5.69-4.46-1.1-0.47-2.18-0.99-3.28-1.48-1.31-0.72-2.64-1.4-3.97-2.08-3.71-1.58-7.61-2.67-11.54-3.56-4.32-0.29-8.66-0.02-12.99-0.13-5.01-0.28-10.56 2.46-14.99-1.11 0-0.62 0.01-1.88 0.01-2.51-1.33-1.28-2.17-2.91-2.92-4.57 1.54-1.75 3.48-3.03 5.56-4.06 1.59-1.13 3.29-2.08 5-2.99 2.84-1.94 5.96-3.39 8.99-4.99 1.82-1.34 3.87-2.3 6-3.02 4.42-1.93 9.04-3.82 13.93-3.89z"/>
<path d="m97.16 296.02c-2.4-3.04-0.86-7.61 2.62-9.02 0.87-0.01 2.61-0.02 3.48-0.02 1.5 0.94 2.79 2.12 3.7 3.65 0.36 2.88-0.27 5.71-2.77 7.43-2.37-0.26-5.82 0.72-7.03-2.04z"/>
<path d="m60.52 292.35c0.49 0 1.46-0.01 1.95-0.02 2.15 0.72 3.54 2.4 4.51 4.39 0.62 3.44-1.71 6-4.7 7.22-2.7 0.28-4.57-1.61-6.2-3.47 0.13-2.05-0.57-4.65 1.28-6.13 0.89-0.9 2.08-1.38 3.16-1.99z"/>
<path d="m82.54 305.06c0.66-0.02 1.97-0.06 2.63-0.08 3.28 3.31 8.39 4.54 10.78 8.71-0.23 1.83-1.31 3.25-2.7 4.39-0.74-0.03-2.2-0.09-2.93-0.12 0.2 0.46 0.59 1.39 0.79 1.85 1.13 0.34 2.26 0.72 3.38 1.14 1 0 2-0.01 3-0.02 1.36-0.44 2.74-0.77 4.13-1.07 1.78-1.39 4.32-2.31 4.68-4.84 0.69-2.29 3.39-4.86 5.82-3.24 2.17 0.98 1.84 3.59 1.92 5.55-4.08 7.39-13.14 11.92-21.46 9.86-1.88-0.3-3.96-2.18-5.5-0.12-5 4.59-12.62 4.9-18.77 2.75-0.25-0.57-0.74-1.7-0.99-2.27-0.27-0.5-0.8-1.5-1.07-2-0.52-1.19-1.07-2.37-1.55-3.57 0.67 0.02 2.01 0.04 2.68 0.05 1.21 1.13 2.56 2.09 3.96 2.98 1.75-0.01 3.49-0.02 5.24-0.03 2.87-0.94 5.72-2.13 7.6-4.63-2.59 0.86-5.66 1.01-6.94-1.88-0.52-4.09 2.87-7.24 4.05-10.93 0.31-0.62 0.94-1.86 1.25-2.48z"/>
<path d="m20.45 310.42c1.37-0.2 2.73-0.44 4.09-0.7 6.97-0.92 14.05-0.73 21.03 0.04 3.65 0.3 7.32 0.29 10.93 0.95 0.98 0.15 1.96 0.29 2.93 0.43 0.43 0.65 1.28 1.95 1.71 2.59-0.26 0.91-0.54 1.81-0.86 2.7 0.4 1.22 0.71 2.46 1 3.71-1.19 1.14-2.41 2.24-3.65 3.32-1.77 0.51-3.5 1.16-5.24 1.75-4.18 2.27-8.59 4.09-12.82 6.27-7.28 3.42-12.23 10.04-16.68 16.48-1.04 2.08-1.59 4.36-2.49 6.5-2.55-2.25-0.42-6.12-0.71-9.09 0.83-8.44 6.6-15.78 14.01-19.6 0.67-0.61 1.99-1.83 2.65-2.44-1.99 0.57-3.91 1.35-5.8 2.19-1.04 0.18-2.08 0.38-3.12 0.6-4.5 3.03-9.98 3.66-14.79 5.98 0.1 1.45 0.12 2.91 0.07 4.37-1.11-0.72-1.8-1.87-2.57-2.91-0.63-4.64 3.53-7.42 6.92-9.6 3.71-1.63 7.25-3.99 11.43-4.14 2.18-1.47 4.75-1.83 7.23-2.49 1.84-0.2 3.69-0.33 5.52-0.61-4.69-1.49-9.84-0.64-14.69-0.46-4.16 0.62-8.44 1.1-12.29 2.93-1.34 0.65-2.86 0.69-4.3 0.96-0.18 0.82-0.53 2.46-0.71 3.28-0.79-0.82-1.55-1.65-2.31-2.48 0.03-0.57 0.09-1.72 0.12-2.3 1.91-4.09 6.18-6.25 10.47-6.87 0.96-0.48 1.93-0.94 2.92-1.36z"/>
</g>
</svg>
