<?xml version="1.0" encoding="UTF-8" ?>
<!DOCTYPE svg PUBLIC "-//W3C//DTD SVG 1.1//EN" "http://www.w3.org/Graphics/SVG/1.1/DTD/svg11.dtd">
<svg width="560pt" height="360pt" viewBox="0 0 560 360" version="1.1" xmlns="http://www.w3.org/2000/svg">
<g id="#ffffffff">
<path fill="#ffffff" opacity="1.00" d=" M 84.46 2.25 C 85.75 2.92 87.01 3.66 87.93 4.82 C 87.91 6.21 88.17 7.55 88.69 8.83 C 87.83 15.42 86.96 22.05 85.22 28.47 C 82.33 42.33 79.37 56.29 74.41 69.59 C 72.06 75.00 69.23 80.19 66.73 85.53 C 66.24 86.47 65.75 87.41 65.26 88.35 C 62.31 94.04 59.70 99.94 56.24 105.35 C 55.01 107.76 53.83 110.20 52.24 112.40 C 51.02 114.79 49.84 117.22 48.25 119.40 C 47.03 121.79 45.85 124.22 44.25 126.38 C 43.53 127.78 42.80 129.18 42.09 130.58 C 54.17 127.26 66.90 129.37 78.89 132.10 C 84.75 133.62 90.71 134.80 96.44 136.76 C 102.50 138.18 108.48 139.92 114.42 141.75 C 125.11 144.40 135.74 147.23 146.46 149.77 C 147.82 150.02 149.19 150.25 150.49 150.77 C 152.16 151.01 153.84 151.23 155.45 151.77 C 164.12 153.44 172.80 155.16 181.46 156.83 C 183.49 156.99 185.57 157.07 187.50 157.84 C 191.10 157.85 194.50 159.20 198.11 159.18 C 201.49 160.44 205.24 159.45 208.55 160.90 C 210.96 161.04 213.43 160.83 215.81 161.38 C 219.94 162.62 224.41 161.39 228.51 162.90 C 236.38 162.83 244.18 164.01 252.03 164.12 C 265.66 164.53 279.26 165.47 292.91 164.88 C 300.97 163.93 309.16 164.70 317.22 163.57 C 321.30 163.22 325.39 162.99 329.49 162.90 C 332.05 161.94 334.81 162.01 337.50 161.88 C 339.74 160.99 342.16 161.00 344.52 160.86 C 348.45 159.82 352.54 159.64 356.53 158.79 C 358.15 158.26 359.85 158.01 361.55 157.77 C 363.16 157.23 364.84 157.01 366.52 156.78 C 369.82 155.72 373.27 155.28 376.63 154.46 C 384.30 152.70 391.75 149.99 399.55 148.80 C 403.84 147.33 408.15 145.85 412.56 144.75 C 414.17 143.94 415.85 143.26 417.58 142.72 C 423.28 140.46 428.85 137.92 434.59 135.74 C 435.08 135.48 436.08 134.96 436.58 134.70 C 438.30 133.78 440.07 132.96 441.99 132.51 C 440.89 135.31 437.75 135.90 435.40 137.27 C 434.46 137.75 433.52 138.23 432.58 138.70 C 427.05 142.01 421.19 144.71 415.49 147.71 C 410.76 149.84 406.31 152.61 401.39 154.27 C 391.44 158.87 380.94 162.25 370.41 165.24 C 369.41 165.60 368.41 165.93 367.41 166.25 C 365.78 166.68 364.13 166.96 362.48 167.23 C 361.17 167.72 359.80 167.97 358.45 168.25 C 354.83 169.05 351.20 169.92 347.49 170.18 C 345.59 171.01 343.50 171.01 341.48 171.16 C 339.24 172.02 336.83 172.00 334.48 172.14 C 310.90 175.87 286.87 176.08 263.02 175.50 C 256.68 174.58 250.24 175.06 243.91 174.13 C 234.52 173.83 225.25 172.35 215.90 171.78 C 215.29 171.61 214.08 171.27 213.47 171.11 C 211.18 170.96 208.83 171.18 206.59 170.53 C 203.63 169.59 200.39 170.40 197.50 169.14 C 195.47 168.95 193.30 169.18 191.47 168.13 C 189.12 168.00 186.72 168.08 184.51 167.16 C 182.49 167.02 180.43 166.94 178.52 166.19 C 176.81 165.98 175.04 165.99 173.47 165.18 C 168.10 164.67 162.85 163.29 157.57 162.21 C 153.24 161.20 148.83 160.48 144.55 159.24 C 143.20 158.97 141.84 158.70 140.54 158.26 C 133.86 156.70 127.20 155.00 120.58 153.23 C 118.20 152.71 115.85 152.06 113.57 151.24 C 108.86 150.07 104.18 148.76 99.58 147.25 C 88.89 144.65 78.40 141.12 67.52 139.41 C 59.90 137.98 52.02 137.11 44.43 139.17 C 41.23 140.57 37.84 141.75 35.26 144.20 C 31.76 147.09 30.85 152.56 26.02 153.83 C 25.37 153.48 24.09 152.76 23.44 152.41 C 24.39 158.23 23.56 164.16 24.49 169.98 C 24.83 182.36 25.20 194.75 24.96 207.14 C 24.71 209.50 23.25 211.45 21.49 212.94 C 15.87 209.64 17.32 202.55 16.40 197.12 C 16.20 184.38 15.93 171.64 15.96 158.90 C 14.63 152.17 15.13 145.31 14.91 138.50 C 13.24 133.00 14.37 127.17 13.91 121.53 C 12.04 116.02 13.64 110.08 12.76 104.44 C 11.36 99.23 12.32 93.80 11.91 88.50 C 10.08 82.99 11.61 77.10 10.76 71.47 C 9.30 66.44 10.40 61.15 9.88 56.01 C 8.35 50.63 9.30 45.00 8.91 39.50 C 7.16 34.36 8.42 28.81 7.91 23.50 C 6.67 19.03 6.19 13.80 8.76 9.70 C 9.47 8.37 10.29 6.71 12.08 6.85 C 13.13 9.16 14.22 11.48 14.92 13.92 C 15.20 16.78 14.71 19.68 15.24 22.52 C 16.80 27.73 15.43 33.24 16.24 38.53 C 18.01 44.30 16.02 50.47 17.65 56.25 C 18.69 61.49 17.17 66.95 18.62 72.13 C 19.71 77.41 18.18 82.91 19.60 88.14 C 20.46 92.88 19.73 97.72 20.09 102.49 C 22.16 108.52 19.96 115.06 21.61 121.15 C 22.69 126.41 21.21 131.89 22.57 137.12 C 23.06 139.39 22.98 141.72 23.11 144.04 C 25.31 141.09 26.61 137.61 28.76 134.63 C 29.99 132.24 31.21 129.84 32.74 127.63 C 33.65 125.90 34.59 124.18 35.75 122.60 C 36.98 120.21 38.17 117.78 39.76 115.60 C 41.36 112.58 42.80 109.46 44.76 106.65 C 46.00 104.25 47.17 101.81 48.75 99.61 C 51.09 95.28 53.07 90.75 55.74 86.61 C 56.40 85.29 57.06 83.97 57.75 82.66 C 58.25 81.60 58.78 80.55 59.28 79.50 C 59.53 79.00 60.05 78.02 60.30 77.53 C 61.88 73.45 63.91 69.57 65.79 65.63 C 67.09 61.60 68.62 57.64 69.57 53.50 C 73.25 38.62 77.31 23.78 79.42 8.58 C 80.00 5.75 81.66 3.26 84.46 2.25 Z" />
<path fill="#ffffff" opacity="1.00" d=" M 205.44 9.22 C 206.09 8.07 206.82 6.98 207.64 5.95 C 208.56 5.96 210.40 5.98 211.32 5.99 C 213.08 7.46 214.79 9.13 215.43 11.41 C 220.76 26.50 222.79 42.46 225.51 58.16 C 226.08 60.49 225.40 63.25 227.08 65.18 C 238.50 58.99 251.46 55.73 264.46 56.05 C 263.95 57.45 262.74 58.00 261.38 58.25 C 260.39 58.95 259.40 59.64 258.35 60.27 C 255.35 62.25 252.38 64.28 249.40 66.29 C 242.54 70.52 235.05 73.66 227.86 77.28 C 228.55 81.11 229.06 84.98 229.12 88.88 C 230.03 91.67 230.06 94.59 230.10 97.50 C 231.28 100.33 230.94 103.44 231.09 106.42 C 232.42 108.94 231.74 111.86 232.22 114.55 C 232.81 117.87 233.21 121.25 232.97 124.62 C 231.42 126.99 228.37 125.83 227.43 123.62 C 226.21 120.00 225.13 116.31 224.81 112.49 C 224.03 110.58 224.03 108.50 223.83 106.48 C 222.91 104.26 223.01 101.84 222.87 99.49 C 221.88 97.28 222.01 94.84 221.88 92.48 C 220.98 90.25 220.98 87.84 220.88 85.48 C 220.43 84.15 220.02 82.81 219.66 81.45 C 215.93 83.44 212.15 85.32 208.39 87.25 C 205.03 89.56 201.25 91.17 197.49 92.70 C 195.24 93.82 192.92 94.83 190.42 95.26 C 189.52 95.52 188.61 95.77 187.70 96.00 C 185.93 95.19 184.79 93.74 184.01 92.00 C 186.45 88.05 190.75 85.99 194.62 83.74 C 197.22 81.98 199.99 80.50 202.59 78.74 C 204.18 77.62 205.89 76.65 207.61 75.73 C 209.20 74.60 210.90 73.65 212.63 72.74 C 214.35 71.54 216.20 70.56 218.09 69.66 C 215.81 56.13 213.62 42.56 210.90 29.10 C 209.66 22.31 207.03 15.91 205.44 9.22 Z" />
<path fill="#ffffff" opacity="1.00" d=" M 157.12 14.00 C 156.13 11.02 159.32 8.53 162.09 8.79 C 163.75 10.19 165.24 11.83 165.74 14.01 C 170.55 29.47 173.02 45.54 175.17 61.54 C 176.19 65.83 176.12 70.30 177.25 74.59 C 178.37 73.96 179.49 73.33 180.61 72.71 C 182.13 71.68 183.85 71.00 185.52 70.26 C 190.67 67.82 196.30 65.77 202.08 66.01 C 204.80 65.99 207.18 67.60 209.10 69.38 C 207.38 71.23 205.63 73.11 203.41 74.35 C 200.71 76.32 197.54 77.45 194.47 78.69 C 190.04 80.77 185.69 83.00 181.33 85.21 C 180.52 85.81 179.71 86.40 178.91 86.99 C 178.59 92.23 180.42 97.24 180.11 102.49 C 181.43 106.16 180.74 110.12 181.13 113.92 C 182.30 119.23 182.00 124.73 181.93 130.14 C 182.15 132.14 180.83 133.62 179.60 135.00 C 178.25 135.01 176.91 135.03 175.57 135.07 C 172.50 132.22 173.20 127.80 172.36 124.09 C 171.53 120.18 172.84 115.96 171.25 112.25 C 171.48 105.52 169.74 99.01 169.90 92.29 C 168.35 92.82 166.85 93.49 165.38 94.20 C 162.63 96.29 159.41 97.62 156.39 99.25 C 154.23 100.91 151.64 101.77 149.21 102.91 C 147.65 102.97 146.08 103.09 144.53 102.92 C 143.54 102.05 142.66 101.07 141.76 100.12 C 142.10 96.69 144.81 94.30 147.64 92.70 C 150.25 90.97 152.85 89.20 155.62 87.74 C 159.64 84.86 164.04 82.58 168.16 79.85 C 167.89 76.37 166.75 73.03 166.86 69.51 C 165.98 67.27 166.03 64.84 165.85 62.48 C 165.05 60.24 165.03 57.84 164.84 55.49 C 162.78 41.60 160.29 27.71 157.12 14.00 Z" />
<path fill="#ffffff" opacity="1.00" d=" M 372.66 52.38 C 379.66 51.48 386.93 54.99 389.83 61.56 C 391.53 66.06 390.34 70.70 389.82 75.27 C 387.83 77.85 389.71 80.97 390.63 83.55 C 391.66 86.26 393.63 88.40 395.29 90.71 C 397.60 92.47 399.93 94.20 402.37 95.79 C 406.05 97.23 409.76 98.59 413.51 99.85 C 419.28 99.24 424.45 104.54 430.10 102.36 C 430.04 103.05 430.00 103.75 429.96 104.45 C 423.58 109.14 415.10 108.54 407.77 106.95 C 404.20 106.35 400.84 104.92 397.63 103.30 C 391.17 100.41 386.26 95.20 382.42 89.39 C 382.03 91.15 381.48 92.86 380.74 94.49 C 379.72 96.86 378.83 99.32 377.28 101.41 C 373.82 108.98 365.26 116.65 356.48 112.84 C 353.72 111.50 351.52 109.31 350.17 106.56 C 349.42 104.76 348.94 102.88 348.84 100.93 C 348.60 100.74 348.11 100.37 347.86 100.18 C 342.50 107.34 335.61 113.12 328.36 118.29 C 326.40 119.66 324.41 120.99 322.39 122.27 C 319.56 124.25 316.43 125.72 313.36 127.28 C 304.31 131.95 293.79 135.89 283.56 133.27 C 276.36 131.91 269.88 127.03 266.70 120.41 C 263.85 115.68 262.80 109.98 262.90 104.50 C 261.86 101.92 261.88 99.10 262.89 96.52 C 262.99 93.85 262.94 91.14 263.76 88.57 C 264.52 85.19 265.18 81.73 266.71 78.59 C 269.71 70.63 275.38 62.40 284.07 60.19 C 287.23 59.69 290.56 59.82 293.51 61.18 C 298.70 63.67 302.38 69.24 302.04 75.06 C 302.20 78.69 300.77 82.12 299.30 85.36 C 298.39 87.08 297.44 88.78 296.32 90.37 C 290.27 98.07 282.90 105.76 272.97 108.02 C 274.14 110.85 274.68 113.94 276.23 116.62 C 277.65 118.59 279.47 120.23 281.28 121.84 C 282.71 122.49 284.12 123.16 285.50 123.93 C 290.56 124.30 295.70 124.35 300.59 122.79 C 305.74 120.74 310.78 118.45 315.63 115.76 C 320.84 112.72 325.65 109.10 330.65 105.75 C 332.44 104.13 334.47 102.81 336.64 101.75 C 340.76 99.17 344.71 96.33 347.96 92.69 C 348.28 88.62 348.85 84.55 349.73 80.57 C 350.79 75.58 352.83 70.79 355.71 66.58 C 358.29 62.37 361.43 58.39 365.61 55.67 C 367.72 54.10 370.19 53.21 372.66 52.38 M 372.31 64.11 C 368.81 67.07 365.70 70.47 363.21 74.33 C 360.77 78.43 359.25 82.92 358.10 87.52 C 357.90 92.20 357.74 96.88 358.04 101.56 C 358.34 102.15 358.94 103.33 359.24 103.91 C 360.62 104.36 362.09 105.71 363.48 104.47 C 370.80 100.40 373.69 91.84 376.80 84.57 C 377.32 81.17 379.03 77.88 378.74 74.40 C 378.87 73.42 379.00 72.44 379.12 71.45 C 379.72 70.93 380.91 69.90 381.51 69.38 C 381.18 67.27 381.43 64.50 378.90 63.72 C 376.86 62.12 374.43 63.58 372.31 64.11 M 285.84 70.76 C 279.81 73.31 277.93 80.06 275.19 85.39 C 274.92 86.74 274.62 88.09 274.23 89.42 C 273.26 92.75 272.77 96.16 272.86 99.64 C 281.11 95.22 287.82 87.90 291.94 79.53 C 292.09 77.16 292.32 74.76 291.95 72.39 C 290.48 70.71 287.94 69.07 285.84 70.76 Z" />
<path fill="#ffffff" opacity="1.00" d=" M 125.20 76.50 C 124.73 73.19 125.98 69.86 128.75 67.92 C 131.73 67.80 134.88 67.78 136.87 70.39 C 136.96 72.05 136.97 73.75 136.45 75.36 C 134.93 78.38 132.08 80.64 128.52 79.85 C 127.40 78.75 126.29 77.63 125.20 76.50 Z" />
<path fill="#ffffff" opacity="1.00" d=" M 132.09 93.52 C 133.13 92.14 134.58 90.59 136.50 91.00 C 140.15 93.62 140.08 98.45 140.10 102.48 C 141.27 106.39 141.39 110.54 142.17 114.56 C 142.91 117.87 143.78 121.16 144.23 124.53 C 145.04 129.54 148.08 136.00 143.55 140.09 C 141.72 139.87 139.44 140.54 138.23 138.72 C 136.16 135.80 136.04 131.96 135.86 128.50 C 134.95 126.27 135.00 123.84 134.87 121.49 C 133.61 118.39 134.41 114.95 133.32 111.81 C 132.90 105.70 131.32 99.71 132.09 93.52 Z" />
<path fill="#ffffff" opacity="1.00" d=" M 464.39 175.16 C 468.60 172.83 473.88 174.46 476.98 177.85 C 478.70 179.92 480.08 182.25 481.30 184.64 C 484.16 189.04 482.20 194.37 483.58 199.14 C 484.43 205.04 483.89 211.04 483.82 216.98 C 489.19 208.78 495.34 201.14 501.37 193.42 C 502.77 191.52 504.69 190.13 506.76 189.03 C 508.99 188.82 510.72 190.01 512.08 191.66 C 512.01 193.22 511.98 194.79 511.92 196.36 C 510.72 198.38 509.65 200.48 508.28 202.40 C 507.63 203.40 506.96 204.39 506.26 205.36 C 504.70 207.75 503.07 210.11 501.28 212.33 C 496.22 219.74 490.22 226.70 482.41 231.29 C 480.10 232.80 477.67 234.18 475.02 234.99 C 476.04 231.49 478.99 228.65 480.07 225.03 C 479.14 224.45 478.19 223.91 477.23 223.42 C 477.11 222.93 476.88 221.94 476.76 221.44 C 475.23 213.61 476.44 205.45 475.91 197.50 C 475.14 195.22 475.04 192.80 474.91 190.42 C 473.32 187.44 471.87 183.85 468.43 182.62 C 467.14 184.42 466.11 186.38 465.15 188.36 C 461.87 200.15 462.75 212.42 463.08 224.49 C 464.12 227.03 463.99 229.81 464.11 232.50 C 465.10 234.72 465.00 237.18 465.12 239.56 C 469.79 238.66 474.17 236.57 478.92 236.06 C 481.63 235.91 484.35 236.02 487.07 235.99 C 484.00 240.88 479.82 245.13 474.36 247.28 C 472.21 248.35 470.03 249.37 467.83 250.33 C 468.88 254.44 470.25 258.46 471.25 262.58 C 471.62 263.57 471.97 264.57 472.28 265.59 C 472.63 266.58 472.95 267.57 473.25 268.59 C 474.46 271.27 475.58 274.03 476.15 276.93 C 477.03 277.52 477.92 278.07 478.85 278.59 C 479.34 279.91 479.87 281.23 480.27 282.60 C 481.13 284.56 482.53 286.63 481.79 288.87 C 481.40 290.77 479.01 291.35 477.42 290.63 C 475.43 289.33 473.91 287.43 472.71 285.41 C 471.05 282.91 469.71 280.21 468.74 277.38 C 467.96 275.77 467.26 274.11 466.72 272.41 C 464.26 266.27 461.86 259.98 460.72 253.44 C 454.30 254.10 446.60 260.14 441.00 254.40 C 440.99 253.47 440.98 251.61 440.97 250.68 C 442.69 248.68 445.01 247.31 447.59 246.72 C 449.21 245.96 450.88 245.29 452.59 244.74 C 454.39 243.89 456.25 243.21 458.17 242.68 C 457.30 240.37 456.88 237.94 456.85 235.48 C 456.42 234.19 456.06 232.89 455.76 231.58 C 453.66 234.34 450.83 236.48 447.40 237.28 C 445.78 238.05 444.12 238.74 442.40 239.26 C 440.92 239.95 439.43 240.62 437.93 241.27 C 437.98 241.83 438.08 242.96 438.13 243.52 C 439.11 247.12 439.80 250.81 440.20 254.52 C 443.25 266.73 445.38 279.18 447.51 291.58 C 448.17 294.43 447.98 297.38 447.98 300.29 C 446.49 302.38 443.37 303.98 441.25 301.77 C 438.28 298.34 438.43 293.40 437.44 289.21 C 436.59 284.30 435.32 279.46 434.80 274.50 C 434.08 272.93 434.01 271.19 433.79 269.52 C 433.28 268.20 433.03 266.80 432.77 265.43 C 431.47 258.59 429.62 251.81 428.94 244.88 C 427.15 245.81 425.29 246.62 423.37 247.24 C 418.71 249.41 413.96 251.46 409.04 252.93 C 406.51 253.72 404.50 252.26 402.89 250.50 C 401.91 245.49 407.01 243.45 410.65 241.75 C 415.87 239.12 421.15 236.61 426.41 234.04 C 426.09 230.49 425.05 227.05 424.80 223.50 C 423.80 219.89 423.23 216.17 422.81 212.46 C 421.58 206.40 420.99 200.21 420.10 194.08 C 420.41 189.69 418.21 184.90 420.80 180.88 C 422.02 178.97 424.67 178.42 426.63 179.50 C 429.00 181.43 429.07 184.71 429.15 187.53 C 430.48 191.55 429.50 195.90 430.75 199.95 C 430.81 203.87 431.88 207.64 432.18 211.53 C 433.52 217.71 434.32 224.02 435.73 230.18 C 440.28 228.20 445.10 226.90 450.03 226.30 C 452.20 226.38 454.22 227.41 456.18 228.30 C 455.71 226.95 455.07 225.62 455.04 224.17 C 454.82 217.11 455.40 210.02 454.46 203.01 C 455.29 195.11 455.00 186.43 459.66 179.58 C 460.78 177.67 462.50 176.28 464.39 175.16 Z" />
<path fill="#ffffff" opacity="1.00" d=" M 266.52 199.73 C 273.82 198.25 281.97 196.44 288.96 200.13 C 295.79 204.32 302.05 209.75 306.18 216.70 C 307.14 218.47 308.35 220.48 307.56 222.57 C 306.66 223.62 305.38 224.24 304.32 225.10 C 303.05 224.33 301.46 223.91 300.61 222.62 C 296.16 216.49 290.11 211.74 283.56 208.02 C 276.34 207.46 269.15 208.65 262.39 211.22 C 260.77 211.99 259.12 212.67 257.42 213.24 C 244.29 220.16 233.18 230.27 223.22 241.15 C 219.81 244.53 217.25 248.62 214.25 252.34 C 213.62 253.37 212.95 254.37 212.27 255.36 C 211.62 256.39 210.95 257.39 210.24 258.38 C 208.52 261.69 206.87 265.04 205.22 268.38 C 203.23 273.26 202.41 278.47 201.09 283.53 C 200.97 285.84 200.97 288.17 201.09 290.49 C 202.09 293.47 202.00 296.68 203.21 299.61 C 204.01 301.21 204.70 302.88 205.23 304.60 C 209.66 312.04 215.80 318.71 223.67 322.53 C 229.81 326.04 236.66 327.99 243.45 329.80 C 248.07 331.02 252.89 330.75 257.50 331.90 C 271.34 332.65 285.11 330.84 298.60 327.81 C 301.28 327.17 304.00 326.70 306.62 325.81 C 309.98 324.91 313.29 323.84 316.59 322.75 C 318.21 321.96 319.89 321.29 321.62 320.75 C 324.18 319.46 326.83 318.35 329.50 317.31 C 330.55 316.78 331.59 316.24 332.66 315.73 C 333.14 315.48 334.10 314.99 334.58 314.74 C 337.80 312.53 341.44 311.01 344.63 308.75 C 347.19 306.91 349.86 305.21 352.69 303.82 C 356.55 300.56 360.10 296.84 362.55 292.40 C 363.83 290.12 364.09 287.33 365.98 285.39 C 366.36 290.29 364.37 295.01 362.26 299.33 C 358.35 308.76 349.87 315.14 341.41 320.27 C 338.94 322.04 336.16 323.30 333.48 324.71 C 330.14 326.28 326.90 328.10 323.40 329.27 C 321.78 330.05 320.12 330.73 318.41 331.26 C 303.09 336.98 286.81 340.68 270.45 341.22 C 267.09 341.89 263.61 341.94 260.21 341.53 C 256.05 340.50 251.66 341.54 247.56 340.18 C 243.57 339.91 239.70 338.87 235.90 337.71 C 229.58 335.91 223.14 333.94 217.63 330.27 C 207.48 324.54 198.63 315.54 194.70 304.41 C 191.96 299.00 191.98 292.87 191.15 287.01 C 191.81 279.33 193.08 271.61 196.27 264.50 C 197.84 260.76 199.40 256.97 201.73 253.61 C 211.72 236.85 225.71 222.67 241.49 211.28 C 244.92 208.63 248.78 206.64 252.64 204.73 C 257.02 202.46 261.70 200.74 266.52 199.73 Z" />
<path fill="#ffffff" opacity="1.00" d=" M 126.87 231.62 C 127.61 228.71 128.71 224.97 132.43 225.14 C 134.10 226.65 135.86 228.27 136.28 230.61 C 140.57 240.47 144.57 250.49 148.25 260.60 C 150.87 265.80 152.25 271.65 150.78 277.40 C 146.72 275.87 143.84 272.51 142.26 268.56 C 139.00 261.69 136.29 254.56 133.75 247.40 C 132.52 244.83 131.61 242.12 130.73 239.41 C 130.45 238.65 129.88 237.13 129.59 236.37 L 128.77 236.99 C 128.69 235.74 128.74 234.48 128.45 233.26 C 128.30 234.80 128.30 236.35 128.32 237.89 C 127.35 243.55 124.14 248.52 121.27 253.38 C 117.73 259.31 113.53 264.96 108.60 269.81 C 106.95 271.71 104.26 270.87 102.77 269.24 C 102.93 267.45 103.55 265.76 104.56 264.28 C 108.88 257.88 112.90 251.29 116.73 244.60 C 119.42 239.80 122.14 234.70 126.87 231.62 Z" />
<path fill="#ffffff" opacity="1.00" d=" M 498.66 233.61 C 501.18 229.11 505.45 224.47 511.07 224.96 C 515.54 224.60 518.95 228.77 520.52 232.51 C 521.98 240.62 520.95 249.28 516.75 256.49 C 513.77 262.11 509.24 268.67 502.26 269.00 C 503.42 272.23 506.58 273.60 509.44 274.97 C 512.89 275.12 516.40 275.21 519.63 273.80 C 520.96 273.11 522.31 272.44 523.67 271.79 C 535.49 264.12 542.45 251.56 550.84 240.65 C 551.61 238.61 551.65 236.10 553.40 234.57 C 557.22 243.57 553.82 253.69 548.28 261.15 C 542.80 268.56 536.65 275.86 528.41 280.30 C 527.16 281.13 525.81 281.79 524.41 282.32 C 517.58 285.56 509.39 286.12 502.48 282.79 C 498.66 281.09 495.32 278.32 493.69 274.38 C 491.91 271.45 492.07 268.00 491.42 264.75 C 491.04 262.67 491.25 260.51 491.88 258.50 C 491.92 251.30 493.80 244.17 496.71 237.61 C 497.23 236.22 497.87 234.87 498.66 233.61 M 507.19 239.32 C 506.15 241.65 505.29 244.06 504.24 246.39 C 503.94 247.43 503.60 248.45 503.22 249.47 C 502.98 251.18 502.76 252.92 502.07 254.53 C 502.01 256.20 502.00 257.87 502.05 259.55 C 502.58 259.26 503.65 258.67 504.18 258.38 C 509.35 251.91 512.62 243.46 510.80 235.11 C 509.25 236.20 508.33 237.86 507.19 239.32 Z" />
<path fill="#ffffff" opacity="1.00" d=" M 15.25 255.67 C 16.04 253.63 18.58 252.30 20.57 253.53 C 28.68 258.59 37.01 263.39 44.57 269.28 C 46.69 270.96 47.91 273.44 49.76 275.37 C 50.04 275.78 50.59 276.61 50.87 277.03 C 46.16 277.43 41.37 276.16 37.61 273.28 C 32.57 270.37 27.77 267.05 22.99 263.74 C 23.15 273.52 22.75 283.28 22.68 293.05 C 22.59 295.55 22.17 298.24 20.37 300.13 C 18.43 299.79 15.84 300.56 14.50 298.69 C 13.57 296.02 14.00 293.08 14.91 290.48 C 15.36 280.33 14.24 270.07 16.01 260.01 C 15.94 258.53 15.25 257.15 15.25 255.67 Z" />
<path fill="#ffffff" opacity="1.00" d=" M 388.47 256.17 C 394.12 253.32 402.41 254.42 405.29 260.64 C 406.90 261.51 408.01 262.94 408.85 264.54 C 408.97 266.95 409.73 269.24 410.22 271.58 C 412.81 277.94 415.35 284.72 420.67 289.35 C 422.54 291.23 425.30 291.62 427.49 293.03 C 431.07 293.69 433.61 290.83 436.56 289.38 C 436.17 291.70 434.48 293.40 432.40 294.34 C 431.09 295.22 429.73 296.03 428.37 296.84 C 423.19 297.51 417.71 296.59 413.55 293.28 C 410.02 291.12 407.90 287.48 405.39 284.33 C 404.46 288.94 402.40 293.20 400.27 297.36 C 397.71 302.69 394.57 308.16 389.41 311.34 C 386.47 313.82 382.43 312.92 378.92 312.93 C 374.47 312.11 371.44 307.98 370.28 303.83 C 367.76 294.36 370.36 284.39 373.58 275.41 C 376.88 267.99 380.95 260.05 388.47 256.17 M 393.37 265.99 C 388.31 269.86 385.82 275.77 383.19 281.36 C 381.06 287.63 379.98 294.33 380.74 300.94 C 380.89 302.34 382.18 303.51 383.61 302.97 C 386.72 300.89 388.72 297.68 390.77 294.64 C 391.75 292.63 392.76 290.63 393.76 288.63 C 394.31 286.90 394.99 285.23 395.78 283.60 C 397.07 279.80 397.91 275.87 398.91 271.98 C 398.57 269.86 397.44 267.94 396.72 265.93 C 395.60 265.94 394.48 265.96 393.37 265.99 Z" />
<path fill="#ffffff" opacity="1.00" d=" M 151.54 283.84 C 155.77 282.26 160.76 282.95 164.00 286.23 C 164.00 287.54 164.02 288.85 164.04 290.17 C 161.25 287.20 157.07 289.54 153.56 289.12 C 152.30 289.82 150.86 289.98 149.47 290.24 C 148.46 290.61 147.43 290.95 146.39 291.25 C 144.76 292.02 143.09 292.69 141.36 293.22 C 137.59 294.86 134.15 297.16 130.31 298.63 C 134.99 298.25 139.30 295.70 144.09 295.93 C 149.73 294.74 155.82 294.38 161.46 295.70 C 164.73 296.00 166.97 299.09 167.30 302.20 C 166.73 302.18 165.58 302.13 165.01 302.11 C 165.01 301.57 165.00 300.50 164.99 299.96 C 163.49 299.99 161.99 300.02 160.50 300.10 C 156.30 301.43 151.85 300.83 147.53 301.08 C 144.92 302.42 141.93 301.81 139.14 302.12 C 143.95 304.45 149.72 303.78 154.38 306.68 C 158.06 308.37 161.20 311.15 163.32 314.60 C 164.95 317.14 166.51 319.79 167.43 322.69 C 165.00 321.98 163.50 319.88 161.74 318.23 C 160.64 317.76 159.56 317.24 158.46 316.75 C 157.15 316.03 155.82 315.35 154.49 314.67 C 150.78 313.09 146.88 312.00 142.95 311.11 C 138.63 310.82 134.29 311.09 129.96 310.98 C 124.95 310.70 119.40 313.44 114.97 309.87 C 114.97 309.25 114.98 307.99 114.98 307.36 C 113.65 306.08 112.81 304.45 112.06 302.79 C 113.60 301.04 115.54 299.76 117.62 298.73 C 119.21 297.60 120.91 296.65 122.62 295.74 C 125.46 293.80 128.58 292.35 131.61 290.75 C 133.43 289.41 135.48 288.45 137.61 287.73 C 142.03 285.80 146.65 283.91 151.54 283.84 Z" />
<path fill="#ffffff" opacity="1.00" d=" M 97.16 296.02 C 94.76 292.98 96.30 288.41 99.78 287.00 C 100.65 286.99 102.39 286.98 103.26 286.98 C 104.76 287.92 106.05 289.10 106.96 290.63 C 107.32 293.51 106.69 296.34 104.19 298.06 C 101.82 297.80 98.37 298.78 97.16 296.02 Z" />
<path fill="#ffffff" opacity="1.00" d=" M 60.52 292.35 C 61.01 292.35 61.98 292.34 62.47 292.33 C 64.62 293.05 66.01 294.73 66.98 296.72 C 67.60 300.16 65.27 302.72 62.28 303.94 C 59.58 304.22 57.71 302.33 56.08 300.47 C 56.21 298.42 55.51 295.82 57.36 294.34 C 58.25 293.44 59.44 292.96 60.52 292.35 Z" />
<path fill="#ffffff" opacity="1.00" d=" M 82.54 305.06 C 83.20 305.04 84.51 305.00 85.17 304.98 C 88.45 308.29 93.56 309.52 95.95 313.69 C 95.72 315.52 94.64 316.94 93.25 318.08 C 92.51 318.05 91.05 317.99 90.32 317.96 C 90.52 318.42 90.91 319.35 91.11 319.81 C 92.24 320.15 93.37 320.53 94.49 320.95 C 95.49 320.95 96.49 320.94 97.49 320.93 C 98.85 320.49 100.23 320.16 101.62 319.86 C 103.40 318.47 105.94 317.55 106.30 315.02 C 106.99 312.73 109.69 310.16 112.12 311.78 C 114.29 312.76 113.96 315.37 114.04 317.33 C 109.96 324.72 100.90 329.25 92.58 327.19 C 90.70 326.89 88.62 325.01 87.08 327.07 C 82.08 331.66 74.46 331.97 68.31 329.82 C 68.06 329.25 67.57 328.12 67.32 327.55 C 67.05 327.05 66.52 326.05 66.25 325.55 C 65.73 324.36 65.18 323.18 64.70 321.98 C 65.37 322.00 66.71 322.02 67.38 322.03 C 68.59 323.16 69.94 324.12 71.34 325.01 C 73.09 325.00 74.83 324.99 76.58 324.98 C 79.45 324.04 82.30 322.85 84.18 320.35 C 81.59 321.21 78.52 321.36 77.24 318.47 C 76.72 314.38 80.11 311.23 81.29 307.54 C 81.60 306.92 82.23 305.68 82.54 305.06 Z" />
<path fill="#ffffff" opacity="1.00" d=" M 20.45 310.42 C 21.82 310.22 23.18 309.98 24.54 309.72 C 31.51 308.80 38.59 308.99 45.57 309.76 C 49.22 310.06 52.89 310.05 56.50 310.71 C 57.48 310.86 58.46 311.00 59.43 311.14 C 59.86 311.79 60.71 313.09 61.14 313.73 C 60.88 314.64 60.60 315.54 60.28 316.43 C 60.68 317.65 60.99 318.89 61.28 320.14 C 60.09 321.28 58.87 322.38 57.63 323.46 C 55.86 323.97 54.13 324.62 52.39 325.21 C 48.21 327.48 43.80 329.30 39.57 331.48 C 32.29 334.90 27.34 341.52 22.89 347.96 C 21.85 350.04 21.30 352.32 20.40 354.46 C 17.85 352.21 19.98 348.34 19.69 345.37 C 20.52 336.93 26.29 329.59 33.70 325.77 C 34.37 325.16 35.69 323.94 36.35 323.33 C 34.36 323.90 32.44 324.68 30.55 325.52 C 29.51 325.70 28.47 325.90 27.43 326.12 C 22.93 329.15 17.45 329.78 12.64 332.10 C 12.74 333.55 12.76 335.01 12.71 336.47 C 11.60 335.75 10.91 334.60 10.14 333.56 C 9.51 328.92 13.67 326.14 17.06 323.96 C 20.77 322.33 24.31 319.97 28.49 319.82 C 30.67 318.35 33.24 317.99 35.72 317.33 C 37.56 317.13 39.41 317.00 41.24 316.72 C 36.55 315.23 31.40 316.08 26.55 316.26 C 22.39 316.88 18.11 317.36 14.26 319.19 C 12.92 319.84 11.40 319.88 9.96 320.15 C 9.78 320.97 9.43 322.61 9.25 323.43 C 8.46 322.61 7.70 321.78 6.94 320.95 C 6.97 320.38 7.03 319.23 7.06 318.65 C 8.97 314.56 13.24 312.40 17.53 311.78 C 18.49 311.30 19.46 310.84 20.45 310.42 Z" />
</g>
</svg>
