<svg xmlns="http://www.w3.org/2000/svg" viewBox="0 0 18.392 15.605" height="58.98" width="69.514"><path d="M2.69 2.932l-.091-.099c.59 2.053.863 5.81.688 7.242.682 0 1.553-.386 2.417-.705 1.25-.462 2.477-.772 3.076.387-.455-1.356-1.773-1.068-3.076-.705-.727.205-1.447.44-2.007.417.128-2.28-.44-4.651-1.008-6.537m6.44-.811c.43 0 .78-.477.78-1.06C9.908.476 9.558 0 9.128 0c-.433 0-.781.477-.781 1.06 0 .584.348 1.06.78 1.06M5.704 9.932c-1.045.288-2.098.636-2.757.576.121-2.28-.03-4.932-.599-6.818l-.083-.114c.583 2.053.424 6.068.243 7.5.818-.015 2.03-.508 3.196-.886 1.432-.463 2.795-.758 3.258.196-.364-1.12-1.803-.848-3.258-.454m6.886-7.227c.25-.023.523-.03.818-.007.94.098 1.765.023 2.44-.417-1.289.19-2.054.197-3.258-.182-.099-.03-.205-.06-.303-.098-1.5-.493-2.258-.493-3.136 1.265a.171.171 0 00-.023-.038C8.25 1.507 7.492 1.515 6.015 2c-.106.038-.213.068-.311.098-1.197.38-1.97.371-3.25.182.675.44 1.493.515 2.44.417a4.77 4.77 0 01.81.007c3.712.402 2.826 5.712 3.424 7.947.007.03.015.053.015.075v.015l.008-.007v-.008c.629-2.189-.31-7.613 3.439-8.021m3.447.87l-.091.114c-.568 1.887-.72 4.538-.599 6.818-.659.06-1.712-.288-2.757-.576-1.455-.394-2.886-.666-3.257.455.462-.955 1.825-.66 3.257-.197 1.167.378 2.378.87 3.197.886-.175-1.432-.341-5.447.25-7.5m-.432-.643c-.568 1.886-1.129 4.257-1.008 6.537-.56.023-1.28-.212-2.007-.417-1.303-.363-2.621-.65-3.076.705.599-1.159 1.826-.848 3.076-.386.863.318 1.742.704 2.416.704-.174-1.432.106-5.189.69-7.242z" fill="#6c276a"/><path d="M17.294 13.128h.007c.023.03.205.235.387.409.167.166.371.378.477.477.015.023.038.038.053.038s.023-.015.023-.053l.015-1.023c.007-.09.015-.121.06-.136.023-.008.031-.008.054-.008.015 0 .022 0 .022-.015 0-.007-.015-.015-.03-.015-.083 0-.144.007-.159.007-.038 0-.114-.007-.197-.007-.03 0-.045.007-.045.015 0 .015.007.015.022.015.023 0 .068 0 .091.015.038.015.053.046.053.144l.015.727h-.007c-.023-.022-.243-.257-.356-.37-.235-.236-.485-.501-.5-.524-.03-.022-.046-.045-.06-.045-.016 0-.023.023-.023.053l-.016.962c0 .144-.007.19-.052.197a.316.316 0 01-.069.015c-.022 0-.03 0-.03.007 0 .015.015.015.038.015h.378c.023 0 .038 0 .038-.015 0-.007-.015-.007-.03-.007a.335.335 0 01-.083-.015c-.03-.008-.053-.053-.06-.182zm-1.083.924v-.084c.015.008.038.008.06.008.114 0 .371-.06.371-.53 0-.34-.189-.56-.431-.583v-.084h.007c.402 0 .652.235.652.614 0 .364-.25.66-.66.66M14.81 13.56c0 .151 0 .28-.008.348-.008.045-.015.083-.046.09-.015 0-.038.009-.06.009-.023 0-.03 0-.03.007 0 .015.015.015.037.015H15.158c.023 0 .03 0 .03-.015 0-.007-.008-.007-.023-.007-.022 0-.06-.008-.083-.008-.045-.007-.06-.046-.06-.091-.008-.068-.008-.197-.008-.349v-.666l.204.007c.144 0 .19.046.19.091v.015c0 .03.007.038.023.038.007 0 .007-.015.007-.03 0-.038.008-.152.008-.19 0-.022 0-.03-.015-.03 0 0-.016 0-.038.008-.03 0-.06.008-.114.008h-.644c-.053 0-.113 0-.159-.008-.045 0-.06-.023-.075-.023-.008 0-.016.015-.016.03a1.352 1.352 0 00-.038.19c0 .015.008.023.015.023.008 0 .016 0 .023-.016 0-.015.008-.03.023-.06.023-.03.068-.038.159-.046l.242-.007zm-1.243 0c0 .151 0 .28-.008.348-.007.045-.015.083-.045.09-.015 0-.038.009-.06.009-.023 0-.023 0-.023.007 0 .015.007.015.03.015h.205c.098 0 .204.007.447.007.06 0 .075 0 .09-.045.008-.03.023-.137.023-.175 0-.022 0-.03-.015-.03s-.015.008-.023.023c-.007.068-.03.098-.068.121-.045.015-.114.015-.152.015-.166 0-.197-.022-.197-.136v-.379c0-.008 0-.015.008-.015.038 0 .205 0 .235.007.06.008.083.03.09.06v.061c0 .008.009.015.016.015.015 0 .015-.022.015-.03 0-.015.008-.075.008-.113.007-.084.015-.106.015-.114 0-.007-.008-.015-.015-.015-.008 0-.015.008-.023.023-.015.014-.038.022-.076.022h-.265c-.008 0-.008 0-.008-.015v-.409c0-.015 0-.015.008-.015.038 0 .205 0 .235.007.083.008.099.023.106.053.008.023.008.053.008.06 0 .016.007.023.015.023.015 0 .015-.007.023-.015 0-.023.007-.09.007-.106 0-.075.008-.098.008-.106 0-.008 0-.015-.008-.015-.007 0-.015 0-.023.008-.015 0-.045 0-.075.008h-.402c-.045 0-.151-.008-.235-.008-.022 0-.038.008-.038.015 0 .015.016.015.03.015.023 0 .054 0 .061.008.053.007.069.038.076.09v.35zm-1.113.47H12.68c.128 0 .242.006.47.006.09 0 .098-.007.105-.045a.978.978 0 00.023-.182c0-.023 0-.03-.007-.03-.016 0-.023.007-.023.022 0 .03-.023.076-.038.099-.046.045-.106.045-.19.045-.128 0-.173-.007-.196-.037-.038-.03-.038-.137-.038-.349v-.629c.007-.053.022-.083.06-.09.023-.008.046-.008.069-.008.015 0 .03 0 .03-.016 0-.007-.015-.015-.038-.015-.06 0-.182.008-.22.008-.045 0-.143-.008-.22-.008h-.014v.03h.007c.015 0 .038 0 .053.009.053.007.06.037.068.09v.628c0 .153 0 .281-.008.35-.007.045-.014.083-.045.09-.015 0-.03.008-.06.008h-.016v-.008.008c.016 0 .023 0 .023.007 0 .016-.007.016-.023.016m3.758-1.25v.083h-.038c-.19 0-.402.098-.402.507 0 .311.16.569.44.599v.083h-.008c-.47 0-.659-.348-.659-.636 0-.273.182-.629.667-.637" fill="#231f20"/><path d="M12.454 13.999h-.046c-.023-.007-.09-.015-.182-.114-.09-.098-.204-.242-.348-.424.166-.136.212-.243.212-.364 0-.106-.06-.189-.106-.22a.512.512 0 00-.257-.075v.09c.083.031.174.107.174.289 0 .128-.046.204-.099.242a.112.112 0 01-.075.023v.083l.007.008c.022.023.098.136.159.227.09.121.151.197.227.235.038.023.083.03.167.03h.167c-.008 0-.008-.007-.008-.015 0 0 0-.007.008-.007zm0-1.197v.03c-.016 0-.023 0-.023-.015 0-.007.007-.007.023-.015M10.469 13.605v-.076h.152c.007 0 .007-.007.007-.015l-.144-.394c-.008-.008-.008-.015-.008-.015h-.007v-.273c.022-.045.03-.06.045-.06.016 0 .023.015.038.053.038.083.303.75.402.992.06.152.113.174.144.182.022 0 .052.008.068.008.015 0 .023 0 .023.007 0 .015-.016.015-.076.015h-.303c-.03 0-.053 0-.053-.015 0-.007.007-.007.022-.016.015 0 .023-.015.015-.037l-.128-.341a.016.016 0 00-.015-.015zm1.257-.803v.091c-.03-.008-.053-.015-.075-.015-.038 0-.068.007-.084.007-.015.008-.015.015-.015.023v.492c0 .022 0 .03.015.03.03.015.084.015.121.015h.038v.084h-.022l-.144-.007c-.008 0-.008.007-.008.015v.022c0 .152 0 .28.008.349 0 .045.015.083.06.09.023 0 .061.009.084.009.007 0 .015 0 .015.007 0 .015-.008.015-.03.015h-.44c-.015 0-.03 0-.03-.015 0-.007.007-.007.03-.007s.038-.008.053-.008c.038-.007.046-.046.046-.091.015-.068.015-.197.015-.349v-.28c0-.25 0-.295-.008-.348 0-.053-.015-.083-.068-.09-.015-.009-.038-.009-.06-.009-.023 0-.031 0-.031-.015 0-.007.008-.015.038-.015.083 0 .182.008.22.008.053 0 .174-.008.227-.008z" fill="#231f20"/><path d="M9.855 12.673v-.022.007zm0 1.083c.008-.022.008-.037.008-.045 0-.007 0-.015-.008-.023zm.614-.924v.273s-.008.007-.008.015l-.151.394c0 .007 0 .015.007.015h.152v.076h-.182c-.007 0-.007.008-.015.015l-.083.235a.205.205 0 00-.03.098c0 .03.014.054.067.054h.023c.023 0 .023 0 .023.007 0 .015-.008.015-.023.015h-.394v-.023h.015c.016 0 .038-.008.053-.008.076-.007.107-.06.137-.144zM7.833 13.484v-.114l.007-.03c.008-.015.015-.015.038-.015h.462c.03 0 .053 0 .053.023 0 .022-.03.022-.076.03-.06.015-.356.06-.416.083-.03 0-.053.015-.068.023m0 .545v-.022c.015 0 .022 0 .022.007 0 .008-.007.015-.022.015m2.022-.023v.022zm0-1.356v.023c0 .015 0 .038-.007.083 0 .06 0 .167-.008.205 0 .03 0 .045-.023.045-.015 0-.015-.015-.015-.045a.259.259 0 00-.076-.167c-.06-.068-.204-.121-.378-.121a.491.491 0 00-.356.121c-.137.121-.175.303-.175.485 0 .447.341.674.591.674.174 0 .273-.023.349-.106a.336.336 0 00.06-.129c.008-.03.016-.038.03-.038 0 0 .008 0 .008.008v.068c-.007.061-.022.16-.038.205-.007.03-.015.045-.045.053a1.09 1.09 0 01-.34.045c-.258 0-.478-.053-.645-.204a.703.703 0 01-.235-.56c0-.122.038-.35.22-.516.136-.12.318-.197.598-.197.114 0 .183.007.273.015.068.015.129.03.19.038.015 0 .022.008.022.015M7.833 14.006c-.015 0-.046-.008-.068-.008-.03-.007-.084-.03-.144-.181-.099-.243-.364-.91-.402-.993-.015-.037-.023-.053-.038-.053s-.03.016-.045.053v.28c.007 0 .007.008.007.016l.152.394c0 .008 0 .015-.008.015h-.151v.076h.182c.007 0 .007.007.015.015l.129.34c.007.023 0 .039-.016.039-.015.008-.023.008-.023.015 0 .015.023.015.054.015h.356zm0-.636v.114c-.015 0-.015-.016-.015-.03zM6.62 12.863l.031-.023c.015-.008.038-.008.053-.008s.023 0 .023-.015c0-.007-.008-.015-.023-.015-.03 0-.053 0-.083.008zm.516-.038v.28s-.008.008-.008.015l-.151.394c0 .008 0 .015.007.015h.152v.076h-.182c-.008 0-.015.008-.015.015l-.083.235a.202.202 0 00-.03.099c0 .03.015.053.067.053h.023c.023 0 .023 0 .023.007 0 .015-.008.015-.023.015h-.295v-.038c.053-.023.076-.068.106-.136l.409-1.023z" fill="#231f20"/><path d="M4.984 14.03h.03c.061 0 .069 0 .069-.016 0-.007-.008-.007-.015-.007-.023 0-.046-.008-.068-.008-.008 0-.008-.007-.016-.007zm1.637-.039c-.008 0-.023.007-.03.007-.016 0-.038.008-.054.008-.015 0-.022 0-.022.007 0 .016.015.016.038.016h.068zm0-1.181v.052c-.023.03-.038.084-.061.152-.076.204-.242.72-.326.962-.015.06-.022.076-.045.076-.015 0-.03-.015-.053-.076l-.333-.81h-.008c-.03.075-.242.65-.318.802-.03.069-.038.084-.053.084-.023 0-.03-.015-.038-.06l-.349-1.031a.23.23 0 00-.053-.106v-.053c.069.008.122.008.13.008.014 0 .082-.008.18-.008.024 0 .031.008.031.015 0 .015-.007.015-.03.015-.007 0-.03 0-.038.008-.015.007-.015.015-.015.038s.015.075.03.144c.03.106.182.606.212.697l.319-.849c.015-.045.03-.06.038-.06.022 0 .03.023.053.075l.333.819h.007c.03-.106.16-.538.212-.728.016-.037.016-.068.016-.09 0-.03-.008-.053-.076-.053-.015 0-.023 0-.023-.016 0-.007.008-.015.03-.015.092 0 .16.008.175.008zM4.984 13.991c-.03-.008-.075-.037-.128-.174-.106-.242-.364-.91-.402-.992-.015-.038-.03-.053-.045-.053s-.023.015-.038.06v.273c.007 0 .007.007.007.015l.144.394c.008.008 0 .015-.007.015H4.37v.076h.174c.008 0 .015.007.023.015l.129.341c.007.023-.008.038-.016.038-.015.008-.022.008-.022.015 0 .015.015.015.045.015h.28zm0-1.189v.053s0-.008-.007-.008a.193.193 0 00-.06-.015c-.016 0-.031 0-.031-.015 0-.007.015-.015.038-.015z" fill="#231f20"/><path d="M3.833 12.93c.03.016.046.039.046.061l.007.016c0 .03 0 .037.015.037.008 0 .015-.015.015-.03v-.19c0-.022 0-.03-.007-.03-.008 0-.023 0-.046.008h-.03zm.538-.098v.273c-.008 0-.008.007-.008.015l-.151.394c0 .007 0 .015.007.015h.152v.076h-.182a.016.016 0 00-.015.015l-.09.235a.295.295 0 00-.024.099c0 .03.015.052.06.052h.031c.015 0 .023 0 .023.008 0 .016-.008.016-.03.016h-.311V14c.068-.016.098-.07.129-.145l.401-1.022z" fill="#231f20"/><path d="M2.129 13.56c0 .151 0 .28-.008.348-.008.045-.015.083-.045.09-.015 0-.038.009-.061.009s-.023 0-.023.007c0 .015.008.015.03.015H2.485c.015 0 .03 0 .03-.015 0-.007-.007-.007-.03-.007s-.06-.008-.084-.008c-.045-.007-.053-.046-.06-.091-.008-.068-.008-.197-.008-.349v-.666l.205.007c.144 0 .189.046.189.091v.015c.008.03.008.038.023.038.007 0 .007-.015.015-.03v-.19c0-.022 0-.03-.008-.03-.007 0-.022 0-.045.008-.023 0-.06.008-.114.008h-.644c-.053 0-.113 0-.159-.008-.045 0-.06-.023-.075-.023-.008 0-.008.015-.015.03a1.352 1.352 0 00-.039.19c0 .015.008.023.016.023.015 0 .015 0 .023-.016 0-.015.007-.03.022-.06.03-.03.068-.038.16-.046l.242-.007zm1.704.439h-.015c-.008 0-.03.008-.045.008-.016 0-.023 0-.023.007 0 .015.007.015.03.015h.053zm0-1.197v.129a.311.311 0 00-.144-.03l-.204-.008v.667c0 .152 0 .28.007.348.008.046.015.084.06.091.023 0 .061.008.084.008.023 0 .03 0 .03.007 0 .016-.015.016-.03.016H3.174c-.023 0-.03 0-.03-.016 0-.007.007-.007.022-.007.023 0 .046-.008.061-.008.03-.007.045-.045.045-.09.008-.069.008-.197.008-.35v-.666l-.242.007c-.091.008-.129.016-.16.046-.015.03-.022.045-.022.06-.008.016-.008.016-.015.016-.016 0-.016-.008-.016-.023 0-.023.03-.174.03-.19.009-.015.009-.03.024-.03.007 0 .03.023.068.023.045.008.106.008.159.008h.644c.038 0 .06 0 .083-.008M.773 14.06c.47-.007.773-.34.773-.772s-.296-.705-.766-.705H.773v.091c.287.023.507.28.507.682 0 .545-.303.606-.439.606H.773z" fill="#231f20"/><path d="M.765 14.06h.008v-.099c-.318-.038-.508-.333-.508-.697 0-.47.243-.591.462-.591h.046v-.09c-.561.007-.773.416-.773.734 0 .334.22.742.765.742M17.923 15.59v-.046a.409.409 0 00.22-.114c.068-.06.098-.181.098-.295a.454.454 0 00-.121-.326.378.378 0 00-.197-.113v-.06c.106.006.22.045.31.135.06.061.122.167.122.319 0 .159-.061.288-.137.363a.505.505 0 01-.295.137" fill="#231f20"/><path d="M17.392 15.575v-.008zm.53-.94v.06a.703.703 0 00-.219-.03.197.197 0 00-.076.016c-.015 0-.023.008-.023.023V15.128c0 .136 0 .25.008.28 0 .03 0 .083.015.09.016.031.061.054.212.054.03 0 .061 0 .084-.008v.046c-.023 0-.053.007-.091.007-.106 0-.265-.015-.28-.015h-.121c-.016 0-.023 0-.023-.008s.007-.008.015-.008.022 0 .038-.007c.022 0 .03-.03.03-.068.008-.053.008-.152.008-.273v-.5c0-.045-.015-.06-.054-.076H17.4s-.008 0-.008-.008v-.007H17.726c.053 0 .121-.008.197.007M17.392 15.567h-.007c-.008 0-.03 0-.053-.007-.03 0-.083-.015-.152-.091a2.797 2.797 0 01-.265-.326c.114-.098.152-.197.152-.288a.204.204 0 00-.091-.174.278.278 0 00-.174-.053v.045c.098.023.159.114.159.243 0 .098-.03.166-.076.197a.154.154 0 01-.083.022v.046h.007c.008 0 .015 0 .015.008.03.03.092.114.144.182.069.098.114.159.167.189a.316.316 0 00.136.023h.091c.015 0 .023 0 .03-.007zm0-.94v.008z" fill="#231f20"/><path d="M15.847 15.21v-.045h.122c.007 0 .007-.007.007-.007l-.121-.348s0-.008-.008-.008v-.174c.008-.015.015-.023.023-.023s.008.008.023.045c.022.054.22.576.295.766.045.113.083.136.114.144.015.007.038.007.045.007.008 0 .015 0 .015.008s-.007.008-.022.008h-.205c-.023 0-.038 0-.038-.008s.008-.008.015-.008c.008-.007.016-.015.008-.038l-.121-.31c0-.008-.008-.008-.015-.008zm.955-.582v.045c-.015-.007-.038-.007-.06-.007-.039 0-.077 0-.084.007-.008 0-.015.008-.015.015v.417c0 .007.007.007.015.015a.48.48 0 00.129.015h.015v.045l-.144-.007a.016.016 0 00-.015.016v.03c0 .121 0 .22.007.272.008.038.015.069.053.069a.157.157 0 00.053.007c.008 0 .015 0 .015.008s-.007.008-.022.008h-.273c-.015 0-.023 0-.023-.008s0-.008.008-.008c.015 0 .03 0 .037-.007.03 0 .039-.03.039-.069.007-.052.007-.151.007-.272v-.5c-.007-.046-.015-.06-.053-.076h-.046c-.007 0-.015 0-.015-.007s.008-.007.023-.007h.296z" fill="#231f20"/><path d="M14.878 15.605v-.053h.022c.114 0 .356-.06.356-.432 0-.303-.181-.462-.378-.47v-.045c.28 0 .5.182.5.477 0 .28-.197.515-.5.523m.97-.977v.174c0-.007-.008 0-.008.007l-.114.348c-.008.008 0 .008 0 .008h.121v.046h-.136s-.008 0-.008.008l-.076.227a.196.196 0 00-.022.083c0 .023.03.038.053.038h.007c.015 0 .015 0 .015.007 0 .008-.007.008-.015.008h-.242c-.023 0-.03 0-.03-.008 0-.007.007-.007.015-.007h.038c.06-.008.083-.06.106-.12l.288-.789c0-.015.007-.023.007-.03M13.878 15.59v-.046h.03c.068 0 .174-.038.174-.174 0-.076-.022-.19-.12-.258a.142.142 0 00-.084-.03v-.045c.037 0 .053-.008.075-.03a.22.22 0 00.046-.13c0-.09-.038-.189-.121-.211v-.038c.174.015.22.128.22.189 0 .098-.061.167-.122.227.091.03.22.121.22.265 0 .137-.106.28-.318.28m1-.984v.045h-.008c-.212 0-.371.137-.371.417 0 .28.159.47.378.485v.053h-.007c-.349 0-.492-.273-.492-.5 0-.204.143-.5.5-.5M12.59 14.991c0-.197 0-.235.007-.273 0-.045.008-.068.046-.075h.045s.008 0 .008-.007c0-.008-.008-.008-.023-.008h-.28c-.008 0-.015 0-.015.008 0 .007 0 .007.007.007h.046c.038.015.053.03.053.075v.5c0 .122 0 .22-.008.273 0 .038-.007.068-.03.068-.015.008-.03.008-.038.008-.007 0-.015 0-.015.008 0 .007.008.007.023.007h.121c.076 0 .159.007.34.007.069 0 .077-.007.084-.038.008-.037.015-.113.015-.128 0-.008 0-.016-.007-.016-.008 0-.008.007-.008.016-.007.023-.015.06-.038.076-.03.037-.083.037-.151.037-.099 0-.13-.007-.152-.03-.023-.023-.03-.098-.03-.288zm-.871.614v-.053h.03c.114 0 .348-.06.348-.432 0-.303-.181-.462-.378-.47v-.045c.288 0 .5.182.5.477 0 .28-.197.515-.5.523m2.158-.977v.038c-.014 0-.03-.008-.052-.008-.016 0-.038 0-.061.008a.016.016 0 00-.015.015v.34c0 .008.007.008.007.016h.121v.045c-.007-.008-.014-.008-.022-.008h-.099s-.007 0-.007.008V15.43c.007.061.007.076.045.1a.294.294 0 00.084.014v.046h-.008c-.03 0-.159-.007-.166-.007h-.13c-.007 0-.014 0-.014-.007 0-.008 0-.008.007-.008.015 0 .03 0 .038-.008.023 0 .03-.03.038-.068.007-.053.007-.152.007-.273v-.5c-.007-.046-.015-.06-.06-.076h-.038c-.008 0-.015 0-.015-.007 0-.008.008-.008.023-.008h.28z" fill="#231f20"/><path d="M10.56 15.605v-.053h.022c.114 0 .356-.06.356-.432 0-.303-.181-.462-.378-.47v-.045c.28 0 .5.182.5.477 0 .28-.205.515-.5.523m1.159-1v.045h-.008c-.212 0-.37.137-.37.417 0 .28.158.47.378.485v.053h-.008c-.348 0-.492-.273-.492-.5 0-.205.151-.5.5-.5M9.78 14.991c0-.197 0-.235.007-.273 0-.045.008-.068.046-.075h.03c.007 0 .015 0 .015-.007 0-.008-.008-.008-.023-.008h-.273c-.007 0-.014 0-.014.008 0 .007.007.007.007.007h.045c.038.015.053.03.053.075V15.021c0 .007 0 .007-.007.007h-.538s-.008 0-.008-.007v-.03c0-.197 0-.235.008-.273 0-.045.007-.068.046-.075h.03c.007 0 .007 0 .007-.007 0-.008 0-.008-.015-.008h-.273c-.007 0-.015 0-.015.008 0 .007 0 .007.008.007h.046c.037.015.052.03.052.075v.5c0 .122 0 .22-.007.273 0 .038-.008.068-.03.068-.016.008-.03.008-.038.008s-.016 0-.016.008c0 .007.008.007.023.007h.281c.015 0 .022 0 .022-.007 0-.008-.007-.008-.015-.008s-.038 0-.053-.008c-.038 0-.046-.03-.053-.068-.008-.053-.008-.151-.008-.273v-.136c0-.008.008-.008.008-.008h.538c.007 0 .007 0 .007.008V15.491c-.007.038-.015.068-.038.068-.015.008-.03.008-.037.008-.008 0-.016 0-.016.008 0 .007.008.007.023.007h.28c.016 0 .023 0 .023-.007 0-.008-.007-.008-.015-.008s-.038 0-.053-.008c-.038 0-.045-.03-.053-.068-.007-.053-.007-.151-.007-.273zm-1.356.614a.934.934 0 00.227-.03c.023-.016.023-.016.03-.038a.984.984 0 00.03-.167c0-.007 0-.015-.007-.015-.008 0-.008.007-.015.015a.2.2 0 01-.046.114c-.053.045-.128.06-.22.06a.46.46 0 01-.462-.462c0-.129.023-.242.122-.333.037-.046.12-.091.288-.091.113 0 .212.03.257.068.03.03.053.083.053.129 0 .023 0 .03.008.03.007 0 .007-.007.007-.03.008-.015.008-.084.008-.13 0-.044.007-.06.007-.067 0-.007-.007-.015-.015-.015-.045-.007-.083-.016-.128-.023a1.768 1.768 0 00-.19-.015c-.197 0-.31.06-.386.136a.515.515 0 00.015.727.61.61 0 00.417.137m-1.06 0a.327.327 0 00.189-.053.258.258 0 00.105-.212c0-.106-.03-.182-.181-.303l-.038-.023c-.121-.099-.152-.144-.152-.212 0-.099.069-.152.152-.152.121 0 .151.053.16.068a.183.183 0 01.014.06c.008.016.008.024.015.024.008 0 .008-.016.008-.03 0-.091.008-.13.008-.137 0-.008-.008-.008-.016-.008-.007 0-.022 0-.045-.007a.44.44 0 00-.114-.015c-.167 0-.265.098-.265.227 0 .091.03.167.167.28l.053.046c.113.09.144.144.144.227 0 .084-.053.167-.174.167-.092 0-.175-.03-.19-.129-.007-.015-.007-.03-.007-.045 0-.008 0-.016-.008-.016s-.008.007-.008.023c-.007.023-.007.068-.007.136 0 .03 0 .038.015.046a.451.451 0 00.174.038m-1.106-.924h.16c.12.007.15.03.15.068v.015c.008.023.008.023.016.023 0 0 .008-.008.008-.015V14.612c-.008 0-.023.008-.039.008-.022.007-.052.007-.09.007h-.478c-.015 0-.06 0-.098-.007-.03 0-.045-.015-.053-.015s-.015.015-.015.023c0 .015-.03.121-.03.136 0 .007.007.007.007.007.008 0 .008 0 .015-.007 0-.008.008-.023.023-.038.015-.03.045-.045.129-.045h.189v.538c0 .121 0 .22-.007.272-.008.038-.016.068-.038.068-.015.008-.03.008-.038.008s-.015 0-.015.008c0 .007.007.007.023.007h.28c.015 0 .022 0 .022-.007 0-.008-.007-.008-.015-.008-.007 0-.038 0-.053-.008-.038 0-.045-.03-.053-.068v-.272zm-.863.924c.083 0 .181-.015.234-.03.016-.016.023-.016.03-.038a.977.977 0 00.03-.167c0-.007-.007-.015-.014-.015-.008 0-.008.007-.008.015-.007.023-.022.083-.045.114-.053.045-.13.06-.227.06a.452.452 0 01-.455-.462c0-.128.023-.242.114-.333.045-.046.12-.091.295-.091a.43.43 0 01.25.068c.03.03.053.083.053.129 0 .023 0 .03.008.03.007 0 .015-.007.015-.03v-.129c.007-.045.007-.06.007-.068 0-.007 0-.015-.015-.015a1.653 1.653 0 00-.31-.038c-.197 0-.311.06-.387.136a.515.515 0 00-.143.349.5.5 0 00.15.379.61.61 0 00.418.136m-.856-.614v-.272c.007-.046.015-.069.045-.076h.038s.007 0 .007-.007c0-.008-.007-.008-.022-.008h-.25c-.016 0-.023 0-.023.008 0 .007.007.007.015.007s.023 0 .038.008c.023 0 .038.022.038.068.008.038.008.076.008.273v.227c0 .121 0 .22-.008.272-.008.039-.015.069-.038.069-.007.008-.023.008-.038.008-.008 0-.008 0-.008.008 0 .007.008.007.016.007h.28c.015 0 .023 0 .023-.007 0-.008 0-.008-.008-.008-.015 0-.038 0-.06-.008-.039 0-.046-.03-.046-.069-.007-.052-.007-.15-.007-.272zm-.804.19v-.046a.148.148 0 00.076-.023c.046-.03.076-.098.076-.197 0-.128-.053-.22-.152-.242v-.045c.061 0 .122.015.175.053.03.022.083.083.083.174 0 .09-.038.19-.151.288.106.136.19.25.265.326.068.076.12.09.159.09.023.008.038.008.045.008.008 0 .015 0 .015.008 0 .007-.007.007-.03.007h-.09c-.077 0-.107-.007-.137-.023-.053-.03-.099-.09-.174-.189-.053-.068-.114-.151-.137-.182-.007-.007-.007-.007-.015-.007zm6.826-.576v.045h-.008c-.212 0-.37.137-.37.417 0 .288.158.47.378.485v.053h-.008c-.348 0-.492-.273-.492-.5 0-.204.151-.5.5-.5" fill="#231f20"/><path d="M2.863 14.68h.167c.121.009.152.03.152.069v.015c0 .023.007.023.015.023 0 0 .007-.008.007-.015v-.144c0-.008 0-.016-.007-.016 0 0-.015.007-.03.007-.023.008-.053.008-.092.008H2.6c-.016 0-.061 0-.1-.008-.037 0-.045-.015-.052-.015-.008 0-.015.015-.015.023 0 .015-.03.121-.03.136 0 .008 0 .008.007.008.008 0 .008 0 .015-.008 0-.007.008-.022.023-.037.015-.03.045-.046.129-.046h.181v.81c-.007.038-.015.069-.037.069-.016.007-.03.007-.038.007s-.015 0-.015.008c0 .007.007.007.022.007h.281c.015 0 .022 0 .022-.007 0-.008-.007-.008-.015-.008-.007 0-.038 0-.053-.007-.038 0-.045-.03-.053-.069-.008-.053-.008-.151-.008-.272zm-.9.925a.33.33 0 00.189-.053.272.272 0 00.113-.212c0-.106-.038-.182-.19-.303l-.037-.023c-.114-.098-.152-.144-.152-.212 0-.099.068-.152.16-.152.113 0 .15.053.158.068a.183.183 0 01.016.061c0 .015 0 .023.007.023.008 0 .008-.015.008-.03 0-.091.007-.13.007-.137 0-.007 0-.007-.015-.007-.007 0-.015 0-.045-.008a.484.484 0 00-.114-.015c-.16 0-.265.098-.265.227 0 .091.03.167.167.28l.052.046c.114.091.152.144.152.227 0 .084-.06.167-.182.167-.083 0-.166-.03-.189-.129-.008-.015-.008-.03-.008-.045 0-.007 0-.015-.007-.015 0 0-.008.007-.008.022 0 .023-.007.068-.007.137 0 .03 0 .038.022.045a.388.388 0 00.167.038m-.538-.614v-.272c0-.046.015-.069.046-.076h.03c.007 0 .015 0 .015-.007s-.008-.007-.023-.007h-.25c-.015 0-.023 0-.023.007s.008.007.008.007c.015 0 .03 0 .046.008.022 0 .038.022.038.068.007.038.007.076.007.272v.228c0 .121 0 .22-.007.272-.008.038-.016.069-.038.069-.008.007-.03.007-.038.007s-.008 0-.008.008c0 .007 0 .007.015.007h.28c.016 0 .023 0 .023-.007 0-.008 0-.008-.007-.008-.015 0-.046 0-.061-.007-.038 0-.045-.03-.053-.069v-.272zm2.31-.363v.045c-.022-.007-.045-.007-.06-.007-.045 0-.076 0-.09.007-.009 0-.009.008-.009.016v.416c0 .007 0 .007.008.015a.546.546 0 00.136.015h.015v.046l-.15-.007c-.009 0-.009.007-.009.015v.03c0 .121 0 .22.008.273 0 .038.007.068.046.068a.202.202 0 00.06.007c.008 0 .008 0 .008.008 0 .007-.008.007-.015.007h-.28c-.016 0-.023 0-.023-.007 0-.008.007-.008.015-.008.007 0 .022 0 .037-.007.023 0 .03-.03.039-.068v-.773c0-.045-.016-.06-.054-.076h-.045s-.008 0-.008-.007.008-.007.023-.007h.288zm-3.143.962c.159-.023.25-.091.295-.137a.552.552 0 00.137-.363.442.442 0 00-.122-.318.478.478 0 00-.31-.137v.061a.405.405 0 01.197.114c.053.053.121.159.121.325 0 .114-.038.235-.106.296a.367.367 0 01-.212.113zM.167 15.218c0 .122 0 .22-.008.273-.008.038-.015.068-.038.068-.007.008-.022.008-.038.008-.007 0-.007 0-.007.007 0 .008.007.008.015.008H.22c.015 0 .174.015.28.015.03 0 .06-.008.09-.008v-.045c-.03.008-.06.008-.09.008-.144 0-.197-.023-.212-.053a.245.245 0 01-.015-.091V14.703c0-.015 0-.022.015-.022.007-.008.06-.015.083-.015.076 0 .152.007.22.03v-.06c-.076-.016-.152-.009-.205-.009h-.31c-.016 0-.023 0-.023.008 0 .007.007.007.007.007h.046c.045.016.053.03.053.076.008.038.008.076.008.273z" fill="#231f20"/></svg>