<svg version="1.2" xmlns="http://www.w3.org/2000/svg" viewBox="0 0 1519 1521" width="1519" height="1521">
	<title>Trend_Micro_logo-svg</title>
	<style>
		.s0 { fill: #ffffff } 
		.s1 { fill: #d71920 } 
	</style>
	<g id="layer1">
		<g id="g8981">
			<path id="path8983" class="s0" d="m759.6 1518.4c-419.7 0-759.1-339.3-759.1-759 0-419.7 339.4-758.9 759.1-758.9 419.8 0 759.2 339.2 759.2 758.9 0 419.7-339.4 759-759.2 759z"/>
		</g>
		<g id="g9031">
			<path id="path9033" class="s1" d="m126.4 1180.1c-79.5-120.1-125.9-263.9-125.9-418.7 0-419.1 339.9-758.9 759.1-758.9 223.1 0 423.7 96.1 562.6 249.2-23.2-16.7-50.5-30.2-82.1-40-168.1-52.4-411.8 14.7-633.5 157.7 177.8-106 369.9-153 506.1-110.7 212.3 66.1 208.1 324.8-9.6 577.6-132.3 153.8-313 270-482.1 322.7-72.7 20.5-140.1 24.4-194.1 7.6-87.5-27.3-103.3-100.1-87.2-197.8 20.7-87.4 81.9-209.7 81.9-209.7l130.5-0.5 23.9-51.9-130.6 0.4 81.3-174.2h-62.9l-3.5 0.2c-119.5 115.8-244.7 157.7-319.8 178.2l-22.1 48.7 90.9-0.2c-2.9 5.9-5.8 11.9-8.7 17.9-21.6 36.4-39.4 72.3-53.5 107.2l-1.3 3.4-3 7.3-3 8.2-1 2.5c-38.2 104.4-42.5 199.6-12.4 273.8z"/>
		</g>
		<g id="g9035">
			<path id="path9037" class="s1" d="m1518.9 761.4c0 419.2-339.9 759-759.3 759-218.5 0-415.4-92.3-553.9-240.1 23 16.4 49.9 29.7 80.9 39.3 249.6 77.7 665.4-107.4 928.6-413.4 175.4-203.7 238.9-409.5 188.1-547.4 73.1 116.7 115.6 254.6 115.6 402.6z"/>
		</g>
	</g>
</svg>