<?xml version="1.0" encoding="UTF-8" ?>
<!DOCTYPE svg PUBLIC "-//W3C//DTD SVG 1.1//EN" "http://www.w3.org/Graphics/SVG/1.1/DTD/svg11.dtd">
<svg width="504pt" height="504pt" viewBox="0 0 504 504" version="1.1" xmlns="http://www.w3.org/2000/svg">
<g id="#ffffffff">
<path fill="#ffffff" opacity="1.00" d=" M 161.50 0.00 L 342.50 0.00 C 369.76 1.36 397.77 3.61 422.95 15.09 C 452.27 27.62 476.37 51.74 488.92 81.05 C 500.41 106.24 502.19 134.28 504.00 161.49 L 504.00 342.50 C 502.64 369.76 500.39 397.77 488.91 422.95 C 476.37 452.27 452.26 476.37 422.95 488.92 C 397.76 500.41 369.72 502.19 342.51 504.00 L 161.50 504.00 C 134.24 502.64 106.23 500.39 81.05 488.91 C 51.73 476.37 27.63 452.26 15.08 422.95 C 3.59 397.76 1.81 369.72 0.00 342.51 L 0.00 161.49 C 1.81 134.28 3.59 106.24 15.08 81.05 C 27.63 51.74 51.73 27.62 81.05 15.09 C 106.23 3.61 134.24 1.36 161.50 0.00 M 175.45 46.50 C 154.59 47.50 133.26 47.16 113.03 53.12 C 97.18 57.44 82.20 65.90 71.52 78.53 C 57.14 94.33 50.71 115.69 48.39 136.52 C 45.11 173.93 46.13 211.50 46.00 249.00 C 46.08 286.65 45.28 324.37 48.17 361.94 C 49.15 375.61 51.63 389.34 56.91 402.04 C 63.50 418.93 76.27 432.99 91.79 442.19 C 105.76 449.93 121.47 454.10 137.31 455.69 C 174.46 458.85 211.76 457.88 249.00 458.00 C 286.65 457.91 324.37 458.72 361.94 455.83 C 375.61 454.85 389.34 452.37 402.04 447.09 C 418.26 440.78 431.79 428.64 441.08 414.06 C 449.61 399.70 454.00 383.22 455.69 366.69 C 458.98 327.88 457.81 288.90 458.00 250.00 C 457.92 211.95 458.77 173.79 455.26 135.85 C 452.96 112.26 444.46 87.82 426.00 71.99 C 410.15 57.31 388.54 50.72 367.48 48.39 C 326.75 44.86 285.83 46.27 245.00 46.00 C 221.82 46.16 198.62 45.53 175.45 46.50 Z" />
<path fill="#ffffff" opacity="1.00" d=" M 379.45 87.55 C 390.87 84.92 403.49 88.99 410.66 98.31 C 419.55 109.40 419.71 127.28 409.72 137.73 C 399.19 151.24 376.25 151.87 364.72 139.30 C 355.38 131.17 354.08 117.03 357.75 105.83 C 361.82 97.11 369.56 89.05 379.45 87.55 Z" />
<path fill="#ffffff" opacity="1.00" d=" M 242.45 122.55 C 285.94 118.53 330.10 139.05 356.07 173.95 C 385.00 211.88 390.08 266.26 368.90 308.96 C 360.72 326.58 347.68 341.51 332.89 353.91 C 295.41 384.16 240.54 390.48 197.07 369.86 C 172.92 358.77 152.51 339.73 139.18 316.80 C 115.30 275.46 116.52 220.85 143.00 180.99 C 164.75 147.49 202.41 124.79 242.45 122.55 M 240.43 169.52 C 213.21 172.92 188.74 191.33 176.97 215.98 C 162.06 244.95 167.66 282.59 189.26 306.74 C 205.43 324.67 229.48 336.88 254.02 335.03 C 284.79 335.31 313.94 315.54 327.03 288.02 C 341.36 260.13 336.78 224.11 317.01 200.00 C 298.99 177.61 269.16 164.73 240.43 169.52 Z" />
</g>
</svg>
