<?xml version="1.0" encoding="UTF-8" ?>
<!DOCTYPE svg PUBLIC "-//W3C//DTD SVG 1.1//EN" "http://www.w3.org/Graphics/SVG/1.1/DTD/svg11.dtd">
<svg width="504pt" height="504pt" viewBox="0 0 504 504" version="1.1" xmlns="http://www.w3.org/2000/svg">
<g id="#000000ff">
<path fill="#000000" opacity="1.00" d=" M 195.88 0.00 L 308.18 0.00 C 322.81 0.39 337.45 0.50 352.07 1.28 C 373.80 2.04 395.73 4.89 416.12 12.78 C 441.59 22.05 463.49 40.08 478.47 62.56 C 489.51 79.50 496.17 99.03 499.57 118.88 C 503.65 144.32 503.18 170.20 504.00 195.87 L 504.00 308.19 C 503.47 329.13 503.34 350.13 501.45 371.01 C 498.65 399.95 489.56 429.16 470.80 451.84 C 459.87 465.05 446.59 476.44 431.36 484.41 C 412.95 494.00 392.53 499.29 371.94 501.36 C 350.72 503.35 329.39 503.45 308.12 504.00 L 195.82 504.00 C 174.58 503.45 153.29 503.35 132.12 501.37 C 104.41 498.55 76.52 489.98 54.38 472.58 C 39.61 460.89 27.01 446.25 18.55 429.35 C 10.89 413.89 6.02 397.11 3.64 380.05 C 0.49 356.22 0.70 332.12 0.00 308.15 L 0.00 195.81 C 0.47 189.88 0.09 183.94 0.36 178.01 C 1.19 154.79 1.15 131.29 6.49 108.54 C 10.87 90.03 18.17 71.95 29.67 56.67 C 37.64 46.08 47.15 36.64 57.84 28.80 C 72.86 17.80 90.47 10.77 108.50 6.50 C 130.62 1.29 153.46 1.21 176.05 0.42 C 182.65 0.06 189.28 0.49 195.88 0.00 M 221.53 45.59 C 205.37 45.97 189.20 45.51 173.05 46.17 C 156.32 46.84 139.44 46.88 122.95 50.14 C 112.90 52.11 103.08 55.36 93.96 60.03 C 82.38 66.20 72.50 75.37 64.89 86.02 C 53.63 102.37 49.16 122.37 47.59 141.90 C 46.45 158.60 46.07 175.33 45.74 192.06 C 45.67 202.68 45.98 213.31 45.51 223.93 C 45.43 258.30 45.56 292.65 46.03 327.01 C 46.85 346.15 46.63 365.53 50.83 384.33 C 53.09 394.17 56.48 403.82 61.46 412.62 C 68.09 423.87 77.44 433.49 88.34 440.67 C 105.48 451.50 125.96 455.47 145.94 456.70 C 164.94 457.70 183.97 458.33 203.00 458.25 C 232.32 458.43 261.66 458.80 290.97 458.24 C 310.72 458.39 330.47 458.05 350.19 457.09 C 362.48 456.63 374.81 455.51 386.78 452.59 C 402.91 448.70 418.42 441.10 429.94 428.94 C 443.55 415.65 450.99 397.34 454.27 378.87 C 457.80 358.15 457.45 337.04 458.20 316.10 C 458.27 284.78 458.73 253.47 458.43 222.14 C 457.91 209.11 458.60 196.06 458.02 183.03 C 457.97 171.98 457.38 160.93 456.92 149.89 C 456.11 132.93 453.69 115.76 446.85 100.08 C 441.05 86.08 430.79 74.21 418.61 65.33 C 409.77 58.95 399.48 54.90 389.04 51.99 C 368.84 46.58 347.76 46.93 327.03 46.03 C 291.87 45.60 256.70 45.33 221.53 45.59 Z" />
<path fill="#000000" opacity="1.00" d=" M 381.46 87.54 C 389.85 86.24 398.82 88.31 405.43 93.76 C 413.34 99.95 417.72 110.21 416.71 120.22 C 415.80 135.47 401.66 148.39 386.36 147.87 C 370.69 148.29 356.42 134.65 356.16 118.98 C 355.02 104.05 366.68 89.70 381.46 87.54 Z" />
<path fill="#000000" opacity="1.00" d=" M 233.49 123.80 C 257.70 120.32 282.89 123.78 305.19 133.86 C 333.80 146.65 357.39 170.25 370.16 198.87 C 381.49 223.92 384.41 252.62 378.59 279.47 C 373.34 304.09 360.63 327.05 342.57 344.58 C 321.62 365.29 293.34 378.37 264.00 380.95 C 236.42 383.56 208.01 377.09 184.42 362.52 C 161.88 348.77 143.71 327.96 133.22 303.73 C 121.94 277.97 119.48 248.51 126.17 221.21 C 132.49 194.86 147.49 170.76 168.15 153.26 C 186.57 137.53 209.50 127.18 233.49 123.80 M 241.52 168.81 C 221.25 171.28 202.13 181.58 188.78 197.00 C 175.59 212.05 168.00 231.98 168.22 252.03 C 167.99 273.77 176.97 295.38 192.30 310.77 C 203.82 322.58 218.93 330.82 235.09 334.12 C 254.43 338.11 275.16 335.06 292.43 325.43 C 309.30 316.12 322.86 300.85 329.93 282.89 C 337.78 263.32 337.79 240.74 329.95 221.16 C 322.89 203.17 309.31 187.88 292.40 178.56 C 277.04 169.99 258.94 166.64 241.52 168.81 Z" />
</g>
</svg>
