<?xml version="1.0" encoding="UTF-8" ?>
<!DOCTYPE svg PUBLIC "-//W3C//DTD SVG 1.1//EN" "http://www.w3.org/Graphics/SVG/1.1/DTD/svg11.dtd">
<svg width="1005pt" height="290pt" viewBox="0 0 1005 290" version="1.1" xmlns="http://www.w3.org/2000/svg">
<g id="#ffffffff">
<path fill="#ffffff" opacity="1.00" d=" M 530.77 7.75 C 532.61 5.63 535.17 3.34 538.20 3.80 C 542.25 4.68 543.34 9.42 543.34 12.98 C 543.52 23.31 542.00 33.60 540.32 43.77 C 536.77 63.07 531.82 82.56 521.41 99.41 C 515.00 110.08 507.66 120.18 499.91 129.91 C 498.20 132.10 495.97 134.19 495.71 137.13 C 494.52 147.09 495.34 157.48 499.27 166.79 C 501.75 172.80 506.99 177.09 512.36 180.45 C 517.67 182.63 523.58 182.54 529.23 182.48 C 533.89 182.65 536.90 178.24 541.28 177.33 C 537.26 181.08 533.04 185.01 527.59 186.49 C 521.95 188.24 516.27 192.01 510.16 190.10 C 502.99 188.20 497.26 182.85 492.79 177.16 C 486.77 168.62 485.49 157.91 484.61 147.79 C 476.05 158.43 465.81 167.81 454.23 175.08 C 449.07 178.25 443.05 181.29 436.82 179.98 C 430.74 179.11 425.27 175.54 421.81 170.50 C 418.25 172.63 414.85 175.23 410.81 176.34 C 404.57 177.53 397.38 175.90 393.20 170.87 C 390.54 167.66 390.79 163.25 390.68 159.33 C 382.36 168.68 370.97 175.75 358.64 178.22 C 345.11 178.36 332.46 169.19 327.14 156.91 C 324.63 150.93 324.77 144.30 324.94 137.94 C 325.34 129.56 324.59 121.13 325.66 112.78 C 324.35 116.79 322.00 120.33 320.09 124.06 C 311.71 139.62 303.79 155.47 294.34 170.42 C 292.05 173.71 289.49 178.42 284.79 177.89 C 281.37 177.69 279.59 174.02 280.04 170.94 C 280.50 164.02 282.38 157.28 283.89 150.53 C 275.69 161.37 265.00 171.34 251.48 174.74 C 244.65 176.60 235.92 177.03 230.89 171.11 C 226.08 165.13 226.63 156.69 228.15 149.61 C 222.36 155.98 216.25 162.09 209.84 167.84 C 206.43 170.56 202.58 174.13 197.84 173.25 C 193.36 172.13 191.94 166.93 192.71 162.87 C 193.82 156.77 195.35 150.66 197.89 144.98 C 194.54 148.98 190.30 152.08 186.19 155.24 C 178.49 160.84 170.39 166.05 161.51 169.57 C 157.52 171.13 152.86 172.13 148.78 170.36 C 144.75 168.10 142.96 163.40 142.71 159.00 C 141.97 146.05 143.77 132.95 148.10 120.72 C 152.55 107.79 157.48 95.00 163.20 82.57 C 152.94 99.00 141.71 114.81 130.74 130.77 C 123.04 142.14 115.87 153.87 107.89 165.04 C 105.20 168.61 102.59 172.41 98.87 174.99 C 95.51 177.20 90.39 175.53 89.35 171.54 C 88.69 168.25 88.92 164.85 89.25 161.54 C 91.23 149.20 94.50 137.12 97.03 124.90 C 98.54 117.15 100.98 109.62 103.30 102.09 C 110.68 78.14 119.24 54.50 124.85 30.05 C 111.98 45.82 100.83 62.90 90.06 80.15 C 85.40 87.86 80.32 95.40 77.01 103.82 C 68.45 124.56 59.54 145.16 50.86 165.84 C 49.23 169.26 48.64 173.33 45.93 176.13 C 43.32 177.70 40.04 176.72 38.40 174.28 C 38.37 172.46 38.36 170.58 39.10 168.88 C 45.57 152.05 51.43 134.97 58.74 118.48 C 63.07 108.32 68.53 98.67 72.30 88.27 C 81.13 65.24 90.63 42.34 96.73 18.40 C 84.47 28.16 73.46 39.34 62.55 50.56 C 47.79 65.85 33.50 81.61 19.35 97.47 C 18.06 99.29 15.72 98.83 13.84 98.51 C 13.48 97.93 12.75 96.77 12.39 96.20 C 12.92 92.48 16.13 90.09 18.23 87.23 C 38.08 63.84 57.98 40.39 79.98 18.97 C 85.23 14.12 90.44 8.91 96.97 5.83 C 100.46 4.02 105.29 4.98 107.26 8.52 C 109.78 12.72 108.00 17.71 107.13 22.12 C 104.54 31.96 101.43 41.70 97.53 51.10 C 103.23 41.81 109.69 32.98 116.64 24.59 C 119.65 21.37 122.59 17.58 126.91 16.13 C 130.58 14.76 134.87 17.43 135.36 21.28 C 136.08 27.35 134.42 33.36 133.10 39.23 C 126.36 66.21 116.84 92.39 109.37 119.16 C 106.00 133.39 101.89 147.43 98.86 161.74 C 109.34 147.48 118.60 132.37 128.92 118.00 C 149.81 87.14 169.57 55.53 190.65 24.80 C 193.06 21.45 195.32 17.06 199.95 16.68 C 200.97 17.11 201.99 17.52 203.02 17.95 C 203.38 18.42 204.09 19.36 204.45 19.84 C 204.89 22.62 204.16 25.35 202.83 27.79 C 193.73 46.26 183.32 64.09 174.88 82.89 C 168.64 97.29 162.51 111.77 157.65 126.70 C 155.03 134.40 153.81 142.48 153.08 150.55 C 152.71 154.10 152.05 158.06 153.81 161.34 C 158.41 160.32 162.54 157.95 166.61 155.67 C 174.83 150.81 182.63 145.14 189.48 138.48 C 198.63 128.53 203.84 115.85 210.16 104.08 C 211.63 101.43 213.68 98.39 217.01 98.15 C 220.42 97.53 223.85 100.49 223.78 103.94 C 223.76 107.19 222.31 110.20 221.29 113.23 C 215.53 128.48 209.15 143.50 204.19 159.04 C 215.18 148.40 225.78 137.34 235.97 125.94 C 242.22 117.12 248.87 107.84 258.80 102.89 C 264.91 99.82 271.94 102.31 277.58 105.26 C 280.32 106.67 283.71 108.65 283.75 112.16 C 284.34 116.15 279.63 119.33 276.05 117.85 C 272.30 116.44 269.08 113.60 265.00 113.12 C 260.38 114.60 257.42 118.78 254.07 122.03 C 243.65 132.42 237.70 147.40 238.81 162.11 C 238.88 164.72 242.02 165.02 243.99 164.76 C 251.35 163.92 258.41 160.77 264.09 156.03 C 272.38 149.30 279.45 141.08 285.01 131.98 C 292.14 119.00 295.61 104.48 299.67 90.36 C 305.26 69.86 311.68 49.56 315.96 28.72 C 316.21 27.49 317.07 26.53 317.72 25.49 C 319.71 25.31 322.07 24.68 323.74 26.15 C 326.30 27.86 326.28 31.39 325.57 34.06 C 314.41 74.11 302.74 114.04 292.70 154.39 C 301.95 137.00 310.90 119.46 320.17 102.08 C 322.46 98.20 324.28 93.93 327.44 90.65 C 329.16 88.66 331.97 89.35 334.28 89.30 C 337.28 91.50 338.44 95.33 338.22 98.92 C 337.57 107.94 336.37 116.93 336.58 125.99 C 336.74 135.00 334.50 144.34 337.62 153.08 C 339.17 156.86 341.98 159.90 344.76 162.82 C 344.62 151.30 346.56 139.12 353.73 129.75 C 360.68 120.53 370.15 113.17 380.87 108.86 C 385.14 107.18 390.01 105.96 394.49 107.58 C 397.70 108.89 401.18 111.21 401.45 115.00 C 402.24 130.69 399.48 146.37 400.71 162.06 C 400.33 165.79 404.85 166.99 407.76 166.56 C 411.65 165.13 414.96 162.50 418.38 160.21 C 417.05 148.47 417.59 136.21 422.17 125.18 C 426.50 114.86 435.96 106.76 446.79 104.03 C 457.90 101.29 467.23 112.73 467.54 122.98 C 467.14 131.33 461.61 138.27 456.27 144.26 C 448.46 151.63 439.68 157.87 430.98 164.14 C 433.59 168.47 439.56 170.68 444.13 168.09 C 459.61 160.00 471.39 146.68 482.90 133.87 C 484.32 132.03 486.42 130.43 486.69 127.97 C 489.88 107.42 493.69 86.87 499.91 67.00 C 504.34 53.60 510.66 40.91 517.35 28.51 C 521.41 21.35 525.46 14.09 530.77 7.75 M 508.88 70.77 C 504.53 85.04 501.64 99.70 499.02 114.37 C 507.87 102.41 516.74 90.17 522.11 76.17 C 526.80 63.89 529.82 51.04 532.19 38.14 C 533.40 30.84 534.69 23.53 534.73 16.11 C 524.31 33.39 515.18 51.57 508.88 70.77 M 435.28 125.23 C 429.90 133.24 429.02 143.33 428.91 152.72 C 437.51 145.83 447.33 139.88 453.54 130.52 C 455.51 127.52 457.63 123.68 455.83 120.10 C 454.60 117.58 452.27 114.30 449.03 115.18 C 443.50 116.84 438.68 120.61 435.28 125.23 M 373.07 127.13 C 366.50 132.28 360.39 138.74 358.15 147.00 C 356.48 153.48 354.96 160.41 356.87 167.02 C 367.04 164.96 376.35 158.92 382.80 150.85 C 389.27 141.60 389.63 129.69 389.08 118.82 C 383.18 120.27 377.91 123.56 373.07 127.13 Z" />
<path fill="#ffffff" opacity="1.00" d=" M 223.90 56.88 C 228.96 51.75 238.90 59.76 234.76 65.71 C 232.20 70.31 224.98 69.61 222.49 65.27 C 221.61 62.42 221.39 59.01 223.90 56.88 Z" />
<path fill="#ffffff" opacity="1.00" d=" M 611.36 65.39 C 613.39 61.97 617.43 60.72 621.20 61.50 C 622.77 62.75 624.17 64.21 625.43 65.78 C 626.82 74.31 625.42 82.94 624.14 91.39 C 621.98 103.88 619.46 116.38 615.12 128.32 C 611.99 137.97 607.90 148.04 599.47 154.27 C 594.33 158.47 587.70 159.78 581.41 161.22 C 573.50 177.26 566.09 193.61 557.00 209.04 C 551.64 218.07 545.11 226.33 538.60 234.55 C 543.95 242.84 551.33 251.77 561.98 252.34 C 570.06 252.15 577.72 248.53 584.51 244.38 C 598.02 234.04 609.70 221.48 623.41 211.38 C 626.40 209.06 630.95 208.50 634.02 210.98 C 636.92 213.18 637.43 216.99 638.84 220.12 C 640.49 223.65 642.72 226.87 644.98 230.03 C 653.60 222.26 660.59 212.89 669.08 204.99 C 670.96 203.13 673.49 202.30 676.00 201.67 C 678.04 202.49 680.59 203.02 681.72 205.15 C 682.90 206.86 682.91 209.03 683.33 211.01 C 686.51 207.36 689.93 203.71 694.22 201.38 C 697.81 199.34 702.51 200.75 704.89 203.98 C 707.88 207.87 707.69 213.00 708.65 217.59 C 709.21 222.67 716.04 222.70 719.90 221.73 C 741.61 215.47 763.16 207.43 785.95 206.25 C 802.99 205.67 820.04 206.60 837.07 205.93 C 870.84 203.83 904.02 196.80 937.48 192.19 C 955.76 188.53 973.85 183.94 991.85 179.08 C 993.52 178.30 995.19 178.92 996.76 179.64 C 996.30 182.35 993.68 183.40 991.61 184.65 C 980.01 191.15 968.50 197.88 956.43 203.49 C 947.28 207.07 937.42 208.12 927.80 209.69 C 907.45 213.07 887.09 216.35 866.62 218.90 C 852.14 220.67 837.57 222.11 822.96 221.86 C 811.27 221.95 799.59 220.86 787.91 221.57 C 766.72 222.09 746.61 229.46 726.47 235.26 C 717.92 237.92 707.63 237.34 700.50 231.50 C 696.44 228.22 695.18 222.87 694.92 217.91 C 687.39 225.40 680.72 233.72 673.03 241.06 C 670.86 243.10 668.14 245.06 664.99 244.70 C 660.48 244.60 657.32 239.72 658.32 235.45 C 654.35 240.56 647.77 246.27 640.90 243.22 C 633.57 239.75 630.05 231.77 626.54 224.94 C 616.95 233.16 607.59 241.68 598.53 250.47 C 590.39 260.28 577.76 264.95 565.54 267.04 C 565.47 266.94 565.34 266.74 565.28 266.65 C 558.07 267.91 550.54 265.39 544.36 261.64 C 537.96 257.90 533.07 252.14 528.84 246.16 C 518.73 257.55 508.55 268.97 496.99 278.92 C 494.23 281.36 490.85 283.45 487.03 283.26 C 486.28 282.92 485.51 282.63 484.74 282.39 C 483.58 281.44 482.47 280.43 481.49 279.31 C 480.56 276.64 480.02 273.80 480.70 271.00 C 482.61 260.66 486.52 250.80 490.90 241.28 C 495.98 230.95 501.10 220.41 508.67 211.62 C 512.00 207.62 517.34 204.67 522.62 206.52 C 528.31 208.86 530.34 215.24 531.96 220.63 C 546.20 202.96 555.74 182.23 565.61 161.96 C 556.59 162.14 546.35 161.16 540.04 153.88 C 531.93 145.38 531.48 132.95 531.84 121.89 C 532.67 112.99 536.28 104.35 541.94 97.44 C 542.60 97.41 543.92 97.35 544.58 97.33 C 545.11 103.67 542.69 109.77 542.75 116.10 C 542.69 123.59 542.54 131.19 544.39 138.51 C 546.05 143.66 549.81 148.86 555.52 149.72 C 560.68 150.43 565.93 150.42 571.14 150.27 C 581.17 129.11 590.69 107.70 600.64 86.50 C 604.05 79.39 607.16 72.08 611.36 65.39 M 611.06 96.31 C 603.33 113.58 595.44 130.78 587.46 147.94 C 591.05 146.26 594.48 144.00 596.76 140.67 C 601.41 134.16 603.31 126.23 605.87 118.76 C 608.36 111.46 608.68 103.63 611.06 96.31 M 496.98 260.79 C 505.29 251.84 513.95 243.13 521.37 233.40 C 519.80 229.68 518.79 225.77 517.76 221.88 C 508.24 233.19 501.38 246.70 496.98 260.79 Z" />
</g>
</svg>
