<?xml version="1.0" encoding="UTF-8" ?>
<!DOCTYPE svg PUBLIC "-//W3C//DTD SVG 1.1//EN" "http://www.w3.org/Graphics/SVG/1.1/DTD/svg11.dtd">
<svg width="554pt" height="154pt" viewBox="0 0 554 154" version="1.1" xmlns="http://www.w3.org/2000/svg">
<g id="#ffffffff">
<path fill="#ffffff" opacity="1.00" d=" M 194.40 4.54 C 195.63 4.05 197.00 4.37 198.30 4.32 C 199.58 6.28 199.77 8.59 198.51 10.62 C 187.34 35.09 176.15 59.56 165.04 84.06 C 172.75 76.06 179.74 67.32 188.10 59.98 C 189.74 58.40 192.92 57.34 194.59 59.40 C 196.75 61.29 195.46 64.41 194.41 66.56 C 190.53 74.53 186.15 82.26 181.94 90.07 C 189.76 83.19 197.10 75.76 204.06 68.02 C 210.07 61.93 218.57 58.45 227.14 58.77 C 228.16 59.20 229.18 59.62 230.20 60.03 C 231.00 61.84 231.46 63.80 231.03 65.78 C 230.53 74.91 227.97 83.77 227.25 92.88 C 230.16 91.38 233.56 90.21 235.76 87.77 C 236.59 80.79 237.23 73.41 240.97 67.25 C 244.33 62.68 249.77 60.20 255.05 58.57 C 257.89 58.10 261.64 57.54 263.46 60.38 C 265.89 63.76 263.98 68.04 262.66 71.48 C 259.07 80.72 250.12 85.91 242.91 92.03 C 245.46 94.37 249.01 93.39 252.08 93.21 C 253.71 92.71 255.37 92.39 257.03 92.03 C 258.37 91.66 259.71 91.36 261.06 91.04 C 267.10 89.19 272.97 86.66 278.10 82.94 C 278.88 75.51 280.14 68.15 281.95 60.90 C 282.61 58.55 283.27 56.19 283.88 53.82 C 287.92 39.77 293.96 26.34 301.64 13.91 C 303.10 11.48 304.86 9.25 306.92 7.30 C 309.52 7.28 311.76 9.26 311.58 11.97 C 311.23 24.60 307.16 36.75 302.65 48.43 C 297.53 61.10 292.80 74.27 284.28 85.13 C 283.26 86.89 284.32 88.98 284.43 90.85 C 288.42 92.50 292.99 91.56 296.56 89.34 C 302.44 85.78 307.74 81.35 312.95 76.88 C 317.28 73.09 319.75 67.76 323.39 63.39 C 324.41 61.85 326.69 61.74 328.14 62.70 C 331.44 66.05 328.37 70.90 327.77 74.76 C 333.09 70.87 337.65 65.47 344.01 63.34 C 344.49 63.76 345.44 64.60 345.91 65.03 C 346.36 69.12 343.47 72.34 342.41 76.08 C 341.07 80.51 339.65 84.98 339.34 89.62 C 347.72 91.33 353.91 84.40 358.59 78.54 C 361.77 75.11 361.66 70.22 362.94 65.99 C 363.41 63.57 367.13 63.79 367.67 66.03 C 368.63 73.35 364.72 80.02 364.18 87.20 C 369.24 82.95 373.76 78.12 378.47 73.50 C 380.26 71.60 382.48 69.86 383.17 67.22 C 387.16 54.58 391.17 41.95 395.72 29.51 C 397.72 23.32 402.06 17.87 407.54 14.42 C 409.70 12.66 412.60 14.62 413.08 17.02 C 414.24 23.22 412.27 29.38 410.11 35.12 C 404.87 48.04 399.23 61.28 389.47 71.50 C 387.72 73.26 387.16 75.74 386.51 78.04 C 384.97 83.85 383.20 89.60 382.05 95.50 C 385.71 96.47 389.79 96.65 393.29 94.98 C 393.51 94.55 393.96 93.69 394.18 93.26 C 394.82 86.53 397.83 80.19 401.23 74.43 C 403.74 69.97 409.17 68.39 413.99 68.58 C 418.15 68.66 422.90 68.14 426.42 70.76 C 430.07 77.69 427.25 85.77 428.47 93.20 C 434.10 86.86 439.17 80.06 444.51 73.48 C 446.10 71.70 447.59 69.66 449.81 68.64 C 452.71 68.10 455.03 71.46 453.98 74.06 C 452.58 78.87 450.17 83.29 448.02 87.79 C 453.18 82.34 457.98 76.52 463.63 71.56 C 465.44 69.94 468.53 68.42 470.57 70.51 C 473.09 72.60 472.14 76.19 471.39 78.89 C 469.87 83.90 468.43 88.98 466.27 93.76 C 471.71 88.70 477.17 83.64 482.53 78.49 C 485.61 75.77 488.70 72.62 492.87 71.73 C 493.46 71.93 494.62 72.32 495.20 72.51 C 496.15 73.87 497.54 75.21 497.33 77.03 C 496.95 84.33 492.16 90.79 492.45 98.18 C 493.13 98.93 493.87 99.64 494.65 100.30 C 503.13 101.67 511.63 99.91 520.03 98.77 C 524.82 98.13 529.44 96.63 533.98 94.99 C 534.95 94.62 535.92 94.25 536.90 93.87 C 539.25 92.91 541.56 91.86 543.85 90.78 C 546.42 89.46 548.85 87.72 551.77 87.24 C 551.50 87.84 550.98 89.04 550.72 89.64 C 541.83 95.72 531.93 100.57 521.50 103.37 C 513.08 104.90 504.58 107.08 495.95 106.33 C 492.01 105.86 487.67 103.74 486.55 99.62 C 485.50 93.17 488.35 87.06 489.97 80.96 C 482.96 86.95 476.80 93.86 469.78 99.84 C 467.84 101.57 465.55 102.80 463.02 103.41 C 460.90 102.34 458.92 100.76 458.86 98.17 C 459.31 91.80 462.38 86.03 464.11 79.97 C 458.15 86.39 452.44 93.05 446.28 99.27 C 444.16 101.39 440.35 104.01 437.88 100.93 C 435.95 96.97 438.78 92.80 440.07 89.07 C 436.42 94.17 432.70 101.14 425.77 101.74 C 421.72 99.40 421.47 94.46 421.45 90.29 C 416.61 96.58 408.81 100.31 400.94 100.70 C 398.20 100.92 395.88 99.36 394.01 97.54 C 389.40 100.17 384.13 101.92 378.77 101.41 C 377.18 99.99 374.96 98.54 375.32 96.08 C 375.69 91.33 377.46 86.82 378.67 82.23 C 373.94 87.37 368.42 91.69 363.44 96.56 C 362.42 97.43 362.33 98.85 361.87 100.02 C 361.47 104.00 360.68 107.92 359.91 111.84 C 357.86 123.98 356.11 137.68 346.35 146.32 C 342.57 149.42 338.11 153.54 332.82 152.33 C 329.02 150.96 327.60 146.72 327.12 143.07 C 325.33 133.64 329.32 124.17 334.75 116.64 C 341.08 109.01 348.17 102.04 355.53 95.43 C 357.86 93.69 357.88 90.59 358.54 88.03 C 355.00 91.55 351.06 95.15 345.91 95.90 C 341.55 96.92 335.48 96.73 333.48 91.95 C 332.35 85.45 335.61 79.27 337.72 73.31 C 333.80 77.16 329.15 80.23 325.45 84.29 C 321.05 96.98 318.21 110.28 312.70 122.58 C 307.95 131.25 302.81 140.61 293.90 145.62 C 291.03 147.41 286.56 147.59 284.45 144.55 C 281.71 140.55 281.81 135.22 283.01 130.69 C 285.52 121.57 289.38 112.73 295.06 105.13 C 301.67 96.74 309.85 89.81 317.96 82.96 C 319.84 81.50 320.06 79.00 320.85 76.91 C 316.38 82.06 311.08 86.38 305.77 90.63 C 301.94 93.51 298.01 96.75 293.13 97.54 C 289.12 98.00 284.52 98.31 281.16 95.63 C 279.36 94.36 278.61 92.20 277.96 90.20 C 271.16 95.11 263.22 98.21 255.11 100.19 C 251.11 100.67 247.04 101.04 243.03 100.50 C 240.28 99.88 238.40 97.67 236.73 95.56 C 233.70 97.30 230.62 99.35 227.05 99.68 C 223.82 100.01 220.93 97.27 220.77 94.08 C 215.54 97.47 209.46 100.35 203.05 99.70 C 199.85 99.69 196.94 97.11 196.44 93.97 C 196.02 90.89 196.49 87.80 196.84 84.74 C 192.54 89.16 188.05 93.39 183.39 97.42 C 181.22 99.12 178.89 101.36 175.89 100.78 C 172.92 100.39 171.98 96.49 173.30 94.14 C 176.38 86.16 180.90 78.85 184.86 71.30 C 178.98 78.88 171.67 85.24 165.72 92.78 C 162.84 96.00 160.38 100.09 156.03 101.48 C 155.35 101.11 154.00 100.38 153.32 100.01 C 152.55 95.33 155.36 91.26 156.84 87.03 C 153.21 93.03 147.07 97.00 140.84 99.90 C 136.54 101.85 130.61 102.70 126.93 99.12 C 125.16 97.65 124.59 95.34 124.04 93.22 C 119.04 98.46 112.00 101.49 104.94 102.72 C 101.86 103.31 99.02 101.69 97.39 99.14 C 97.67 97.13 98.12 95.15 98.62 93.18 C 94.68 97.11 90.36 100.95 85.11 103.00 C 81.98 104.44 77.91 101.46 78.42 98.03 C 78.91 91.94 80.75 86.05 82.21 80.14 C 84.64 71.84 86.53 63.33 89.90 55.35 C 89.54 55.36 88.82 55.38 88.46 55.39 C 88.43 55.94 88.37 57.03 88.34 57.58 C 81.04 68.51 74.60 80.02 66.92 90.70 C 64.07 94.54 61.42 98.67 57.64 101.68 C 55.73 103.38 52.37 103.27 50.92 101.02 C 49.88 99.26 49.89 97.10 49.86 95.11 C 53.04 74.70 60.15 55.17 64.34 34.98 C 54.92 45.98 47.57 58.51 39.62 70.55 C 33.46 79.69 28.34 89.46 23.16 99.17 C 21.86 101.45 20.80 104.17 18.27 105.37 C 15.47 105.99 13.29 102.60 14.56 100.15 C 22.47 83.33 31.38 66.97 38.76 49.90 C 39.91 47.29 41.05 44.68 42.23 42.08 C 43.54 39.04 44.90 36.00 45.84 32.81 C 38.75 37.96 32.52 44.21 25.23 49.08 C 18.31 53.93 11.51 59.55 3.26 61.83 C 3.71 59.42 5.91 58.13 7.49 56.51 C 14.16 49.98 22.18 45.09 29.23 39.02 C 34.58 34.73 39.38 29.58 45.52 26.40 C 47.32 25.22 49.35 26.10 51.12 26.81 C 54.10 32.63 49.94 38.62 48.19 44.17 C 47.67 45.39 47.20 46.64 46.66 47.86 L 46.73 48.09 C 50.73 42.09 54.84 36.12 59.64 30.72 C 61.83 28.38 64.59 25.66 68.12 26.50 C 71.34 27.97 71.05 31.97 70.61 34.90 C 69.36 43.04 67.02 50.98 64.98 58.95 C 61.85 70.56 58.95 82.23 56.26 93.94 C 61.34 87.73 65.74 81.00 70.07 74.26 C 78.57 61.20 86.57 47.82 94.68 34.52 C 95.92 32.65 97.39 29.97 100.08 30.69 C 101.92 31.78 102.88 34.13 102.11 36.18 C 100.88 40.81 99.11 45.29 97.91 49.94 C 93.41 65.18 88.32 80.30 85.23 95.91 C 90.77 92.02 95.78 87.39 100.28 82.35 C 105.97 75.70 109.67 67.69 114.00 60.15 C 114.97 58.23 116.83 57.27 118.96 57.43 C 119.40 57.84 120.27 58.68 120.71 59.09 C 120.67 60.57 120.94 62.15 120.20 63.50 C 114.86 74.45 108.84 85.09 104.39 96.45 C 109.80 95.25 115.33 93.31 119.45 89.47 C 124.38 83.77 127.61 76.88 131.58 70.53 C 134.80 65.36 140.82 61.68 147.03 62.20 C 149.87 62.42 153.38 62.44 155.30 64.92 C 156.59 67.13 154.63 70.11 152.06 69.66 C 149.08 69.12 146.09 68.17 143.03 68.80 C 136.55 71.66 134.07 78.82 130.65 84.49 C 130.19 87.58 129.24 91.74 131.41 94.34 C 136.15 96.01 140.64 92.91 144.44 90.43 C 149.97 87.01 153.46 81.38 157.07 76.16 C 162.16 68.34 167.01 60.34 171.27 52.04 C 178.35 37.75 185.07 23.30 191.79 8.84 C 192.53 7.35 193.20 5.75 194.40 4.54 M 306.21 15.37 C 301.34 24.73 295.69 33.81 292.43 43.93 C 289.23 54.08 286.06 64.40 285.18 75.05 C 291.63 62.31 297.16 49.13 301.79 35.62 C 304.02 29.53 304.99 23.08 306.67 16.85 L 306.72 15.97 C 306.59 15.82 306.34 15.52 306.21 15.37 M 399.10 37.13 C 397.45 42.13 395.82 47.13 394.22 52.14 C 393.97 53.50 393.68 54.87 393.38 56.22 C 399.19 44.30 407.26 32.74 408.57 19.22 C 403.50 24.02 401.06 30.61 399.10 37.13 M 210.84 70.87 C 204.26 76.23 202.93 85.37 202.66 93.36 C 211.08 94.06 220.01 88.52 221.83 80.01 C 222.62 75.14 223.29 70.24 223.90 65.34 C 219.12 65.78 214.38 67.54 210.84 70.87 M 247.28 71.31 C 245.15 74.69 244.59 78.74 243.62 82.56 C 249.36 78.08 256.01 73.14 257.08 65.40 C 253.53 66.77 249.70 68.21 247.28 71.31 M 408.15 77.18 C 404.10 82.06 402.05 88.29 400.38 94.32 C 406.06 94.08 411.89 92.23 415.67 87.77 C 419.20 84.60 420.03 79.79 421.34 75.47 C 416.99 75.64 411.84 74.28 408.15 77.18 M 315.51 92.52 C 310.50 97.51 305.18 102.21 300.67 107.68 C 295.15 114.42 292.04 122.76 289.90 131.11 C 289.07 134.07 288.97 137.16 289.47 140.18 C 292.62 139.00 295.32 136.83 297.36 134.18 C 300.89 129.67 303.82 124.71 306.37 119.59 C 310.62 110.95 312.61 101.43 316.35 92.60 C 316.14 92.58 315.72 92.54 315.51 92.52 M 341.72 118.57 C 335.83 126.39 331.28 136.74 334.63 146.55 C 340.65 143.58 345.83 138.45 348.05 132.03 C 351.33 123.51 352.88 114.47 354.76 105.58 C 354.98 105.17 355.42 104.34 355.64 103.93 C 350.08 107.83 345.98 113.38 341.72 118.57 Z" />
<path fill="#ffffff" opacity="1.00" d=" M 122.38 41.60 C 124.93 40.52 128.15 42.16 128.47 44.97 C 129.29 48.64 124.28 52.05 121.34 49.47 C 118.70 47.43 119.30 42.88 122.38 41.60 Z" />
<path fill="#ffffff" opacity="1.00" d=" M 330.37 44.60 C 332.91 43.53 336.10 45.13 336.47 47.93 C 337.32 51.60 332.32 55.05 329.36 52.48 C 326.71 50.45 327.29 45.90 330.37 44.60 Z" />
</g>
</svg>
