<?xml version="1.0" encoding="UTF-8"?>
<!DOCTYPE svg  PUBLIC '-//W3C//DTD SVG 1.1//EN'  'http://www.w3.org/Graphics/SVG/1.1/DTD/svg11.dtd'>
<svg width="554pt" height="154pt" version="1.1" viewBox="0 0 554 154" xmlns="http://www.w3.org/2000/svg">
<g fill="#fff">
<path d="m194.4 4.54c1.23-0.49 2.6-0.17 3.9-0.22 1.28 1.96 1.47 4.27 0.21 6.3-11.17 24.47-22.36 48.94-33.47 73.44 7.71-8 14.7-16.74 23.06-24.08 1.64-1.58 4.82-2.64 6.49-0.58 2.16 1.89 0.87 5.01-0.18 7.16-3.88 7.97-8.26 15.7-12.47 23.51 7.82-6.88 15.16-14.31 22.12-22.05 6.01-6.09 14.51-9.57 23.08-9.25 1.02 0.43 2.04 0.85 3.06 1.26 0.8 1.81 1.26 3.77 0.83 5.75-0.5 9.13-3.06 17.99-3.78 27.1 2.91-1.5 6.31-2.67 8.51-5.11 0.83-6.98 1.47-14.36 5.21-20.52 3.36-4.57 8.8-7.05 14.08-8.68 2.84-0.47 6.59-1.03 8.41 1.81 2.43 3.38 0.52 7.66-0.8 11.1-3.59 9.24-12.54 14.43-19.75 20.55 2.55 2.34 6.1 1.36 9.17 1.18 1.63-0.5 3.29-0.82 4.95-1.18 1.34-0.37 2.68-0.67 4.03-0.99 6.04-1.85 11.91-4.38 17.04-8.1 0.78-7.43 2.04-14.79 3.85-22.04 0.66-2.35 1.32-4.71 1.93-7.08 4.04-14.05 10.08-27.48 17.76-39.91 1.46-2.43 3.22-4.66 5.28-6.61 2.6-0.02 4.84 1.96 4.66 4.67-0.35 12.63-4.42 24.78-8.93 36.46-5.12 12.67-9.85 25.84-18.37 36.7-1.02 1.76 0.04 3.85 0.15 5.72 3.99 1.65 8.56 0.71 12.13-1.51 5.88-3.56 11.18-7.99 16.39-12.46 4.33-3.79 6.8-9.12 10.44-13.49 1.02-1.54 3.3-1.65 4.75-0.69 3.3 3.35 0.23 8.2-0.37 12.06 5.32-3.89 9.88-9.29 16.24-11.42 0.48 0.42 1.43 1.26 1.9 1.69 0.45 4.09-2.44 7.31-3.5 11.05-1.34 4.43-2.76 8.9-3.07 13.54 8.38 1.71 14.57-5.22 19.25-11.08 3.18-3.43 3.07-8.32 4.35-12.55 0.47-2.42 4.19-2.2 4.73 0.04 0.96 7.32-2.95 13.99-3.49 21.17 5.06-4.25 9.58-9.08 14.29-13.7 1.79-1.9 4.01-3.64 4.7-6.28 3.99-12.64 8-25.27 12.55-37.71 2-6.19 6.34-11.64 11.82-15.09 2.16-1.76 5.06 0.2 5.54 2.6 1.16 6.2-0.81 12.36-2.97 18.1-5.24 12.92-10.88 26.16-20.64 36.38-1.75 1.76-2.31 4.24-2.96 6.54-1.54 5.81-3.31 11.56-4.46 17.46 3.66 0.97 7.74 1.15 11.24-0.52 0.22-0.43 0.67-1.29 0.89-1.72 0.64-6.73 3.65-13.07 7.05-18.83 2.51-4.46 7.94-6.04 12.76-5.85 4.16 0.08 8.91-0.44 12.43 2.18 3.65 6.93 0.83 15.01 2.05 22.44 5.63-6.34 10.7-13.14 16.04-19.72 1.59-1.78 3.08-3.82 5.3-4.84 2.9-0.54 5.22 2.82 4.17 5.42-1.4 4.81-3.81 9.23-5.96 13.73 5.16-5.45 9.96-11.27 15.61-16.23 1.81-1.62 4.9-3.14 6.94-1.05 2.52 2.09 1.57 5.68 0.82 8.38-1.52 5.01-2.96 10.09-5.12 14.87 5.44-5.06 10.9-10.12 16.26-15.27 3.08-2.72 6.17-5.87 10.34-6.76 0.59 0.2 1.75 0.59 2.33 0.78 0.95 1.36 2.34 2.7 2.13 4.52-0.38 7.3-5.17 13.76-4.88 21.15 0.68 0.75 1.42 1.46 2.2 2.12 8.48 1.37 16.98-0.39 25.38-1.53 4.79-0.64 9.41-2.14 13.95-3.78 0.97-0.37 1.94-0.74 2.92-1.12 2.35-0.96 4.66-2.01 6.95-3.09 2.57-1.32 5-3.06 7.92-3.54-0.27 0.6-0.79 1.8-1.05 2.4-8.89 6.08-18.79 10.93-29.22 13.73-8.42 1.53-16.92 3.71-25.55 2.96-3.94-0.47-8.28-2.59-9.4-6.71-1.05-6.45 1.8-12.56 3.42-18.66-7.01 5.99-13.17 12.9-20.19 18.88-1.94 1.73-4.23 2.96-6.76 3.57-2.12-1.07-4.1-2.65-4.16-5.24 0.45-6.37 3.52-12.14 5.25-18.2-5.96 6.42-11.67 13.08-17.83 19.3-2.12 2.12-5.93 4.74-8.4 1.66-1.93-3.96 0.9-8.13 2.19-11.86-3.65 5.1-7.37 12.07-14.3 12.67-4.05-2.34-4.3-7.28-4.32-11.45-4.84 6.29-12.64 10.02-20.51 10.41-2.74 0.22-5.06-1.34-6.93-3.16-4.61 2.63-9.88 4.38-15.24 3.87-1.59-1.42-3.81-2.87-3.45-5.33 0.37-4.75 2.14-9.26 3.35-13.85-4.73 5.14-10.25 9.46-15.23 14.33-1.02 0.87-1.11 2.29-1.57 3.46-0.4 3.98-1.19 7.9-1.96 11.82-2.05 12.14-3.8 25.84-13.56 34.48-3.78 3.1-8.24 7.22-13.53 6.01-3.8-1.37-5.22-5.61-5.7-9.26-1.79-9.43 2.2-18.9 7.63-26.43 6.33-7.63 13.42-14.6 20.78-21.21 2.33-1.74 2.35-4.84 3.01-7.4-3.54 3.52-7.48 7.12-12.63 7.87-4.36 1.02-10.43 0.83-12.43-3.95-1.13-6.5 2.13-12.68 4.24-18.64-3.92 3.85-8.57 6.92-12.27 10.98-4.4 12.69-7.24 25.99-12.75 38.29-4.75 8.67-9.89 18.03-18.8 23.04-2.87 1.79-7.34 1.97-9.45-1.07-2.74-4-2.64-9.33-1.44-13.86 2.51-9.12 6.37-17.96 12.05-25.56 6.61-8.39 14.79-15.32 22.9-22.17 1.88-1.46 2.1-3.96 2.89-6.05-4.47 5.15-9.77 9.47-15.08 13.72-3.83 2.88-7.76 6.12-12.64 6.91-4.01 0.46-8.61 0.77-11.97-1.91-1.8-1.27-2.55-3.43-3.2-5.43-6.8 4.91-14.74 8.01-22.85 9.99-4 0.48-8.07 0.85-12.08 0.31-2.75-0.62-4.63-2.83-6.3-4.94-3.03 1.74-6.11 3.79-9.68 4.12-3.23 0.33-6.12-2.41-6.28-5.6-5.23 3.39-11.31 6.27-17.72 5.62-3.2-0.01-6.11-2.59-6.61-5.73-0.42-3.08 0.05-6.17 0.4-9.23-4.3 4.42-8.79 8.65-13.45 12.68-2.17 1.7-4.5 3.94-7.5 3.36-2.97-0.39-3.91-4.29-2.59-6.64 3.08-7.98 7.6-15.29 11.56-22.84-5.88 7.58-13.19 13.94-19.14 21.48-2.88 3.22-5.34 7.31-9.69 8.7-0.68-0.37-2.03-1.1-2.71-1.47-0.77-4.68 2.04-8.75 3.52-12.98-3.63 6-9.77 9.97-16 12.87-4.3 1.95-10.23 2.8-13.91-0.78-1.77-1.47-2.34-3.78-2.89-5.9-5 5.24-12.04 8.27-19.1 9.5-3.08 0.59-5.92-1.03-7.55-3.58 0.28-2.01 0.73-3.99 1.23-5.96-3.94 3.93-8.26 7.77-13.51 9.82-3.13 1.44-7.2-1.54-6.69-4.97 0.49-6.09 2.33-11.98 3.79-17.89 2.43-8.3 4.32-16.81 7.69-24.79l-1.44 0.04c-0.03 0.55-0.09 1.64-0.12 2.19-7.3 10.93-13.74 22.44-21.42 33.12-2.85 3.84-5.5 7.97-9.28 10.98-1.91 1.7-5.27 1.59-6.72-0.66-1.04-1.76-1.03-3.92-1.06-5.91 3.18-20.41 10.29-39.94 14.48-60.13-9.42 11-16.77 23.53-24.72 35.57-6.16 9.14-11.28 18.91-16.46 28.62-1.3 2.28-2.36 5-4.89 6.2-2.8 0.62-4.98-2.77-3.71-5.22 7.91-16.82 16.82-33.18 24.2-50.25 1.15-2.61 2.29-5.22 3.47-7.82 1.31-3.04 2.67-6.08 3.61-9.27-7.09 5.15-13.32 11.4-20.61 16.27-6.92 4.85-13.72 10.47-21.97 12.75 0.45-2.41 2.65-3.7 4.23-5.32 6.67-6.53 14.69-11.42 21.74-17.49 5.35-4.29 10.15-9.44 16.29-12.62 1.8-1.18 3.83-0.3 5.6 0.41 2.98 5.82-1.18 11.81-2.93 17.36-0.52 1.22-0.99 2.47-1.53 3.69l0.07 0.23c4-6 8.11-11.97 12.91-17.37 2.19-2.34 4.95-5.06 8.48-4.22 3.22 1.47 2.93 5.47 2.49 8.4-1.25 8.14-3.59 16.08-5.63 24.05-3.13 11.61-6.03 23.28-8.72 34.99 5.08-6.21 9.48-12.94 13.81-19.68 8.5-13.06 16.5-26.44 24.61-39.74 1.24-1.87 2.71-4.55 5.4-3.83 1.84 1.09 2.8 3.44 2.03 5.49-1.23 4.63-3 9.11-4.2 13.76-4.5 15.24-9.59 30.36-12.68 45.97 5.54-3.89 10.55-8.52 15.05-13.56 5.69-6.65 9.39-14.66 13.72-22.2 0.97-1.92 2.83-2.88 4.96-2.72 0.44 0.41 1.31 1.25 1.75 1.66-0.04 1.48 0.23 3.06-0.51 4.41-5.34 10.95-11.36 21.59-15.81 32.95 5.41-1.2 10.94-3.14 15.06-6.98 4.93-5.7 8.16-12.59 12.13-18.94 3.22-5.17 9.24-8.85 15.45-8.33 2.84 0.22 6.35 0.24 8.27 2.72 1.29 2.21-0.67 5.19-3.24 4.74-2.98-0.54-5.97-1.49-9.03-0.86-6.48 2.86-8.96 10.02-12.38 15.69-0.46 3.09-1.41 7.25 0.76 9.85 4.74 1.67 9.23-1.43 13.03-3.91 5.53-3.42 9.02-9.05 12.63-14.27 5.09-7.82 9.94-15.82 14.2-24.12 7.08-14.29 13.8-28.74 20.52-43.2 0.74-1.49 1.41-3.09 2.61-4.3m111.81 10.83c-4.87 9.36-10.52 18.44-13.78 28.56-3.2 10.15-6.37 20.47-7.25 31.12 6.45-12.74 11.98-25.92 16.61-39.43 2.23-6.09 3.2-12.54 4.88-18.77l0.05-0.88c-0.13-0.15-0.38-0.45-0.51-0.6m92.89 21.76c-1.65 5-3.28 10-4.88 15.01-0.25 1.36-0.54 2.73-0.84 4.08 5.81-11.92 13.88-23.48 15.19-37-5.07 4.8-7.51 11.39-9.47 17.91m-188.26 33.74c-6.58 5.36-7.91 14.5-8.18 22.49 8.42 0.7 17.35-4.84 19.17-13.35 0.79-4.87 1.46-9.77 2.07-14.67-4.78 0.44-9.52 2.2-13.06 5.53m36.44 0.44c-2.13 3.38-2.69 7.43-3.66 11.25 5.74-4.48 12.39-9.42 13.46-17.16-3.55 1.37-7.38 2.81-9.8 5.91m160.87 5.87c-4.05 4.88-6.1 11.11-7.77 17.14 5.68-0.24 11.51-2.09 15.29-6.55 3.53-3.17 4.36-7.98 5.67-12.3-4.35 0.17-9.5-1.19-13.19 1.71m-92.64 15.34c-5.01 4.99-10.33 9.69-14.84 15.16-5.52 6.74-8.63 15.08-10.77 23.43-0.83 2.96-0.93 6.05-0.43 9.07 3.15-1.18 5.85-3.35 7.89-6 3.53-4.51 6.46-9.47 9.01-14.59 4.25-8.64 6.24-18.16 9.98-26.99l-0.84-0.08m26.21 26.05c-5.89 7.82-10.44 18.17-7.09 27.98 6.02-2.97 11.2-8.1 13.42-14.52 3.28-8.52 4.83-17.56 6.71-26.45 0.22-0.41 0.66-1.24 0.88-1.65-5.56 3.9-9.66 9.45-13.92 14.64z"/>
<path d="m122.38 41.6c2.55-1.08 5.77 0.56 6.09 3.37 0.82 3.67-4.19 7.08-7.13 4.5-2.64-2.04-2.04-6.59 1.04-7.87z"/>
<path d="m330.37 44.6c2.54-1.07 5.73 0.53 6.1 3.33 0.85 3.67-4.15 7.12-7.11 4.55-2.65-2.03-2.07-6.58 1.01-7.88z"/>
</g>
</svg>
