<?xml version="1.0" encoding="UTF-8" ?>
<!DOCTYPE svg PUBLIC "-//W3C//DTD SVG 1.1//EN" "http://www.w3.org/Graphics/SVG/1.1/DTD/svg11.dtd">
<svg width="1890pt" height="672pt" viewBox="0 0 1890 672" version="1.1" xmlns="http://www.w3.org/2000/svg">
<g id="#ffffffff">
<path fill="#ffffff" opacity="1.00" d=" M 1521.94 14.13 C 1525.34 12.31 1529.03 10.55 1533.01 10.99 C 1536.88 11.45 1540.99 9.33 1544.60 11.53 C 1548.08 14.09 1551.16 17.36 1552.73 21.46 C 1555.70 27.18 1556.89 33.66 1556.89 40.06 C 1555.48 60.83 1550.57 81.18 1546.41 101.55 C 1541.19 124.92 1534.40 147.90 1526.53 170.51 C 1511.51 212.74 1492.37 254.64 1462.01 288.19 C 1461.97 292.09 1462.10 296.04 1461.16 299.86 C 1460.69 304.93 1461.25 310.05 1460.63 315.11 C 1459.44 320.66 1460.19 326.38 1459.87 332.00 C 1460.11 336.04 1458.76 339.94 1458.98 343.98 C 1458.94 350.02 1459.13 356.10 1458.56 362.13 C 1457.50 366.74 1458.40 371.51 1457.52 376.14 C 1456.52 380.73 1457.24 385.45 1456.78 390.09 C 1455.66 396.41 1454.13 402.67 1453.10 409.01 C 1453.39 413.33 1453.56 417.67 1453.64 422.01 C 1453.96 423.49 1452.80 424.47 1451.95 425.45 C 1448.27 426.69 1444.78 428.61 1440.72 427.82 C 1438.38 421.44 1439.51 414.60 1438.89 407.99 C 1437.73 403.47 1436.41 398.99 1435.38 394.45 C 1433.73 389.12 1433.80 383.50 1432.99 378.02 C 1430.02 360.02 1429.82 341.71 1430.08 323.50 C 1412.54 347.67 1392.45 369.79 1373.05 392.43 C 1370.28 420.82 1367.04 449.17 1363.46 477.50 C 1359.01 514.21 1353.57 550.99 1343.86 586.78 C 1340.13 598.81 1337.47 611.27 1331.76 622.58 C 1325.92 634.09 1317.02 644.88 1304.54 649.36 C 1299.31 652.12 1294.08 654.93 1288.41 656.74 C 1280.47 659.02 1272.22 660.41 1263.95 659.99 C 1258.14 659.54 1251.67 657.47 1248.49 652.20 C 1243.48 652.56 1242.01 646.91 1241.00 643.09 C 1234.27 619.71 1233.01 594.74 1237.41 570.82 C 1245.01 529.50 1262.02 490.17 1284.93 455.06 C 1301.81 429.71 1321.21 406.13 1341.55 383.51 C 1343.04 381.62 1345.18 379.81 1344.93 377.15 C 1344.91 373.20 1346.17 369.40 1346.07 365.45 C 1335.60 377.76 1323.55 388.63 1311.04 398.82 C 1304.34 404.02 1297.33 409.04 1289.42 412.25 C 1287.38 413.22 1285.36 414.24 1283.37 415.29 C 1277.72 418.21 1271.44 419.94 1265.09 420.21 C 1260.99 421.20 1256.34 420.80 1252.98 418.06 C 1250.22 415.33 1248.38 411.72 1247.44 407.97 C 1246.54 402.28 1243.81 396.94 1244.04 391.06 C 1244.75 374.24 1248.55 357.73 1253.29 341.61 C 1252.62 341.88 1251.29 342.43 1250.62 342.71 C 1248.89 343.56 1247.17 344.43 1245.45 345.26 C 1228.68 353.84 1212.77 363.95 1197.17 374.47 C 1190.42 394.79 1185.59 415.71 1178.74 436.00 C 1172.70 455.89 1164.51 475.03 1155.78 493.86 C 1147.08 511.82 1137.27 529.29 1125.64 545.53 C 1114.30 561.29 1101.41 575.85 1087.54 589.41 C 1079.61 596.63 1071.83 604.28 1062.46 609.63 C 1058.70 611.09 1055.06 612.78 1051.60 614.86 C 1048.63 615.51 1045.52 617.22 1042.50 616.37 C 1040.55 616.36 1038.61 616.07 1036.75 615.58 C 1036.32 614.60 1035.93 613.63 1035.59 612.64 C 1034.68 613.73 1033.80 614.83 1032.89 615.92 C 1033.28 614.92 1033.69 613.93 1034.11 612.95 C 1033.29 612.86 1031.64 612.69 1030.82 612.60 C 1032.54 612.18 1034.65 612.54 1035.90 610.96 C 1033.67 610.23 1028.97 611.93 1028.98 608.22 L 1028.13 607.93 L 1029.04 606.21 C 1030.34 608.55 1032.71 609.66 1035.30 610.03 C 1034.53 607.15 1029.08 607.48 1030.49 604.12 C 1029.63 604.50 1028.84 604.95 1028.05 605.43 C 1024.63 595.28 1024.08 584.38 1025.54 573.81 C 1027.73 554.36 1033.34 535.45 1040.12 517.14 C 1048.07 497.21 1058.06 478.02 1070.74 460.68 C 1097.40 423.25 1131.86 392.10 1168.83 365.12 C 1170.38 360.00 1172.00 354.91 1173.75 349.85 C 1148.40 367.59 1123.26 385.63 1097.10 402.16 C 1091.08 405.91 1085.00 409.67 1078.39 412.29 C 1076.39 413.32 1074.38 414.30 1072.38 415.31 C 1067.55 417.51 1062.30 419.04 1056.97 419.04 C 1054.88 418.95 1053.02 420.21 1050.97 420.16 C 1049.49 420.33 1047.53 419.36 1046.57 420.93 C 1045.03 419.18 1042.62 419.85 1040.96 420.98 L 1040.99 419.68 C 1039.72 419.57 1038.47 419.45 1037.23 419.24 C 1036.89 419.50 1036.22 420.03 1035.89 420.29 C 1035.86 419.81 1035.80 418.86 1035.77 418.39 C 1035.38 418.60 1034.60 419.02 1034.21 419.23 C 1033.47 418.03 1032.79 416.81 1032.10 415.60 C 1032.15 416.32 1032.23 417.75 1032.27 418.47 C 1030.16 416.61 1027.71 414.82 1026.77 412.06 C 1024.94 407.10 1024.62 401.77 1022.95 396.76 C 1017.73 401.22 1011.27 403.76 1005.66 407.63 C 1000.18 412.11 993.76 415.17 987.73 418.78 C 982.23 422.13 976.28 424.61 970.44 427.27 C 963.01 430.64 955.34 433.40 947.54 435.76 C 938.49 437.88 929.23 440.00 919.91 438.72 C 914.68 437.75 909.63 434.52 907.75 429.37 C 905.71 425.12 905.94 420.29 904.34 415.92 C 903.36 413.32 903.20 410.54 903.22 407.80 C 898.77 410.65 893.91 412.73 889.55 415.73 C 880.02 420.01 869.40 421.57 859.01 421.07 C 853.14 421.09 847.81 417.13 845.18 412.04 C 841.69 405.69 842.12 398.19 839.58 391.52 C 827.34 403.37 814.99 415.41 800.38 424.36 C 794.38 427.36 788.87 431.30 782.62 433.81 C 778.77 434.86 774.91 436.11 770.88 436.12 C 767.21 436.61 762.73 436.99 759.99 433.97 C 756.10 429.96 755.85 424.08 755.15 418.89 C 751.72 410.89 753.27 401.96 755.16 393.78 C 756.08 390.17 756.94 386.46 758.93 383.25 C 743.60 396.30 728.84 410.60 710.71 419.78 C 703.63 424.32 695.32 427.09 686.89 426.92 C 680.46 425.86 678.39 418.49 678.11 412.89 C 676.98 408.33 675.29 403.74 675.86 398.95 C 678.88 365.79 690.01 334.12 700.03 302.57 C 678.10 325.02 658.97 349.95 639.33 374.37 C 636.43 378.82 632.67 382.69 630.29 387.48 C 628.31 391.46 626.66 395.61 624.46 399.48 C 621.57 404.73 619.09 410.41 614.62 414.56 C 610.40 414.32 608.49 418.69 604.65 419.50 C 601.71 420.19 598.67 420.39 595.68 420.74 C 594.13 416.98 594.98 412.63 592.52 409.15 C 594.35 397.17 602.16 387.33 608.16 377.15 C 619.65 353.23 630.38 328.95 641.92 305.05 C 627.76 323.20 613.85 341.56 599.26 359.37 C 592.01 367.38 585.38 376.70 575.25 381.26 C 565.39 389.18 555.95 397.94 544.47 403.54 C 540.36 406.29 535.94 408.50 531.56 410.79 C 525.62 413.09 519.44 415.12 513.02 415.19 C 508.08 416.49 502.92 414.89 498.64 412.37 C 495.28 410.10 494.03 405.86 494.09 401.99 C 494.27 398.13 491.42 394.90 491.52 391.07 C 491.60 388.03 492.44 385.09 492.82 382.09 C 482.15 391.52 471.15 400.87 458.44 407.46 C 454.31 409.89 450.10 412.20 445.57 413.79 C 439.65 414.97 432.99 417.69 427.22 414.73 C 422.10 411.70 421.80 405.34 420.74 400.14 C 418.62 394.71 419.02 388.66 420.45 383.12 C 423.11 372.27 427.15 361.82 431.68 351.63 C 420.12 363.45 408.47 375.22 395.99 386.08 C 387.91 392.80 379.66 399.45 370.23 404.22 C 361.61 409.86 351.46 413.80 341.01 413.01 C 336.70 413.36 333.07 409.88 331.65 406.07 C 329.22 401.18 329.51 395.56 327.69 390.49 C 326.33 385.80 326.34 380.87 327.02 376.07 C 327.59 367.12 330.22 358.50 332.41 349.86 C 339.00 324.13 349.37 299.61 359.02 274.93 C 371.32 243.92 383.00 212.66 395.72 181.82 C 388.44 191.92 382.03 202.65 375.42 213.21 C 351.58 252.47 330.13 293.13 306.06 332.25 C 288.43 360.72 269.75 388.64 248.32 414.40 C 244.19 418.70 240.82 424.73 234.45 425.84 C 230.97 428.41 227.49 431.35 222.99 431.88 C 219.62 432.09 215.78 434.02 212.80 431.68 C 212.31 429.42 211.77 427.16 211.75 424.84 C 211.79 422.01 209.95 419.63 209.56 416.91 C 209.87 408.40 212.81 400.30 215.04 392.16 C 230.30 343.01 250.44 295.57 267.64 247.10 C 276.46 222.84 284.53 198.31 293.91 174.27 C 290.06 177.66 287.28 182.05 284.04 185.99 C 259.13 216.06 236.15 247.63 213.11 279.13 C 185.21 318.55 157.11 357.89 131.63 398.95 C 125.08 409.30 118.99 419.95 112.09 430.07 C 110.72 432.04 109.02 433.75 107.00 435.05 C 106.22 435.03 104.66 434.97 103.88 434.94 C 99.06 441.27 90.75 443.36 83.14 442.92 C 81.01 442.14 81.60 439.65 81.32 437.88 C 81.48 434.29 80.17 430.87 78.64 427.70 C 78.90 425.50 79.11 423.29 79.75 421.17 C 95.19 372.22 116.46 325.42 136.08 278.07 C 144.37 258.31 152.34 238.43 160.18 218.50 C 172.36 186.30 186.33 154.53 193.37 120.69 C 160.77 144.16 131.92 172.50 105.95 203.05 C 83.13 229.54 61.29 256.89 37.32 282.37 C 34.75 285.24 32.13 288.18 28.65 289.95 C 28.05 289.96 26.86 289.99 26.26 290.00 C 21.48 295.56 13.88 297.15 6.86 296.98 C 5.42 293.51 6.30 289.65 4.87 286.18 C 5.43 286.35 6.57 286.67 7.13 286.83 C 6.07 286.29 3.95 285.22 2.88 284.69 L 5.63 284.49 C 6.12 284.09 7.12 283.28 7.62 282.87 C 6.97 283.09 5.68 283.53 5.04 283.75 C 4.62 283.32 3.78 282.46 3.36 282.03 C 4.48 280.71 5.84 279.64 7.57 279.30 C 9.08 277.41 7.63 274.28 10.87 273.91 C 10.00 273.81 8.27 273.62 7.40 273.53 C 9.05 272.35 11.04 272.56 12.91 272.98 C 11.62 272.09 10.11 271.67 8.64 271.20 L 9.30 270.06 L 10.30 270.87 C 11.22 268.54 11.86 265.75 14.44 264.71 C 15.92 261.26 18.54 258.47 20.81 255.54 C 21.51 255.63 22.91 255.80 23.61 255.89 C 23.03 255.47 21.86 254.63 21.28 254.21 C 21.71 253.95 22.58 253.44 23.01 253.18 C 24.46 251.47 25.62 248.40 28.44 249.66 C 27.98 249.40 27.07 248.86 26.62 248.60 C 35.89 238.19 44.95 227.58 54.05 217.02 C 66.63 201.30 79.94 186.18 93.19 171.04 C 100.67 162.26 108.85 154.14 116.93 145.94 C 135.29 128.10 154.55 111.00 175.91 96.81 C 182.52 92.66 189.23 88.38 196.78 86.16 C 200.55 85.56 204.41 86.16 208.14 85.28 C 212.38 84.59 216.31 87.11 218.70 90.45 C 221.83 93.40 223.16 97.52 224.54 101.46 C 226.59 105.97 227.32 111.12 227.04 116.00 C 225.57 134.15 218.08 151.04 211.94 167.98 C 201.67 193.73 191.83 219.65 181.50 245.37 C 173.64 265.52 165.02 285.36 157.00 305.45 C 202.61 239.74 250.26 175.31 303.69 115.69 C 309.35 109.65 314.69 102.71 322.47 99.30 C 326.92 96.99 332.14 98.39 336.94 97.81 C 340.44 99.80 343.17 103.58 344.27 107.52 C 345.39 110.93 347.34 114.32 346.78 118.03 C 346.24 123.96 344.06 129.54 342.19 135.14 C 334.06 156.77 325.41 178.20 317.49 199.91 C 301.12 244.53 284.84 289.18 267.68 333.51 C 265.93 338.54 263.89 343.47 262.18 348.52 C 285.38 314.54 304.75 278.15 325.36 242.58 C 347.96 202.34 373.06 163.53 400.14 126.18 C 408.72 114.49 417.54 102.98 426.84 91.84 C 429.89 87.94 433.01 83.72 437.76 81.80 C 442.36 79.21 447.84 80.26 452.88 80.11 C 458.00 83.55 459.60 89.62 461.67 95.04 C 463.19 103.34 458.99 111.01 456.48 118.66 C 447.14 142.19 435.85 164.89 426.23 188.31 C 411.99 222.26 399.30 256.82 385.69 291.01 C 374.44 319.24 363.54 347.85 357.84 377.79 C 371.50 366.20 383.62 352.99 396.50 340.59 C 406.49 330.52 416.45 320.41 427.05 310.98 C 438.61 298.87 449.23 285.91 460.34 273.40 C 470.41 261.77 480.70 250.33 490.58 238.54 C 493.34 235.34 495.25 231.09 499.26 229.21 C 503.31 226.79 508.27 227.61 512.73 227.42 C 517.68 231.36 520.21 237.93 520.16 244.13 C 510.67 261.15 500.07 277.53 490.58 294.56 C 480.32 312.69 470.78 331.21 461.58 349.90 C 456.18 361.30 450.98 372.87 447.67 385.07 C 462.71 375.03 476.02 362.59 489.09 350.14 C 508.69 330.97 526.55 310.09 543.55 288.61 C 551.06 280.09 557.52 270.65 565.73 262.75 C 571.70 256.40 578.30 250.61 585.51 245.69 C 590.56 242.27 595.40 238.35 601.19 236.20 C 604.25 235.60 607.43 236.33 610.50 235.60 C 614.65 234.41 616.95 239.16 619.10 241.83 C 620.50 246.46 623.65 250.87 622.44 255.93 C 618.66 263.99 610.77 268.57 604.39 274.31 C 592.47 284.90 582.62 297.53 573.01 310.17 C 565.58 319.72 558.61 329.61 551.47 339.37 C 542.88 351.81 534.23 364.37 528.13 378.27 C 544.13 367.91 557.63 354.27 572.07 341.94 C 575.09 339.62 578.47 337.81 581.59 335.62 C 584.07 333.32 585.89 330.44 587.95 327.79 C 598.29 314.85 608.28 301.64 618.34 288.49 C 631.08 272.02 642.86 254.83 654.50 237.57 C 665.34 220.49 675.82 203.16 685.65 185.47 C 697.59 164.48 708.57 142.90 717.51 120.45 C 720.17 115.02 721.76 109.04 724.83 103.84 C 727.63 101.47 727.86 96.93 731.68 95.73 C 735.68 93.17 740.58 94.42 745.04 93.98 C 749.36 97.01 750.79 102.12 752.57 106.79 C 753.06 108.56 752.94 110.48 752.12 112.13 C 749.58 117.86 747.41 123.74 744.84 129.45 C 744.39 130.45 743.95 131.44 743.52 132.44 C 731.74 162.32 718.71 191.68 706.11 221.21 C 695.04 246.64 683.87 272.02 672.15 297.15 C 680.80 287.78 688.87 277.87 698.24 269.20 C 703.69 263.90 709.16 257.75 716.90 256.05 C 720.61 256.05 724.34 255.75 728.05 256.00 C 732.05 258.53 734.52 262.81 735.79 267.29 C 738.52 272.98 737.57 279.56 736.19 285.48 C 732.27 301.56 726.24 317.02 721.48 332.85 C 715.04 352.92 708.75 373.12 705.51 394.00 C 720.58 383.10 733.69 369.81 747.24 357.14 C 755.16 350.04 761.91 341.58 771.00 335.87 C 776.55 331.51 781.35 326.25 787.13 322.18 C 789.09 319.68 792.46 318.19 793.39 315.00 C 793.79 315.00 794.60 314.99 795.00 314.99 C 795.00 314.59 795.00 313.78 795.00 313.37 C 797.11 312.86 798.85 311.12 799.37 309.00 C 799.69 309.00 800.31 309.00 800.63 309.00 C 801.82 305.08 806.10 303.54 808.53 300.55 C 816.62 290.95 825.13 281.63 834.72 273.50 C 840.30 268.75 846.71 264.90 853.65 262.52 C 859.33 261.00 865.27 260.83 871.13 261.09 C 874.71 261.51 877.71 263.59 880.76 265.32 C 881.14 265.70 881.91 266.45 882.29 266.83 C 883.35 266.99 884.40 267.24 885.45 267.56 C 886.84 268.49 888.13 269.60 889.67 270.33 C 890.81 273.43 894.52 274.75 895.37 278.00 C 895.72 278.00 896.42 278.00 896.77 278.00 C 896.98 279.65 897.56 281.20 898.17 282.75 C 899.09 283.61 900.02 284.49 900.97 285.36 C 901.00 285.87 901.07 286.90 901.10 287.41 C 902.16 288.49 901.91 290.06 902.18 291.43 C 903.65 293.46 902.76 296.10 903.04 298.41 C 904.26 299.44 904.28 300.49 903.10 301.57 C 902.87 303.24 903.39 305.19 902.14 306.58 C 902.07 307.04 901.92 307.95 901.84 308.41 C 900.88 309.96 900.99 311.85 900.36 313.53 C 900.05 314.83 899.47 315.97 898.10 316.37 C 897.94 317.74 898.08 319.22 897.33 320.45 C 892.71 329.17 887.41 337.53 881.47 345.40 C 879.15 348.39 876.03 351.09 875.32 355.00 C 873.07 366.20 869.16 377.28 870.16 388.86 C 870.52 389.12 871.24 389.62 871.60 389.87 C 875.58 391.44 879.79 390.18 883.64 388.85 C 893.40 383.04 902.86 376.75 912.07 370.11 C 913.25 369.24 914.24 368.09 914.74 366.69 C 925.79 341.72 940.52 318.65 954.75 295.43 C 961.42 284.99 967.96 274.41 976.04 264.98 C 980.17 260.55 985.13 256.65 991.04 254.99 C 994.70 254.19 998.48 254.51 1002.20 254.12 C 1007.63 255.74 1010.83 261.32 1012.43 266.45 C 1016.85 276.40 1014.00 287.71 1010.20 297.39 C 1001.05 321.34 984.73 341.80 966.53 359.54 C 957.22 368.66 946.94 376.74 936.81 384.88 C 933.90 392.35 931.93 400.19 930.76 408.12 C 933.51 408.16 936.36 408.27 939.00 407.30 C 947.07 405.04 954.89 402.02 962.60 398.75 C 965.85 397.26 969.16 395.89 972.36 394.26 C 979.32 391.07 985.48 385.48 993.30 384.49 C 992.67 384.02 992.05 383.56 991.44 383.10 C 994.03 382.66 996.59 380.65 998.05 378.56 C 998.46 378.60 999.28 378.67 999.69 378.71 C 999.39 378.06 999.10 377.42 998.80 376.79 C 999.61 376.53 1001.22 376.01 1002.02 375.76 C 1001.98 375.30 1001.89 374.40 1001.84 373.94 L 1003.91 374.00 C 1003.68 373.54 1003.24 372.62 1003.02 372.15 C 1003.82 372.11 1005.43 372.02 1006.24 371.98 L 1004.91 369.72 C 1005.74 370.07 1007.39 370.76 1008.22 371.11 C 1008.04 370.67 1007.68 369.78 1007.50 369.33 C 1015.14 365.47 1019.80 357.82 1025.88 352.05 C 1031.03 307.76 1038.76 263.66 1050.76 220.66 C 1058.10 193.65 1067.25 167.14 1078.41 141.47 C 1083.91 129.64 1089.50 117.76 1096.79 106.90 C 1102.52 98.81 1108.44 90.55 1116.57 84.68 C 1116.74 84.22 1117.10 83.30 1117.28 82.84 C 1117.25 83.28 1117.19 84.14 1117.16 84.57 C 1120.91 82.81 1124.88 81.35 1129.08 81.34 C 1132.37 81.38 1135.88 80.46 1138.97 82.04 C 1143.94 84.64 1147.33 89.46 1149.30 94.61 C 1153.69 102.71 1153.83 112.05 1154.86 120.94 C 1154.79 126.92 1155.36 132.99 1154.15 138.89 C 1153.83 142.02 1154.06 145.17 1153.80 148.31 C 1152.43 150.42 1153.16 153.01 1152.92 155.36 C 1150.76 158.99 1152.89 163.64 1151.43 167.58 C 1148.46 188.64 1145.57 209.77 1140.27 230.42 C 1134.63 253.34 1127.56 276.04 1117.17 297.30 C 1107.70 316.71 1094.61 334.16 1079.91 349.88 C 1072.31 358.71 1063.65 366.51 1055.01 374.28 C 1053.84 378.76 1053.78 383.42 1053.01 387.98 C 1053.18 390.99 1051.03 393.29 1049.71 395.79 C 1052.30 396.13 1054.94 396.56 1057.53 395.91 C 1060.19 394.48 1062.92 393.17 1065.59 391.77 C 1073.07 387.30 1080.29 382.43 1087.62 377.73 C 1088.58 377.03 1089.59 376.36 1090.61 375.72 C 1091.58 375.02 1092.58 374.35 1093.62 373.72 C 1094.59 373.03 1095.60 372.37 1096.63 371.74 C 1114.17 360.05 1131.19 347.60 1148.61 335.73 C 1151.90 333.33 1155.27 331.03 1158.64 328.73 C 1159.61 328.04 1160.61 327.38 1161.64 326.74 C 1169.77 320.95 1178.18 315.38 1185.28 308.29 C 1188.05 306.10 1187.86 301.97 1190.61 299.76 C 1192.71 298.07 1193.26 294.83 1196.06 293.98 C 1200.33 291.37 1205.43 292.34 1210.17 292.12 C 1214.83 294.01 1216.55 299.16 1218.39 303.44 C 1219.86 306.39 1218.18 309.57 1217.27 312.41 C 1214.57 321.64 1211.37 330.72 1208.19 339.79 C 1209.55 338.90 1211.02 338.07 1212.47 337.27 C 1215.21 335.80 1217.88 334.18 1220.63 332.71 C 1223.51 331.16 1226.47 329.76 1229.38 328.27 C 1231.79 327.09 1234.19 325.87 1236.62 324.70 C 1239.52 323.17 1242.59 322.01 1245.62 320.72 C 1247.26 320.00 1248.94 319.36 1250.62 318.71 C 1251.86 318.19 1253.14 317.77 1254.41 317.25 C 1259.04 315.48 1263.76 313.94 1268.59 312.78 C 1273.53 309.85 1279.37 309.77 1284.90 310.03 C 1287.75 312.06 1290.38 314.47 1294.07 314.76 C 1294.63 316.20 1295.24 317.62 1295.86 319.05 C 1294.58 320.11 1293.18 321.06 1292.15 322.36 C 1292.29 330.64 1288.35 338.14 1285.69 345.76 C 1284.13 349.76 1282.70 353.89 1280.17 357.40 C 1278.72 363.47 1278.21 369.84 1275.63 375.59 C 1274.98 377.33 1274.04 379.04 1274.01 380.94 C 1273.90 385.02 1272.62 388.98 1272.95 393.09 C 1287.21 384.83 1299.34 373.52 1311.24 362.24 C 1324.50 348.30 1337.86 333.96 1346.51 316.58 C 1349.88 310.35 1352.16 303.59 1355.61 297.41 C 1357.72 294.88 1359.67 292.22 1361.77 289.68 C 1366.72 285.66 1373.30 286.45 1379.24 286.18 C 1383.12 287.94 1385.67 291.85 1387.03 295.81 C 1389.88 300.41 1388.66 305.95 1388.00 310.98 C 1388.04 313.69 1386.28 316.13 1386.80 318.85 C 1387.47 324.62 1386.11 330.32 1384.69 335.87 C 1395.90 324.32 1406.36 312.06 1417.74 300.66 C 1422.17 296.10 1426.28 291.25 1430.78 286.75 C 1431.53 285.94 1432.41 285.09 1432.55 283.91 C 1435.23 251.50 1438.96 219.13 1445.33 187.18 C 1453.73 145.99 1466.32 105.46 1484.73 67.60 C 1490.80 54.31 1498.10 41.57 1506.77 29.80 C 1511.30 24.14 1515.45 17.77 1521.94 14.13 M 1497.19 115.26 C 1482.44 156.43 1472.98 199.38 1467.19 242.66 C 1480.72 219.43 1491.54 194.75 1500.52 169.44 C 1513.95 131.02 1525.46 91.30 1527.02 50.43 C 1515.02 71.01 1505.45 92.95 1497.19 115.26 M 1123.88 115.79 C 1111.00 135.96 1102.62 158.52 1094.19 180.80 C 1084.70 207.65 1077.20 235.18 1070.95 262.95 C 1066.39 282.43 1063.41 302.25 1060.03 321.93 C 1093.19 282.90 1110.22 232.84 1118.53 182.95 C 1121.98 160.77 1125.60 138.29 1123.88 115.79 M 848.44 301.64 C 841.79 308.35 835.19 315.18 829.62 322.84 C 810.94 345.48 795.16 371.00 786.35 399.16 C 807.35 383.92 825.26 364.94 843.46 346.56 C 844.70 345.61 846.13 344.69 846.38 343.00 C 846.68 343.00 847.30 343.00 847.61 343.00 C 848.04 341.74 848.79 340.64 849.63 339.61 C 850.72 337.18 853.31 335.84 854.32 333.36 C 855.30 331.36 856.67 329.59 857.76 327.65 C 857.99 327.14 858.45 326.11 858.68 325.60 C 859.34 324.26 860.02 322.93 860.76 321.63 C 861.88 319.70 861.88 317.43 862.77 315.43 C 862.88 313.64 863.33 311.95 864.30 310.44 C 865.42 307.37 865.50 303.48 864.26 300.44 C 864.99 297.58 862.14 296.33 860.29 294.93 C 856.32 297.13 852.23 299.14 848.44 301.64 M 1132.73 427.73 C 1104.89 454.82 1081.80 487.31 1068.13 523.84 C 1060.65 544.55 1054.24 566.16 1054.00 588.30 C 1060.98 583.65 1066.99 577.77 1072.83 571.79 C 1101.31 543.79 1122.40 508.84 1136.55 471.63 C 1144.71 449.98 1150.59 427.57 1157.14 405.41 C 1148.80 412.63 1140.42 419.82 1132.73 427.73 M 1325.46 451.45 C 1304.32 480.66 1288.30 513.49 1277.87 547.99 C 1272.64 566.56 1268.53 585.65 1268.98 605.00 C 1268.97 611.55 1268.97 618.11 1268.99 624.67 C 1273.85 626.60 1279.23 630.24 1284.50 627.77 C 1290.37 625.47 1296.07 621.83 1299.27 616.23 C 1303.15 609.84 1306.40 603.06 1309.15 596.10 C 1313.65 585.72 1315.91 574.57 1318.74 563.67 C 1328.51 521.12 1333.14 477.63 1338.20 434.35 C 1333.95 440.05 1329.51 445.60 1325.46 451.45 M 1028.16 600.16 L 1028.16 600.83 L 1028.83 600.82 L 1028.83 600.16 L 1028.16 600.16 M 1036.92 611.43 C 1037.04 612.55 1037.17 613.68 1037.32 614.82 C 1039.09 615.12 1040.85 614.33 1042.64 614.23 C 1041.27 614.03 1039.95 613.67 1038.59 613.66 C 1037.18 613.58 1038.44 611.89 1038.92 611.40 C 1038.42 611.41 1037.42 611.42 1036.92 611.43 Z" />
<path fill="#ffffff" opacity="1.00" d=" M 526.35 160.27 C 530.39 156.70 535.98 156.38 541.11 156.30 C 546.36 157.66 548.30 163.46 549.46 168.13 C 548.18 172.95 546.27 178.06 542.37 181.35 C 539.08 182.07 536.73 184.62 533.64 185.74 C 530.50 186.35 526.88 187.99 523.97 185.82 C 521.16 182.09 521.12 177.37 519.75 173.08 C 519.59 167.92 523.04 163.81 526.35 160.27 Z" />
<path fill="#ffffff" opacity="1.00" d=" M 1210.36 222.23 C 1215.76 218.20 1222.69 218.83 1229.03 219.03 C 1235.85 221.32 1239.58 228.32 1240.86 234.99 C 1240.02 239.32 1236.98 242.97 1233.71 245.78 C 1231.64 247.76 1228.54 247.63 1226.31 249.24 C 1221.22 252.68 1214.84 253.35 1208.87 252.99 C 1207.19 253.07 1205.77 252.09 1204.30 251.49 C 1203.86 246.55 1200.83 241.99 1202.02 236.98 C 1202.74 231.07 1206.62 226.54 1210.36 222.23 Z" />
<path fill="#ffffff" opacity="1.00" d=" M 6.35 277.35 C 6.67 277.67 6.67 277.67 6.35 277.35 Z" />
<path fill="#ffffff" opacity="1.00" d=" M 1525.51 303.24 C 1530.49 301.32 1535.86 302.20 1541.07 301.86 C 1546.26 301.67 1550.46 305.35 1553.78 308.93 C 1556.05 311.69 1559.98 313.03 1561.19 316.64 C 1562.33 319.63 1564.74 322.60 1563.69 325.97 C 1561.59 331.50 1559.03 336.87 1556.08 341.99 C 1553.76 345.90 1553.26 350.52 1552.49 354.91 C 1550.96 362.79 1550.49 370.81 1551.08 378.83 C 1566.87 368.94 1575.54 351.71 1583.32 335.45 C 1586.28 329.24 1589.08 322.97 1591.62 316.58 C 1592.97 313.20 1595.92 310.89 1597.88 307.89 C 1602.31 303.97 1608.57 305.19 1614.00 304.63 C 1618.74 306.99 1620.20 312.32 1622.11 316.83 C 1624.29 314.37 1626.14 311.63 1628.40 309.23 C 1632.92 306.11 1638.58 306.59 1643.80 306.38 C 1648.95 308.43 1651.26 314.00 1652.89 318.92 C 1653.58 332.91 1647.45 346.13 1646.62 359.98 C 1664.30 343.84 1678.45 324.26 1696.64 308.64 C 1700.37 303.93 1706.64 303.70 1712.14 303.70 C 1717.68 302.39 1721.77 307.83 1723.53 312.40 C 1727.25 319.35 1725.99 327.51 1725.02 334.97 C 1724.97 341.05 1724.87 347.13 1724.61 353.20 C 1724.85 357.22 1724.66 362.08 1728.27 364.77 C 1734.10 368.86 1741.03 371.17 1748.06 372.09 C 1762.74 374.61 1777.56 371.95 1792.01 369.25 C 1800.06 368.26 1808.02 366.59 1815.98 365.04 C 1823.70 365.39 1831.32 363.89 1839.04 363.98 C 1850.92 362.04 1862.21 356.07 1874.50 357.06 C 1878.44 360.17 1881.29 364.86 1881.64 369.90 C 1880.42 371.04 1879.40 372.37 1878.11 373.41 C 1875.94 374.14 1873.54 374.36 1871.77 375.93 C 1868.93 378.26 1865.16 378.69 1861.77 379.71 C 1855.29 381.52 1848.69 382.94 1842.36 385.22 C 1840.70 385.93 1839.02 386.57 1837.38 387.27 C 1835.73 387.98 1834.07 388.63 1832.42 389.27 C 1823.07 394.38 1812.70 396.83 1802.43 399.30 C 1793.62 401.67 1784.61 403.14 1775.62 404.52 C 1769.68 405.24 1763.79 406.30 1757.77 406.09 C 1748.94 407.85 1739.89 406.59 1731.11 405.22 C 1717.31 402.91 1704.63 392.83 1701.05 379.03 C 1699.50 371.70 1696.60 364.56 1696.65 356.97 C 1696.61 350.01 1696.78 343.05 1697.38 336.12 C 1689.06 346.16 1680.00 355.57 1671.09 365.10 C 1663.97 371.65 1656.86 379.01 1647.53 382.28 C 1645.21 383.52 1642.87 384.73 1640.47 385.78 C 1636.45 387.08 1632.22 387.26 1628.05 387.33 C 1623.87 386.85 1623.09 381.95 1622.79 378.58 C 1619.39 372.11 1622.20 364.91 1622.03 358.08 C 1616.69 367.23 1611.43 376.49 1604.71 384.71 C 1601.72 387.72 1599.00 391.83 1594.38 392.21 C 1590.38 395.28 1584.96 396.54 1580.04 395.66 C 1577.64 393.85 1578.32 390.40 1577.30 387.89 C 1573.79 390.62 1570.28 393.48 1566.10 395.14 C 1563.47 396.14 1560.94 397.35 1558.53 398.77 C 1551.74 401.82 1544.24 402.58 1536.89 401.87 C 1530.96 399.90 1527.27 394.13 1525.79 388.32 C 1524.98 386.14 1525.27 383.62 1523.85 381.70 C 1517.37 387.41 1510.57 393.21 1502.37 396.22 C 1501.02 396.91 1499.69 397.61 1498.37 398.29 C 1491.71 401.77 1484.13 402.54 1476.75 402.03 C 1472.81 399.45 1470.89 395.03 1470.37 390.50 C 1467.23 382.55 1468.83 373.66 1471.89 365.93 C 1478.19 348.23 1489.87 333.12 1502.30 319.29 C 1507.31 313.88 1513.04 309.07 1519.61 305.67 C 1521.53 304.76 1523.52 304.03 1525.51 303.24 M 1522.23 332.22 C 1509.85 344.57 1500.19 359.78 1495.10 376.56 C 1505.92 368.67 1515.23 358.83 1523.05 347.98 C 1524.31 346.15 1525.65 344.26 1526.01 342.01 C 1527.20 336.02 1529.42 330.32 1531.32 324.53 C 1528.07 326.82 1525.02 329.39 1522.23 332.22 Z" />
</g>
</svg>
